<svg xmlns="http://www.w3.org/2000/svg" viewBox="0 0 565.2 565.2">
  <g id="zone-1" data-color-id="WT000">
    <rect class="st3" x="-.8" y="-.8" width="566.9" height="566.9" fill="#e9e0d4"/>
  </g>
  <g id="zone-2" data-color-id="GN003">
    <path class="st1" d="M465.6,446.2c-21.3,47.6-58.4,77.7-107.2,92.4-31.5,9.5-64.1,10.3-97.1,3.8-51.5-10.2-74-45.6-83.9-92.5-7.5-35.4-11.8-71.5-21.2-106.3-10.1-37.4-42.8-48.7-76.6-56.7-20.6-4.8-44.7-8.1-56.3-26.1-13.1-20.2-17.4-47.1-6-69.4,29.9-58.7,93.4-119,176.5-90.7,31.2,10.6,45.9,39.8,58.8,68.3,26.4,58,75.5,86.8,133.5,104.1,25.4,7.6,48.9,18.8,68.6,37.1,11.7,12.5,16.5,28.8,20.2,44.2,7.5,31.1,4.6,62.3-9.3,91.7ZM383.9,452.1c23-19.5,42.3-44,42.5-73.5.2-23.8-27.9-32.1-45.2-45.5-9.8-8.6-21.6-13-34.1-14.4-42.4-4.6-89.3,25.7-107.6,69.1-11,26.1-15.4,54.5,6.6,75.1,32.4,30.4,108.2,22.4,137.8-10.9Z" fill="#7b9675"/>
  </g>
  <g id="zone-3" data-color-id="BL002">
    <path class="st0" d="M465.6,446.2c14-29.5,16.9-60.6,9.3-91.7-3.7-15.4-8.5-31.8-20.2-44.2,16.7-36.4,3.3-76.1-35.4-102.9-30.6-21.2-64-37.8-96-56.7-20.2-11.9-36.3-31.7-34.5-57.3,2.3-32.6,21.9-52.2,54.5-57,28.6-4.2,47.3,13.2,60.8,34.2,19.9,31,49.6,47.3,81.6,61.1,36.3,15.7,68.1,67.9,69.5,107.3,1.5,39.6,3.4,78.7-5.5,117.9-8.5,37.3-55.4,88.5-84,89.2Z" fill="#0085b3"/>
    <path class="st0" d="M383.9,452.1c-18.5,0-37.2,1.5-55.6-.3-29-2.7-42.4-35.2-27.3-64.6,13.8-26.9,36.4-43.2,65.3-50.9,4.9-1.3,9.9-2.1,14.8-3.2,17.3,13.3,45.4,21.6,45.2,45.5-.2,29.5-19.5,53.9-42.5,73.5Z" fill="#0085b3"/>
  </g>
  <g id="zone-4" data-color-id="RD001">
    <path class="st2" d="M46.1,426c-.4-26.5-14.8-51.2-9.5-78.8,4.1-21.1,14.3-38.3,34.8-41,21.8-2.8,41.1,3.8,52.1,29.2,10.1,23.1,10.6,44.8,8.1,68.6-2.3,22.5,17,37.3,23.3,56.9,20.1,63-11.4,103.1-77.4,97.2-64.4-5.7-63.5-45.6-41-90.5,6.5-13,9.9-27,9.5-41.7Z" fill="#964340"/>
    <path class="st2" d="M231.4,77.5c-45.2,5.6-96-12.6-148.4-14.7-14.1-.6-27.6,4.5-39.1,13.5-7.6,6-16.6,5.3-24,1.2-3.7-2-7.3-9.5-6.4-13.5,2.6-11.9,11.6-19.2,22.3-24.9,45.7-24.5,91-6.4,136.5.3,23.8,3.5,47.7,4.1,71.2-2.4,3.9-1.1,7.6-3.9,10.6-6.7,6.8-6.2,14.5-7.6,21.5-2,10.4,8.1,8,19.7,2.8,28.7-8.3,14.4-22.5,20.4-47,20.4Z" fill="#964340"/>
  </g>
  <g id="zone-5" data-color-id="YL001">
  </g>
</svg>