<svg xmlns="http://www.w3.org/2000/svg" viewBox="0 0 565.2 565.2">
  <g id="zone-1" data-color-id="WT000">
    <rect class="st3" x="-.8" y="-.8" width="566.9" height="566.9" fill="#e9e0d4"/>
  </g>
  <g id="zone-2" data-color-id="GN003">
  </g>
  <g id="zone-3" data-color-id="BL002">
    <path class="st0" d="M140,259.8c-4.3,59.7,38.9,91.4,83.9,99.7,44.5,8.2,89.6,12.7,134.6,16.8,17,1.5,35-1.6,48.2,12,14.8,15.3,8.8,36.7,9.4,55.6,1,29.3,1.5,58.7,0,87.9-1,18.6-11.5,23.3-29.7,21.5-32.8-3.2-66-1.2-99-1.7-42.5-.7-85-3.1-127.4-2.2-36.3.8-72.1-3.5-108.1-6.4-7.8-.6-11.2-1.8-13-11.4-15.4-82.3-15.1-165.9-16.7-249.2-1.4-68.7.5-137.4.7-206.2.2-53,2.4-42.3,49.9-49.8,54.2-8.6,108.3,1.6,162.4,0,12.3-.4,24.5-3.3,36.9,1.3,9.6,3.6,14.3,10.9,12.3,20.3-1.8,8.4-4.4,17.6-16.4,18.5-50.2,3.9-76.7,42-100.4,83.5-9.4,16.5-12.7,35.5-17.5,53.8-4.8,18.2-10.3,36.3-9.8,55.6ZM132.9,370c-38.1,1.2-62,26.4-60.6,63.5,1.2,32.2,35.1,52.7,84.7,51.3,19.9-.6,43.4-29.5,42.4-52.2-1.6-37.8-29.2-63.8-66.5-62.6Z" fill="#0085b3"/>
  </g>
  <g id="zone-4" data-color-id="RD001">
    <path class="st2" d="M370.3,283.3c-43.3.6-84.3,8.6-125,.3-24.3-5-50.3-8.8-66.9-30.2-12.9-16.6-6.9-67.2,8.1-85.9,34.6-43.1,77.8-63.3,134.5-58.3,32.2,2.8,64.4,5.7,95.2,14.2,43.2,11.8,79.1,49.3,58.8,99.6-12.9,32.1-43.6,51-80.2,55.3-9,1.1-17.8,3.6-24.4,5Z" fill="#964340"/>
    <path class="st2" d="M132.9,370c37.3-1.2,65,24.8,66.5,62.6.9,22.7-22.5,51.6-42.4,52.2-49.6,1.5-83.4-19-84.7-51.3-1.4-37.2,22.5-62.3,60.6-63.5Z" fill="#964340"/>
  </g>
  <g id="zone-5" data-color-id="YL001">
    <path class="st1" d="M447.3,119.2c-28.1,3-40-21.9-58.9-34.8-13.4-9.1-27.8-4.8-41.2-1.2-7.3,1.9-13.9,4.8-20.7,1.2-15.9-8.6-28.4-20.9-25.5-40.2,4.3-29.1,48.1-45.8,74.3-26.8,27.8,20.2,56.6,31.8,91.2,36.8,56.5,8.3,80.2,49.3,88.5,91.5,6.7,34.2-8.5,65.7-17.3,98.1-6.4,23.9-4.8,48.9-.8,74,4.1,25.7,7.6,53.1-10.1,76.2-15.4,20.2-8.4,40-2,60.7,4.4,14.3,4.3,30.9-6.1,41.3-19.8,19.9-38.6,14.4-58.1-5.2-28.4-28.5-19.3-87.3,5.3-114.3,15.1-16.6,12.6-36.8,8.5-56.9-8-38.6,5.5-73.7,15.8-110,7.5-26.4,16.3-56.1-8-80.3-9.2-9.1-22.3-9.1-34.8-10Z" fill="#dc9b54"/>
  </g>
</svg>