<svg xmlns="http://www.w3.org/2000/svg" viewBox="0 0 565.2 565.2">
  <g id="zone-1" data-color-id="WT000">
    <rect class="st4" x="-.8" y="-.8" width="566.9" height="566.9" fill="#e9e0d4"/>
  </g>
  <g id="zone-2" data-color-id="GN003">
    <path class="st3" d="M228.8,297.3c13.1-31.6-19.8-44-28.4-66.6-5.5-14.3-11-28.3-9.8-43.5,1.9-23.6-21-31.2-29.4-48.3-14.7-29.8-29.9-58.7-16.3-93.1h0c.3-.2.6-.5.9-.8,42.9-59.2,126.3-48,176.3-13.7,24.9,17.1,54.3,4.6,80.3,12.2,38.8,11.4,65,36.7,74.3,76.7,8.5,36.7,23.8,70,42.6,102.6,15,25.9,6.9,57.5,12.2,86,4.5,24.1-.3,45.2-13.4,64.3-21.5,31.3-53.2,22.3-63.2-14-7.3-26.8-6.1-53,1-78.3,7.7-27-11.6-38.6-23.6-55.8-15.3-21.8-24.6-46.6-26.1-73.7-1.2-20.4-28.8-44-51.2-37.8-37.7,10.5-62.3-3.1-84-32.2-11.6-15.5-49.1-14.1-60.5,1.6-5.8,8,1.6,16.9,8.1,20.9,27.5,17.1,38.7,40.8,37.9,73.2-.7,25.5,17.1,43.3,34.4,59.7,16.8,15.8,24.4,34.9,17.4,56.6-7.3,22.9-22.8,39.3-49.3,37.2-19.3-1.5-23.4-19.3-30.2-33.5Z" fill="#7b9675"/>
  </g>
  <g id="zone-3" data-color-id="BL002">
    <path class="st0" d="M314.9,180.7c31.2-1.8,64.8,38.4,68.7,70.5,4.4,36.4,5,71.5-10.7,104-19.2,39.7-54.5,60.1-97,69.2-27.5,5.9-58.7-6-60.6-26-1.5-15.6,9.3-25.7,24-21.2,50.2,15.2,97.4-12.2,104-65.1,3.8-30.1,6.2-62.5-20.3-85.5-11.3-9.8-26.4-15.4-24.2-33.9,1.1-9.3,8.2-11.4,16.1-11.9Z" fill="#0085b3"/>
  </g>
  <g id="zone-4" data-color-id="RD001">
    <path class="st2" d="M228.8,297.3c-9,42.6-17.3,85.2-35.6,125.2-19.9,43.5-37.1,88.2-70,124.6-13.5,14.9-26.1,12.7-37.2-11.3-13.8-29.9-28.6-59.8-38.5-91.1-17.1-54.3-21.6-110.5-16.2-167.5,4-41.8,8.7-83.8,24-123,17.7-45.4,48.4-81.7,89.6-108.5-13.6,34.4,1.6,63.4,16.3,93.1,8.4,17.1,31.3,24.7,29.4,48.3-1.2,15.2,4.4,29.2,9.8,43.5,8.6,22.6,41.5,34.9,28.4,66.6Z" fill="#964340"/>
  </g>
  <g id="zone-5" data-color-id="YL001">
    <path class="st1" d="M284.7,458.3c18.9-1.4,35.2,8.2,52.6,12,.9.2,1.8.5,2.7.8-.2-1-.2-2.1-.5-3.1-3.4-9.6-6.8-19.2-10.2-28.8-1.9-5.4-2.2-11,4.1-12.8,7.7-2.1,13,.2,18.1,8.4,13.6,21.8,15,56.3,53.2,54.5,4.9-.2,5.3-1.5,3.2-4.9-10-16.5-20.4-32.9-29.9-49.7-1.6-2.8-1.3-8.8.7-11.1,4.2-5,10.7-5.7,15.7-.8,18.4,18.3,31.2,40.5,41.7,64,.5,1.1,1.5,3.1,1.9,3,6-1.2,11.9-2.6,17.8-4-.8-1.6-1.6-3.3-2.4-4.9-10-18.5-20.3-36.9-30.1-55.5-3.3-6.2,1.1-9.5,6-12.6,5.1-3.4,8.8-.7,11.5,2.6,14.9,17.6,29.2,35.5,34,59,0,.1,6.4-.9,9.7-1.6,41.8-8.2,54.4,6.5,40.9,47.8-10,30.5-51.1,46.4-91.1,39.8-40.2-6.6-74.4-30.1-114.6-36.1-29.5-4.3-54.4,8.6-80.7,16.8-30.3,9.4-58.9-6.3-54.9-31.4,2.7-17.2,39.2-42.9,64.1-45.7,12.3-1.4,24.4-3.8,36.6-5.7Z" fill="#dc9b54"/>
  </g>
</svg>