<?xml version="1.0" encoding="UTF-8"?>
<svg id="Layer_1" xmlns="http://www.w3.org/2000/svg" version="1.1" viewBox="0 0 565.2 565.2">
  <!-- Generator: Adobe Illustrator 29.8.5, SVG Export Plug-In . SVG Version: 2.1.1 Build 2)  -->
  <defs>
    <style>
      .st0 {
        fill: #52c5d6;
      }

      .st0, .st1, .st2, .st3 {
        fill-rule: evenodd;
      }

      .st1 {
        fill: #168140;
      }

      .st2 {
        fill: #e7f400;
      }

      .st3 {
        fill: #cd2f27;
      }

      .st4 {
        fill: #f5ffbb;
      }
    </style>
  </defs>
  <rect class="st4" x="-.8" y="-.8" width="566.9" height="566.9"/>
  <path class="st0" d="M59.7,185.1c-10.1-30.6-18.3-61.4-13.6-94.3,3-21.4,12.9-38.5,32.5-47.4,26.4-11.9,48.2-1.4,65.1,19.1,30.3,36.6,22.9,80.3,21.1,122.8-.8,18.2-2,36.4,4.4,54.2,7.2,20,22.2,28.4,40.7,23,19.3-5.6,37.1-5.3,55.5.8,5.2,5.3,9,11.2,8.9,19-.5,42.5-32,63.6-60.8,85.7-7.8,6-16.9,12.8-15.3,20.5,2.4,11.9,13.7,17.7,26.6,16.2,45.8-5.1,85.3-28.4,127.1-44.9,29.2,1,47.1,19.1,62.1,41.4,19.7,29.2,15.7,66.4-10.3,94.8-31.3,34.2-70.3,26.3-109,19.8-44.6-7.5-87.1-6.4-127.3,19.4-29.5,18.9-63.8,26.1-93.8,3.1-21.7-16.7-23.8-45.3-25.2-71.6-.7-12.3.1-24.6.2-36.9,31.3-80.4,48.6-161.4,11-244.8ZM155,452.6c3.3-16.6-5.6-19.5-19.1-19.7-26.8-.3-42.7,10.6-40.9,39,1,15.2,8,30.8,25.2,28.6,26.5-3.3,31.7-26.1,34.8-47.9ZM103.3,85c-4.7-.6-26.8,3.2-27.4,20.2-.5,14.3,10.3,22.6,23.4,24.1,14.7,1.7,28.8-5.8,31.1-19.9,2.7-16.7-22.4-23.8-27.1-24.4Z"/>
  <path class="st3" d="M351.9,360c-41.8,16.5-81.3,39.8-127.1,44.9-12.9,1.4-24.2-4.4-26.6-16.2-1.6-7.8,7.5-14.5,15.3-20.5,28.8-22.1,60.3-43.1,60.8-85.7,0-7.9-3.6-13.8-8.9-19,46.7-29.7,63.1-82.6,95.2-123.3,24.1-30.5,46.9-66.3,90.5-74.7,10.1-1.9,20.4-3.3,30.7-3.6,11.7-.3,20,7.7,26.7,15.9,6.3,7.7-3.3,11.4-6.8,16.3-15.1,20.9-14.3,48.4-28,69.2-35.5,54.1-44.5,122.4-91.9,169.9-9.5,9.5-20,17.9-30,26.8Z"/>
  <path class="st1" d="M221.5,139.9c-.5-43.2,19.2-70.7,42.8-96.5,2.8-3,4-7.5,6.4-10.9,3.6-5.2,3.5-15.9,13.3-12.8,9.4,2.9,14.9,12.1,11.3,21.1-16.6,41.2,4.8,77,14.8,114.4,4.8,17.8,1.3,34.4-10.1,48-10,12-26.2,11.8-37.5,5.1-19.4-11.5-32.6-29.8-38.2-52.4-1.8-7.2-2.5-14.6-2.7-16Z"/>
  <path class="st3" d="M59.7,185.1c37.6,83.5,20.3,164.5-11,244.8-17.3-10.2-20.4-28.1-24-45.3-9.4-44.3-14.4-89.3-1.2-133.2,7.2-23.9,17.5-47.8,36.3-66.3Z"/>
  <path class="st1" d="M481.7,405.2c-.2-18.9,15.6-39-6.8-53-8.7-5.5-18-10.6-27.7-13.7-8.4-2.6-6.3-6.3-5.3-12.3,4.1-22.8,23-19.2,38.4-23.4,20.8-5.6,31.2,6.4,41.8,20.4,22.5,29.4,32.9,61.9,21.4,97.7-5.2,16.1-17.7,32.3-35.5,33.6-18.6,1.4-18.8-18.7-23.5-31.7-2.1-5.9-2.1-12.6-2.8-17.6Z"/>
  <path class="st2" d="M155,452.6c-3.1,21.8-8.3,44.6-34.8,47.9-17.2,2.1-24.2-13.4-25.2-28.6-1.8-28.4,14.1-39.3,40.9-39,13.5.2,22.4,3.1,19.1,19.7Z"/>
</svg>