<?xml version="1.0" encoding="UTF-8"?>
<svg xmlns="http://www.w3.org/2000/svg" width="200mm" height="200mm" viewBox="0 0 566.93 566.93">
  <g id="zone-2">
    <path d="M566.78,493.73c-5.23-101.53-42.61-209.82-283.1-209.82S3.18,91.03.1,24.09c-.34,108.47.01,543,.01,543l567.02.07c.02-9.11.14-18.51.22-28.12v-24.01c-.08-7.05-.25-14.16-.57-21.29Z" fill="#e6b89c"/>
    <path d="M.29-.22s-.04.6-.06,1.74h.06c.02-1.14.02-1.74,0-1.74Z" fill="#e6b89c"/>
  </g>
  <g id="zone-1">
    <g>
      <path d="M567.35,515.02v-5.98c-.12-5.08-.3-10.18-.57-15.31.32,7.13.49,14.24.57,21.29Z" fill="none"/>
      <path d="M.01,1.52s-.56,8.51.09,22.56C.13,12.62.17,4.8.23,1.52H.01Z" fill="#1d355f"/>
      <path d="M283.69,282.17c242.57,0,278.47,108.18,283.09,211.56.26,5.13.45,10.23.57,15.31l.06-507.21L.29,1.52C-.02,25.11-2.76,280.56,283.69,282.17Z" fill="#1d355f"/>
      <path d="M283.67,283.91c240.5,0,277.88,108.29,283.1,209.82-4.62-103.39-40.52-211.56-283.09-211.56C-2.76,280.56-.02,25.11.29,1.52h-.06c-.05,3.28-.1,11.09-.13,22.56,3.09,66.94,33.66,259.83,283.58,259.83Z" fill="#1d355f"/>
    </g>
  </g>
</svg>