<?xml version="1.0" encoding="UTF-8"?>
<svg id="Calque_1" xmlns="http://www.w3.org/2000/svg" version="1.1" viewBox="0 0 566.9 566.9">
  <!-- Generator: Adobe Illustrator 29.8.5, SVG Export Plug-In . SVG Version: 2.1.1 Build 2)  -->
  <defs>
    <style>
      .st0 {
        fill: none;
      }

      .st1 {
        fill: #f8c8d3;
      }

      .st2 {
        fill: #026eb6;
      }

      .st3 {
        fill: #aeaed8;
      }
    </style>
  </defs>
  <path class="st0" d="M338.8,173.6c-1-2.3-2.1-4.6-3.2-6.8,1.1,2.2,2.1,4.5,3.2,6.8Z"/>
  <path class="st0" d="M342.3,182c-.8-2.2-1.7-4.4-2.7-6.5.9,2.2,1.8,4.3,2.7,6.5Z"/>
  <path class="st0" d="M330.7,157.5c-1.1-1.9-2.2-3.8-3.4-5.7,1.2,1.9,2.3,3.8,3.4,5.7Z"/>
  <path class="st0" d="M335.4,166.2c-1.2-2.5-2.5-4.9-3.8-7.3,1.3,2.4,2.6,4.8,3.8,7.3Z"/>
  <path class="st0" d="M321.8,143.5c1.6,2.2,3.1,4.5,4.5,6.7-1.5-2.3-3-4.6-4.6-6.8,0,0,0,0,0,0Z"/>
  <path class="st0" d="M347.9,199c-.6-2.2-1.2-4.3-1.9-6.4.7,2.1,1.3,4.3,1.9,6.4Z"/>
  <path class="st0" d="M345.5,191c-.9-2.6-1.8-5.2-2.7-7.8,1,2.6,1.9,5.2,2.7,7.8Z"/>
  <path class="st0" d="M319.5,418.7c5.8-2.9,11.7-5.5,17.8-7.9-6.1,2.3-12.1,4.9-17.8,7.9Z"/>
  <path class="st0" d="M190.3,9.4c-.2-1-.4-2.1-.6-3.1.2,1,.4,2.1.6,3.1Z"/>
  <path class="st0" d="M249.1,484.1c-2.9,4.5-5.2,8.2-7.6,12.5,3.9-6.8,8.2-13.6,12.9-20.3-1.8,2.6-3.6,5.3-5.3,7.8Z"/>
  <path class="st0" d="M191.5,14c-.3-.9-.5-1.8-.7-2.8.2.9.5,1.8.7,2.8Z"/>
  <path class="st0" d="M192.8,18.4c-.3-.9-.6-1.7-.8-2.6.3.9.5,1.7.8,2.6Z"/>
  <path class="st0" d="M299.2,118.7c2.8,2.3,5.4,4.8,8,7.4-2.6-2.6-5.2-5-8-7.4Z"/>
  <path class="st0" d="M349.4,295.9c2.2-7.7,3.7-15.6,4.6-23.7-1.3,11.3-3.8,22.5-7.6,33.2,1.1-3.1,2.1-6.3,3-9.5Z"/>
  <path class="st0" d="M396.2,248.2c11.8-15.4,21.6-30.9,29.3-45.8-7.7,14.9-17.5,30.4-29.3,45.8-30.8,25.8-50.1,58-50.1,58,0,0,19.3-32.3,50.1-58Z"/>
  <path class="st0" d="M425.5,202.4c5.5-10.6,10-20.9,13.6-30.7-3.5,9.7-8.1,20.1-13.6,30.7Z"/>
  <path class="st0" d="M318.9,139.6c-.7-.9-1.4-1.8-2.1-2.7.7.9,1.4,1.8,2.1,2.7Z"/>
  <path class="st0" d="M339,318c2.3-4,4.7-7.9,7.1-11.7-19.8,32.6-36.6,65.7-50.2,96.9,12.2-28.3,25.8-54.4,43.1-85.2Z"/>
  <path class="st0" d="M194.4,22.9c-.3-.9-.6-1.7-.9-2.6.3.9.6,1.7.9,2.6Z"/>
  <path class="st0" d="M204.3,42.8c-.1-.2-.3-.4-.4-.7.1.2.3.4.4.7Z"/>
  <polygon class="st0" points="215.3 57.8 215.3 57.8 215.3 57.8 215.3 57.8"/>
  <path class="st0" d="M295.2,115.5c.9.7,1.8,1.4,2.6,2.1-.9-.7-1.7-1.4-2.6-2.1,0,0,0,0,0,0Z"/>
  <path class="st0" d="M352.1,217c-1-5.4-2.2-10.7-3.6-16,1.4,5.3,2.6,10.7,3.6,16Z"/>
  <path class="st0" d="M315.6,135.5c-2.3-2.8-4.8-5.6-7.3-8.2,2.5,2.6,5,5.3,7.3,8.2Z"/>
  <path class="st0" d="M198.4,32.3c-.3-.6-.6-1.2-.8-1.8.3.6.5,1.2.8,1.8Z"/>
  <path class="st0" d="M202.3,39.6c-.2-.4-.5-.8-.7-1.2.2.4.5.8.7,1.2Z"/>
  <path class="st0" d="M196.6,28.4c-.6-1.3-1.1-2.5-1.6-3.8.5,1.3,1,2.6,1.6,3.8Z"/>
  <path class="st0" d="M200.3,36c-.3-.5-.5-1-.8-1.5.3.5.5,1,.8,1.5Z"/>
  <path class="st0" d="M355.2,254c0,2.6-.1,5.3-.3,7.9.1-2.6.2-5.2.3-7.9Z"/>
  <path class="st0" d="M238.8,501.5c-2.4,4.4-3.7,7.1-3.7,7.1,7.9-16.2,18.6-34.8,33-50.5-12.7,14.1-22.2,29.2-29.4,43.5Z"/>
  <path class="st0" d="M293.3,409.6c.8-2.1,1.7-4.2,2.6-6.4-.9,2.2-1.8,4.4-2.6,6.4Z"/>
  <path class="st0" d="M229.6,522.6c2.7-7.1,5.9-15,9.9-22.5-4,7.5-7.2,15.4-9.9,22.5Z"/>
  <path class="st0" d="M354.3,270c.2-2,.4-4,.5-6.1-.1,2-.3,4.1-.5,6.1Z"/>
  <path class="st0" d="M284.5,434.3c.4-1.2.8-2.5,1.2-3.9-.4,1.4-.9,2.7-1.2,3.9Z"/>
  <path class="st0" d="M283.5,437.6c.3-1,.6-2.1,1-3.3-.4,1.2-.7,2.3-1,3.3Z"/>
  <path class="st0" d="M289,421.1c1.3-3.5,2.7-7.3,4.3-11.4-1.6,4.1-3.1,8-4.3,11.4Z"/>
  <path class="st0" d="M287.2,426c.5-1.6,1.1-3.2,1.7-5-.6,1.7-1.2,3.4-1.7,5Z"/>
  <path class="st0" d="M282.5,441.3c.2-.7.4-1.5.7-2.4-.3.9-.5,1.7-.7,2.4Z"/>
  <path class="st0" d="M355.2,252.6c0-2.2,0-4.4,0-6.7,0,2.2,0,4.4,0,6.7Z"/>
  <path class="st0" d="M353.4,225.5c-.3-2.1-.6-4.3-1-6.4.4,2.1.7,4.3,1,6.4Z"/>
  <path class="st0" d="M354.5,235.5c-.2-2.7-.5-5.4-.9-8.1.3,2.7.6,5.4.9,8.1Z"/>
  <path class="st0" d="M355,243.7c0-2.3-.2-4.6-.4-6.9.2,2.3.3,4.6.4,6.9Z"/>
  <path class="st0" d="M337.3,410.9c1.1-.4,2.2-.8,3.2-1.2-4.2,1.5-8.2,3.1-12.1,4.8,2.9-1.3,5.9-2.5,8.8-3.6Z"/>
  <path class="st1" d="M441.1,53.5c.2.8.5,1.7.7,2.5C464.2,19.6,494.7,0,494.7,0h-81.1c13.2,15.6,22,34.4,27.5,53.5Z"/>
  <path class="st1" d="M396.2,248.2c-57.4,49.9-95.4,135.6-114.5,196.2-.7.7-1.5,1.4-2.2,2.1,70.2-65.9,185.4-46.4,251.9-118.9,11.9-13.2,27.6-26.3,35.5-42.5,0,0,0-114.3,0-114.3-52.9,7.7-122.2,35.9-170.6,77.5Z"/>
  <path class="st1" d="M443.7,439.9c-42.4,31.6-67.3,78-83.4,127h0s0,0,0,0h206.5v-165.8c-42.7-5.4-89.3,13.6-123.1,38.8Z"/>
  <polygon class="st1" points="346.1 306.3 346.1 306.3 346.1 306.3 346.1 306.3"/>
  <path class="st1" d="M349.4,295.9c-.8,2.8-1.6,5.5-2.5,8.1,1-2.7,1.8-5.4,2.5-8.1Z"/>
  <path class="st1" d="M235.1,508.6h0c.9-113.4-106.2-188.3-130.1-203.6-2.8-1.8-4.2-5.1-3.7-8.4C130.2,233.5,13.7,90.2,0,23.7v543.2h218.3c3-22.3,10.2-44.7,20.5-65.4-2.4,4.4-3.7,7.1-3.7,7.1h0Z"/>
  <path class="st2" d="M286.5,108.4c60.2,43.3,83.2,128.7,59.6,197.9,0,0,19.3-32.3,50.1-58,11.8-15.4,21.6-30.9,29.3-45.8C459.6,142.4,458.6,57,413.6,0h-224.9c5.2,56.4,57,81.4,97.9,108.4Z"/>
  <path class="st2" d="M552.1,305.1c-55.5,78-152.4,78.4-232.6,113.7,2.9-1.5,5.9-2.9,9-4.3-38.6,15.8-72.2,50.9-89.6,87.1.2-.4.5-.9.8-1.4-10.8,21-18.1,44-21.2,66.8,0,0,142,0,142,0,25.1-90.1,107.2-174.8,206.6-165.8v-116.8c-.4,6.6-11.2,16.2-14.8,20.7ZM249.1,484.1c-2.9,4.5-5.2,8.2-7.6,12.5,3-5.2,6.2-10.5,9.8-15.8-.7,1.1-1.5,2.2-2.2,3.3ZM252.4,479.3c.7-1,1.3-2,2-3-.7,1-1.4,2-2,3Z"/>
  <path class="st3" d="M441.8,56c20.4,72.3-1.7,135.7-45.5,192.2,48.4-41.6,117.8-69.7,170.6-77.5V0h-72.1s-30.5,19.6-52.9,56Z"/>
  <path class="st3" d="M355.1,245.9C345.2,73.6,208.2,116.1,188.6,0H0s0,23.7,0,23.7c11.4,35.7,27.9,71.1,50.4,109.9,48.4,83.2,61.1,106.3,51,163.1-.6,3.3.9,6.6,3.7,8.4,64.2,40.7,132.6,119.5,130.1,203.6,10-21.4,26.9-46.9,46.6-64.1,12.7-45.9,33-82.1,57.3-126.5,14.3-20.9,16.4-47.4,16.1-72Z"/>
</svg>