<?xml version="1.0" encoding="UTF-8"?>
<svg id="Calque_1" xmlns="http://www.w3.org/2000/svg" version="1.1" viewBox="0 0 566.9 566.9">
  <!-- Generator: Adobe Illustrator 29.8.5, SVG Export Plug-In . SVG Version: 2.1.1 Build 2)  -->
  <defs>
    <style>
      .st0 {
        fill: none;
      }

      .st1 {
        fill: #f8c8d3;
      }

      .st2 {
        fill: #026eb6;
      }

      .st3 {
        fill: #aeaed8;
      }
    </style>
  </defs>
  <path class="st0" d="M266.9,129.2c3.5,0,4.5,1,4.4,5,.1-4-.8-5.1-4.4-5Z"/>
  <path class="st0" d="M271.8,150.1c.1,1.6.3,3.4.5,5-.2-1.6-.4-3.4-.5-5Z"/>
  <path class="st0" d="M466.8,277.7c-24.5-7.2-49.7-1.3-75.3-4-53.6-4.9-100.9-45-115-96.8,14.2,51.9,61.4,91.9,115,96.8,25.6,2.7,50.8-3.2,75.3,4,.3.6.6,1.1.9,1.7-26.9-52-21.7-119.6-32.2-175.7,10.4,55.5,5.4,122.3,31.4,174Z"/>
  <path class="st0" d="M460.9,468.2h0s0,0,0,0c0,0,0,0,0,0Z"/>
  <path class="st0" d="M0,328.9c.7-.2,1.4-.5,2.2-.8C1.4,328.4.7,328.7,0,328.9Z"/>
  <path class="st0" d="M213.1,167.5c11.7-11.2,26-23.6,39.8-32.3-13.8,8.7-28.1,21.1-39.8,32.3Z"/>
  <path class="st0" d="M113.7,307.6s0,0,0,0c0,0,0,0,0,0Z"/>
  <path class="st0" d="M104.7,307.7s0,0,0,0c0,0,0,0,0,0Z"/>
  <path class="st0" d="M124.7,308c3.6.1,6.4,0,8.8-1.3-2.7,1.3-5.6,1.4-8.8,1.3Z"/>
  <path class="st0" d="M143.7,200c-15-1.2-29.4-6.1-42.5-13.6,25.6,15.4,61.3,19.7,86.1,2.5-12.8,7.9-26.8,12.4-43.6,11.1Z"/>
  <path class="st0" d="M134.7,305.9c.7-.5,1.3-1.1,1.9-1.8-.6.7-1.3,1.4-1.9,1.8Z"/>
  <path class="st0" d="M204.2,176c-4.4,3.9-8.8,7.5-13.5,10.6,4.6-3.2,9.1-6.7,13.5-10.6Z"/>
  <path class="st0" d="M419.7,46.3c.6,1.5,1.3,3,1.9,4.6-.6-1.5-1.2-3-1.9-4.6Z"/>
  <path class="st0" d="M124.4,308c-.6,0-1.2,0-1.8,0,.6,0,1.2,0,1.8,0Z"/>
  <path class="st0" d="M30.7,319.4s0,0-.1,0c0,0,0,0,.1,0Z"/>
  <path class="st0" d="M403.4,17c2.5,3.8,4.6,7.1,5.8,9.1-1.3-2-3.3-5.3-5.8-9.1Z"/>
  <path class="st0" d="M27.8,320.2c-.2,0-.3,0-.5.1.2,0,.3,0,.5-.1Z"/>
  <path class="st0" d="M138.6,301.1c-.3.5-.5,1-.8,1.4.3-.4.6-.9.8-1.4Z"/>
  <path class="st0" d="M137.6,302.9c-.2.3-.4.6-.7.9.2-.3.4-.6.7-.9Z"/>
  <path class="st0" d="M134.6,306.1c-.3.2-.6.4-1,.6.3-.2.6-.4,1-.6Z"/>
  <path class="st0" d="M422.6,53.5c1.2,3.2,2.3,6.5,3.4,9.8-1-3.3-2.2-6.6-3.4-9.8Z"/>
  <path class="st0" d="M9.4,325.7c-.4.1-.9.3-1.3.4.4-.1.9-.3,1.3-.4Z"/>
  <path class="st0" d="M11.9,324.9c-.4.1-.8.3-1.2.4.4-.1.8-.3,1.2-.4Z"/>
  <path class="st0" d="M6.9,326.6c-.5.2-.9.3-1.4.5.4-.2.9-.3,1.4-.5Z"/>
  <path class="st0" d="M4.5,327.4c-.5.2-1,.3-1.5.5.5-.2,1-.3,1.5-.5Z"/>
  <path class="st0" d="M14.3,324.2c-.3,0-.5.2-.8.2.3,0,.5-.2.8-.2Z"/>
  <path class="st0" d="M21.8,321.9c-.1,0-.3,0-.4.1.1,0,.3,0,.4-.1Z"/>
  <path class="st0" d="M24.8,321.1c-.2,0-.4.1-.6.2.2,0,.4-.1.6-.2Z"/>
  <path class="st1" d="M313.5,238.2c50.5,48.3,95.1,29.6,153.3,39.5C426.1,190.3,459.5,76.6,391,0h0s0,0,0,0H0v104.8c34-.3,49.7,32.8,69,55.4,27.7,32.3,80.1,54.4,118.3,28.7,24.2-15.9,42.7-41.1,68.5-55.3,34.8-21.7-8.7,40.7,57.8,104.6Z"/>
  <path class="st1" d="M528.4,387.5c-31.6,8.5-66,67.4-67.5,80.7-86.3-2-146.3,39.8-169.1,98.7h275.1v-188.4c-15.1,1.8-26.3,4.1-38.5,9Z"/>
  <path class="st2" d="M391,0h0c97.9,123.7-6.1,283.1,175,374.1h0c.3.1.7.3,1,.4V0h-176Z"/>
  <path class="st2" d="M422.1,355.7c-164.8-16.8-128.7,134.6-252.8,172.5,21.3,10.1,37.1,34.7,37.5,38.7h85c22.8-58.9,82.7-100.7,169.1-98.7,2.2-15.1,35.7-71.4,68.2-81.2-17.4-5.9-79.3-29.2-107-31.3Z"/>
  <path class="st2" d="M183.5,241.8c42-25.7,66.7-48.6,62.5-101.9-21.2,14.1-37.5,35.4-58.7,49-36.5,24.6-86.9,5.2-114.8-24.9C51.1,141.3,36.2,104.6,0,104.8v223.7c32.7-12.3,68.4-19.6,104.7-20.8,10.3-1.8,23.8,4.2,31.9-3.6,12.4-22.4,26.6-45.9,46.8-62.3Z"/>
  <path class="st3" d="M565.9,374.1c-39.8-17.6-80.4-59.5-99.1-96.5-58.2-10-102.5,8.9-153.3-39.5-71.6-68.8-15.3-135.3-67.6-98.3,4.1,53.6-20.4,76.1-62.5,101.9-19,15.7-33.6,37.5-44.9,59.3-4.2,9.9-16.3,6.3-25,6.6C74.7,307.6,35.3,315.2,0,328.5v238.4h206.8c-.7-4.5-16-28.5-37.5-38.7,45-16.7,64.5-32.2,89.5-74.1,66.1-127.9,157.3-111.2,270.3-67.1-.2.2-.5.4-.7.6,12.2-4.9,23.4-7.2,38.5-9v1.3s0,0,0,0v-5.2c-.3-.1-.7-.3-1-.4h0Z"/>
</svg>