<svg xmlns="http://www.w3.org/2000/svg" viewBox="0 0 566.9 566.9">
  <g id="zone-1" data-color-id="RD011">
    <path class="st1" d="M313.5,238.2c50.5,48.3,95.1,29.6,153.3,39.5C426.1,190.3,459.5,76.6,391,0h0s0,0,0,0H0v104.8c34-.3,49.7,32.8,69,55.4,27.7,32.3,80.1,54.4,118.3,28.7,24.2-15.9,42.7-41.1,68.5-55.3,34.8-21.7-8.7,40.7,57.8,104.6Z" fill="#d9bcb7"/>
    <path class="st1" d="M528.4,387.5c-31.6,8.5-66,67.4-67.5,80.7-86.3-2-146.3,39.8-169.1,98.7h275.1v-188.4c-15.1,1.8-26.3,4.1-38.5,9Z" fill="#d9bcb7"/>
  </g>
  <g id="zone-2" data-color-id="BL018">
    <path class="st2" d="M391,0h0c97.9,123.7-6.1,283.1,175,374.1h0c.3.1.7.3,1,.4V0h-176Z" fill="#5379a8"/>
    <path class="st2" d="M422.1,355.7c-164.8-16.8-128.7,134.6-252.8,172.5,21.3,10.1,37.1,34.7,37.5,38.7h85c22.8-58.9,82.7-100.7,169.1-98.7,2.2-15.1,35.7-71.4,68.2-81.2-17.4-5.9-79.3-29.2-107-31.3Z" fill="#5379a8"/>
    <path class="st2" d="M183.5,241.8c42-25.7,66.7-48.6,62.5-101.9-21.2,14.1-37.5,35.4-58.7,49-36.5,24.6-86.9,5.2-114.8-24.9C51.1,141.3,36.2,104.6,0,104.8v223.7c32.7-12.3,68.4-19.6,104.7-20.8,10.3-1.8,23.8,4.2,31.9-3.6,12.4-22.4,26.6-45.9,46.8-62.3Z" fill="#5379a8"/>
  </g>
  <g id="zone-3" data-color-id="PP005">
    <path class="st3" d="M565.9,374.1c-39.8-17.6-80.4-59.5-99.1-96.5-58.2-10-102.5,8.9-153.3-39.5-71.6-68.8-15.3-135.3-67.6-98.3,4.1,53.6-20.4,76.1-62.5,101.9-19,15.7-33.6,37.5-44.9,59.3-4.2,9.9-16.3,6.3-25,6.6C74.7,307.6,35.3,315.2,0,328.5v238.4h206.8c-.7-4.5-16-28.5-37.5-38.7,45-16.7,64.5-32.2,89.5-74.1,66.1-127.9,157.3-111.2,270.3-67.1-.2.2-.5.4-.7.6,12.2-4.9,23.4-7.2,38.5-9v1.3s0,0,0,0v-5.2c-.3-.1-.7-.3-1-.4h0Z" fill="#aaa2b2"/>
  </g>
</svg>