<svg xmlns="http://www.w3.org/2000/svg" viewBox="0 0 566.9 566.9">
  <g id="zone-1" data-color-id="RD011">
    <path class="st1" d="M441.1,53.5c.2.8.5,1.7.7,2.5C464.2,19.6,494.7,0,494.7,0h-81.1c13.2,15.6,22,34.4,27.5,53.5Z" fill="#d9bcb7"/>
    <path class="st1" d="M396.2,248.2c-57.4,49.9-95.4,135.6-114.5,196.2-.7.7-1.5,1.4-2.2,2.1,70.2-65.9,185.4-46.4,251.9-118.9,11.9-13.2,27.6-26.3,35.5-42.5,0,0,0-114.3,0-114.3-52.9,7.7-122.2,35.9-170.6,77.5Z" fill="#d9bcb7"/>
    <path class="st1" d="M443.7,439.9c-42.4,31.6-67.3,78-83.4,127h0s0,0,0,0h206.5v-165.8c-42.7-5.4-89.3,13.6-123.1,38.8Z" fill="#d9bcb7"/>
    <polygon class="st1" points="346.1 306.3 346.1 306.3 346.1 306.3 346.1 306.3" fill="#d9bcb7"/>
    <path class="st1" d="M349.4,295.9c-.8,2.8-1.6,5.5-2.5,8.1,1-2.7,1.8-5.4,2.5-8.1Z" fill="#d9bcb7"/>
    <path class="st1" d="M235.1,508.6h0c.9-113.4-106.2-188.3-130.1-203.6-2.8-1.8-4.2-5.1-3.7-8.4C130.2,233.5,13.7,90.2,0,23.7v543.2h218.3c3-22.3,10.2-44.7,20.5-65.4-2.4,4.4-3.7,7.1-3.7,7.1h0Z" fill="#d9bcb7"/>
  </g>
  <g id="zone-2" data-color-id="BL018">
    <path class="st2" d="M286.5,108.4c60.2,43.3,83.2,128.7,59.6,197.9,0,0,19.3-32.3,50.1-58,11.8-15.4,21.6-30.9,29.3-45.8C459.6,142.4,458.6,57,413.6,0h-224.9c5.2,56.4,57,81.4,97.9,108.4Z" fill="#5379a8"/>
    <path class="st2" d="M552.1,305.1c-55.5,78-152.4,78.4-232.6,113.7,2.9-1.5,5.9-2.9,9-4.3-38.6,15.8-72.2,50.9-89.6,87.1.2-.4.5-.9.8-1.4-10.8,21-18.1,44-21.2,66.8,0,0,142,0,142,0,25.1-90.1,107.2-174.8,206.6-165.8v-116.8c-.4,6.6-11.2,16.2-14.8,20.7ZM249.1,484.1c-2.9,4.5-5.2,8.2-7.6,12.5,3-5.2,6.2-10.5,9.8-15.8-.7,1.1-1.5,2.2-2.2,3.3ZM252.4,479.3c.7-1,1.3-2,2-3-.7,1-1.4,2-2,3Z" fill="#5379a8"/>
  </g>
  <g id="zone-3" data-color-id="PP005">
    <path class="st3" d="M441.8,56c20.4,72.3-1.7,135.7-45.5,192.2,48.4-41.6,117.8-69.7,170.6-77.5V0h-72.1s-30.5,19.6-52.9,56Z" fill="#aaa2b2"/>
    <path class="st3" d="M355.1,245.9C345.2,73.6,208.2,116.1,188.6,0H0s0,23.7,0,23.7c11.4,35.7,27.9,71.1,50.4,109.9,48.4,83.2,61.1,106.3,51,163.1-.6,3.3.9,6.6,3.7,8.4,64.2,40.7,132.6,119.5,130.1,203.6,10-21.4,26.9-46.9,46.6-64.1,12.7-45.9,33-82.1,57.3-126.5,14.3-20.9,16.4-47.4,16.1-72Z" fill="#aaa2b2"/>
  </g>
</svg>