<svg xmlns="http://www.w3.org/2000/svg" viewBox="0 0 566.9 566.9">
  <g id="zone-1" data-color-id="GN022">
    <path class="st1" d="M179.2,548.1c-35.6-10.8-76-23-106.8-53.8-30.8-30.8-43-71.2-53.7-106.8-4.6-15.1-12-39.9-18-47.1h-.6v226.6h226.6c0-.2,0-.4,0-.6-7.2-6-32.2-13.6-47.4-18.2Z" fill="#467c70"/>
    <path class="st1" d="M340.4,0c0,.2,0,.4,0,.6,7.2,6,32.2,13.6,47.4,18.2,35.6,10.8,76,23,106.8,53.8,30.8,30.8,43,71.2,53.7,106.8,4.6,15.1,12,39.9,18,47.1h.6V0h-226.6Z" fill="#467c70"/>
  </g>
  <g id="zone-2" data-color-id="OR002">
    <path class="st2" d="M470.5,288c-15.3-23.2-23.4-49.9-31.1-75.7-6.9-22.8-14.7-48.6-25.3-59.2-10.6-10.6-36.5-18.4-59.3-25.3-25.8-7.8-52.5-15.9-75.8-31.3C235.6,67.8,226.5,28.2,226.5,0H0v226.5c40.4,0,73.8,18.1,96.5,52.4,15.3,23.2,23.4,49.9,31.1,75.7,6.9,22.8,14.7,48.6,25.3,59.2,10.6,10.6,36.5,18.4,59.3,25.3,25.8,7.8,52.5,15.9,75.8,31.3,43.4,28.7,52.5,68.3,52.5,96.5h226.5v-226.5c-40.4,0-73.8-18.1-96.5-52.4Z" fill="#d86631"/>
  </g>
  <g id="zone-3" data-color-id="WT000">
    <path class="st0" d="M287.9,470.4c-23.2-15.4-49.9-23.5-75.8-31.3-22.8-6.9-48.7-14.7-59.3-25.3-10.6-10.6-18.4-36.4-25.3-59.2-7.8-25.8-15.8-52.5-31.1-75.7-22.7-34.3-56-52.4-96.5-52.4v113.9h.6c6,7.2,13.4,32,18,47.1,10.7,35.6,22.9,76,53.7,106.8,30.8,30.8,71.2,43,106.8,53.8,15.2,4.6,40.2,12.2,47.4,18.2,0,.2,0,.4,0,.6h113.9c0-28.2-9.1-67.8-52.5-96.5Z" fill="#f7f7f7"/>
    <path class="st0" d="M548.3,179.5c-10.7-35.6-22.9-76-53.7-106.8-30.8-30.8-71.2-43-106.8-53.8-15.2-4.6-40.2-12.2-47.4-18.2,0-.2,0-.4,0-.6h-113.9c0,28.2,9.1,67.8,52.5,96.5,23.2,15.4,49.9,23.5,75.8,31.3,22.8,6.9,48.7,14.7,59.3,25.3,10.6,10.6,18.4,36.4,25.3,59.2,7.8,25.8,15.8,52.5,31.1,75.7,22.7,34.3,56,52.4,96.5,52.4v-113.9h-.6c-6-7.2-13.4-32-18-47.1Z" fill="#f7f7f7"/>
  </g>
</svg>