<svg xmlns="http://www.w3.org/2000/svg" viewBox="0 0 566.9 566.9">
  <g id="zone-1" data-color-id="GN022">
    <path class="st1" d="M340.4,0c0,100.1-11.6,174.3-35.6,226.9-11.6,25.5-25,43.5-37.7,56.5,12.7,13,26.1,31,37.7,56.5,23.9,52.6,35.6,126.9,35.6,226.9h226.6V0h-226.6Z" fill="#467c70"/>
  </g>
  <g id="zone-2" data-color-id="OR002">
    <path class="st2" d="M170.2,351.1c-6.8-4.5-14.6-9.6-22-17.4-13.3-13.9-20.3-31.3-20.3-50.3s7-36.4,20.3-50.3c7.4-7.8,15.2-12.9,22-17.4,11.2-7.3,20.8-13.6,31-36,11.6-25.4,25.3-77.3,25.3-179.8H0v566.9h226.5c0-102.5-13.8-154.4-25.3-179.8-10.2-22.4-19.8-28.7-31-36Z" fill="#d86631"/>
  </g>
  <g id="zone-3" data-color-id="WT000">
    <path class="st0" d="M267.1,283.5c12.7-13,26.1-31,37.7-56.5,23.9-52.6,35.6-126.8,35.6-226.9h-113.9c0,102.5-13.8,154.4-25.3,179.8-10.2,22.4-19.8,28.7-31,36-6.8,4.5-14.6,9.6-22,17.4-13.3,13.9-20.3,31.3-20.3,50.3s7,36.4,20.3,50.3c7.4,7.8,15.2,12.9,22,17.4,11.2,7.3,20.8,13.6,31,36,11.6,25.4,25.3,77.3,25.3,179.8h113.9c0-100.1-11.6-174.3-35.6-226.9-11.6-25.5-25-43.5-37.7-56.5Z" fill="#f7f7f7"/>
  </g>
</svg>