<svg xmlns="http://www.w3.org/2000/svg" viewBox="0 0 566.9 566.9">
  <g id="zone-1" data-color-id="GN022">
    <path class="st1" d="M226.4,0H0v226.5h.3c124.6-.6,225.8-101.9,226.1-226.5Z" fill="#467c70"/>
  </g>
  <g id="zone-2" data-color-id="OR002">
    <path class="st2" d="M566.9,0h-226.7c-.3,187.4-152.6,339.8-340,340.4h-.3v226.5h226.5c0-31.4,25.5-56.9,56.9-56.9s56.9,25.5,56.9,56.9h226.5V0ZM566.9,340.4c-31.4,0-56.9-25.5-56.9-56.9s25.5-56.9,56.9-56.9v113.9Z" fill="#d86631"/>
  </g>
  <g id="zone-3" data-color-id="WT000">
    <polygon class="st0" points="226.5 566.9 340.4 566.9 340.4 566.9 226.5 566.9 226.5 566.9" fill="#f7f7f7"/>
    <path class="st0" d="M283.5,510c-31.4,0-56.9,25.5-56.9,56.9h113.9c0-31.4-25.5-56.9-56.9-56.9Z" fill="#f7f7f7"/>
    <path class="st0" d="M510,283.5c0,31.4,25.5,56.9,56.9,56.9v-113.9c-31.4,0-56.9,25.5-56.9,56.9Z" fill="#f7f7f7"/>
    <path class="st0" d="M340.2,0h-113.9c-.3,124.6-101.5,226-226.1,226.5h-.3v113.9h.3c187.4-.6,339.7-153,340-340.4Z" fill="#f7f7f7"/>
  </g>
</svg>