<svg xmlns="http://www.w3.org/2000/svg" viewBox="0 0 566.93 566.93">
  <g id="zone-1" data-color-id="YL001">
    <path d="M496.35,353.64l-.4-2.71-.34.05c-1.37-9.88-3.49-19.5-5.68-29.17-3.9-17.25-6.46-35.04-10.82-52.16-3.76-14.76-19.73-29.37-28.62-41.71-5.37-7.46-8.22-15.66-14.6-22.48-7.23-7.74-13.67-13.86-22.95-19.2-9.23-5.31-16.18-8.14-26.44-10.97-8.6-2.37-7.04-1.69-15.1-5.21,6.05,3.68,13.12,7.7,17.49,12.9,7.01,8.34,7.03,21.02,10.93,30.81,4.11,10.3,10.27,20.26,13.11,31.03,2.66,10.08,3.61,21.39,3.31,31.79-.42,14.62-6.03,27.37-7.95,41.57-2.08,15.36-.4,38.84-6.92,52.8-.35.75-.92,1.27-1.28,1.99l-.93.45c-3.54-.08-8.31-1.85-11.26-3.85-7.98-5.41-9.69-14.55-20.19-16.34-19.08-3.26-32.91-8.12-50.81-15.24-8.85-3.52-13.71-4.75-22.94-6.87-11.44-2.63-23.53-7.75-34.21-12.57-18.25-8.22-19.39-17.43-29.5-33-1.9-2.93-4.44-5.25-5.78-8.66-5.2-13.27-7.18-25.1-6.65-39.06.27-7.32-5.32-15.23-6.48-23.16-.73-4.97.31-8.66.63-13.33.1-1.49-.32-3.17-.04-4.87.09-.51,1.68-5.46,1.24-5.58l-1.22,1.74c-3.27,11.29-16.13,18.69-22.45,28.36-.88,1.34-1.49,3.89-2.21,5.25-1.2,2.3-2.69,4.37-3.73,6.78-1.36,3.13-1.6,6.66-2.78,9.85-2.32,6.25-6.25,12.27-9.27,18.19-1.24,2.43-2.22,5.78-3.73,8.32-1.87,3.15-4.65,5.45-6.5,8.53-3.51,5.85-6.1,13.68-9.71,19.57-1.17,1.9-3.61,4.6-6.39,7.35h0c1,5.38,3.12,15.53,4.7,21,3.96,13.72,9.95,26.83,13.24,40.79,1.48,6.28,2.31,9.68,4.93,15.86,5.07,11.95,11.38,23.56,18.3,34.63,3.8,6.07,11.28,15.77,16.68,20.25,6.12,5.08,12.86,11.04,19.93,15.36,5.08,3.1,10.47,4.91,15.82,7.56,5.8,2.87,11.96,5.58,17.88,8.44,6.36,3.07,12.64,6.38,19.43,8.45,9.03,2.75,19.87,5.29,28.19,9.46,5.69,2.85,10.54,5.72,16.69,8.46,2.76,1.23,5.93,3.09,8.81,4.16,2.2.82,4.8.72,6.91,1.4,5.61,1.82,8.64,5.4,15.27,5.45,5.02.04,9.86-.65,15.21-.5,13.47.38,24.26-1.99,37.27-4.14,14.15-2.33,28.7-.76,42.38,3.72,2.53.83,4.78,2.21,7.34,2.98,2.34.71,4.82,1.08,7.28,1.04,1.01-.02,1.71-.32,2.65-.53,1.3-.29,2.6-.26,3.88-.74,7.17-2.69,9.69-17.64,8.79-24.29-.49-3.67-1.68-5.4-2.76-8.55-1.32-3.84-1.48-10.59-.59-14.54.55-2.41,2.52-4.42,3.68-6.65,3.95-7.62,3.81-14.86,5.57-22.98,3.45-15.82,6.38-31.81,10.49-47.5,1.89-7.22,3.78-19.67,3.24-27.05l.34-.05-.4-2.71Z" fill="#f6b02c"/>
  </g>
  <g id="zone-2" data-color-id="YL008">
    <path d="M-.01,566.93h566.96V0H-.01v566.93ZM70.21,236.51c.34-10.91.84-21.77,3.84-32.43,4.09-14.53,10.25-17.78,19.43-28.16,1.69-1.91,2.54-4.55,3.95-6.58,3.39-4.89,8.02-8.99,11.85-13.56.51-.61,1.12-2.27,1.82-3.01,6.22-6.57,21.39-11.83,30.29-13.76,7.06-1.53,24.32-1.19,31.36.52,2.09.51,4.33,1.55,6.42,2.04,4.8,1.12,9.8.99,14.34,1.95,3.1.66,6.12,3,9.5,2.65,1.08-.87-2.99-9.81-3.51-11.42-1.48-4.57-2.24-8.86-3.37-13.41-1.21-4.88-3.21-7.92-1.97-13.17.13-.54.44-.75.7-1.19l.62-.3c4.88-1.02,9.64-3.41,14.57-4.23,2.69-.45,7.84-.75,10.68-.86.62-.02,1.8-.1,2.32.03,2.88.73,3.71,7.25,4.51,9.7,1.07,3.32,1.95,6.37,2.88,9.67,1.44,5.08,2.99,10.15,4.29,15.26,1.18-2.67,3.98-5.33,4.82-8.07.9-2.92.52-7.45,1.17-10.54.86-4.08,5.71-13.3,8.04-17,8.46-13.42,25.25-19.34,38.15-27.68,4.07-2.63,7.88-6.44,12.46-8.28,1.41-.57,3.28-.67,4.57-1.14,13.54-4.94,29.13-12.64,43.33-15.07,6.57-1.12,20.14,1.14,24.08,6.94.69,1.02,1.73,3.8,1.61,5-.28,2.83-5.26,9.67-7.54,11.36-3.55,2.64-7.49,3.41-10.89,6.78-3.98,3.94-4.07,6.55-5.93,11.28-5.94,15.11-21.23,24.65-31.94,36.17-3.71,3.99-8.15,9.05-11.26,13.56-.44.64-2.26,3.75-.99,4,1.3.26,4.45-.36,6.4-.05,1.64.27,3.64,1.17,5.42,1.58,9.05,2.06,14.41,5.8,23.37,9.03,9.04,3.26,10.58,4.61,18.47,8.28,4.45,2.07,6.89,3.67,11.03,6.28.74.47,1.51.94,2.29,1.41,8.06,3.52,6.5,2.84,15.1,5.21,10.25,2.83,17.21,5.66,26.44,10.97,9.28,5.34,15.72,11.46,22.95,19.2,6.38,6.82,9.23,15.02,14.6,22.48,8.89,12.34,24.86,26.95,28.62,41.71,4.36,17.11,6.92,34.91,10.82,52.16,2.19,9.67,4.3,19.29,5.68,29.17l.34-.05.4,2.71.4,2.71-.34.05c.54,7.38-1.35,19.84-3.24,27.05-4.1,15.69-7.04,31.68-10.49,47.5-1.77,8.12-1.62,15.36-5.57,22.98-1.16,2.23-3.13,4.23-3.68,6.65-.89,3.95-.73,10.69.59,14.54,1.09,3.16,2.27,4.89,2.76,8.55.9,6.64-1.62,21.6-8.79,24.29-1.28.48-2.57.45-3.88.74-.94.21-1.65.51-2.65.53-2.46.04-4.94-.33-7.28-1.04-2.56-.77-4.81-2.15-7.34-2.98-13.68-4.48-28.23-6.05-42.38-3.72-13.02,2.15-23.8,4.52-37.27,4.14-5.35-.15-10.19.54-15.21.5-6.63-.05-9.65-3.63-15.27-5.45-2.1-.68-4.7-.59-6.91-1.4-2.89-1.07-6.05-2.93-8.81-4.16-6.14-2.73-11-5.61-16.69-8.46-8.32-4.17-19.16-6.7-28.19-9.46-6.79-2.07-13.07-5.37-19.43-8.45-5.92-2.86-12.08-5.57-17.88-8.44-5.35-2.65-10.74-4.45-15.82-7.56-7.07-4.32-13.81-10.28-19.93-15.36-5.4-4.48-12.89-14.18-16.68-20.25-6.92-11.07-13.23-22.68-18.3-34.63-2.62-6.18-3.45-9.58-4.93-15.86-3.29-13.97-9.28-27.07-13.24-40.79-1.58-5.48-3.7-15.63-4.7-21h0c-3.91,3.87-8.48,7.84-11.13,9.83-3.62,2.72-7.92,4.72-11.41,7.63-3.4,2.83-5.83,5.79-9.77,8.44-5.59,3.75-11.45,7.31-17.71,9.84-1.67.68-3.38,1.28-5.13,1.71-.91.22-1.85.42-2.79.51-.72.07-1.7.31-2.38,0-.24-.11-.44-.28-.64-.46-1.09-.98-2.34-1.92-3.22-3.09-.82-1.09-1.24-2.39-1.66-3.67-.46-1.4-.9-2.82-1.15-4.27-.51-2.9-.13-5.86.2-8.76.03-.3.07-.6.1-.9.81-6.98-1.91-12.93-3.12-19.77-2.47-14.06-2.94-29.75-3.78-43.96-.42-7.14-1.61-14.37-1.39-21.43Z" fill="#fef6e7"/>
  </g>
  <g id="zone-3" data-color-id="GN026">
  </g>
  <g id="zone-4" data-color-id="RD001">
  </g>
  <g id="zone-5" data-color-id="RD005">
  </g>
  <g id="zone-6" data-color-id="GN008">
  </g>
  <g id="zone-7" data-color-id="BL027">
    <path d="M412.95,244.83c-2.84-10.77-9-20.73-13.11-31.03-3.91-9.79-3.92-22.47-10.93-30.81-4.37-5.2-11.44-9.22-17.49-12.9-.78-.48-1.55-.95-2.29-1.41-4.14-2.6-6.59-4.21-11.03-6.28-7.89-3.67-9.43-5.01-18.47-8.28-8.96-3.23-14.32-6.97-23.37-9.03-1.77-.4-3.78-1.31-5.42-1.58-1.95-.32-5.1.31-6.4.05-1.27-.26.55-3.36.99-4,3.11-4.5,7.55-9.56,11.26-13.56,10.71-11.52,26-21.06,31.94-36.17,1.86-4.73,1.95-7.34,5.93-11.28,3.4-3.37,7.34-4.14,10.89-6.78,2.28-1.7,7.26-8.53,7.54-11.36.12-1.2-.92-3.98-1.61-5-3.94-5.8-17.51-8.06-24.08-6.94-14.19,2.43-29.78,10.12-43.33,15.07-1.29.47-3.15.57-4.57,1.14-4.58,1.84-8.39,5.65-12.46,8.28-12.9,8.34-29.7,14.26-38.15,27.68-2.33,3.7-7.18,12.92-8.04,17-.65,3.09-.27,7.61-1.17,10.54-.84,2.74-3.64,5.4-4.82,8.07-1.3-5.11-2.86-10.17-4.29-15.26-.93-3.3-1.8-6.35-2.88-9.67-.79-2.45-1.62-8.97-4.51-9.7-.53-.13-1.71-.05-2.32-.03-2.84.11-7.99.42-10.68.86-4.93.82-9.68,3.21-14.57,4.23l-.62.3c-.26.44-.57.65-.7,1.19-1.24,5.25.76,8.29,1.97,13.17,1.12,4.55,1.89,8.84,3.37,13.41.52,1.61,4.59,10.56,3.51,11.42-3.39.35-6.4-1.99-9.5-2.65-4.53-.96-9.54-.83-14.34-1.95-2.09-.49-4.33-1.53-6.42-2.04-7.04-1.71-24.29-2.05-31.36-.52-8.9,1.93-24.07,7.19-30.29,13.76-.7.74-1.31,2.4-1.82,3.01-3.82,4.57-8.46,8.66-11.85,13.56-1.41,2.03-2.26,4.67-3.95,6.58-9.19,10.38-15.35,13.63-19.43,28.16-3,10.66-3.5,21.52-3.84,32.43-.22,7.06.97,14.29,1.39,21.43.84,14.21,1.3,29.91,3.78,43.96,1.21,6.85,3.93,12.79,3.12,19.77-.03.3-.07.6-.1.9-.33,2.9-.72,5.86-.2,8.76.26,1.45.69,2.87,1.15,4.27.42,1.28.84,2.58,1.66,3.67.89,1.17,2.14,2.11,3.22,3.09.2.18.4.35.64.46.68.3,1.66.06,2.38,0,.94-.09,1.87-.29,2.79-.51,1.75-.43,3.46-1.04,5.13-1.71,6.26-2.53,12.11-6.09,17.71-9.84,3.94-2.65,6.37-5.6,9.77-8.44,3.49-2.91,7.78-4.9,11.41-7.63,2.65-1.99,7.23-5.96,11.13-9.83,2.78-2.75,5.22-5.45,6.39-7.35,3.61-5.89,6.2-13.72,9.71-19.57,1.85-3.08,4.63-5.37,6.5-8.53,1.51-2.54,2.49-5.89,3.73-8.32,3.02-5.93,6.95-11.94,9.27-18.19,1.18-3.19,1.42-6.72,2.78-9.85,1.05-2.41,2.53-4.49,3.73-6.78.72-1.37,1.33-3.91,2.21-5.25,6.33-9.67,19.18-17.07,22.45-28.36l1.22-1.74c.44.12-1.16,5.07-1.24,5.58-.29,1.7.14,3.37.04,4.87-.32,4.67-1.36,8.36-.63,13.33,1.16,7.93,6.75,15.83,6.48,23.16-.52,13.96,1.46,25.79,6.65,39.06,1.33,3.41,3.88,5.73,5.78,8.66,10.11,15.57,11.25,24.78,29.5,33,10.69,4.81,22.77,9.94,34.21,12.57,9.23,2.12,14.08,3.35,22.94,6.87,17.91,7.12,31.73,11.98,50.81,15.24,10.5,1.79,12.21,10.94,20.19,16.34,2.95,2,7.72,3.77,11.26,3.85l.93-.45c.36-.72.93-1.24,1.28-1.99,6.52-13.96,4.84-37.44,6.92-52.8,1.92-14.21,7.53-26.95,7.95-41.57.3-10.4-.66-21.71-3.31-31.79Z" fill="#3f5464"/>
  </g>
</svg>