<svg xmlns="http://www.w3.org/2000/svg" viewBox="0 0 566.93 566.93">
  <g id="zone-1" data-color-id="YL001">
  </g>
  <g id="zone-2" data-color-id="YL008">
    <path d="M-.01,566.93h566.96V0H-.01v566.93ZM57.04,242.83c1.76-11.72,3.92-23.4,7.83-34.57,2.05-5.85,4.58-13.08,7-18.69,2.88-6.68,11.35-17.06,17.47-20.7,2.14-1.27,4.42-2.07,6.4-3.65,1.86-1.5,3.37-3.44,5.36-4.78,2.13-1.43,4.46-2.6,6.84-3.54,8.5-3.36,17.55-4.92,26.37-7.02,13-3.09,25.29,2.38,37.84,4.81,4.23.82,8.67,1,12.91,1.84,4.94.98,9.71,3.43,14.63,4.77,7.12,1.94,15.67.55,23.07.95,4.5.24,10.43.38,14.91.73-.4-1.92-.59-3.91-.45-5.87.14-2.01-.18-4.2.19-6.15.37-1.94.93-3.92.88-5.92-.14-5.56-1.98-12.18-2.99-17.7-.16-.88-.3-1.76-.5-2.63-.14-.63-.29-1.38-.32-2.02-.06-1.01-.11-1.99-.11-3.01v-9.47c0-.07-.01-.14-.01-.2,0-.15.06-.33.1-.48.01-.06.03-.13.04-.19.05-.26.09-.52.11-.79.07-1.34.15-2.68.24-4.01.09-1.34.19-2.67.3-4.01.11-1.34.24-2.67.38-4s.29-2.66.45-3.99c.16-1.33.34-2.66.53-3.98.19-1.33.4-2.65.62-3.97.22-1.32.46-2.64.71-3.95.65-3.41.68-7.19,3.69-9.46,3.25-.59,6.49-1.17,9.75-1.61,7.39-.99,14.93-1.64,22.43-1.86,1.43-.04,2.71.19,4.31,0,.62-.08,1.41-.25,2.02-.08.46.13.87.67,1.18,1.02.69.8,1.33,1.73,1.77,2.71,1.21,2.66.66,6.53.45,9.34-.06.78-.06,1.67-.27,2.42-.4,1.46-.61,2.93-.81,4.43-.18,1.33-.77,2.59-1.23,3.86-2.4,6.69-1.61,13.86-2.1,20.84-.71,10.18-.62,21,.53,31.3.27,2.44.97,6.01,1.28,9.05h0c2.87-1.75,9.12-6.86,11.98-8.4,10.69-5.75,22.39-8.24,33.54-12.4,6.36-2.37,12.59-5.69,19.01-7.95,4.71-1.66,9.47-3.17,14.28-4.48,4.83-1.31,9.72-2.42,14.65-3.2,1.08-.17,2.18-.39,3.28-.47,1.15-.09,2.32-.04,3.47-.05,1.28,0,2.56,0,3.84.02.5,0,1.02-.01,1.53,0,.65,0,1.29.05,1.9.23,1.11.32,2.47.21,3.62.29,1.23.08,2.47.16,3.7.24,4.8.32,9.6.67,14.38,1.27,4.86.61,9.7,1.49,14.44,2.76.57.15,1.14.31,1.71.47,11.48,3.31,24.7,6.55,35.52,11.42,3.64,1.64,5.16,3.09,8.17,5.46,2.92,2.3,6.3,4.45,8.37,7.62,2.83,4.33,6.12,9.27,8.64,13.77,3.6,6.43,4.51,11.09,6.72,17.91,1.67,5.14,3.8,10.19,5.56,15.25,1.89,5.41,2.83,10.41,4.36,15.86,1.64,5.85,3.84,11.49,5.06,17.49,1.06,5.18,1.1,10.37,1.72,15.59,1.3,10.8,2.71,21.65,3.48,32.63.57,8.23,1.21,16.52,1.05,24.78-.18,9.16-.75,18.57-1.67,27.75-.36,3.64-.7,7.27-1.46,10.74-1.17,5.39-1.97,11.3-2.44,16.56-.4,4.54-.96,9.07-1.9,13.53-.99,4.68-2.44,9.26-3.71,13.87-.2.73-.4,1.45-.6,2.18-.24.87-.48,1.73-.65,2.62-.3,1.54-.39,3.12-.7,4.66-.28,1.37-.88,2.54-1.16,3.93-.66,3.29-1.53,6.53-2.57,9.71-.39,1.19-1.07,2.49-1.48,3.62-.56,1.52-.79,2.98-1.54,4.62-1.23,2.7-2.44,4.77-3.61,7.62-3.29,8.01-5.58,15.48-10.54,22.75-3.14,4.6-7.16,10.2-10.73,14.39-2.9,3.41-5.56,4.88-8.89,7.51-3.62,2.86-6.27,6.25-10.26,8.88-2.63,1.74-5.39,3.48-8.06,5.15-5.65,3.53-14.19,6.27-20.55,8.5-10.74,3.76-20.91,5.68-32.26,5.57-19.16-2.04-38.49,1.64-57.46-1.74-5.99-1.07-11.19-4.16-16.48-6.93-10.84-5.67-22.83-7.34-33.54-13.47-3.67-2.1-6.68-5.06-10.54-6.87-4.08-1.91-10.26-4.15-14.72-3.82-4.36.33-7,2.03-10.91,3.27-2.59.82-4.64,1.47-7.2,2.4-3.07,1.12-5.25.68-8.07,1.28-1.44.31-2.63,1.26-3.95,1.87-1.41.66-3.28.81-4.82,1-.96.11-1.93.17-2.87.38-1.19.26-2.32.76-3.53.91-2.2.28-4.38.46-6.56.92-2.2.46-4.35,1.16-6.55,1.62-6.75,1.4-13.57,2.53-20.31,4.03-4.54,1.01-9.07,2.79-13.75,3.12-1.63.11-3.25.02-4.87-.15-1.42-.15-2.72,0-4.14-.04-3.48-.08-6.95-.15-10.42-.45-5.05-.43-10.67-3.59-15.57-5.08-4.14-1.26-8.83-1.97-12.91-3.34-4.13-1.38-11.82-6.99-14.95-10.23-3.06-3.16-6.15-7.61-8.87-11.18-11.88-15.62-13.95-38.16-19.25-56.83-2.3-8.1-6.42-16.84-7.54-25-1.29-9.4-2.43-18.92-5.54-27.94-3.14-21.12-8.88-41.74-8.74-63.24.07-11.07-.57-23.6,1.07-34.51Z" fill="#fef6e7"/>
    <path d="M154.49,350.17c5.4,12.69,10.05,25.92,20.36,35.49,10.3,9.56,20.54,17.25,32.87,23.8,5.12,2.73,11.56,6.26,17.12,7.54,3.16.73,9.53,2.22,12.54,1.99,2.55-.19,5.39-1.12,8.07-1.28,1.84-.11,3.74.12,5.58,0,4.68-.32,8.21-1.41,13.03.43,10.66.08,21.18,2.16,31.83,2.57,7.57.3,17.01-1.76,24.53-3.28,6.76-1.37,12.31-2.82,19.26-3.82,7.24-1.05,16.76-5.04,23.75-7.74,8.86-3.43,16.98-6.41,23.99-12.96,2.19-2.05,4.79-4.13,6.87-6.28.29-.3.29-.74.51-.97.29-.29.94-.26,1.01-.35.11-.14-.06-.6.05-.79.07-.12.58-.13.8-.36.58-.6,1.07-1.2,1.78-1.78,1.85-1.51,5.89-3.94,7.05-5.89.13-.22-.01-.6.09-.76.08-.13.52-.12.74-.31,2.17-1.98,4.5-9.56,5.76-12.57.17-.41.69-.98.95-1.59,1.25-2.95,1.74-5.85,2.51-8.98.37-1.51,1.2-3.68,1.34-5.07.05-.51-.21-.89-.17-1.19.01-.14.37-.1.42-.29.27-.98.1-2.38.24-3.36.36-2.58.89-5.29,1.01-7.85.01-.21,0-.43,0-.64-.25-.24-.39-.64-.4-.98-.2-6.29-.19-12.6-.64-18.85-.65-9.17-1.76-17.86-3.16-26.96-1.58-10.26-3.54-20.59-6.45-30.62-.72-2.47-2.03-5.06-2.65-7.33-.55-2-.67-4.35-1.28-6.4-.4-1.37-1.23-2.76-1.66-4.07-.66-2.04-1-4.71-1.66-6.64-.42-1.23-3.92-6.22-4.88-7.59-4.28-6.07-8.01-10.38-14.16-14.47-6.51-4.34-13.92-6.31-21.35-8.3l-6.82-.96h-5.17c-10.54.63-19.96,5.29-30.18,7.4-7.24,1.49-13.42.85-20.67,3.65-4.3,1.66-7.82,2.7-12.15,4.12-4.35,1.43-8.87,3.71-13.23,4.93-5.77,1.61-11.63,2.21-17.52,2.84-9,.97-16.45,5.19-24.9,7.62-3.19.92-6.68.84-9.93,1.5-7.55,1.53-16.07,5.28-23.15,8.37-8.53,3.71-18.63,8.14-26.32,13.44-2,1.38-3.64,3.11-5.53,4.55-7.45,5.68-11.17,6.7-15.11,16.27-5.54,13.46-6.58,22.66-5.96,37.36.65,15.56,5.3,23.86,11.06,37.41ZM296.06,284.66c3.1-5.68,9.59-8.41,15.34-5.42,2.58,1.34,6.91,5.7,8.57,8.25.51.79.73,1.64,1.28,2.41.49.69.99,1.38,1.43,2.1.94,1.52,1.46,3.18,1.81,4.95.28,1.42.06,2.85.29,4.2.46,2.73,1.7,5.55,1.99,8.45.31,3.14-.69,10.97-1.75,13.95-.7,1.98-1.81,3.23-2.88,4.83-.39.58-.77,1.58-1.3,2.19-2.19,2.57-6.41,3.32-9.61,3.1-1.93-.14-1.96-.16-3.93,0-10.13.84-10.88-7.7-12.59-15.44-.38-1.7-.94-3.35-1.28-5.1-1.88-9.46-5.16-20.96,2.62-28.47ZM242.99,297.06c.68-1.29,1.34-2.26,1.58-3.69.22-1.33.83-2.57,1.6-3.64,2.25-3.14,6.22-6.94,10.38-5.83,2.76.74,7.46,5.02,8.74,7.65,1.71,3.53,2.92,9.01,3.56,12.82.63,3.79,1.79,7.65,1.3,11.54-.23,1.79-1.01,3.3-1.2,5.06-.17,1.58-.41,3.21-.88,4.72-1.34,4.34-3.64,9.9-6.04,13.45-1.03,1.52-2.97,2.84-4.66,3.44-2.01.71-4.19.64-6.28.74-.63.03-1.45.06-2.06,0-7.98-.78-11.37-9.25-11.77-16.61-.58-10.69.75-20.21,5.75-29.64Z" fill="#fef6e7"/>
  </g>
  <g id="zone-3" data-color-id="GN026">
    <path d="M281.19,68.64c-.31-.36-.73-.9-1.18-1.02-.61-.17-1.4,0-2.02.08-1.6.2-2.88-.03-4.31,0-7.5.22-15.04.86-22.43,1.86-3.27.44-6.51,1.02-9.75,1.61-3.01,2.28-3.04,6.05-3.69,9.46-.25,1.31-.49,2.63-.71,3.95-.22,1.32-.43,2.64-.62,3.97-.19,1.33-.37,2.65-.53,3.98-.16,1.33-.32,2.66-.45,3.99s-.26,2.67-.38,4c-.11,1.34-.21,2.67-.3,4.01-.09,1.34-.17,2.67-.24,4.01-.01.27-.06.53-.11.79-.01.06-.02.13-.04.19-.03.15-.09.32-.1.48,0,.07.01.13.01.2v9.47c0,1.02.06,1.99.11,3.01.03.64.18,1.39.32,2.02.19.87.34,1.75.5,2.63,1.01,5.52,2.85,12.15,2.99,17.7.05,2-.51,3.98-.88,5.92-.37,1.94-.05,4.14-.19,6.15-.14,1.97.06,3.95.45,5.87.2.98.46,1.96.76,2.91.63,2.03.43,5.71,3,6.35.99.25,5.02-.48,6.06-.91,5.04-2.05,10.26-3.96,15.21-6.08,5.79-2.48,11.81-4.19,17.15-7.49.71-.44.93-.06,1.08-1.45.11-1.01.05-2.3-.09-3.71-.31-3.04-1-6.6-1.28-9.05-1.15-10.3-1.24-21.12-.53-31.3.49-6.98-.3-14.15,2.1-20.84.45-1.27,1.05-2.52,1.23-3.86.2-1.5.41-2.97.81-4.43.21-.76.21-1.64.27-2.42.22-2.82.77-6.68-.45-9.34-.45-.98-1.08-1.9-1.77-2.71Z" fill="#767c55"/>
    <path d="M265.29,291.55c-1.27-2.63-5.98-6.91-8.74-7.65-4.16-1.11-8.13,2.69-10.38,5.83-.77,1.07-1.38,2.31-1.6,3.64-.24,1.43-.9,2.4-1.58,3.69-5,9.43-6.33,18.95-5.75,29.64.4,7.36,3.8,15.83,11.77,16.61.61.06,1.44.03,2.06,0,2.09-.1,4.28-.02,6.28-.74,1.7-.6,3.63-1.92,4.66-3.44,2.4-3.54,4.71-9.11,6.04-13.45.47-1.51.71-3.15.88-4.72.19-1.77.97-3.28,1.2-5.06.49-3.89-.67-7.75-1.3-11.54-.64-3.81-1.85-9.29-3.56-12.82Z" fill="#767c55"/>
    <path d="M324.78,301.14c-.23-1.34,0-2.78-.29-4.2-.35-1.76-.87-3.43-1.81-4.95-.45-.72-.94-1.42-1.43-2.1-.55-.77-.77-1.62-1.28-2.41-1.66-2.55-5.99-6.91-8.57-8.25-5.75-2.99-12.24-.27-15.34,5.42-7.78,7.51-4.5,19-2.62,28.47.35,1.75.91,3.4,1.28,5.1,1.71,7.75,2.46,16.28,12.59,15.44,1.97-.16,1.99-.14,3.93,0,3.2.22,7.42-.53,9.61-3.1.52-.61.91-1.62,1.3-2.19,1.07-1.6,2.18-2.86,2.88-4.83,1.05-2.98,2.06-10.81,1.75-13.95-.29-2.9-1.53-5.72-1.99-8.45Z" fill="#767c55"/>
  </g>
  <g id="zone-4" data-color-id="RD001">
  </g>
  <g id="zone-5" data-color-id="RD005">
  </g>
  <g id="zone-6" data-color-id="GN008">
  </g>
  <g id="zone-7" data-color-id="BL027">
    <path d="M510.28,241.28c-.63-5.21-.67-10.4-1.72-15.59-1.22-5.99-3.43-11.64-5.06-17.49-1.53-5.45-2.47-10.45-4.36-15.86-1.77-5.07-3.9-10.11-5.56-15.25-2.21-6.83-3.11-11.49-6.72-17.91-2.52-4.5-5.81-9.44-8.64-13.77-2.07-3.17-5.45-5.32-8.37-7.62-3.02-2.37-4.53-3.83-8.17-5.46-10.83-4.87-24.04-8.11-35.52-11.42-.57-.16-1.14-.32-1.71-.47-4.74-1.27-9.58-2.15-14.44-2.76-4.78-.6-9.58-.95-14.38-1.27-1.23-.08-2.47-.16-3.7-.24-1.15-.08-2.51.03-3.62-.29-.61-.18-1.25-.22-1.9-.23-.51,0-1.03.01-1.53,0-1.28-.02-2.56-.02-3.84-.02-1.15,0-2.32-.04-3.47.05-1.09.09-2.19.3-3.28.47-4.94.79-9.82,1.89-14.65,3.2-4.81,1.31-9.57,2.82-14.28,4.48-6.43,2.26-12.66,5.58-19.01,7.95-11.15,4.16-22.85,6.66-33.54,12.4-2.87,1.54-9.11,6.65-11.98,8.4h0c.14,1.4.2,2.69.09,3.71-.14,1.39-.36,1.01-1.08,1.45-5.34,3.3-11.36,5.01-17.15,7.49-4.95,2.12-10.17,4.03-15.21,6.08-1.05.43-5.07,1.16-6.06.91-2.57-.64-2.37-4.32-3-6.35-.3-.96-.55-1.93-.76-2.91-4.48-.35-10.41-.49-14.91-.73-7.41-.4-15.95.99-23.07-.95-4.92-1.34-9.69-3.8-14.63-4.77-4.24-.84-8.68-1.02-12.91-1.84-12.55-2.43-24.84-7.9-37.84-4.81-8.83,2.1-17.88,3.66-26.37,7.02-2.38.94-4.71,2.11-6.84,3.54-1.99,1.34-3.49,3.28-5.36,4.78-1.97,1.59-4.26,2.38-6.4,3.65-6.12,3.65-14.59,14.03-17.47,20.7-2.43,5.62-4.96,12.84-7,18.69-3.9,11.17-6.06,22.85-7.83,34.57-1.64,10.91-.99,23.44-1.07,34.51-.14,21.51,5.6,42.12,8.74,63.24,3.11,9.01,4.25,18.54,5.54,27.94,1.12,8.16,5.25,16.9,7.54,25,5.3,18.67,7.37,41.22,19.25,56.83,2.72,3.57,5.81,8.01,8.87,11.18,3.13,3.24,10.82,8.85,14.95,10.23,4.08,1.37,8.77,2.07,12.91,3.34,4.9,1.49,10.52,4.65,15.57,5.08,3.47.3,6.94.37,10.42.45,1.42.03,2.72-.11,4.14.04,1.62.17,3.25.27,4.87.15,4.68-.33,9.21-2.11,13.75-3.12,6.74-1.5,13.56-2.63,20.31-4.03,2.2-.46,4.35-1.16,6.55-1.62,2.19-.46,4.36-.64,6.56-.92,1.2-.16,2.34-.65,3.53-.91.95-.21,1.91-.26,2.87-.38,1.54-.18,3.41-.33,4.82-1,1.31-.62,2.51-1.57,3.95-1.87,2.82-.6,5-.16,8.07-1.28,2.56-.94,4.61-1.58,7.2-2.4,3.91-1.24,6.54-2.94,10.91-3.27,4.46-.34,10.63,1.91,14.72,3.82,3.87,1.81,6.87,4.77,10.54,6.87,10.71,6.13,22.7,7.8,33.54,13.47,5.29,2.76,10.49,5.86,16.48,6.93,18.97,3.38,38.3-.3,57.46,1.74,11.36.11,21.52-1.81,32.26-5.57,6.36-2.23,14.91-4.97,20.55-8.5,2.67-1.67,5.43-3.41,8.06-5.15,3.98-2.63,6.63-6.02,10.26-8.88,3.33-2.63,5.99-4.1,8.89-7.51,3.57-4.2,7.6-9.8,10.73-14.39,4.96-7.27,7.25-14.74,10.54-22.75,1.17-2.85,2.39-4.93,3.61-7.62.75-1.64.98-3.11,1.54-4.62.41-1.13,1.09-2.43,1.48-3.62,1.04-3.18,1.91-6.42,2.57-9.71.28-1.39.88-2.56,1.16-3.93.31-1.54.4-3.12.7-4.66.17-.88.41-1.75.65-2.62.2-.73.4-1.45.6-2.18,1.27-4.61,2.73-9.19,3.71-13.87.94-4.45,1.5-8.99,1.9-13.53.47-5.26,1.27-11.17,2.44-16.56.76-3.47,1.09-7.1,1.46-10.74.92-9.17,1.49-18.59,1.67-27.75.16-8.26-.48-16.54-1.05-24.78-.76-10.98-2.17-21.83-3.48-32.63ZM418.36,334.51c-.12,2.56-.65,5.27-1.01,7.85-.14.99.04,2.39-.24,3.36-.05.18-.4.15-.42.29-.03.3.22.69.17,1.19-.13,1.39-.96,3.56-1.34,5.07-.77,3.13-1.26,6.03-2.51,8.98-.26.61-.78,1.18-.95,1.59-1.25,3.01-3.59,10.59-5.76,12.57-.21.2-.66.18-.74.31-.1.16.04.54-.09.76-1.15,1.95-5.2,4.38-7.05,5.89-.71.58-1.2,1.18-1.78,1.78-.22.23-.73.24-.8.36-.12.19.06.65-.05.79-.07.09-.72.06-1.01.35-.23.22-.22.67-.51.97-2.07,2.15-4.68,4.24-6.87,6.28-7.01,6.55-15.13,9.54-23.99,12.96-6.99,2.7-16.51,6.7-23.75,7.74-6.95,1-12.5,2.45-19.26,3.82-7.52,1.53-16.96,3.58-24.53,3.28-10.65-.42-21.17-2.5-31.83-2.57-4.82-1.84-8.35-.74-13.03-.43-1.83.12-3.74-.11-5.58,0-2.68.16-5.52,1.09-8.07,1.28-3.01.23-9.38-1.26-12.54-1.99-5.56-1.29-12-4.81-17.12-7.54-12.33-6.56-22.57-14.25-32.87-23.8-10.31-9.57-14.96-22.79-20.36-35.49-5.77-13.55-10.41-21.86-11.06-37.41-.62-14.7.43-23.9,5.96-37.36,3.94-9.57,7.66-10.59,15.11-16.27,1.89-1.44,3.53-3.18,5.53-4.55,7.69-5.3,17.79-9.73,26.32-13.44,7.08-3.08,15.6-6.84,23.15-8.37,3.25-.66,6.74-.58,9.93-1.5,8.44-2.44,15.9-6.65,24.9-7.62,5.89-.63,11.75-1.23,17.52-2.84,4.36-1.22,8.88-3.5,13.23-4.93,4.34-1.42,7.85-2.46,12.15-4.12,7.26-2.8,13.43-2.15,20.67-3.65,10.21-2.11,19.63-6.77,30.18-7.4h5.17l6.82.96c7.43,1.99,14.85,3.96,21.35,8.3,6.15,4.1,9.88,8.4,14.16,14.47.96,1.37,4.46,6.36,4.88,7.59.66,1.93,1,4.59,1.66,6.64.42,1.31,1.25,2.7,1.66,4.07.61,2.05.73,4.39,1.28,6.4.62,2.27,1.94,4.86,2.65,7.33,2.91,10.03,4.87,20.36,6.45,30.62,1.4,9.1,2.51,17.78,3.16,26.96.44,6.25.43,12.56.64,18.85.01.34.15.74.4.98,0,.21.01.43,0,.64Z" fill="#3f5464"/>
  </g>
</svg>