<svg xmlns="http://www.w3.org/2000/svg" viewBox="0 0 566.93 566.93">
  <g id="zone-1" data-color-id="YL001">
    <path d="M348.87,45.17c-1.43.09-2.52.77-3.98.82-1.63.05-3.29.06-4.88.48-3.8,1.01-7.9,1.4-11.77,2.53-3.41.99-6.71,2.14-9.99,3.57-5.13,2.23-11.13,3.39-15.81,6.62-2.14,1.48-4.1,3.77-6.29,5.13-2,1.24-4.1,2.55-5.83,4.18-3.13,2.94-6.35,5.52-9.29,8.68-2.65,2.85-4.7,5.84-7.15,8.77-3.12,3.74-6.36,7.49-9.06,11.56-1.31,1.98-2.47,4.03-3.63,5.93-.99,1.63-1.48,3.26-2.25,5.01-1.58,3.61-3.5,6.92-4.59,10.81-.35,1.25-.95,2.45-1.11,3.75-.16,1.27-.43,1.98-1.16,3.1-1.44,2.22-2.79,4.07-4.92,5.7-.33.25-.73.53-1.15.44-.72-.15-1.98-1.31-2.62-1.73-2.13-1.37-4.08-3.02-5.79-4.87-1.48-1.61-2.52-3.96-4.18-5.31-.5-.38-.81-.93-1.2-1.42-.4-.51-.82-1.01-1.23-1.51-.84-1.02-1.66-2.07-2.32-3.21-2.11-3.69-3.53-7.77-5.33-11.53-.42-.88-.15-2.01-.5-2.65-1.11-2-1.95-4.39-2.81-6.58-.27-.68-.88-1.83-1.12-2.5-1.58-4.34-2.25-8.44-4.57-12.45-1.18-2.04-2.28-4.12-3.48-6.14-.58-.98-1.27-1.9-1.85-2.88-.51-.85-1.02-1.77-1.74-2.48-.49-.48-.86-.93-1.19-1.55-.62-1.16-1.53-2.14-2.24-3.25-.57-.9-.7-1.96-.72-3-.03-1.27.15-2.53.19-3.8.02-.95.16-2.64-.74-3.23-.38-.25-.95-.34-1.4-.21-.78.23-1.14,1.21-1.54,1.82-.59.9-1.13,1.83-1.64,2.77-.99,1.83-1.87,3.72-2.8,5.58-.92,1.83-.83,3.87-1.37,5.87-.55,2.03-1.48,4.74-1.64,6.94-.21,2.9.22,5.69.34,8.51.11,2.61-.1,5.33.48,7.74.44,1.81.34,3.78.82,5.78.79,3.3,1.07,6.75,1.81,9.96.73,3.19,1.54,5.93,2.01,9.09.67,4.48,2.82,8.66,4.06,13.06.64,2.27,1.04,3.84,2.23,6.02,1.67,3.06,3.75,5.9,5.21,9.08.06.12.08.26.11.39.01.07.04.13.05.19.01.06.07.21-.01.24-.05.02-.11-.02-.15-.03-.14-.07-.26-.17-.38-.26-.04-.03-.07-.06-.11-.09-.83-.72-1.57-1.51-2.39-2.24-.38-.34-.77-.68-1.2-.95-.21-.13-.45-.17-.64-.31-.29-.2-.56-.45-.83-.68-.27-.23-.53-.52-.82-.73-.43-.31-1.22-.72-1.79-1.09-3.5-2.3-7.37-4.11-11.14-5.66-1.58-.65-3.25-1.92-4.87-2.51-.87-.32-1.52-.41-2.4-.88-1.8-.95-3.8-1.65-5.73-2.44-4.26-1.73-8.69-2.92-13.04-4.32-1.55-.5-3.04-1.16-4.49-1.72-.48-.19-.99-.17-1.48-.25-.26-.04-.53-.21-.78-.3-.25-.09-.53-.23-.8-.27-.23-.04-.44-.03-.67-.13-.17-.07-.33-.18-.51-.23-.17-.05-.35-.05-.51-.1-3.82-1.19-7.36-2.71-11.43-3.51-1.07-.21-2.16-.31-3.25-.38-1.12-.07-2.29-.14-3.39.04-.48.08-.92.25-1.4.34-3.7.72-7.27,2.26-11.02,3.21-2.11.54-4.2,1.16-6.28,1.81-1.04.33-2.08.67-3.11,1.01-.99.32-1.95.31-2.98.36-4.4.22-8.82.43-13.22.17-2.28-.13-5.11-.84-7.41-.47-2.05.33-.11,2.6.52,3.28.47.5,1,.95,1.53,1.39.53.44,1.05.89,1.58,1.33.65.55,1.3.84,2.02,1.23.81.44,1.53,1.26,2.25,1.84,1.57,1.27,3.17,2.49,4.82,3.65,3.24,2.26,6.69,4.27,10.4,5.71,1.65.64,3.36,1.1,5.01,1.74,1.69.65,3.46,1.9,5.23,2.2,1.63.28,3.08.52,4.66,1.07,1.41.49,3.03.96,4.37,1.55,1.58.7,3.27,1.08,4.92,1.56,1.54.45,2.93,1.18,4.42,1.7.79.27,1.56.59,2.32.93,1,.44,1.98.93,2.96,1.4.99.48,1.74,1.2,2.81,1.5,1.26.36,2.57.78,3.76,1.33.35.16.76.17,1.13.28.56.17,1.01.5,1.52.74.41.19.9.17,1.3.39.57.31,1.49.98,2.06,1.29.26.14,1.63.34,1.03.87-.08.05-.17.1-.25.15-.23.14-.46.27-.7.41-.35.21-.7.41-1.05.62-.43.26-.87.51-1.3.77-.49.29-.98.58-1.47.86-.51.3-1.03.6-1.54.91-.51.3-1.01.59-1.52.89-.47.27-.93.55-1.4.82-.4.23-.79.47-1.19.7-.3.17-.59.35-.89.52-.16.1-.33.19-.49.29-.32.2-.69.35-1.05.47-.34.12-.7.18-1.01.37-.26.16-.55.23-.85.32-.35.11-.71.23-1.06.35-.79.28-1.57.6-2.35.93-.83.36-1.66.73-2.47,1.12-.8.38-1.59.77-2.38,1.18-1.16.6-2.26,1.16-3.31,1.93-.78.57-1.64,1.43-2.58,1.72-1.37.43-3.07.56-4.49.98-1.77.53-3.46,1.32-5.09,2.17-1.88.98-3.73,2.09-5.34,3.47-.49.41-.95.86-1.36,1.34-.18.22-.35.44-.5.68-.29.45-.53.91-.84,1.35-.29.41-.62.66-1.01.99-.33.28-.64.59-.92.92-.51.59-.96,1.23-1.34,1.9-.34.59-.41,1.28-.5,1.94-.04.28-.03.59-.12.85-.14.38-.43.73-.59,1.11-.06.15-.12.29-.18.44-.44.99-1.48,1.57-2.24,2.31-1.2,1.18-2.45,1.82-3.52,3.12-.31.39-.62,1.14-.98,1.57-.41.48-.93.85-1.34,1.32-.21.24-.36.52-.5.8-.21.44-.27,1.02-.24,1.51.09,1.48.95,2.37,2.49,2.55.65.07,1.33.38,1.97.25.72-.15,1.21-.63,1.74-1.09.6-.51,1.25-1.03,1.77-1.62.47-.53,1.05-1.19,1.69-1.5.74-.36,1.56-.66,2.13-1.27.35-.38.7-.76,1.03-1.15.81-.99,2.16-1.64,3.33-2.16,1.9-.84,3.82-1.66,5.49-2.91.35-.26.45-.48,1.03-.85,2.36-1.52,3.63-1.18,6.16-1.83,1.17-.3,2.71-1.08,3.91-1.36,2.4-.55,3.88-.66,6.24-1.5.84-.3,1.77-.33,2.65-.38.89-.06,1.76-.22,2.64-.25,1.5-.04,2.99-.19,4.47-.36.73-.08,1.46-.18,2.18-.26.68-.08,1.33-.09,2.01-.14,1.28-.11,2.57-.21,3.85-.23,1.15-.02,2.24.25,3.4.34.7.06,1.41.07,2.12.07.7,0,1.31.12,2.01.21,1.13.15,2.26.29,3.39.44,1.07.14,2.07.4,3.13.61,2.13.41,4.32.42,6.48.38,1.26-.03,2.85-.77,4.33-.88,2.19-.17,4.38.13,6.54.4.27.03.55.08.82.13.28.06.73.1.76.46.03.31-.35.5-.58.63-.38.21-.81.34-1.2.55-4.29,2.34-7.13,3.12-11.07,6.55-3.53,3.07-7.2,5.95-10.78,8.93-4.25,3.55-8.21,6.16-10.11,11.51-.57,1.61-1.31,3.84-1.64,5.62-.8,4.28-.6,7.29-.55,11.68.01.91-.02,1.81-.03,2.72-.02,1.3-.04,2.6-.03,3.91,0,.47,0,.95.03,1.42.02.46.09.93.06,1.39-.02.25-.05.5-.05.76,0,.3,0,.61.04.91.03.2.1.39.09.59,0,.21-.06.44-.04.64.03.24.08.43.05.68-.05.52,0,1.03.04,1.55.04.67.09,1.39,0,2.06-.06.47-.1.94-.11,1.41,0,.26.02.53-.03.78-.09.44-.25.86-.29,1.3-.04.45-.04.91-.04,1.37.01.98.09,1.95.16,2.92.08,1.16.15,2.34,0,3.51-.13,1.09-.15,2.2-.18,3.3-.02,1.02-.11,2.03-.11,3.04,0,.6,0,1.19,0,1.79,0,.54-.11,1.1-.03,1.65.31,2.03.38,4.09.72,6.12.11.62.24,1.24.41,1.86.09.31.18.62.29.93.09.28.27.52.37.79.04.1.05.21.08.31.04.13.1.24.12.37.08.44.32.82.57,1.19.12.18.13.32.18.52.04.18.16.36.26.51l-.26-.41c.02.18.07.37.2.51.31.12.63.24.94.37.21.08.42.17.64.25.28.11.55.11.85.11.1,0,.2,0,.3-.03.26-.06.48-.25.58-.49.06-.14.07-.29.09-.44.05-.45.22-.84.38-1.27.17-.45.33-.9.48-1.35.3-.88.59-1.76.86-2.65.09-.29.13-.59.18-.9.04-.27.01-.54.16-.78.09-.14.17-.27.26-.41.07-.11.19-.21.24-.32.23-.49.36-1.69.69-2.47.82-1.98,2.28-4.02,3.02-6.08.67-1.84.38-2,.46-3.76.05-1.15.53-1.75.62-2.74.14-1.69-.11-3.03.34-4.77.64-2.42,2.09-4.6,3.11-6.83.07-.14.09-.3.14-.45.05-.16.17-.28.26-.41.03-.05.06-.11.09-.16.15-.3.29-.61.51-.85.1-.1.16-.25.21-.37.26-.57.43-1.19.62-1.79.15-.49.27-1.02.5-1.48.69-1.35,1.07-2.86,1.73-3.97.81-1.37,1.25-3.13,1.9-4.69.35-.84.55-1.81.88-2.55,2.69-5.97,9.23-12.2,14.49-16.29.55-.43,1.55-.89,2.02-1.25,2.16-1.65,4.1-3.8,6.22-5.51,1.3-1.04,2.66-2.1,4.02-3.06,3.54-2.49,7.2-4.83,10.82-7.13.93-.59,1.84-1.11,2.73-1.67,3.76-2.4,7.61-3.94,11.66-5.85,2.25-1.05,4.27-2.22,6.51-3.23,2.85-1.3,3.68-1.24,6.82-1.43,1.07-.07,2.12-.28,3.2-.31.11.11.12,1.38.18,1.64.61,2.53,2.84,7.32,4.47,9.48.12.16.27.3.42.45.16.16.23.27.32.47.21.47.48.97.8,1.37.29.36.35.89.57,1.31,1.07,2.05,2.45,3.83,3.65,5.77.95,1.53,1.89,2.4,2.78,3.87,2.04,3.39,3.29,4.87,6.15,7.58,1.56,1.47,3.81,3.97,5.69,4.96,1.71.91,1.43.51,2.93,1.94,1.57,1.49,3.05,2.84,4.47,4.48.69.8,1.42,1.7,2,2.56.67.99,1.52,2.08,2.36,2.98,1.02,1.1,1.59,1.49,3.23,1.53.44.01.76-.13,1.18-.2.17-.03.3-.12.44-.21.12-.09.3-.17.41-.27.18-.17.62-1.65.61-1.97,0-.43-.14-.88-.25-1.29-.14-.54-.6-.9-.86-1.39-.58-1.11-1.08-2.39-1.6-3.45-.47-.97-.98-1.93-1.49-2.88-.13-.24-.25-.47-.38-.71-.12-.23-.18-.43-.25-.67-.14-.51-.3-1.02-.47-1.53-.04-.13-.09-.26-.12-.39-.03-.13-.04-.27-.05-.4-.05-.53-.11-1.07-.15-1.6-.09-1.09-.05-2.2-.08-3.3-.03-.98-.07-1.97-.18-2.94-.02-.18-.08-.32-.12-.49-.05-.21-.02-.46-.02-.67,0-.46,0-.92-.01-1.39,0-.69-.11-1.45-.02-2.13.07-.59.19-1.17.2-1.77.01-.66-.03-1.32-.09-1.97-.11-1.24-.31-2.48-.4-3.73-.18-2.54-.82-5.03-.93-7.58-.15-3.6.14-7.17.11-10.73,0-.41-.09-.83-.13-1.24-.02-.18-.09-.44-.05-.62.03-.13-.01-.08.12-.14.19-.08.43-.07.63-.15.13-.05.26-.11.38-.16.73-.29,1.54-.43,2.29-.66.82-.25,1.64-.51,2.46-.77,1.68-.54,2.63-.96,4.4-1.17,1.53-.18,2.18-.28,3.41-1.01.65-.38,1.99-.57,2.69-.75,1.86-.49,2.68-.78,4.13-1.91,2.07-1.61,3.34-3.9,4.81-5.92,2.34-3.22,4.74-6.26,6.96-9.59.49-.74,1.05-1.44,1.56-2.18.08-.12.2-.24.23-.38.03-.1,0-.2.04-.3.09-.31.32-.62.48-.91.34-.62.69-1.22,1.04-1.83.44-.75.87-1.51,1.26-2.28.36-.7.6-1.43.96-2.12.07-.14.12-.3.17-.46.15-.49.33-.98.48-1.47.2-.65.21-1.63.42-2.3.74-2.45,2.23-4.91,3.21-7.34.48-1.18.75-2.39.99-3.6.23-1.15.43-2.3.72-3.42.87-3.26,4.48-5.7,4.95-9.09.33-2.41-1.06-7.23-1.81-9.5-.72-2.19-1.81-3.89-1.97-6.36-.2-3.15-.39-10.39-5.63-8.09-4.02,1.77-3.36,7.79-2.06,11.05,2.76,6.9-3.89,13.41-8.1,17.85-1.17,1.23-2.46,2.36-3.81,3.4-2.81,2.14-5.45,4.88-8.36,6.78-2.3,1.5-4.78,2.36-7.29,3.37-2.42.98-4.28,2.23-6.41,3.56-1.59.99-3.49,1.93-5.08,3.04-.19.13-.29.36-.45.53-.13.13-.63.47-.64.11-.03-.86.4-1.6.65-2.39.24-.76.6-1.47.85-2.22.18-.55.19-1.14.38-1.69.2-.58.63-1.06.8-1.65.12-.41.16-.85.33-1.24,1.86-4.33,4.07-8.55,5.75-12.93,1.05-2.74,1.97-5.6,3.33-8.25,1.62-3.15,4.01-6.14,5.97-9.16,1.25-1.91,1.87-3.85,2.93-5.77,1.26-2.27,2.1-4.43,3.16-6.76,1.76-3.86,2.72-7.11,5.82-10.06,2.43-2.31,5.01-3.32,7.86-4.99,1.39-.81,2.68-1.85,3.97-2.83.75-.57,1.5-1.05,2.19-1.55,2.01-1.42,4.11-5.57,5.72-7.51,1.4-1.68,3-3.12,4.72-4.39.26-.19.52-.41.76-.62.25-.22.36-.45.68-.62.45-.24.86-.56,1.31-.79.35-.18.73-.31,1.07-.52,2.52-1.55,4.83-2.57,7.06-4.35,1.71-1.37,3.91-2.92,5.2-4.7,1.04-1.42,1.75-3.16,2.75-4.65.21-.31.43-.64.52-1,.82-3.07-3.12-3.34-4.93-3.22Z" fill="#f6b02c"/>
  </g>
  <g id="zone-2" data-color-id="YL008">
    <path d="M-.01,0v566.93h566.96V0H-.01ZM484.97,338.64c-1.22,4.33-3.83,8.99-5.21,13.41-2.27,7.28-2.99,16.73-5.81,23.4-2.62,6.19-7.74,16.85-11.63,22.09-3.06,4.13-7.02,8.12-10.38,12.26-7.38,9.1-14.12,18.88-21.42,28.11-4.43,5.61-9.74,6.93-14.59,10.85-1.48,1.19-2.66,2.7-3.95,4.09-1.27,1.38-2.9,2.16-4.5,3.15-.68.42-1.23,1-1.99,1.28-1.96.72-4.03,1.16-5.9,2.13-2.43,1.26-4.78,3.23-7.26,4.62-8.62,4.82-18.52,9.35-27.41,13.68-8.65,4.21-15.21,9.1-24.87,11.09-8.76,1.8-18.87,3.11-27.84,3.63-6.57.38-12.98-.17-19.54,1.33-1.65.37-3.07.66-4.75.7-1.92.05-3.84.08-5.76.1-4.53.04-9.05-.02-13.58-.17-2.11-.07-4.1-.22-6.15-.78-1.98-.53-3.92-1.23-5.92-1.67-3.87-.84-7.82-.77-11.63-1.54-10.41-2.1-20.09-6.32-30.19-9.3-4.1-1.21-8.55-1.9-12.52-3.21-9.55-3.16-23.9-12.9-31.24-19.81-7.34-6.91-14.02-13.94-21.66-20.72-13.09-11.61-18.05-19.37-24.88-35.49-9.23-21.8-18.52-45.24-17.52-69.52.32-7.71.51-11.62-.31-19.41-.3-2.9-.24-5.13,0-8.03.56-6.74,2.66-10.65,3.77-16.62.87-4.67,1.4-6.6,2.74-11.07,1.94-6.46,3.58-13.05,6.01-19.36,2.64-6.85,7.23-10.89,11.38-16.56,5.22-7.13,6.22-14.43,13.53-20.19,9.66-7.61,28.01-18.37,34.66-23.91,3.95-3.43,6.79-4.21,11.07-6.55.39-.21.82-.33,1.2-.55.23-.13.61-.32.58-.63-.04-.36-.48-.4-.76-.46-.27-.06-.54-.1-.82-.13-2.16-.28-4.36-.57-6.54-.4-1.48.12-3.07.86-4.33.88-2.17.05-4.35.04-6.48-.38-1.06-.2-2.05-.47-3.13-.61-1.13-.15-2.26-.29-3.39-.44-.69-.09-1.3-.21-2.01-.21-.71,0-1.41-.01-2.12-.07-1.15-.09-2.25-.36-3.4-.34-1.29.02-2.57.13-3.85.23-.68.06-1.33.06-2.01.14-.73.09-1.46.18-2.18.26-1.49.17-2.98.32-4.47.36-.88.02-1.76.19-2.64.25-.88.06-1.81.08-2.65.38-2.35.85-3.83.95-6.24,1.5-1.2.28-2.74,1.06-3.91,1.36-2.53.65-3.79.31-6.16,1.83-.58.37-.67.59-1.03.85-1.66,1.25-3.59,2.07-5.49,2.91-1.17.52-2.51,1.17-3.33,2.16-.33.4-.68.78-1.03,1.15-.57.6-1.39.91-2.13,1.27-.64.31-1.22.97-1.69,1.5-.52.59-1.17,1.11-1.77,1.62-.54.45-1.02.94-1.74,1.09-.64.13-1.33-.18-1.97-.25-1.54-.17-2.39-1.07-2.49-2.55-.03-.49.02-1.07.24-1.51.14-.29.29-.56.5-.8.41-.47.93-.84,1.34-1.32.36-.42.67-1.18.98-1.57,1.06-1.31,2.31-1.94,3.52-3.12.76-.74,1.8-1.33,2.24-2.31.06-.14.12-.29.18-.44.16-.38.45-.73.59-1.11.1-.26.09-.57.12-.85.09-.66.16-1.35.5-1.94.38-.67.82-1.32,1.34-1.9.29-.33.59-.63.92-.92.39-.33.72-.58,1.01-.99.31-.44.55-.9.84-1.35.15-.24.32-.46.5-.68.41-.49.87-.93,1.36-1.34,1.61-1.37,3.46-2.49,5.34-3.47,1.62-.85,3.32-1.64,5.09-2.17,1.42-.42,3.12-.55,4.49-.98.94-.3,1.8-1.16,2.58-1.72,1.06-.77,2.15-1.33,3.31-1.93.78-.4,1.58-.8,2.38-1.18.82-.39,1.64-.76,2.47-1.12.77-.33,1.55-.64,2.35-.93.35-.13.7-.24,1.06-.35.3-.09.58-.16.85-.32.31-.19.67-.26,1.01-.37.36-.12.73-.27,1.05-.47.16-.1.33-.19.49-.29.3-.17.59-.35.89-.52.4-.23.79-.47,1.19-.7.47-.27.93-.55,1.4-.82.51-.3,1.01-.59,1.52-.89.51-.3,1.03-.6,1.54-.91.49-.29.98-.58,1.47-.86.43-.26.87-.51,1.3-.77.35-.21.7-.41,1.05-.62.23-.14.46-.27.7-.41.08-.05.17-.1.25-.15.6-.53-.77-.73-1.03-.87-.57-.31-1.49-.98-2.06-1.29-.39-.22-.89-.2-1.3-.39-.51-.23-.97-.57-1.52-.74-.37-.11-.78-.12-1.13-.28-1.19-.54-2.5-.97-3.76-1.33-1.07-.3-1.81-1.02-2.81-1.5-.98-.48-1.96-.96-2.96-1.4-.76-.34-1.53-.66-2.32-.93-1.5-.52-2.88-1.26-4.42-1.7-1.65-.48-3.34-.87-4.92-1.56-1.34-.59-2.96-1.06-4.37-1.55-1.57-.55-3.02-.8-4.66-1.07-1.77-.3-3.55-1.55-5.23-2.2-1.65-.64-3.36-1.1-5.01-1.74-3.71-1.44-7.16-3.45-10.4-5.71-1.65-1.16-3.25-2.38-4.82-3.65-.71-.58-1.44-1.4-2.25-1.84-.72-.39-1.36-.68-2.02-1.23-.53-.44-1.05-.88-1.58-1.33-.53-.44-1.06-.89-1.53-1.39-.64-.68-2.57-2.95-.52-3.28,2.3-.37,5.13.34,7.41.47,4.41.26,8.82.05,13.22-.17,1.04-.05,2-.04,2.98-.36,1.04-.34,2.07-.68,3.11-1.01,2.08-.66,4.16-1.28,6.28-1.81,3.75-.95,7.31-2.49,11.02-3.21.48-.09.93-.26,1.4-.34,1.1-.18,2.28-.11,3.39-.04,1.09.07,2.18.17,3.25.38,4.07.79,7.61,2.32,11.43,3.51.17.05.35.05.51.1.18.06.34.16.51.23.22.1.44.09.67.13.27.05.54.18.8.27.25.09.52.26.78.3.5.09,1,.07,1.48.25,1.45.56,2.94,1.22,4.49,1.72,4.35,1.4,8.79,2.59,13.04,4.32,1.93.78,3.93,1.49,5.73,2.44.88.47,1.53.56,2.4.88,1.62.6,3.29,1.87,4.87,2.51,3.78,1.54,7.64,3.35,11.14,5.66.57.38,1.36.78,1.79,1.09.29.2.55.5.82.73.27.23.54.48.83.68.2.14.44.18.64.31.43.27.82.61,1.2.95.81.73,1.56,1.53,2.39,2.24.04.03.07.06.11.09.12.1.24.2.38.26.04.02.11.05.15.03.08-.03.02-.18.01-.24-.02-.07-.04-.13-.05-.19-.03-.13-.05-.27-.11-.39-1.47-3.17-3.54-6.01-5.21-9.08-1.19-2.18-1.59-3.75-2.23-6.02-1.23-4.4-3.39-8.58-4.06-13.06-.47-3.16-1.28-5.9-2.01-9.09-.74-3.21-1.01-6.66-1.81-9.96-.48-2-.38-3.97-.82-5.78-.58-2.41-.37-5.13-.48-7.74-.12-2.82-.55-5.6-.34-8.51.16-2.2,1.09-4.91,1.64-6.94.54-2,.44-4.04,1.37-5.87.94-1.86,1.81-3.75,2.8-5.58.51-.94,1.05-1.87,1.64-2.77.4-.6.76-1.58,1.54-1.82.44-.13,1.01-.05,1.4.21.9.59.77,2.28.74,3.23-.03,1.27-.21,2.53-.19,3.8.02,1.04.14,2.1.72,3,.71,1.11,1.61,2.09,2.24,3.25.33.62.7,1.07,1.19,1.55.72.71,1.23,1.63,1.74,2.48.58.98,1.27,1.9,1.85,2.88,1.2,2.02,2.3,4.11,3.48,6.14,2.32,4,3,8.1,4.57,12.45.24.67.86,1.83,1.12,2.5.86,2.19,1.7,4.58,2.81,6.58.35.64.08,1.77.5,2.65,1.81,3.76,3.23,7.84,5.33,11.53.66,1.15,1.48,2.19,2.32,3.21.41.5.83,1,1.23,1.51.38.49.7,1.04,1.2,1.42,1.66,1.35,2.7,3.7,4.18,5.31,1.71,1.85,3.66,3.5,5.79,4.87.65.42,1.9,1.58,2.62,1.73.42.09.81-.18,1.15-.44,2.14-1.63,3.49-3.48,4.92-5.7.73-1.12,1-1.84,1.16-3.1.16-1.29.76-2.49,1.11-3.75,1.09-3.89,3.01-7.19,4.59-10.81.77-1.76,1.25-3.38,2.25-5.01,1.16-1.91,2.32-3.95,3.63-5.93,2.7-4.06,5.94-7.82,9.06-11.56,2.46-2.94,4.5-5.93,7.15-8.77,2.94-3.17,6.17-5.74,9.29-8.68,1.73-1.63,3.83-2.94,5.83-4.18,2.19-1.36,4.15-3.65,6.29-5.13,4.68-3.23,10.68-4.4,15.81-6.62,3.28-1.43,6.58-2.57,9.99-3.57,3.87-1.13,7.97-1.52,11.77-2.53,1.59-.42,3.24-.42,4.88-.48,1.46-.05,2.55-.73,3.98-.82,1.82-.12,5.75.15,4.93,3.22-.1.37-.31.69-.52,1-1,1.49-1.71,3.22-2.75,4.65-1.29,1.78-3.49,3.33-5.2,4.7-2.23,1.78-4.54,2.81-7.06,4.35-.34.21-.72.33-1.07.52-.45.23-.86.56-1.31.79-.32.17-.42.39-.68.62-.24.21-.5.43-.76.62-1.73,1.27-3.32,2.71-4.72,4.39-1.62,1.94-3.71,6.08-5.72,7.51-.7.49-1.44.97-2.19,1.55-1.29.98-2.58,2.02-3.97,2.83-2.86,1.67-5.44,2.69-7.86,4.99-3.1,2.94-4.06,6.19-5.82,10.06-1.06,2.33-1.9,4.48-3.16,6.76-1.06,1.92-1.68,3.85-2.93,5.77-1.97,3.01-4.35,6.01-5.97,9.16-1.36,2.64-2.28,5.5-3.33,8.25-1.68,4.38-3.88,8.6-5.75,12.93-.17.39-.21.83-.33,1.24-.17.59-.6,1.07-.8,1.65-.19.55-.2,1.14-.38,1.69-.25.75-.61,1.47-.85,2.22-.25.79-.68,1.53-.65,2.39.01.36.52.02.64-.11.16-.16.26-.39.45-.53,1.59-1.11,3.49-2.05,5.08-3.04,2.13-1.33,3.99-2.58,6.41-3.56,2.51-1.02,5-1.87,7.29-3.37,2.9-1.89,5.54-4.64,8.36-6.78,1.36-1.03,2.64-2.16,3.81-3.4,4.21-4.44,10.86-10.95,8.1-17.85-1.3-3.26-1.96-9.28,2.06-11.05,5.24-2.31,5.43,4.94,5.63,8.09.16,2.46,1.24,4.17,1.97,6.36.75,2.28,2.14,7.09,1.81,9.5-.47,3.39-4.08,5.82-4.95,9.09-.3,1.12-.49,2.27-.72,3.42,10.07.14,19.33-.1,29.24,1.58,3.02.51,5.83,1.81,8.79,2.45,6.09,1.3,10.72,1.22,16.77,3.78,7.2,3.05,10.54,7.43,16.41,11.84,3.6,2.7,7.69,4.68,11.36,7.26,14.31,10.06,23.3,22.69,33.18,36.81,6.72,9.61,13.86,19.72,18.95,30.18,2.86,5.88,5.76,11.51,8,17.69.78,2.16,1.17,4.82,2.01,6.98,2.17,5.59,6.82,11.63,8.46,17.23,2.25,7.74,2.11,15.71,3.51,23.46.62,3.4,2.35,6.45,3.12,9.81.35,1.52.17,2.93.27,4.46.21,3.18.06,6.26.05,9.42-.02,5.92.44,14.36-1.12,19.91Z" fill="#fef6e7"/>
  </g>
  <g id="zone-3" data-color-id="GN026">
  </g>
  <g id="zone-4" data-color-id="RD001">
    <path d="M486.04,309.32c-.1-1.53.08-2.93-.27-4.46-.77-3.35-2.5-6.41-3.12-9.81-1.41-7.75-1.26-15.72-3.51-23.46-1.63-5.6-6.28-11.64-8.46-17.23-.84-2.16-1.23-4.82-2.01-6.98-2.24-6.18-5.14-11.81-8-17.69-5.08-10.46-12.22-20.57-18.95-30.18-9.88-14.12-18.87-26.75-33.18-36.81-3.67-2.58-7.77-4.56-11.36-7.26-5.87-4.41-9.21-8.79-16.41-11.84-6.04-2.56-10.67-2.48-16.77-3.78-2.96-.63-5.77-1.94-8.79-2.45-9.9-1.68-19.17-1.44-29.24-1.58-.24,1.21-.52,2.42-.99,3.6-.98,2.43-2.46,4.89-3.21,7.34-.2.66-.21,1.65-.42,2.3-.15.48-.33.98-.48,1.47-.05.16-.09.31-.17.46-.35.69-.6,1.42-.96,2.12-.39.77-.83,1.53-1.26,2.28-.35.61-.71,1.21-1.04,1.83-.16.29-.38.6-.48.91-.03.1,0,.2-.04.3-.04.14-.15.26-.23.38-.51.74-1.07,1.44-1.56,2.18-2.22,3.33-4.62,6.37-6.96,9.59-1.47,2.03-2.74,4.32-4.81,5.92-1.45,1.13-2.27,1.42-4.13,1.91-.7.18-2.05.37-2.69.75-1.23.72-1.88.82-3.41,1.01-1.77.21-2.72.63-4.4,1.17-.82.26-1.64.53-2.46.77-.75.22-1.56.37-2.29.66-.13.05-.25.11-.38.16-.2.07-.45.07-.63.15-.13.06-.09,0-.12.14-.04.18.03.44.05.62.05.41.13.83.13,1.24.03,3.57-.26,7.13-.11,10.73.11,2.55.75,5.04.93,7.58.09,1.25.29,2.48.4,3.73.06.66.1,1.31.09,1.97-.01.61-.12,1.18-.2,1.77-.08.68.02,1.44.02,2.13,0,.46,0,.92.01,1.39,0,.22-.03.46.02.67.04.17.1.32.12.49.11.98.15,1.96.18,2.94.03,1.1,0,2.21.08,3.3.04.54.1,1.07.15,1.6.01.13.03.27.05.4.03.13.07.26.12.39.17.51.32,1.02.47,1.53.07.24.13.45.25.67.13.24.25.47.38.71.51.95,1.02,1.91,1.49,2.88.52,1.06,1.03,2.35,1.6,3.45.26.49.72.86.86,1.39.11.41.24.86.25,1.29,0,.32-.43,1.8-.61,1.97-.11.1-.28.18-.41.27-.13.1-.27.19-.44.21-.41.07-.74.21-1.18.2-1.64-.05-2.2-.44-3.23-1.53-.84-.9-1.69-1.99-2.36-2.98-.58-.86-1.3-1.76-2-2.56-1.41-1.64-2.89-2.98-4.47-4.48-1.5-1.43-1.21-1.03-2.93-1.94-1.88-1-4.13-3.49-5.69-4.96-2.86-2.71-4.12-4.19-6.15-7.58-.89-1.47-1.83-2.34-2.78-3.87-1.19-1.93-2.57-3.72-3.65-5.77-.22-.41-.28-.94-.57-1.31-.32-.4-.59-.9-.8-1.37-.09-.2-.16-.31-.32-.47-.14-.14-.29-.29-.42-.45-1.63-2.16-3.86-6.95-4.47-9.48-.06-.26-.06-1.54-.18-1.64-1.07.03-2.13.25-3.2.31-3.14.19-3.97.13-6.82,1.43-2.23,1.01-4.26,2.18-6.51,3.23-4.06,1.9-7.91,3.44-11.66,5.85-.89.57-1.8,1.08-2.73,1.67-3.62,2.29-7.27,4.63-10.82,7.13-1.36.96-2.72,2.02-4.02,3.06-2.12,1.7-4.07,3.86-6.22,5.51-.47.36-1.47.82-2.02,1.25-5.26,4.09-11.81,10.32-14.49,16.29-.33.74-.53,1.7-.88,2.55-.65,1.56-1.09,3.31-1.9,4.69-.66,1.12-1.04,2.63-1.73,3.97-.23.46-.35.99-.5,1.48-.18.6-.35,1.22-.62,1.79-.06.13-.12.27-.21.37-.22.24-.35.55-.51.85-.03.05-.06.11-.09.16-.09.14-.2.26-.26.41-.05.15-.07.3-.14.45-1.03,2.23-2.48,4.41-3.11,6.83-.46,1.74-.21,3.08-.34,4.77-.08.99-.56,1.59-.62,2.74-.08,1.76.21,1.91-.46,3.76-.74,2.06-2.2,4.09-3.02,6.08-.32.78-.46,1.98-.69,2.47-.05.11-.17.22-.24.32-.09.14-.17.27-.26.41-.15.24-.12.51-.16.78-.04.3-.09.6-.18.9-.26.89-.55,1.78-.86,2.65-.16.45-.32.9-.48,1.35-.16.43-.33.82-.38,1.27-.02.15-.03.3-.09.44-.1.24-.32.43-.58.49-.1.02-.2.03-.3.03-.3,0-.57,0-.85-.11-.21-.08-.42-.17-.64-.25-.31-.12-.63-.24-.94-.37-.13-.14-.18-.32-.2-.51l.26.41c-.1-.15-.22-.34-.26-.51-.05-.2-.07-.34-.18-.52-.24-.37-.49-.75-.57-1.19-.02-.13-.09-.24-.12-.37-.03-.1-.04-.21-.08-.31-.1-.27-.27-.52-.37-.79-.1-.31-.2-.62-.29-.93-.17-.61-.3-1.23-.41-1.86-.34-2.03-.41-4.09-.72-6.12-.08-.55.03-1.1.03-1.65,0-.6,0-1.19,0-1.79,0-1.01.09-2.02.11-3.04.03-1.1.05-2.2.18-3.3.14-1.16.07-2.34,0-3.51-.06-.97-.14-1.95-.16-2.92,0-.46,0-.91.04-1.37.04-.44.2-.87.29-1.3.05-.25.02-.52.03-.78.01-.47.05-.94.11-1.41.09-.67.04-1.39,0-2.06-.03-.52-.09-1.03-.04-1.55.03-.25-.03-.44-.05-.68-.02-.21.03-.43.04-.64,0-.2-.06-.4-.09-.59-.04-.3-.05-.61-.04-.91,0-.25.03-.51.05-.76.04-.46-.04-.93-.06-1.39-.02-.47-.02-.95-.03-1.42,0-1.3.01-2.6.03-3.91.01-.91.04-1.81.03-2.72-.05-4.39-.25-7.4.55-11.68.33-1.78,1.07-4.01,1.64-5.62,1.9-5.35,5.85-7.96,10.11-11.51,3.58-2.99,7.25-5.86,10.78-8.93-6.65,5.54-25,16.3-34.66,23.91-7.31,5.76-8.31,13.05-13.53,20.19-4.14,5.67-8.74,9.7-11.38,16.56-2.43,6.3-4.07,12.89-6.01,19.36-1.34,4.46-1.87,6.39-2.74,11.07-1.11,5.97-3.21,9.89-3.77,16.62-.24,2.89-.3,5.13,0,8.03.82,7.79.63,11.7.31,19.41-1,24.28,8.29,47.72,17.52,69.52,6.82,16.11,11.78,23.87,24.88,35.49,7.64,6.78,14.32,13.81,21.66,20.72,7.34,6.91,21.7,16.66,31.24,19.81,3.97,1.31,8.42,2,12.52,3.21,10.1,2.98,19.78,7.2,30.19,9.3,3.81.77,7.76.7,11.63,1.54,2.01.43,3.94,1.13,5.92,1.67,2.05.55,4.03.71,6.15.78,4.52.15,9.05.21,13.58.17,1.92-.02,3.84-.05,5.76-.1,1.68-.04,3.1-.33,4.75-.7,6.56-1.5,12.96-.95,19.54-1.33,8.96-.51,19.07-1.82,27.84-3.63,9.66-1.99,16.22-6.88,24.87-11.09,8.9-4.33,18.79-8.87,27.41-13.68,2.49-1.39,4.84-3.36,7.26-4.62,1.87-.97,3.93-1.4,5.9-2.13.75-.28,1.3-.86,1.99-1.28,1.6-.99,3.22-1.77,4.5-3.15,1.28-1.39,2.47-2.89,3.95-4.09,4.86-3.92,10.16-5.24,14.59-10.85,7.3-9.23,14.04-19.01,21.42-28.11,3.36-4.14,7.31-8.13,10.38-12.26,3.89-5.24,9.01-15.9,11.63-22.09,2.83-6.67,3.54-16.13,5.81-23.4,1.38-4.43,3.99-9.09,5.21-13.41,1.56-5.55,1.1-13.99,1.12-19.91.01-3.16.16-6.24-.05-9.42Z" fill="#862618"/>
  </g>
  <g id="zone-5" data-color-id="RD005">
  </g>
  <g id="zone-6" data-color-id="GN008">
  </g>
  <g id="zone-7" data-color-id="BL027">
  </g>
</svg>