<svg xmlns="http://www.w3.org/2000/svg" viewBox="0 0 566.93 566.93">
  <g id="zone-1" data-color-id="YL001">
  </g>
  <g id="zone-2" data-color-id="YL008">
    <path d="M-.01,566.93h566.96V0H-.01v566.93ZM72.59,398.24c.69-2.58.74-5.52,1.8-8.33,2.48-6.58,7.75-12.13,12.95-16.68,3.49-3.06,7.27-5.83,11.33-8.09,2.05-1.14,3.82-2.67,5.92-3.8,2.28-1.23,4.69-2.22,7.17-2.97,1.85-.55,3.86-.67,5.58-1.49,1.89-.9,3.97-1.44,6.05-1.61l-5.24-4.01c-17.34-16.17-24.6-35.8-13.51-58.22,5.28-10.68,17.08-22.09,28.38-26.1,3.52-1.25,7.36-1.89,10.97-2.83l-17.89-8.74c-14.27-7.16-26.01-21.72-32.29-36.23-11.12-25.69,5.88-62.38,31.63-72.24,9.64-3.69,23.65-7.58,33.93-6.59,16.13,1.55,38.87,6.51,52.45,15.23.63.41,5.47,4.55,5.86,4.16.49-2.95.71-5.87,1.57-8.74,3.33-11.06,14.76-17.52,24.06-23.26,4.66-2.87,10.06-4.38,15.43-5.26,2.13-.35,4.34-.41,6.5-.58,1.81-.14,3.61-.32,5.41-.45,2.33-.16,4.67-.31,7-.21,1.21.05,2.4.17,3.59.35.96.14,1.88.03,2.85.16,1.35.18,2.7.4,4.04.66,2.73.52,12.15,3.3,14.8,4.11-.55-.32.13-.54.38-.92,3.79-5.86,8.25-11.18,11.95-16.89.67-1.03,1.25-2.12,1.87-3.17.24-.4.55-.67.8-1.03,2.29-3.34,4.02-7.06,6.5-10.25,3.26-4.19,5.69-9.06,8.93-13.05,1.73-2.12,2.83-4.54,4.25-6.87.98-1.6,2.06-3.15,3.18-4.66,2.22-3,4.61-5.89,6.7-8.99,1.06-1.57,3.87-3.52,4.42-4.49.35-.62.61-1.18,1.15-1.66,1.15-1.02,1.95-2.45,3.62-2.59,1.34-.11,2.96.36,4.18.88,2.4,1.02,4.82,2.4,6.92,3.93,1.63,1.19,3.57,3.26,5.24,4.24,1.04.61,2.11.78,2.93,1.69.88.97,2.26,1.68,3.45,2.18,1.98.85,4.01,2.73,5.25,4.45.1.14.2.29.27.46.08.22.1.45.1.68.02,3.03-2.21,5.17-3.71,7.54-.94,1.48-1.5,3.09-2.35,4.61-.16.3-.36.57-.51.88-.13.28-.22.57-.32.86-.38,1.08-.91,2.1-1.58,3.02-.64.89-1.21,2.05-1.92,2.86-1.48,1.69-3.35,3.18-4.8,5-.99,1.24-1.82,2.6-2.64,3.95-.34.57-.64,1.28-1.15,1.72-1.63,1.39-2.93,3.05-4.1,4.86-.28.44-.31,1.01-.62,1.44-.16.23-.38.38-.54.59-.96,1.29-1.66,2.82-2.45,4.23-.93,1.65-1.85,3.3-2.77,4.96-1.83,3.3-3.63,6.63-5.29,10.02-1.09,2.22-2.64,4.85-2.88,7.42-.13,1.36.1,3.24,1.74,3.51.64.1,3.27-1.13,4.19-1.42,1.49-.47,3.13-.69,4.58-.99,2.63-.55,4.74-2.35,7.49-2.5,4.42-.25,8.87-.23,13.3-.34,1.68-.04,3.37-.09,5.05-.13,4.78-.12,9.81.71,14.56,1.27,3.47.41,6.93.9,10.38,1.46,3.06.5,6.48,1.5,9.58,1.5,3.57.62,7.04,1.55,10.57,2.35.97.22,1.93.54,2.91.73.88.17,1.79.1,2.69.3,1.91.43,3.67,1.33,5.52,1.97,1.91.65,3.86.8,5.78,1.25,2.05.48,4.04,1.31,6,2.05,2.23.84,4.45,1.68,6.66,2.58.61.25,1.12.7,1.75.91,2.73.89,5.25,3.94,7.19,5.96,2.04,2.11,4,4.3,6.18,6.26,2.04,1.83,3.44,4.26,5.43,6.15,1.72,1.64,3.5,3.21,5.02,5.05,3.39,4.11,6.89,8.21,9.88,12.68,3.19,4.75,6.35,9.74,9.49,14.48,1.26,1.9,2.73,3.69,4,5.6.74,1.11,1.44,2.26,2.13,3.41.73,1.21,1.59,2.47,2.08,3.81.34.93.62,1.92.67,2.92.02.48,0,.96-.02,1.44-.02.4-.04.8-.05,1.19-.03.67-.26.97-.56,1.52-.27.49-.4,1.08-.64,1.59-.44.93-1.05,1.93-2.03,2.36-.74.32-1.58.27-2.32.48-2.51.7-4.99,1.51-7.56,1.98-1.82.34-3.71.52-5.56.25-.43-.06-.84-.2-1.27-.15-.53.06-1.07.11-1.61.13-1.06.04-2.11,0-3.17-.05l-.39-.02c-2.19-.09-4.37-.18-6.55-.34-5.62-.41-11.29-1.58-16.9-2.37-3.33,0-6.93-.97-10.23-1.43-1.75-.24-3.5-.49-5.25-.73-1.43-.2-3.12-.06-4.48-.5-.59-.19-1.27-.13-1.89-.25-1.5-.28-2.95-.78-4.41-1.22-.9-.26-1.83-.18-2.77-.25-.95-.07-1.9-.21-2.82-.5-.26-.08-.76-.4-1.03-.36-.33.05-.28.56-.19.8.1.25.28.46.47.66.19.19.39.38.55.6.22.31.36.68.57,1,.23.37.46.74.67,1.12,1.73,3.16,3.15,6.5,4.02,10,.52,2.06.86,4.16,1.28,6.25,4.14,1.4,7.34,2.91,11.27,4.73,4.41,2.05,8.37,4.94,12.21,7.88,5.51,4.21,10.98,8.66,14.87,14.4,3.88,5.74,6.02,13.02,4.22,19.71-.56,2.06-1.47,4.01-2.38,5.95-1.8,3.82-3.66,7.64-6.17,11.04-3.35,4.52-7.88,8.12-12.98,10.49-5.18,2.41-10.58,2.43-15.91,3.97-6.88,1.98-17.57,2.32-24.72,3.82l.08.97c2.88,2.44,6.47,4.62,9.22,7.17,3.42,3.17,9.87,13.35,12.13,17.73,8.29,16.08,10.66,36.56,3.08,53.28-2.89,6.39-12.58,14.26-18.93,16.69-25.58,9.77-51.53,4.81-73.31-10.83l-4.56-4c.82,1.28.07,2.44,0,3.67-.08,1.36.14,2.83-.03,4.16-.66,5.06-12,20.39-16.01,24.14-15.27,14.26-43.08,14.08-62.2,9.79-5.85-1.32-19.46-4.67-24.06-7.72-1.27-.84-2.47-2.32-3.7-3.29-1.26-.99-2.76-1.78-4-2.8.72,5.63.78,11.27.68,16.95-.31,17.54-5.07,30.97-20.98,39.76-3.63,2.01-7.28,3.09-10.91,4.8-14.92,7.01-25.24,14.27-42.48,14.97v.35h-8.03c-.25-.54-.94-.32-1.4-.35-12.48-.86-20.49-2.13-31.86-7.36-10.37-4.77-20.26-10.04-29.14-17.55-9.71-8.21-14.4-14.54-19.99-26.02-2.48-5.1-5.55-15.19-6.57-20.94-2.17-12.19,3.98-24.13,7.08-35.68Z" fill="#fef6e7"/>
  </g>
  <g id="zone-3" data-color-id="GN026">
    <path d="M512.21,215.17c-.05-1-.33-1.99-.67-2.92-.49-1.34-1.35-2.59-2.08-3.81-.69-1.15-1.39-2.29-2.13-3.41-1.27-1.91-2.74-3.69-4-5.6-3.14-4.75-6.3-9.73-9.49-14.48-3-4.46-6.5-8.56-9.88-12.68-1.52-1.85-3.3-3.41-5.02-5.05-1.99-1.9-3.39-4.32-5.43-6.15-2.19-1.96-4.15-4.15-6.18-6.26-1.94-2.01-4.46-5.07-7.19-5.96-.63-.2-1.14-.66-1.75-.91-2.2-.9-4.43-1.74-6.66-2.58-1.96-.74-3.95-1.57-6-2.05-1.92-.45-3.87-.6-5.78-1.25-1.85-.63-3.6-1.54-5.52-1.97-.9-.2-1.81-.13-2.69-.3-.98-.19-1.94-.51-2.91-.73-3.53-.8-7-1.73-10.57-2.35-3.1,0-6.52-1-9.58-1.5-3.45-.56-6.91-1.05-10.38-1.46-4.75-.56-9.78-1.39-14.56-1.27-1.68.04-3.37.09-5.05.13-4.42.11-8.88.09-13.3.34-2.75.16-4.86,1.96-7.49,2.5-1.45.3-3.08.53-4.58.99-.92.29-3.55,1.52-4.19,1.42-1.64-.26-1.87-2.15-1.74-3.51.24-2.57,1.8-5.2,2.88-7.42,1.66-3.39,3.46-6.72,5.29-10.02.92-1.66,1.84-3.31,2.77-4.96.79-1.41,1.49-2.94,2.45-4.23.15-.21.37-.36.54-.59.31-.43.34-1,.62-1.44,1.16-1.81,2.46-3.47,4.1-4.86.51-.43.81-1.15,1.15-1.72.82-1.35,1.65-2.71,2.64-3.95,1.45-1.82,3.33-3.32,4.8-5,.71-.81,1.27-1.97,1.92-2.86.67-.92,1.21-1.95,1.58-3.02.1-.29.19-.58.32-.86.15-.3.34-.58.51-.88.84-1.52,1.41-3.12,2.35-4.61,1.51-2.37,3.74-4.51,3.71-7.54,0-.23-.02-.47-.1-.68-.06-.17-.17-.31-.27-.46-1.24-1.72-3.27-3.6-5.25-4.45-1.19-.51-2.57-1.21-3.45-2.18-.82-.91-1.89-1.08-2.93-1.69-1.67-.97-3.61-3.05-5.24-4.24-2.11-1.54-4.52-2.91-6.92-3.93-1.22-.52-2.84-.99-4.18-.88-1.67.14-2.47,1.57-3.62,2.59-.55.48-.8,1.04-1.15,1.66-.54.96-3.35,2.92-4.42,4.49-2.09,3.1-4.48,5.98-6.7,8.99-1.12,1.51-2.2,3.05-3.18,4.66-1.42,2.33-2.53,4.75-4.25,6.87-3.24,3.99-5.67,8.86-8.93,13.05-2.49,3.19-4.21,6.91-6.5,10.25-.25.37-.56.64-.8,1.03-.63,1.06-1.2,2.14-1.87,3.17-3.7,5.72-8.16,11.04-11.95,16.89-.25.38-.92.6-.38.92.81.47,1.71.85,2.51,1.33,9.28,5.49,17.44,9.99,25.8,16.97,1.27,1.06,2.33,2.44,3.53,3.57.04.3-1.29,1.2-1.63,1.56-1.72,1.85-3.09,3.92-4.71,5.82-.72.84-1.56,1.55-2.34,2.33-.82.81-1.3,1.76-2,2.62-.67.81-1.77,1.37-2.53,2.12-2.27,2.23-3.83,5.05-5.39,7.78-1.89,3.33-3.68,6.71-5.47,10.09-.87,1.65-1.52,3.31-2.6,4.84-.77,1.1-1.61,2.16-2.31,3.31-.65,1.06-1.01,2.22-1.63,3.3-2.01,3.54-3.57,7.29-5.55,10.82-.16.28-.32.56-.44.86-.58,1.38-1.01,2.82-1.42,4.25-.42,1.45-1.21,2.75-1.3,4.28-.11,1.84-.22,3.69-.28,5.53-.06,1.62.07,3.28-.29,4.85-.52,2.24-.72,4.54-.8,6.84-.05,1.43-.05,2.86-.08,4.29-.01.78-.11,1.38-.26,2.1-.29,1.42-.15,2.89.17,4.29.4,1.73.85,3.47,1.25,5.21.26,1.12.36,2.38.45,3.57.09,1.21.52,2.48.6,3.63.13,2.1.08,4.22.1,6.29.02,2.02.53,2.04-.02,4.09-.12.45.08.92.13,1.35.08.76.04,1.53.14,2.27.25,1.83.32,3.23,1.51,4.77.18.23.36.44.55.66,1.05,1.22,2.28,2.4,3.87,2.84,1.09.29,2.05-.46,2.92-.97,1.9-1.11,3.12-2.43,4.69-4.06.84-.87,1.82-1.31,2.71-2.1,2.4-2.14,4.8-4.53,6.93-6.98.31-.36.62-.71.94-1.07.22-.24.44-.48.64-.73.15-.19.36-.3.53-.48l1.34-1.48c.35-.38.69-.76,1-1.18.38-.51.68-1.06,1-1.61.33-.56.7-1.06,1.07-1.59,1.06-1.51,2.95-2.26,4.07-3.75.48-.64,1.06-1.2,1.59-1.79.24-.27.57-.57.69-.91,1.24-3.48,4.44-6.45,6.26-9.68.13-.23.22-.46.4-.66.19-.21.35-.44.52-.67.4-.54.83-1.06,1.27-1.56.23-.25.46-.5.7-.75.57-.58,1.21-1.05,1.89-1.5.24-.16.5-.32.77-.41,1.17-.38,2.1,2.12,2.48,2.81.31.57.58,1.15.84,1.75.27.63.25,1.32.31,2,.02.23.02.5.09.72.05.14.12.27.16.42.2.69.25,1.43.29,2.14.07,1.17-.12,2.42.13,3.57.26,1.19.62,2.37,1.11,3.49.25.56.53,1.11.82,1.65.35.65.66,1.33,1.06,1.95.69,1.07,1.2,2.25,1.99,3.25.39.5.85.82,1.31,1.23.44.41.76.94,1.14,1.4,1.68,2.02,2.95,4.33,4.55,6.41,1.41,1.82,3.13,3.36,4.61,5.12.13.15.25.31.37.47.11.15.25.26.38.4.31.33.67.61,1.05.85.47.28.77.66,1.16,1.03.28.27,1.29,1.32,1.41,1.41,1.42,1.04,3.14,1.57,4.43,2.82.54.52,1.14.99,1.77,1.39.09.06.19.12.29.16.21.09.45.11.67.17,1.66.45,3.29,1.7,4.86,2.42.22.1.44.2.67.3,1.61.7,3.06.98,4.56,1.52,3.01,1.08,5.85,2.47,8.81,3.49,1.3.45,2.64.49,4,.55,1.37.06,2.46.55,3.7,1.11,2.49,1.13,4.87,2.47,7.3,3.71,3.21,1.64,6.43,2.6,9.81,3.76.34.12.67.32,1.03.4.13.03.26.06.4.09.17.04.34.07.52.1,1.92.33,4.17-.14,6.05-.52,1.47-.3,3.11-.76,4-2.07.1-.15.19-.3.28-.45.09-.15.22-.26.31-.41,2.07-3.56,2.44-7.28,3.39-11.2.24-.97.7-1.9,1.12-2.8,1.4-3.05,2.27-6.61,2.86-9.93.66-3.73.41-7.54.22-11.3-.09-1.89-.18-3.79-.14-5.68.04-1.58-.52-2.99-.92-4.54-.39-1.53-.46-3.24-.88-4.8-.26-.99-.48-1.98-.68-2.98-.42-2.08-.77-4.19-1.28-6.25-.88-3.5-2.29-6.84-4.02-10-.21-.38-.43-.76-.67-1.12-.21-.32-.35-.69-.57-1-.16-.22-.36-.4-.55-.6-.19-.19-.37-.4-.47-.66-.09-.24-.14-.75.19-.8.27-.04.77.27,1.03.36.91.29,1.86.43,2.82.5.93.07,1.87-.01,2.77.25,1.46.43,2.91.93,4.41,1.22.62.12,1.3.06,1.89.25,1.36.44,3.06.3,4.48.5,1.75.24,3.5.49,5.25.73,3.3.46,6.9,1.43,10.23,1.43,5.61.78,11.28,1.96,16.9,2.37,2.18.16,4.37.25,6.55.34l.39.02c1.06.04,2.11.08,3.17.05.54-.02,1.07-.07,1.61-.13.43-.05.84.09,1.27.15,1.85.27,3.73.08,5.56-.25,2.57-.47,5.05-1.28,7.56-1.98.73-.21,1.58-.15,2.32-.48.98-.43,1.59-1.43,2.03-2.36.24-.51.37-1.1.64-1.59.3-.55.53-.84.56-1.52.02-.4.04-.8.05-1.19.02-.48.04-.96.02-1.44Z" fill="#767c55"/>
  </g>
  <g id="zone-4" data-color-id="RD001">
  </g>
  <g id="zone-5" data-color-id="RD005">
  </g>
  <g id="zone-6" data-color-id="GN008">
    <path d="M476.44,265.39c-3.88-5.74-9.36-10.19-14.87-14.4-3.85-2.94-7.8-5.83-12.21-7.88-3.92-1.82-7.13-3.33-11.27-4.73.2,1,.41,2,.68,2.98.42,1.56.49,3.27.88,4.8.39,1.55.96,2.96.92,4.54-.05,1.9.04,3.79.14,5.68.19,3.76.44,7.57-.22,11.3-.58,3.32-1.45,6.87-2.86,9.93-.41.9-.88,1.83-1.12,2.8-.96,3.92-1.33,7.64-3.39,11.2-.09.15-.23.26-.31.41-.09.15-.18.31-.28.45-.89,1.31-2.53,1.77-4,2.07-1.88.38-4.14.86-6.05.52-.17-.03-.34-.06-.52-.1-.13-.03-.26-.06-.4-.09-.35-.08-.68-.28-1.03-.4-3.38-1.16-6.6-2.12-9.81-3.76-2.43-1.24-4.81-2.58-7.3-3.71-1.25-.56-2.33-1.05-3.7-1.11-1.36-.06-2.7-.1-4-.55-2.96-1.03-5.8-2.41-8.81-3.49-1.5-.54-2.95-.82-4.56-1.52-.22-.1-.44-.2-.67-.3-1.57-.72-3.2-1.96-4.86-2.42-.22-.06-.45-.08-.67-.17-.1-.04-.19-.1-.29-.16-.64-.4-1.23-.87-1.77-1.39-1.29-1.24-3.01-1.78-4.43-2.82-.12-.09-1.13-1.14-1.41-1.41-.39-.37-.7-.75-1.16-1.03-.39-.23-.74-.52-1.05-.85-.13-.14-.27-.25-.38-.4-.12-.16-.24-.31-.37-.47-1.48-1.76-3.2-3.3-4.61-5.12-1.6-2.08-2.87-4.39-4.55-6.41-.38-.46-.7-.99-1.14-1.4-.45-.42-.92-.74-1.31-1.23-.79-1.01-1.3-2.18-1.99-3.25-.4-.62-.71-1.3-1.06-1.95-.29-.54-.57-1.09-.82-1.65-.49-1.12-.85-2.3-1.11-3.49-.25-1.15-.06-2.4-.13-3.57-.04-.72-.1-1.45-.29-2.14-.04-.15-.12-.28-.16-.42-.07-.22-.07-.49-.09-.72-.07-.68-.04-1.37-.31-2-.26-.59-.53-1.18-.84-1.75-.37-.69-1.3-3.2-2.48-2.81-.28.09-.53.25-.77.41-.67.45-1.32.92-1.89,1.5-.24.24-.47.49-.7.75-.45.5-.87,1.02-1.27,1.56-.17.23-.33.46-.52.67-.18.19-.27.43-.4.66-1.82,3.23-5.01,6.19-6.26,9.68-.12.34-.45.64-.69.91-.53.6-1.11,1.15-1.59,1.79-1.12,1.49-3.02,2.23-4.07,3.75-.37.53-.74,1.03-1.07,1.59-.32.55-.63,1.1-1,1.61-.31.41-.65.8-1,1.18l-1.34,1.48c-.16.18-.38.29-.53.48-.2.25-.42.49-.64.73-.32.35-.63.71-.94,1.07-2.13,2.45-4.52,4.84-6.93,6.98-.89.79-1.88,1.23-2.71,2.1-1.56,1.62-2.79,2.95-4.69,4.06-.87.51-1.82,1.26-2.92.97-1.6-.44-2.82-1.63-3.87-2.84-.19-.22-.38-.43-.55-.66-1.19-1.54-1.26-2.94-1.51-4.77-.1-.74-.06-1.51-.14-2.27-.05-.44-.25-.91-.13-1.35.55-2.05.04-2.07.02-4.09-.02-2.07.04-4.19-.1-6.29-.07-1.16-.51-2.42-.6-3.63-.09-1.19-.19-2.45-.45-3.57-.41-1.74-.86-3.48-1.25-5.21-.32-1.41-.46-2.87-.17-4.29.15-.72.25-1.32.26-2.1.03-1.43.03-2.86.08-4.29.08-2.29.28-4.6.8-6.84.36-1.57.23-3.23.29-4.85.06-1.85.17-3.69.28-5.53.09-1.53.89-2.83,1.3-4.28.41-1.43.84-2.87,1.42-4.25.13-.3.28-.58.44-.86,1.98-3.54,3.54-7.28,5.55-10.82.62-1.09.98-2.24,1.63-3.3.7-1.15,1.54-2.21,2.31-3.31,1.08-1.53,1.73-3.19,2.6-4.84,1.79-3.38,3.58-6.77,5.47-10.09,1.56-2.74,3.12-5.55,5.39-7.78.76-.75,1.86-1.31,2.53-2.12.71-.86,1.19-1.81,2-2.62.78-.77,1.63-1.49,2.34-2.33,1.62-1.9,2.99-3.97,4.71-5.82.33-.36,1.67-1.27,1.63-1.56-1.2-1.14-2.26-2.51-3.53-3.57-8.36-6.97-16.52-11.47-25.8-16.97-.81-.48-1.7-.86-2.51-1.33-2.65-.81-12.08-3.59-14.8-4.11-1.34-.25-2.69-.47-4.04-.66-.97-.13-1.89-.02-2.85-.16-1.19-.18-2.39-.3-3.59-.35-2.34-.09-4.67.05-7,.21-1.81.12-3.61.31-5.41.45-2.15.17-4.36.23-6.5.58-5.37.88-10.76,2.38-15.43,5.26-9.31,5.73-20.73,12.2-24.06,23.26-.86,2.87-1.08,5.79-1.57,8.74-.39.39-5.23-3.75-5.86-4.16-13.58-8.72-36.32-13.68-52.45-15.23-10.28-.99-24.3,2.9-33.93,6.59-25.75,9.86-42.75,46.55-31.63,72.24,6.28,14.51,18.03,29.08,32.29,36.23l17.89,8.74c-3.61.93-7.45,1.58-10.97,2.83-11.3,4.01-23.1,15.42-28.38,26.1-11.09,22.42-3.83,42.05,13.51,58.22l5.24,4.01c-2.08.17-4.16.71-6.05,1.61-1.72.82-3.73.94-5.58,1.49-2.48.75-4.89,1.74-7.17,2.97-2.1,1.13-3.87,2.66-5.92,3.8-4.06,2.26-7.84,5.03-11.33,8.09-5.2,4.55-10.47,10.1-12.95,16.68-1.06,2.81-1.11,5.75-1.8,8.33-3.1,11.55-9.24,23.49-7.08,35.68,1.02,5.75,4.09,15.84,6.57,20.94,5.59,11.48,10.27,17.81,19.99,26.02,8.89,7.51,18.78,12.78,29.14,17.55,11.37,5.23,19.38,6.51,31.86,7.36.46.03,1.15-.19,1.4.35h8.03v-.35c17.24-.7,27.56-7.95,42.48-14.97,3.63-1.71,7.28-2.79,10.91-4.8,15.9-8.79,20.66-22.22,20.98-39.76.1-5.69.04-11.32-.68-16.95,1.25,1.02,2.74,1.81,4,2.8,1.23.97,2.43,2.45,3.7,3.29,4.59,3.06,18.2,6.41,24.06,7.72,19.12,4.3,46.94,4.48,62.2-9.79,4.02-3.75,15.36-19.08,16.01-24.14.17-1.33-.04-2.79.03-4.16.07-1.23.81-2.39,0-3.67l4.56,4c21.79,15.65,47.74,20.61,73.31,10.83,6.35-2.43,16.04-10.3,18.93-16.69,7.58-16.72,5.21-37.21-3.08-53.28-2.26-4.38-8.71-14.56-12.13-17.73-2.75-2.55-6.34-4.74-9.22-7.17l-.08-.97c7.15-1.49,17.84-1.84,24.72-3.82,5.34-1.54,10.73-1.56,15.91-3.97,5.1-2.37,9.63-5.97,12.98-10.49,2.51-3.39,4.37-7.22,6.17-11.04.91-1.93,1.82-3.88,2.38-5.95,1.8-6.69-.33-13.97-4.22-19.71Z" fill="#3b6c7d"/>
  </g>
  <g id="zone-7" data-color-id="BL027">
  </g>
</svg>