<svg xmlns="http://www.w3.org/2000/svg" viewBox="0 0 566.9 566.9">
  <g id="zone-1" data-color-id="RD009">
    <path class="st1" d="M392.3,223.5c-2.4-4.6-9.1-13.5-11.9-18-10-15.9-13.2-21.8-23.8-37.2-6.2-9-4.2-7.3-12.2-21.3,11.3,2.9,16.9,5.2,21.3,6,0,0,17.7,5.6,32.1,6.5,1.7.1,3.2-1.3,3-3.1-1-10.9-4.7-24.9-5.2-35-2.7-16.4-5.7-24.4-8.1-40.5-.4-7.1-5.8-18.1-11.9-24.6-10.5-9.8-19.6-19.7-29.4-27C324,19.2,302.2,9.5,284,0h-.6v283.4s126,0,126,0c-1.4-7.9-2.6-16.1-3.8-24.9-1.3-11.5-6.7-22.4-13.3-35.1Z" fill="#d5b6ab"/>
    <path class="st1" d="M566.6.2c-42.7,22.9-97.8,46.9-109,68.8-10.8,21.1-16.5,43.6-14.2,67.6,1.2,12.5,5.2,24.2,10.1,35.7,6.9,16,8.1,26.4,18,43.9,6.1,10,9.2,16.8,15.2,27,9.3,17.2,42.5,25.1,74.3,40.2h5.5s0-283.3,0-283.3Z" fill="#d5b6ab"/>
    <path class="st1" d="M98.5,437.8c-4.5-7.3-22.6-36.6-30-40.9-24.4-14.3-25.3-43.3-39.7-67.4-1-1.1-2.1-2.2-3.1-3.4-5.8-4.9-17.1-10.1-25.7-15.3v256.1s73.5,0,73.5,0h0c.3-14.4,29.8-57.8,32.2-71.9,2-12.2,3.2-19.3,2.2-30-1.3-12.9-2.4-15.9-9.3-27.2Z" fill="#d5b6ab"/>
    <path class="st1" d="M283.2,283.5H78.5c4.3,13.3,3.3,27.4,12.4,38.5,22,26.9,35.6,33.1,61.7,41.9,12.9,4.2,32.6,14.9,52.5,20.1l-20.4,25.1c-9,5.4-17.2,27.7-19.3,37.9-1.3,6.4-1.6,13-1.6,19.6,0,12.2,71.4,23.4,70.9,35.6-.8,17.9-57.3,32.5-56.2,51.6,1.5,8.2,15.3,12.7,23.2,13.2h81.7s0-283.4,0-283.4Z" fill="#d5b6ab"/>
    <path class="st1" d="M464.1,283.5h-66.4c-.1,0-.3,0-.4,0h67.1c0,0-.2,0-.3,0Z" fill="#d5b6ab"/>
    <path class="st1" d="M.1,138v-3.1c-.2,1.4-.2,2.5,0,3.1Z" fill="#d5b6ab"/>
    <path class="st1" d="M.1,134.8s0,0,0,0v3.1s0,0,0,0v-3.2Z" fill="#d5b6ab"/>
    <path class="st1" d="M261.9,142.7c-1-3.6-3.2-7.1-5.6-10-4.7-5.8-10.5-10.7-14.8-16.7-9-12.5-17.6-25.3-25.7-38.5-8.4-13.7-17.6-26.7-28.3-38.5-9.7-10.7-24.7-30.3-37.8-36.8-1.9-.9-3.7-1.6-5.6-2.1h-77.8c-4,0-7.9,2.3-9.6,3.7-5.5,4.6-14.1,10.9-16.4,15-2.8,5.2-8,11.7-10.4,17.1-9.1,21.1-10.6,41.1-19.7,62.3-1.7,3.9-9.1,27.3-10.2,36.6H.1s0,0,0,0v3.2s0,0,0,0H.1s0,0,0,0c16.1,19.4,17.2,17,36,30.4,9.4,6.7,33.9,17.7,43.5,24,8.7,5.7,22.5,7.9,32.9,9.8,9.8,1.7,16.1,4.6,21.6,9.9.6.3,1.2.6,1.7.9,32.9,16.9,58.3,42.6,82.1,70.6h4.9c5.7-13.7,13.6-28.7,22.1-38.2,1.8-2,3.6-4.1,5.2-6.2,6.6-8.8,11.7-18.2,12.4-29.3.8-12.7,1.5-25.5,2.5-38.2.8-10-.9-19.5-3.4-28.9Z" fill="#d5b6ab"/>
    <path class="st1" d="M566.9,380.2c-3.4-9.5-7.2-18.9-14.3-26.4-.6-.6-1.1-1.4-1.5-2.1-6.4-10.3-14.2-19.5-23.3-27.3-17.2-14.7-35.6-27.7-55.2-38.6-2.5-.9-5.1-1.6-7.8-2.4h-67.1c-6.2,1-12.4,2.5-18.5,4.8-4.2,1.6-8.5,3-12.8,3.9-19.6,4.2-34.3,15.7-44.8,33.2-4.7,7.8-9.1,15.9-13.3,24.1-4.3,8.3-9.6,15.9-13.5,24.5-4.6,10.1-7.5,20.5-10.2,30.2-.3,1.6-.6,2.8-.8,4v38c1.1,10.6,3.1,21.2,6,31.6,3.2,11.9,5.8,21,13.1,30.7,8.8,11.6,6.6,12.6,13.8,20.6,0,0,8.8,20.9,53.6,33.7,6.1,1.7,19.4,3.2,25.9,4.2h3.7c4.5,0,8.2,0,11.1,0h12.5c.2,0,2.8,0,3.4,0h2.7c7.9-1.3,12.8-1.6,14.5-2.7,7.8-4.9,15.6-9.9,23.7-14.3,18.7-10.4,36.2-22.4,49.7-39.7,4.5-5.8,8.7-11.9,13.2-17.7,6.2-8.1,12.4-16.2,18.7-24.3,8.1-10.4,13.8-30.5,17.7-43.1v-44.9Z" fill="#d5b6ab"/>
  </g>
  <g id="zone-2" data-color-id="WT000">
    <path class="st0" d="M375.5,56.2c6.1,6.5,11.5,17.5,11.9,24.6,2.4,16.1,5.4,24.2,8.1,40.5.5,10.1,4.2,24.1,5.2,35,.2,1.7-1.3,3.2-3,3.1-14.3-1-32.1-6.5-32.1-6.5-4.4-.8-10-3.1-21.3-6,8.1,14,6,12.3,12.2,21.3,10.6,15.4,13.9,21.3,23.8,37.2,2.8,4.5,9.5,13.3,11.9,18,6.6,12.7,12,23.5,13.3,35.1,1.1,8.8,2.4,17,3.8,24.9h151.7c-31.8-15.1-64.9-23-74.3-40.2-6.1-10.3-9.1-17-15.2-27-9.9-17.5-11.1-27.9-18-43.9-4.9-11.4-8.9-23.2-10.1-35.7-2.3-24,3.4-46.5,14.2-67.6,11.2-21.9,66.3-45.9,109-68.8V0h-282.7c18.3,9.5,40,19.2,62.1,29.2,9.8,7.3,18.9,17.3,29.4,27Z" fill="#e9e0d4"/>
    <path class="st0" d="M178.4,553.7c-1.1-19,55.5-33.7,56.2-51.6.5-12.1-70.8-23.4-70.9-35.6,0-6.5.3-13.2,1.6-19.6,2.1-10.2,10.4-32.6,19.3-37.9l20.4-25.1c-19.9-5.2-39.6-15.9-52.5-20.1-26.1-8.8-39.6-15-61.7-41.9-9.1-11.1-8.2-25.2-12.4-38.5H0s0,27.3,0,27.3c8.6,5.3,19.9,10.4,25.7,15.3,1,1.2,2.1,2.3,3.1,3.4,14.4,24.1,15.3,53.1,39.7,67.4,7.3,4.3,25.5,33.6,30,40.9,7,11.2,8.1,14.3,9.3,27.2,1,10.7-.1,17.9-2.2,30-2.4,14.1-31.8,57.5-32.2,71.9h0s128.1,0,128.1,0c-7.8-.5-21.6-5-23.2-13.2Z" fill="#e9e0d4"/>
    <path class="st0" d="M30,35.9c2.4-5.5,7.5-11.9,10.4-17.1,2.2-4.1,10.9-10.4,16.4-15,1.7-1.5,5.6-3.7,9.6-3.7H.1v134.7c1.1-9.3,8.5-32.6,10.2-36.6,9.1-21.1,10.5-41.2,19.7-62.3Z" fill="#e9e0d4"/>
    <path class="st0" d="M144.1,0c1.9.5,3.8,1.1,5.6,2.1,13.1,6.5,28.1,26,37.8,36.8,10.7,11.8,19.8,24.9,28.3,38.5,8.1,13.1,16.8,25.9,25.7,38.5,4.3,6,10.1,11,14.8,16.7,2.4,2.9,4.6,6.4,5.6,10,2.5,9.3,4.2,18.9,3.4,28.9-1,12.7-1.7,25.5-2.5,38.2-.7,11.1-5.8,20.5-12.4,29.3-1.6,2.2-3.4,4.2-5.2,6.2-8.4,9.5-16.4,24.5-22.1,38.2h60.4V0h-139.3Z" fill="#e9e0d4"/>
    <path class="st0" d="M136,213c-.6-.3-1.2-.6-1.7-.9-5.5-5.3-11.8-8.1-21.6-9.9-10.4-1.8-24.2-4.1-32.9-9.8-9.7-6.4-34.1-17.3-43.5-24-18.8-13.4-19.9-11-36-30.4,0,0,0,0,0,0v145.5h218c-23.8-28-49.2-53.7-82.1-70.6Z" fill="#e9e0d4"/>
    <path class="st0" d="M284.5,404.2c2.7-9.7,5.5-20.1,10.2-30.2,3.9-8.6,9.2-16.2,13.5-24.5,4.2-8.2,8.6-16.3,13.3-24.1,10.5-17.4,25.2-29,44.8-33.2,4.3-.9,8.6-2.3,12.8-3.9,6-2.3,12.2-3.8,18.5-4.8h-113.9v283.5h112.4c-6.5-1-19.9-2.5-25.9-4.2-44.8-12.8-53.6-33.7-53.6-33.7-7.2-8-5-9-13.8-20.6-7.3-9.7-9.9-18.8-13.1-30.7-2.8-10.4-4.8-21-6-31.6v-38c.2-1.1.5-2.4.8-4Z" fill="#e9e0d4"/>
    <path class="st0" d="M530.6,492.4c-4.4,5.9-8.6,11.9-13.2,17.7-13.5,17.3-31,29.4-49.7,39.7-8,4.5-15.9,9.4-23.7,14.3-1.7,1.1-6.6,1.4-14.5,2.6h-2.5c0,0,.1,0,.2,0h139.7v-141.8c-4,12.6-9.6,32.6-17.7,43.1-6.2,8.1-12.5,16.1-18.7,24.3Z" fill="#e9e0d4"/>
    <path class="st0" d="M464.7,283.4c2.7.7,5.4,1.5,7.8,2.4,19.6,11,38,23.9,55.2,38.6,9.1,7.8,16.9,16.9,23.3,27.3.5.7.9,1.5,1.5,2.1,7.1,7.5,10.9,16.8,14.3,26.4v44.9s0-141.6,0-141.6h-102.2Z" fill="#e9e0d4"/>
    <path class="st0" d="M440.6,430.2c11.4-13.9,28.4-14.8,35.9-4.1,6.1,8.7,4.7,13.6-5.1,17.1-14.1,5.1-31.5-4.6-30.8-13Z" fill="#e9e0d4"/>
    <path class="st0" d="M415.5,447.1c5.6-.7,6.9,11,8.4,16.7,1.1,4.2.7,10.4-1.8,13.6-2.3,3-9.8,5.6-12.1,4.1-4.3-2.9-8.6-8.9-8.9-13.8-.4-8.8,4.4-16.1,14.3-20.6Z" fill="#e9e0d4"/>
    <path class="st0" d="M395.4,424.4c-9.2,3.4-16.7,3.9-23.9,3.3-3.7-.3-9-5.5-10-9.4-.9-3.7,1.9-11.3,4.7-12.1,5.2-1.5,12.3-1.5,17.2.5s23,6.9,12,17.7Z" fill="#e9e0d4"/>
    <path class="st0" d="M420,400.7c-.2-6.8-1.4-14-.2-20.4.6-3.2,4.9-6.6,8.4-7.2,3-.5,8.8,2.2,10.5,4.9,2,3.2,3.5,9,2.9,12.4-1.1,6.7-8,16.7-16.3,16.1-1.2-.9-5.2-3.9-5.3-6Z" fill="#e9e0d4"/>
  </g>
</svg>