<svg xmlns="http://www.w3.org/2000/svg" viewBox="0 0 566.9 566.9">
  <g id="zone-1" data-color-id="RD009">
    <path class="st3" d="M486.7,418.2c7.3-4.1,14.6-8.4,21-14.2,11.8-10.8,22.5-23.4,29.7-40.7,9.3-22.4,17.2-45.6,23.9-69.6.4-1.6.9-3.2,1.2-4.9.3-2.1.3-3.7,0-4.9,0,0,0,0,0,0h-278.1s0,0,0,0c3,13.5,6.1,27,9.4,40.4,1,4.2,2.6,8.3,4.2,12.2,1.8,4.2,3.6,8.5,6.1,11.9,7.9,10.5,15.7,21.3,24.4,30.7,9.9,10.7,20.1,20.8,32.8,26,7.3,3,14.4,7.4,21.2,12.1l-98.9-.9c-.1,1-.1,2.2,0,3.7.2,1.7.6,3.3,1,5,5.7,24.2,12.6,47.8,21.1,70.7,6.5,17.6,16.8,30.7,28.2,42,8.3,8.2,18.3,13.6,27.8,19.6,8.8,5.5,18.1,8.6,27.8,10.1h51.2c5.9-1.8,10.2-4.9,17.6-9.5,7.7-4.8,15.7-9.4,23.9-12.3,13.1-4.6,23.9-14.2,34.4-24.5,9.2-9,17.6-19.5,26.1-29.7,2.7-3.2,4.7-7.5,6.7-11.6,1.9-3.8,3.6-7.9,4.8-12,4.3-14.5,8.4-29,12.3-43.6v-5.1l-79.8-.7Z" fill="#d5b6ab"/>
    <path class="st3" d="M537.1.4h-254v119.2s0,0,0,0V.4h0c.6,3.4,1.1,6.9,1.3,8.4,2.8,20.9,4.6,36,7.3,56.9.6,4.2.7,8.5.5,12.9-.8,17-2.2,34.2-2.5,51.2-.1,8.2.6,16.3,1.3,24.3,1,4.7,2.1,9.5,3.1,14.2,4.5,20.3,11.2,40.4,22.5,60.2,2.7,4.7,5.5,9.6,7.5,14.4,5.7,13.7,11.3,27.3,16.9,41h94.9s0,0,0,0h71.6s0,0,0,0h12.9c1-2,2-4,3-6,10.9-21.7,16-45.1,17.7-69.1,1.7-24.4,3.5-48.7,4.4-73.2.5-13.7-.1-27.4-.8-41.1-1-19.6-3.2-39.2-3.6-58.8-.3-11.9-2-23.6-4-35.3h29.2v283.5h-45.9s0,0,0,0h45.9V.4s-29.3,0-29.3,0ZM371.6,152c-2-3.2-7.7-13.1-9.2-16.6-5-11.7-6.5-9.2-11.5-20.8-2.5-5.6-8.7-21.9-11.5-27.3-4.2-7.9-8.7-28.3-13.3-35.8-1.6-2.5-4.6-8.5-8.7-13.2-1.1-2.4-2.3-4.8-3.5-7.2-4-6.6-6.9-9.7-11.5-15.7-2-2.7-4.9-4.6-9.9-9.3-.8-.9-6.8-4.4-9.2-5.7h73.3c.5,11,2.4,22,3.8,33.7,2,16.7,0,34.6,4.8,50.7.7,2.2,1,10.7,1.7,12.9,4.7,15.9,6.1,24.8,8.7,34,3.9,13.7,6.1,23.4,8.1,31.2-4.6-3.5-9.2-6.8-11.7-10.9ZM484.1,17.3c-4.8,9.1-9.3,18.3-12.9,27.9-2,5.2-3.7,10.6-5.1,16.1-1.6,6.4-2.4,13.2-2.8,19.8,0,.6,0,1.3,0,2.1,0,.9,0,1.8,0,2.9-.2,6-.2,12.1,0,18.2.1,4.6.2,9.2.4,13.8,0,0,0,.2,0,.3.2,8.4.2,28.7,1.2,37.1-.6,12.2-1.9,25.5-2.6,38.3-2.7-9.5-5.5-19-8.3-28.5-1.6-5.4-4-10.5-6.4-15.5-10.1-21.1-14.6-43.6-16.4-66.7-1.1-13.3-2.1-26.5-3.1-39.8-1.1-14.5-3.1-28.9-7.2-42.8h72.4c-3.1,5.6-6.1,11.2-9.1,16.9Z" fill="#d5b6ab"/>
    <path class="st3" d="M224,200.5c-3.5-13.5-7.7-26.8-10.8-40.4-1.8-7.7-3-15.8-8.5-22.4-11.9-14.2-24.7-27.1-44.5-33.5,7-2.6,13.7-5.4,20.5-9.1,0,0,.1,0,.2,0,11.8-3.7,23.6-20.1,22.4-32.7-2.3-23.9-12.8-46.6-32.6-59.3-2.7-1.1-3.3-1.2-6.8-2-1.3-.3-2.2-.3-3.3-.6h-27.8c-16.5,2.7-22.7,8.7-33.6,22.3-5,8.8-10,17.7-15.1,26.4-6.2,10.5-1.4,22.3,5.1,32.1,4.5,6.8,18.7,16.8,33.3,22.7-27.6,7-46.1,31.7-69.2,50.7-38.5,43.6,17.4,117.1,61.4,129.3h46.9c3.2-1.3,16.6-5.6,17.5-6.2,12.5-8.3,15.1-10.9,25.9-21.2,15.3-14.7,25-32.6,18.9-56Z" fill="#d5b6ab"/>
    <path class="st3" d="M566.7,138.3v-3.2c-.2,1.4-.2,2.6,0,3.2Z" fill="#d5b6ab"/>
    <path class="st0" d="M272.7,550.3c-4.2-9.5-15-25.3-17-35.4-3-15.2-5.9-30.5-8.7-45.8-2.9-15.6-2.7-31.2-1.6-46.7.2-2.6.3-5.2.6-7.8.8-8.1,1.8-16.1,2.5-24.3.9-10.5,1.9-21,2.3-31.5.6-15.4,8.4-31.9,13-46.6,1.5-4.8,8.1-16.7,15-28.2H81.8c9.1,14.9,21.4,33.3,25.9,42.8,4.2,9,9.3,17.5,15.5,25.2,2,2.5,4.1,5.1,6.2,7.6,3.7,4.4,7.3,8.8,10.6,13.5,7.8,10.9,16.6,20.6,26.3,29.4,3.6,10.6,6.7,21.2,8.2,32.3,1.5,11.2,1.6,22.6,2.3,33.9,1,15.2-1.3,30.2-2.5,45.2-.5,6.4-.6,13-.4,19.4.5,11.4,1.1,22.7,1.7,34.1h105.8c-3.7-7-7.2-13.5-8.7-17.1Z" fill="#d5b6ab"/>
    <path class="st0" d="M90.2,529.6c-1.8-5-3.7-10.2-5.6-15.5-5.2-14.9-10.1-30.5-12.9-43.7-3.4-16.4-3.9-23.9-7.6-40.2-2.5-11-6.6-28.5-10.4-39.1-4.7-13.3-10.6-26.2-15.7-39.4-2-5.2-11.8-36.1-21.2-67.8H-.3s0,283.5,0,283.5h104c-3.2-9.7-6-17.9-7.9-22.9-1.7-4.6-3.6-9.6-5.5-14.8Z" fill="#d5b6ab"/>
  </g>
  <g id="zone-2" data-color-id="WT000">
    <path class="st1" d="M333.9,537.7c-11.4-11.3-21.7-24.5-28.2-42-8.5-22.9-15.4-46.4-21.1-70.7-.4-1.6-.8-3.3-1-5-.1-1.4-.1-2.6,0-3.7l98.9.9c-6.8-4.7-13.9-9.1-21.2-12.1-12.7-5.2-23-15.3-32.8-26-8.6-9.4-16.5-20.2-24.4-30.7-2.5-3.4-4.3-7.7-6.1-11.9-1.7-3.9-3.2-8-4.2-12.2-3.3-13.4-6.4-26.9-9.4-40.4h-1v283.5h106.2c-9.7-1.5-19.1-4.6-27.8-10.1-9.5-6-19.5-11.4-27.8-19.6Z" fill="#e9e0d4"/>
    <path class="st1" d="M566.5,424c-3.9,14.6-8,29.2-12.3,43.6-1.2,4.2-3,8.2-4.8,12-2,4.1-4,8.4-6.7,11.6-8.5,10.2-16.9,20.6-26.1,29.7-10.5,10.3-21.3,19.9-34.4,24.5-8.2,2.9-16.2,7.5-23.9,12.3-7.5,4.7-11.8,7.8-17.6,9.5h125.9v-143.4Z" fill="#e9e0d4"/>
    <path class="st1" d="M566.5,283.9h-4.1c.3,1.3.3,2.9,0,4.9-.2,1.7-.7,3.3-1.2,4.9-6.7,23.9-14.5,47.1-23.9,69.6-7.2,17.2-17.9,29.9-29.7,40.7-6.4,5.9-13.7,10.1-21,14.2l79.8.7v-135Z" fill="#e9e0d4"/>
    <polygon class="st1" points="566.5 283.9 566.5 418.9 566.5 424 566.5 567.4 440.7 567.4 389.5 567.4 283.2 567.4 283.2 567.4 566.5 567.4 566.5 283.9 566.5 283.9" fill="#e9e0d4"/>
    <path class="st1" d="M537.1.4c2,11.6,3.7,23.3,4,35.3.5,19.6,2.6,39.2,3.6,58.8.7,13.7,1.4,27.5.8,41.1-1,24.4-2.7,48.8-4.4,73.2-1.7,24.1-6.8,47.4-17.7,69.1-1,2-2,4-3,6h45.9V.4h-29.2Z" fill="#e9e0d4"/>
    <path class="st1" d="M428,43.3c1,13.3,2,26.5,3.1,39.8,1.8,23.1,6.3,45.6,16.4,66.7,2.4,5.1,4.9,10.2,6.4,15.5,2.8,9.5,5.6,19,8.3,28.5.7-12.7,2-26,2.6-38.3-1-8.4-1-28.6-1.2-37.1,0,0,0-.2,0-.3-.2-4.6-.3-9.2-.4-13.8-.1-6-.2-12.1,0-18.2,0-1,0-2,0-2.9,0-.8,0-1.5,0-2.1.4-6.6,1.2-13.4,2.8-19.8,1.4-5.5,3.1-10.8,5.1-16.1,3.6-9.6,8.1-18.8,12.9-27.9,3-5.6,6-11.3,9.1-16.9h-72.4c4,13.9,6,28.3,7.2,42.8Z" fill="#e9e0d4"/>
    <path class="st1" d="M366.5,97.7c-.6-2.2-1-10.7-1.7-12.9-4.7-16.1-2.8-34-4.8-50.7-1.4-11.7-3.3-22.7-3.8-33.7h-73.3c2.4,1.3,8.4,4.8,9.2,5.7,5,4.7,7.8,6.6,9.9,9.3,4.6,6,7.5,9.2,11.5,15.7,1.2,2.3,2.4,4.8,3.5,7.2,4.2,4.7,7.2,10.7,8.7,13.2,4.6,7.5,9.1,28,13.3,35.8,2.9,5.4,9.1,21.6,11.5,27.3,5.1,11.6,6.6,9.1,11.5,20.8,1.5,3.5,7.3,13.4,9.2,16.6,2.5,4.1,7.1,7.4,11.7,10.9-1.9-7.8-4.2-17.4-8.1-31.2-2.6-9.2-4-18.1-8.7-34Z" fill="#e9e0d4"/>
    <path class="st1" d="M324.1,242.9c-2-4.9-4.8-9.7-7.5-14.4-11.3-19.8-18-39.9-22.5-60.2-1.1-4.7-2.1-9.5-3.1-14.2-.7-8-1.4-16.1-1.3-24.3.3-16.9,1.7-34.1,2.5-51.2.2-4.4,0-8.7-.5-12.9-2.8-20.9-4.5-36-7.3-56.9-.2-1.5-.7-4.8-1.3-8.4h0v119.2s0,0,0,0v164.3h52.8s0,0,0,0h5.2c-5.6-13.7-11.2-27.3-16.9-41Z" fill="#e9e0d4"/>
    <path class="st1" d="M278.7,283.9c-6.9,11.5-13.5,23.4-15,28.2-4.5,14.7-12.3,31.2-13,46.6-.4,10.5-1.4,21-2.3,31.5-.7,8.1-1.7,16.2-2.5,24.3-.3,2.6-.4,5.2-.6,7.8-1.1,15.6-1.4,31.1,1.6,46.7,2.9,15.3,5.7,30.5,8.7,45.8,2,10.1,12.7,25.9,17,35.4,1.6,3.6,5,10.1,8.7,17.1h1.6v-283.5s-4.3,0-4.3,0Z" fill="#e9e0d4"/>
    <path class="st1" d="M176.8,468.6c-.7-11.3-.8-22.7-2.3-33.9-1.5-11.1-4.6-21.8-8.2-32.3-9.7-8.8-18.5-18.5-26.3-29.4-3.3-4.7-7-9.1-10.6-13.5-2.1-2.5-4.2-5-6.2-7.6-6.2-7.8-11.2-16.3-15.5-25.2-4.5-9.5-16.8-27.9-25.9-42.8H17c9.4,31.7,19.2,62.6,21.2,67.8,5.1,13.2,11,26.1,15.7,39.4,3.7,10.6,7.9,28.2,10.4,39.1,3.7,16.3,4.2,23.8,7.6,40.2,2.7,13.2,7.6,28.7,12.9,43.7,1.8,5.3,3.7,10.5,5.6,15.5,1.9,5.2,3.8,10.2,5.5,14.8,1.9,5,4.8,13.3,7.9,22.9h25.6s46.3,0,46.3,0c-.7-11.4-1.3-22.7-1.7-34.1-.3-6.5-.2-13,.4-19.4,1.2-15.1,3.5-30.1,2.5-45.2Z" fill="#e9e0d4"/>
    <path class="st1" d="M99.3,22.8C110.2,9.2,116.3,3.2,132.8.5H-.3v283.5h115c-44-12.2-99.9-85.7-61.4-129.3,23.1-19,41.5-43.7,69.2-50.7-14.6-5.9-28.8-15.9-33.3-22.7-6.5-9.7-11.3-21.6-5.1-32.1,5.2-8.7,10.1-17.6,15.1-26.4Z" fill="#e9e0d4"/>
    <path class="st1" d="M160.6.5c1.1.3,1.9.3,3.3.6,3.4.8,4.1.9,6.8,2,19.8,12.7,30.3,35.4,32.6,59.3,1.2,12.6-10.6,29-22.4,32.7,0,0-.1,0-.2,0-6.8,3.7-13.5,6.6-20.5,9.1,19.9,6.4,32.7,19.3,44.5,33.5,5.5,6.5,6.7,14.7,8.5,22.4,3.1,13.6,7.3,26.9,10.8,40.4,6.1,23.4-3.6,41.3-18.9,56-10.8,10.4-13.4,13-25.9,21.2-.9.6-14.3,4.9-17.5,6.2h121.4V.5h-122.4Z" fill="#e9e0d4"/>
  </g>
</svg>