<svg xmlns="http://www.w3.org/2000/svg" viewBox="0 0 566.93 566.93">
  <g id="zone-1" data-color-id="BW002">
  </g>
  <g id="zone-2" data-color-id="OR008">
    <path d="M-.2-.06v448.94c0-.75,89.84,0,89.84,0,0,0,74.67,3.72,108.75,28.55,13.56,9.88,14.56,18.9,14.56,18.9l2.69,15.67s3,24.04,3.25,32.06c0,0,.75,22.56,0,22.81l220.73.09s20.62-290.27-187.33-346.46C52.51,166.53-.2-.06-.2-.06" fill="#e0c1a0"/>
  </g>
  <g id="zone-3" data-color-id="WT001">
    <path d="M252.28,220.51C52.51,166.54-.2-.06-.2-.06h567.33v567.05h-127.52s20.62-290.29-187.33-346.48" fill="#d6b299"/>
  </g>
  <g id="zone-4" data-color-id="BL017">
    <path d="M-.2,448.88c0-.75,89.84,0,89.84,0,0,0,74.67,3.72,108.75,28.55,13.56,9.88,14.56,18.9,14.56,18.9l2.69,15.67s3,24.04,3.25,32.06c0,0,.75,22.56,0,22.81s-208.9-.02-208.9-.02H-.2v-117.96Z" fill="#496986"/>
  </g>
</svg>