<?xml version="1.0" encoding="UTF-8"?>
<svg xmlns="http://www.w3.org/2000/svg" viewBox="0 0 566.93 566.93">
  <g id="zone-4">
    <g>
      <path d="M438.02,0H112.92s0,20.2,0,20.2c2,32.05,45.3,158.93,51.96,180.96,6.66,22.04,43.97,164.27,47.97,174.29,4,10.02,20.98,66.78,19.32,68.45-1.67,1.67,96.6-2.34,96.6-2.34,0,0,53.03-184.01,67.29-235.72,13.99-50.75,26.65-126.21,27.31-128.21.67-2,4-11.69,14.66-77.63Z" fill="#b25a44"/>
      <path d="M427.7,566.93s31.98-185.47,43.3-208.17c11.33-22.7,16.65-69.78,17.99-75.29s32.7-153.15,35.97-163.77c4.38-14.22,10.66-60.1,10.66-60.1L541.62,0h25.31v566.93h-139.23Z" fill="#b25a44"/>
    </g>
  </g>
  <g id="zone-2">
    <path d="M427.7,566.93s31.98-185.47,43.3-208.17c11.33-22.7,16.65-69.78,17.99-75.29s32.7-153.15,35.97-163.77c4.38-14.22,10.66-60.1,10.66-60.1L541.62,0h-103.59c-10.66,65.94-13.99,75.62-14.66,77.63-.67,2-13.32,77.46-27.31,128.21-14.26,51.71-67.29,235.72-67.29,235.72,0,0-98.26,4.01-96.6,2.34s-15.32-58.43-19.32-68.45c-4-10.02-41.3-152.25-47.97-174.29-6.66-22.04-49.96-148.91-51.96-180.96V0H0v274.12s5.16-6.51,14.99-8.85c8.51-2.02,17.02-2.99,21.65-2.67,4.86.34,21.35,2.09,25.98,9.35,4.88,7.65,5.33,50.08,5.33,50.08,0,0,8.66,120.86,9.33,146.91v97.99h350.42Z" fill="#d9c4b8"/>
  </g>
  <g id="zone-1">
    <path d="M77.28,566.93v-97.99c-.67-26.04-9.33-146.91-9.33-146.91,0,0-.45-42.43-5.33-50.08-4.63-7.26-21.12-9.01-25.98-9.35-4.64-.32-13.14.65-21.65,2.67C5.16,267.6,0,274.12,0,274.12v292.81h77.28Z" fill="#1d355f"/>
  </g>
</svg>