<svg xmlns="http://www.w3.org/2000/svg" viewBox="0 0 566.9 566.9">
  <g id="zone-1" data-color-id="WT001">
    <path class="st2" d="M202.9,316.7s30.4,1.1,49.8-18.8c22.1-25.8,17-48.8,17-48.8l142.5-113.3c12.5-8.5,19.4-5.6,18.3,2.2,12.5-17.1,22.3-30.1,27.6-40,5.6-10.4-124.9,9.3-139.9,9.5-7.2.1-7.5-1.6-9.7-8.4l-1.1-8.1-16.3,2.4c.2.2.4.4.5.7.9,2.9-7.8,24-14,31.6-4.3,5.2-10,11.5-16.7,9.1-6.6-2.4-18.6-9.8-30.6-25.8-12.5-16.7-38.7-32.5-48.3-42.3-4.7-4.9-26.6-25.1-29.2-34.7-3.8-14,10.6-19.8,24.1-14,8.5,3.7,62.4,30.5,74,36.3l51.2-4-.2-1.3c-1.6-5,2.2-9.4,7.5-10,17.9-2.1,124.9-9.9,180.7-15.2,53-5.1,56.7,23.9,43.5,73.2,0,0-5.2,21.3-12.7,47.5,14.4-1.9,29.7-2.9,46-2.8V0H0v141.7c32.9,0,39.8-4,45.6-26.9.7-2.9,2.4-4.3,6.3-2.7l11.4,3.6c2.4-9.4,6.6-20.1-1.7-31.5-10.1-13.9-15.7-20.8-12.3-24.2,2.5-2.6,10.9-.2,17.3,4.5,5,3.7,6.9.4,7.2-5.5.5-11.6,2.9-28.8,3.3-32.2.8-6.8,7.1-7.4,9.4-3.9,1.2,1.8,2.8,11.5,3.5,17.7.8,6.8,6.1,7.4,8.1,1.1,2.4-7.5,5.1-17.5,8-22,6.3-9.8,11.2-3.7,10.3,6.7-.4,4.8-.9,7.4-1.6,12.3-2.1,13.7,3.3,21.2,9.8,9.3,2-3.6,4.7-8.2,6.9-8.2,7.1,0,2.9,12.1-1.5,26-8.7,27.6-16.5,30.3-29.2,49.5-2.5,3.8-3.9,7.4-4.8,10.9l13.8,4.4c5.6,2.1,1.9,5.2.3,9.3-20.7,52.4-45.7,72.7-110.1,72.7v141.7s142.9,5.5,202.9-37.7ZM107.3,233.2c1-11.1,3.3-14.5,14.6-25.5,11.3-11,18-20.4,30.4-31.5,12.4-11.1,25.5-15.7,31.2-14.9,5.7.8,16.7-2.4,39.9,25.1,23.2,27.5,30.8,36.2,30.9,41.5,0,2.2-1.2,3.6-2.8,4.5,6.6,24.9-5.8,51.9-30.5,63.3-25.1,11.7-54.3,3.2-68.8-18.8-11.6,0-22.9-13.2-28.7-18.7-7.3-6.9-17.4-13.9-16.3-25Z" fill="#d6b299"/>
    <path class="st2" d="M401.9,193.1c.5,2.1,1.6,2.8,2.7,2.8-1.2,0-2.3-.7-2.7-2.8Z" fill="#d6b299"/>
    <polygon class="st2" points="408.7 194.3 408.7 194.4 408.7 194.3 408.7 194.3" fill="#d6b299"/>
    <path class="st2" d="M566.9,212.6s-39-1.3-71.6,7.6c-4.3,18.3-26.5,40.2-26.5,40.2,0,0-.4,65.3-160.8,210.9-.9.9-4.1.7-4.1.7l-11.9-3.1-9.8,26.1c.2,0,.5,0,.7.2,2.6,1.5,10.6,22.8,11.3,32.7.5,6.8.5,15.3-6,18-6.5,2.8-20.3,5.6-39.9,2-20.5-3.7-57.5,4.2-71.3,3.5-6.8-.3-36.6-.2-45-5.4-12.3-7.6-5.7-21.7,8-26.7,9.7-3.5,88.3-26.2,88.3-26.2,0,0,.1.1.3.4l17.9-36.6-6.2-1.6s-3.5-2.5-3.5-4.9,23.6-37.7,53.7-86c-12.2-1.1-23.1-1.7-29.5,4.3C196.2,429.8,0,425.2,0,425.2v141.7h566.9V196.4v16.2ZM566.9,425.2c-32.9,0-64.9,7.4-77.2,41.5-1,2.9-2.4,4.3-6.3,2.7l-9.9-3.2c-3.9,8.5-8.9,17.8-3,29.8,7.6,15.5,11.9,23.2,7.9,26-2.9,2.1-10.8-1.7-16.3-7.4-4.3-4.5-6.8-1.6-8,4.2-2.5,11.4-7.8,27.9-8.8,31.1-2,6.5-8.3,6.1-9.9,2.3-.8-1.9-.8-11.8-.4-18.1.4-6.8-4.8-8.3-7.8-2.5-3.6,7-8,16.3-11.7,20.3-7.9,8.6-11.6,1.7-9-8.4,1.2-4.6,2.1-7.1,3.7-11.8,4.5-13.1.4-21.4-8-10.8-2.6,3.2-6,7.3-8.2,6.9-7-1.3-.7-12.5,6-25.4,13.3-25.7,21.5-27,37.3-43.7,1-1.1,1.9-2.1,2.7-3.2l-14.4-4.6c-5.6-2.1-2.4-5.4-.3-9.3,34.5-63.9,77.3-87.3,141.7-87.3v70.9Z" fill="#d6b299"/>
    <path class="st2" d="M495.3,220.2c-9.5,2.6-18.3,7.3-25.7,13.1,7.4-5.8,16.4-10,25.7-13.1Z" fill="#d6b299"/>
  </g>
  <g id="zone-2" data-color-id="BW002">
    <path class="st1" d="M216.3,221.8c-7.6-1.2-16.3.3-23.7,11.4-7.4,11.1-13,27.9-31.6,40.8-2.9,2-5.8,2.9-8.7,2.9,14.5,22,43.7,30.5,68.8,18.8,24.7-11.4,37-38.4,30.5-63.3-2.1,1.2-4.7,1.4-4.7,1.4,0,0-23-10.7-30.6-11.9Z" fill="#ae6e5b"/>
    <path class="st1" d="M251,54.4c1.4.7,2.2,1.1,2.2,1.1,0,0-.9,8.9,17.3,26.3,11.8,11.3,18.8,10,20.7,11.7l16.3-2.4-5.4-40.6-51.2,4Z" fill="#ae6e5b"/>
    <path class="st1" d="M228.8,493.5c1.5,1.4,8.5,6.8,30.3,7.1,16.5.2,20.7-5.7,23.2-5.6l9.8-26.1-45.3-11.9-17.9,36.6Z" fill="#ae6e5b"/>
    <path class="st1" d="M437.1,458.7c-15.8,16.7-24,18-37.3,43.7-6.7,12.9-13,24.1-6,25.4,2.2.4,5.6-3.6,8.2-6.9,8.4-10.6,12.5-2.2,8,10.8-1.6,4.6-2.5,7.2-3.7,11.8-2.6,10.1,1.1,16.9,9,8.4,3.7-4,8.1-13.3,11.7-20.3,3-5.9,8.2-4.3,7.8,2.5-.3,6.3-.4,16.1.4,18.1,1.7,3.8,7.9,4.3,9.9-2.3,1-3.3,6.3-19.7,8.8-31.1,1.3-5.8,3.7-8.7,8-4.2,5.5,5.7,13.3,9.5,16.3,7.4,3.9-2.8-.4-10.5-7.9-26-5.9-12-.9-21.3,3-29.8l-33.6-10.7c-.8,1.1-1.7,2.1-2.7,3.2Z" fill="#ae6e5b"/>
    <path class="st1" d="M100.9,115.4c12.7-19.2,20.6-21.9,29.2-49.5,4.4-13.9,8.6-26,1.5-26-2.2,0-4.9,4.5-6.9,8.2-6.5,11.9-11.9,4.4-9.8-9.3.8-4.9,1.2-7.5,1.6-12.3.9-10.4-4-16.5-10.3-6.7-2.9,4.5-5.6,14.5-8,22-2,6.3-7.3,5.7-8.1-1.1-.7-6.2-2.4-16-3.5-17.7-2.3-3.5-8.6-2.8-9.4,3.9-.4,3.4-2.8,20.5-3.3,32.2-.2,5.9-2.2,9.2-7.2,5.5-6.4-4.7-14.8-7.1-17.3-4.5-3.4,3.5,2.2,10.3,12.3,24.2,8.3,11.4,4.1,22.1,1.7,31.5l32.7,10.4c.9-3.5,2.3-7.1,4.8-10.9Z" fill="#ae6e5b"/>
  </g>
  <g id="zone-3" data-color-id="BL017">
    <path class="st0" d="M123.6,258.2c5.8,5.5,17.1,18.8,28.7,18.7,2.9,0,5.8-.9,8.7-2.9,18.5-13,24.2-29.8,31.6-40.8,7.4-11.1,16.1-12.5,23.7-11.4,7.6,1.2,30.6,11.9,30.6,11.9,0,0,2.6-.2,4.7-1.4,1.5-.9,2.8-2.2,2.8-4.5-.1-5.4-7.7-14-30.9-41.5-23.2-27.5-34.2-24.3-39.9-25.1-5.7-.7-18.8,3.8-31.2,14.9-12.4,11.1-19.1,20.6-30.4,31.5-11.3,11-13.6,14.4-14.6,25.5-1,11.1,9,18.1,16.3,25Z" fill="#496986"/>
    <rect class="st0" x="0" y="354.3" width="0" height="70.9" fill="#496986"/>
    <polygon class="st0" points="566.9 141.7 566.9 141.7 566.9 196.4 566.9 141.7" fill="#496986"/>
    <path class="st0" d="M261.2,368.6c6.4-6,17.3-5.4,29.5-4.3,32.9,3.1,79.5.1,114.4-48.7,29.9-41.8,34.6-59.2,64.5-82.4,7.4-5.8,16.2-10.5,25.7-13.1,32.7-8.9,71.6-7.6,71.6-7.6v-16.2s0-54.6,0-54.6c-16.3,0-31.6.9-46,2.8-47.3,6.1-84.4,22.8-112.3,49.8h0c0,0-2.2,1.6-4.1,1.5-1.2,0-2.3-.7-2.7-2.8-.1-.6-.2-1.2-.2-2,6.1-25.4,23-37.1,27.7-48.7.7-1.6,1.1-3.1,1.2-4.4,1-7.8-5.8-10.6-18.3-2.2l-142.5,113.3s5.1,23-17,48.8c-19.4,19.9-49.8,18.8-49.8,18.8C142.9,359.9,0,354.3,0,354.3v70.9s196.2,4.6,261.2-56.6Z" fill="#496986"/>
    <path class="st0" d="M404.6,195.9c1.9,0,4-1.6,4.1-1.6h0s-2.1,1.7-4.1,1.6Z" fill="#496986"/>
    <polygon class="st0" points="0 141.7 0 212.6 0 212.6 0 141.7 0 141.7" fill="#496986"/>
    <path class="st0" d="M110.1,139.9c1.6-4.1,5.3-7.1-.3-9.3l-13.8-4.4-32.7-10.4-11.4-3.6c-4-1.6-5.6-.3-6.3,2.7-5.8,22.9-12.7,26.9-45.6,26.9v70.9c64.4,0,89.5-20.3,110.1-72.7Z" fill="#496986"/>
    <path class="st0" d="M425.1,441.6c-2.1,3.9-5.3,7.1.3,9.3l14.4,4.6,33.6,10.7,9.9,3.2c4,1.6,5.3.2,6.3-2.7,12.4-34,44.3-41.5,77.2-41.5v-70.9c-64.4,0-107.2,23.4-141.7,87.3Z" fill="#496986"/>
  </g>
  <g id="zone-4" data-color-id="BK000">
    <path class="st3" d="M253.2,55.5s-.8-.4-2.2-1.1c-11.6-5.8-65.5-32.6-74-36.3-13.4-5.8-27.8,0-24.1,14,2.6,9.6,24.5,29.8,29.2,34.7,9.6,9.9,35.8,25.7,48.3,42.3,12,16,23.9,23.4,30.6,25.8,6.6,2.4,12.4-3.9,16.7-9.1,6.2-7.7,14.9-28.7,14-31.6,0-.3-.2-.5-.5-.7-1.9-1.7-8.9-.4-20.7-11.7-18.2-17.4-17.3-26.3-17.3-26.3Z" fill="#323233"/>
    <path class="st3" d="M490.2,23.8c-55.8,5.3-162.8,13.1-180.7,15.2-5.2.6-9,5-7.5,10l.2,1.3,5.4,40.6,1.1,8.1c2.2,6.9,2.5,8.6,9.7,8.4,15-.3,145.5-20,139.9-9.5-5.3,9.8-15.1,22.8-27.6,40-.2,1.3-.6,2.8-1.2,4.4-4.8,11.6-21.6,23.3-27.7,48.7,0,.8.1,1.5.2,2,.5,2.1,1.6,2.8,2.7,2.8,1.9,0,4.1-1.6,4.1-1.6h0s0,0,0,0h0c27.9-26.9,64.9-43.6,112.3-49.8,7.5-26.2,12.7-47.5,12.7-47.5,13.2-49.3,9.6-78.2-43.5-73.2Z" fill="#323233"/>
    <path class="st3" d="M259,500.6c-21.8-.3-28.8-5.6-30.3-7.1-.2-.2-.3-.4-.3-.4,0,0-78.6,22.7-88.3,26.2-13.8,4.9-20.3,19-8,26.7,8.4,5.2,38.3,5.1,45,5.4,13.8.7,50.8-7.2,71.3-3.5,19.7,3.5,33.5.8,39.9-2,6.5-2.8,6.4-11.3,6-18-.7-9.9-8.7-31.2-11.3-32.7-.2-.1-.5-.2-.7-.2-2.6-.1-6.7,5.8-23.2,5.6Z" fill="#323233"/>
    <path class="st3" d="M405.1,315.7c-34.9,48.8-81.5,51.8-114.4,48.7-30.1,48.3-53.7,84.7-53.7,86,0,2.5,3.5,4.9,3.5,4.9l6.2,1.6,45.3,11.9,11.9,3.1s3.2.2,4.1-.7c160.4-145.6,160.8-210.9,160.8-210.9,0,0,22.2-21.9,26.5-40.2-9.4,3.1-18.3,7.3-25.7,13.1-29.9,23.2-34.6,40.6-64.5,82.4Z" fill="#323233"/>
  </g>
</svg>