<svg xmlns="http://www.w3.org/2000/svg" viewBox="0 0 566.9 566.9">
  <g id="zone-1" data-color-id="WT001">
    <path class="st2" d="M451.6,424.5c-22.2-.2-29.3,23.7-53.6,63.6-1.2,2-3.2,1.2-7.8-1.5l-2.3-1.2-8.4,17.7c2.2,2.6,6,25.5,4.5,35.1-1.1,6.7-2.9,15-9.9,16.3-6.9,1.3-21,.9-39.4-6.9-19.1-8.2-57-8.8-70.2-12.5-6.5-1.8-35.6-8.3-42.7-15.3-10.3-10.2-.7-22.5,13.8-24.2,10.3-1.2,93.7-5.5,93.7-5.5,0,0,0,.2,0,.5l16.4-27-7.2-3.8c-1.1-2.5-.5-4.2,1.1-6.5,43.8-65.4,39.4-99.1,109.6-99.1s76.5.2,117.7.1v-141.7s-29.4-1.9-43.6,4.7c-45.3,21-43.8,100.1-133.9,102.7-48.5,1.4-67.8-59.9-56.8-123.4,11.1-63.5,37.7-143.4-68.8-86.5l-9.7,4.2s-3.3.7-4.1-4.8c-.2-1.2-.9-3.8-2.1-7.3-9.1,4.9-22.1,7.7-26,22.9-4.2,16.7-6,25.3-10.8,25-3.6-.3-7.1-8.3-7.6-16.2-.4-6.2-4.1-5.6-8.8-2-9.3,7.1-24,16.2-26.8,18-5.7,3.7-10.2-.7-9-4.7.6-2,7.1-9.5,11.4-14.1,4.7-4.9,1.8-9.4-4.3-6.9-7.3,3-16.7,7.3-22.1,7.9-11.6,1.4-10-6.2-1.4-12.2,3.9-2.7,6.2-4.1,10.5-6.6,11.9-7.1,14.2-16.1.9-13.5-4.1.8-9.3,1.7-10.7,0-4.5-5.5,7.5-10,21-15.5,26.8-11,33.8-6.7,56.7-9.1,6.4-.7,11.3-2.8,15.5-5.5-1.4-3.8-2.4-6.3-2.4-6.3,0,0-.4-3.3,2.2-5.2,2.6-1.9,61.7-22.5,65.8-23.6,4.1-1.1,12.6-2.2,26.7-2.6,14.1-.4,45.6,6.2,61.4,29.6,18.1,26.8,24.9,45,14.1,100-10.8,55-17.1,83-2.2,84.7,29.5,3.3,50.4-49.8,60.7-62.8,23.3-29.4,36-31.6,61.9-38.5,13.3-3.5,42.3-3.1,42.4-3.1V0H0v141.7c78.4,0,121.4,20.1,142.1,72.5,1.6,4.1,5.3,7.1-.3,9.3l-14.1,4.5c1,2,2.2,4.1,3.8,6.2,14.1,18.2,22.1,20.4,32.7,47.2,5.4,13.5,10.5,25.3,3.4,25.9-2.2.2-5.2-4.2-7.5-7.7-7.3-11.4-12.2-3.5-9.1,10,1.1,4.8,1.8,7.4,2.5,12.1,1.6,10.3-2.8,16.7-9.8,7.4-3.3-4.3-6.7-14.1-9.6-21.4-2.4-6.1-7.7-5.1-8,1.7-.3,6.3-1.2,16.1-2.3,17.9-2,3.6-8.3,3.4-9.7-3.3-.7-3.3-4.3-20.3-5.6-31.8-.7-5.9-2.8-9-7.6-5-6,5.1-14.2,8.1-16.9,5.7-3.6-3.2,1.4-10.5,10.5-25.1,6.9-11.1,3.2-20.8.1-29.5l-8.1,3.6c-4,1.6-5.1.1-6.3-2.7C68.7,212.6,38.8,211.8,0,212.6v141.7c.2,0,81.5-3.4,128.2,26.5,39.2,25.1,55.1-7.2,66.8-14.9,2.9-1.9,6.9-.7,8.3,2.5l1.7,4.1,20.4-18.3c-.3,0-.5,0-.5,0,0,0-11.5-82.7-12.2-93.1-1-14.6,9.3-26.3,21.2-18.1,8.2,5.6,20,33,23,39,6.1,12.3,13.8,49.4,25.4,66.7,11.1,16.6,14.1,30.3,14.2,37.4,0,7.1-7.7,10.4-14.1,12.7-9.2,3.3-32.3,3.8-35.3,2.2l-22.9,16.8.7,1.7c1.1,2.5.9,4.5-1.1,6.5-20.4,20.4-57.2,39.4-96.1,23.8C71.3,427.2,62,424.8,0,425.2v-17.7s0,159.4,0,159.4h566.9v-141.7c0,0-16.4.4-115.3-.7Z" fill="#d6b299"/>
  </g>
  <g id="zone-2" data-color-id="BW002">
    <path class="st1" d="M247.1,401.1s0,0-.1,0c-1.7-1.2,5.9-8.6-1.6-25.2-9.1-19.9-17.9-21.6-20-21.7l-20.4,18.3,19.2,45.3,22.9-16.8Z" fill="#ae6e5b"/>
    <path class="st1" d="M94.7,267.9c-9.1,14.6-14.1,21.9-10.5,25.1,2.7,2.4,10.9-.6,16.9-5.7,4.7-4.1,6.9-.9,7.6,5,1.3,11.6,4.9,28.5,5.6,31.8,1.3,6.7,7.6,6.9,9.7,3.3,1-1.8,2-11.7,2.3-17.9.3-6.8,5.6-7.8,8-1.7,2.9,7.3,6.3,17.1,9.6,21.4,7,9.3,11.4,2.9,9.8-7.4-.7-4.7-1.4-7.3-2.5-12.1-3.1-13.5,1.8-21.4,9.1-10,2.2,3.5,5.2,7.8,7.5,7.7,7.1-.6,2-12.3-3.4-25.9-10.6-26.9-18.7-29-32.7-47.2-1.6-2.1-2.8-4.1-3.8-6.2l-32.9,10.5c3,8.7,6.8,18.4-.1,29.5Z" fill="#ae6e5b"/>
    <path class="st1" d="M220.9,75.1c-22.9,2.5-30-1.8-56.7,9.1-13.5,5.5-25.5,9.9-21,15.5,1.4,1.7,6.6.9,10.7,0,13.3-2.6,11,6.4-.9,13.5-4.2,2.5-6.5,3.8-10.5,6.6-8.5,6-10.1,13.6,1.4,12.2,5.4-.6,14.8-4.9,22.1-7.9,6.1-2.5,9,2,4.3,6.9-4.3,4.5-10.8,12-11.4,14.1-1.2,4,3.3,8.4,9,4.7,2.9-1.8,17.6-11,26.8-18,4.7-3.6,8.5-4.2,8.8,2,.5,7.9,4,15.9,7.6,16.2,4.8.4,6.5-8.3,10.8-25,3.9-15.2,16.9-18,26-22.9-3-9.2-8.5-24.2-11.6-32.6-4.2,2.7-9.1,4.8-15.5,5.5Z" fill="#ae6e5b"/>
    <path class="st1" d="M354.5,506.2c17.6,4.3,23.6-4.6,25-3.1,0,0,0,0,0,.1l8.4-17.7-42.2-21.9-16.4,27c.5,2.1,3.7,10.4,25,15.6Z" fill="#ae6e5b"/>
  </g>
  <g id="zone-3" data-color-id="BL017">
    <polygon class="st0" points="0 354.3 0 407.5 0 354.3 0 354.3" fill="#496986"/>
    <path class="st0" d="M127.7,449.8c38.9,15.6,75.8-3.3,96.1-23.8,1.9-1.9,2.1-3.9,1.1-6.5l-.7-1.7-19.2-45.3-1.7-4.1c-1.4-3.2-5.3-4.5-8.3-2.5-11.7,7.7-27.5,40-66.8,14.9C81.5,350.9.2,354.3,0,354.3v70.9c62-.4,71.3,2,127.7,24.6Z" fill="#496986"/>
    <rect class="st0" x="566.9" y="141.7" width="0" height="70.9" fill="#496986"/>
    <path class="st0" d="M524.6,144.8c-26,6.8-38.6,9.1-61.9,38.5-10.3,13-31.2,66.1-60.7,62.8-14.9-1.7-8.6-29.7,2.2-84.7,10.8-55,4-73.2-14.1-100-15.8-23.4-47.3-29.9-61.4-29.6-14.1.4-22.6,1.5-26.7,2.6-4.1,1.1-63.2,21.8-65.8,23.6-2.6,1.9-2.2,5.2-2.2,5.2,0,0,.9,2.5,2.4,6.3,3.1,8.4,8.6,23.4,11.6,32.6,1.1,3.5,1.9,6.2,2.1,7.3.7,5.6,4.1,4.8,4.1,4.8l9.7-4.2c106.5-56.9,79.8,23,68.8,86.5-11.1,63.5,8.3,124.7,56.8,123.4,90.1-2.5,88.5-81.7,133.9-102.7,14.2-6.6,43.6-4.7,43.6-4.7v-70.9s-29.1-.4-42.4,3.1Z" fill="#496986"/>
    <path class="st0" d="M354.5,506.2c-21.3-5.2-24.5-13.5-25-15.6,0-.3,0-.5,0-.5,0,0-83.4,4.3-93.7,5.5-14.5,1.7-24.1,14-13.8,24.2,7,7,36.2,13.5,42.7,15.3,13.3,3.7,51.1,4.3,70.2,12.5,18.4,7.8,32.4,8.2,39.4,6.9,6.9-1.3,8.8-9.6,9.9-16.3,1.5-9.6-2.3-32.5-4.5-35.1,0,0,0,0,0-.1-1.5-1.4-7.4,7.4-25,3.1Z" fill="#496986"/>
  </g>
  <g id="zone-4" data-color-id="BK000">
    <path class="st3" d="M245.4,375.9c7.5,16.5,0,24,1.6,25.2,0,0,0,0,.1,0,3,1.6,26.2,1.1,35.3-2.2,6.4-2.3,14.2-5.7,14.1-12.7,0-7.1-3.1-20.8-14.2-37.4-11.6-17.3-19.3-54.3-25.4-66.7-3-6.1-14.9-33.4-23-39-11.9-8.2-22.2,3.5-21.2,18.1.7,10.3,12.2,93.1,12.2,93.1,0,0,.2,0,.5,0,2.1,0,10.9,1.7,20,21.7Z" fill="#323233"/>
    <polygon class="st3" points="0 141.7 0 212.6 0 212.6 0 141.7 0 141.7" fill="#323233"/>
    <path class="st3" d="M80.4,239.4c1.2,2.8,2.4,4.3,6.3,2.7l8.1-3.6,32.9-10.5,14.1-4.5c5.6-2.1,1.9-5.2.3-9.3C121.4,161.9,78.4,141.7,0,141.7v70.9c38.8-.8,68.7,0,80.4,26.8Z" fill="#323233"/>
    <polygon class="st3" points="566.9 354.3 566.9 354.3 566.9 425.2 566.9 425.2 566.9 354.3" fill="#323233"/>
    <path class="st3" d="M449.3,354.2c-70.3,0-65.8,33.7-109.6,99.1-1.5,2.3-2.1,3.9-1.1,6.5l7.2,3.8,42.2,21.9,2.3,1.2c4.6,2.8,6.6,3.5,7.8,1.5,24.2-39.9,31.4-63.9,53.6-63.6,99,1.1,115.3.7,115.3.7v-70.9c-41.2,0-53.5-.1-117.7-.1Z" fill="#323233"/>
  </g>
</svg>