<svg xmlns="http://www.w3.org/2000/svg" viewBox="0 0 566.9 566.9">
  <g id="zone-1" data-color-id="WT001">
    <path class="st2" d="M34.6,354.3c90.1-33.2,96.4-151.2,196.4-140,0,0,78,74,152.3,6.7,41.9-38,59.5-78.1,183.6-79.2V0H0v141.7h32.3c4,0,4.2.3,4.2,4.2v19.7c10.3-.3,23,2.8,33.1-9.1,11.2-13.1,16.5-20.1,20.7-17.6,3.1,1.8,2.8,10.6-.3,17.9-2.4,5.8,1.2,6.8,7,5.7,11.4-2.3,28.7-4,32-4.3,6.8-.8,8.9,5.2,6,8.2-1.4,1.5-10.5,5.4-16.4,7.6-6.4,2.4-5.7,7.7.8,8.1,7.8.5,18.2.8,23.3,2.6,11,3.9,6.2,10-4.1,11.6-4.7.7-7.4.9-12.3,1.3-13.8,1.1-19.8,8.2-6.7,11.7,4,1.1,9.1,2.6,9.6,4.8,1.6,7-11.1,5.6-25.7,4.7-28.8-2-33.3-8.9-55-16.8-6.1-2.2-9.6-2.5-12.2-1.9v8c-.1,4-.4,4.5-4.5,4.5H0s0,141.7,0,141.7c3.5,0,6.7-.4,10-.4,8.7,0,16.9,0,24.6.4ZM119.6,71.7c9.2-41.6,52.4-19.3,52.4-19.3,19.6-45.7,54.3-25.2,58.7,5.5,2.9,20.1,17.1,20.3,24.7,11.1,0,0,9.7-23.6,35.8-19.4,42.5,6.8,32.5,51.4,32.5,51.4,68.9-9.5,72.6,86.7,49.4,87.7-2.4,0-4.6-.2-6.7-.9-8.4,22.6-31.6,37.6-57.2,35.1-19.7-2-36-13.9-44.1-30.2-.3.1-.6.3-.9.3-11.4,1.6-28-20.8-29.2-43.8-1.3-24.5,8-46.3-6.8-49-14.6-2.7-23.7,20.3-55.1,25.4-27.2,4.4-62.7-11.4-53.3-53.9Z" fill="#d6b299"/>
    <path class="st2" d="M566.9,425.2s-55.7,0-77.3,10.5c-47.9,23.2-60.3,42-100.8,71.2-44,31.6-83.6,6.6-83.6,6.6-39.1,21.6-89.4,12-138.1-20.4C74.4,431.2,50.6,425.2,0,425.2v141.7h566.9v-159.3,17.6Z" fill="#d6b299"/>
    <path class="st2" d="M365.3,318.3c10.5,25.7,25.3,62.2,29.3,73.7,43.6-35.9,63.1-37.7,172.3-37.7v-141.7c-103.9-1.1-108.2,65.6-201.6,105.7Z" fill="#d6b299"/>
    <path class="st2" d="M222.9,312.4c0,14.3-3.7,38.9-8.4,59.5,4.7-20.5,8.4-45.1,8.4-59.5Z" fill="#d6b299"/>
    <path class="st2" d="M222.9,312.4c0-4.8-.4-8.4-1.3-10.4-.5-1.1-1.2-1.7-2.1-1.7-30.2,1.9-41.9,43.9-82.2,73.2,23.7,9.8,41.5,21.9,65.3,33.1,1.2-5.6,7.2-14.3,11.9-34.8,4.7-20.5,8.4-45.1,8.4-59.5Z" fill="#d6b299"/>
  </g>
  <g id="zone-2" data-color-id="BW002">
    <path class="st1" d="M338.6,149.6c-14.3,23.7-39.6,5.9-39.6,5.9-7,23.8-32.7,15.9-32.7,15.9,0,0,3.7,18.7-1.3,21.3,8.1,16.3,24.4,28.2,44.1,30.2,25.6,2.6,48.9-12.4,57.2-35.1-18.7-5.9-27.7-38.3-27.7-38.3Z" fill="#ae6e5b"/>
    <path class="st1" d="M48.7,201.9c21.6,7.9,26.1,14.9,55,16.8,14.5,1,27.3,2.3,25.7-4.7-.5-2.2-5.6-3.7-9.6-4.8-13.1-3.5-7-10.6,6.7-11.7,4.9-.4,7.6-.6,12.3-1.3,10.3-1.6,15.1-7.7,4.1-11.6-5.1-1.8-15.4-2.1-23.3-2.6-6.6-.5-7.2-5.8-.8-8.1,5.9-2.2,15-6.1,16.4-7.6,2.8-3.1.7-9-6-8.2-3.4.4-20.6,2.1-32,4.3-5.8,1.1-9.4,0-7-5.7,3.1-7.3,3.4-16,.3-17.9-4.1-2.5-9.5,4.5-20.7,17.6-10.1,11.8-22.8,8.7-33.1,9.1v34.4c2.6-.5,6-.3,12.2,1.9Z" fill="#ae6e5b"/>
  </g>
  <g id="zone-3" data-color-id="BL017">
    <polygon class="st0" points="0 354.3 0 425.2 0 425.2 0 354.3 0 354.3" fill="#496986"/>
    <polygon class="st0" points="566.9 354.3 566.9 354.3 566.9 407.6 566.9 354.3" fill="#496986"/>
    <path class="st0" d="M305.2,513.4s39.6,25,83.6-6.6c40.5-29.1,52.9-48,100.8-71.2,21.6-10.5,77.3-10.5,77.3-10.5v-17.6s0-53.3,0-53.3c-109.2,0-128.7,1.8-172.3,37.7-3.4,2.8-7,5.9-10.8,9.2-63.8,55-102.7,36.2-162.9,13.2-6.6-2.5-12.6-5.1-18.3-7.8-23.8-11.1-41.6-23.3-65.3-33.1-24-10-54.1-17.5-102.8-19.2-7.7-.3-15.9-.4-24.6-.4-3.3,0-6.5.3-10,.4v70.9c50.6,0,74.4,6,167.1,67.8,48.6,32.4,99,41.9,138.1,20.4Z" fill="#496986"/>
    <path class="st0" d="M172.9,125.6c31.4-5,40.5-28,55.1-25.4,14.7,2.7,5.5,24.5,6.8,49,1.2,22.9,17.8,45.4,29.2,43.8.3,0,.6-.2.9-.3,5.1-2.7,1.3-21.3,1.3-21.3,0,0,25.7,7.9,32.7-15.9,0,0,25.3,17.8,39.6-5.9,0,0,9,32.4,27.7,38.3,2.1.7,4.4,1,6.7.9,23.3-1,19.5-97.1-49.4-87.7,0,0,10-44.6-32.5-51.4-26-4.2-35.8,19.4-35.8,19.4-7.5,9.2-21.8,9-24.7-11.1-4.4-30.7-39.1-51.3-58.7-5.5,0,0-43.1-22.3-52.4,19.3-9.4,42.5,26.1,58.3,53.3,53.9Z" fill="#496986"/>
  </g>
  <g id="zone-4" data-color-id="BK000">
    <polygon class="st3" points="566.9 212.6 566.9 141.7 566.9 141.7 566.9 212.6 566.9 212.6" fill="#323233"/>
    <path class="st3" d="M383.3,220.9c-74.3,67.3-152.3-6.7-152.3-6.7-100.1-11.2-106.3,106.9-196.4,140,48.6,1.7,78.7,9.3,102.8,19.2,40.4-29.3,52-71.3,82.2-73.2.9,0,1.5.5,2.1,1.7.9,2,1.3,5.6,1.3,10.4,0,14.3-3.7,38.9-8.4,59.5-4.7,20.4-10.6,29.2-11.9,34.8,5.7,2.7,11.7,5.3,18.3,7.8,60.2,23,99.1,41.8,162.9-13.2,3.8-3.3,7.4-6.3,10.8-9.2-4.1-11.5-18.9-48-29.3-73.7,93.4-40.1,97.7-106.8,201.6-105.7v-70.9c-124.1,1.1-141.7,41.2-183.6,79.2Z" fill="#323233"/>
    <path class="st3" d="M221.6,302c.9,2,1.3,5.6,1.3,10.4,0-4.8-.4-8.4-1.3-10.4Z" fill="#323233"/>
    <rect class="st3" x="0" y="141.7" width="0" height="70.9" fill="#323233"/>
    <path class="st3" d="M36.5,208.1v-8s0-34.4,0-34.4v-19.7c0-3.9-.2-4.2-4.2-4.2H0v70.9h32c4.1,0,4.4-.6,4.5-4.5Z" fill="#323233"/>
  </g>
</svg>