<svg xmlns="http://www.w3.org/2000/svg" viewBox="0 0 566.9 566.9">
  <g id="zone-1" data-color-id="WT001">
    <path class="st2" d="M497.9,123.5c.4,1,1.6,2.7,2.6,5.4-1-2.6-2.2-4.3-2.6-5.4Z" fill="#d6b299"/>
    <path class="st2" d="M.6,0v141.7c78,.1,120.9,20.3,141.5,72.5,1.6,4.1,5.3,7.2-.3,9.3l-14.1,4.5c1,2.1,2.2,4.1,3.8,6.2,14,18.2,22.1,20.3,32.7,47.2l.2.2c5.4,13.6,10.5,25.3,3.4,25.9-2.3,0-5.3-4.2-7.5-7.7-7.3-11.4-12.2-3.5-9.1,10,1.1,4.8,1.8,7.4,2.5,12.1,1.6,10.3-2.8,16.7-9.8,7.4-3.3-4.3-6.7-14.1-9.6-21.4-2.4-6.1-7.7-5.1-8,1.7-.3,6.2-1.3,16.1-2.3,17.9-2.1,3.6-8.4,3.4-9.7-3.3-.7-3.3-4.3-20.2-5.6-31.8-.7-5.9-2.9-9.1-7.6-5-6,5.1-14.2,8.1-16.9,5.7-3.6-3.2,1.4-10.5,10.5-25.1,6.9-11.1,3.1-20.8,0-29.5l-8.1,3.6c-3.9,1.6-5.1.1-6.3-2.7-11.6-26.7-41.3-27.6-79.8-26.8v354.3h566.9V0H.6ZM349.1,52.7c1.2-27.4,5.2-52.6,5.2-52.6h70.9s-1.3,7.7-5.7,50.2c-2.3,22.1,23.7,29.4,63.6,53.6,2,1.2,1.3,3.2-1.5,7.8l-1.2,2.3-21.9,42.2-3.8,7.2c-2.6,1-4.2.4-6.5-1.1-65.4-43.8-102-39.4-99.1-109.6ZM161.3,136.8C137,78,141.7,0,141.7,0h70.9s-3.5,64.9,18.9,114.5c50.5,112,183.1,69.9,221.9,165.9,27,67-67,110.5-70.1,111.3-3.1.8-5.4-1.6-5.4-1.6,0,0-1.3-2.3-3.3-5.9,0,0-.1-.2-.2-.3-4.9.7-9.7,2.3-14.9,5.9h0c-19,13.1-21.6,21-49,30.1-13.8,4.6-25.8,9-26,1.9,0-2.2,4.5-5,8.1-7,11.8-6.7,4.2-12-9.4-9.6-4.8.8-7.5,1.3-12.2,1.8-10.4,1-16.6-3.7-6.8-10.2,4.5-3,14.4-5.9,21.9-8.4,6.3-2.1,5.6-7.4-1.2-8.1-6.2-.7-16-2.1-17.8-3.3-3.5-2.2-3-8.5,3.8-9.5,3.4-.5,20.5-3.1,32.1-3.8,5.9-.3,9.2-2.3,5.4-7.3-4.8-6.3-7.3-14.7-4.8-17.2s10.4,2,24.4,11.9c12.7,9,18.6,4.4,28.6,2.2-1.7-2.6-3-4.5-3.7-5.3-3.8-4.1-1.1-6.2-1.1-6.2l9.5-4.7h0c0-.1,68.7-43.5-29.7-70.5s-149.5-79.8-170.2-129.9ZM486.8,459.3c-5.9,12.5-25.7,33-32.1,52.8h0c-6.2,19.1-15.2,29.9-20.7,34.3s-13,.3-18.7-3.3c-8.2-5.2-22.9-23.1-23.5-26.5h0s-21.1-5.6-21.1-5.6l-1.5,3.9c-.5,1.3-1.7,2.3-3,2.6-15.2,3.1-111.3,32.9-201.6-50.5h0c-9.5-8.8-47.9-46.1-163.7-41.6v-70.9s54.7-13.2,133,8.4c57.9,16,69.5,41.7,97.7,68,43.1,40.2,106.3,29.5,155,27.3,2.4,0,4.1,2.3,3.2,4.5l-1.5,3.8,27.1,4.1c-.2-.3-.3-.4-.3-.4,0,0,53.4-51.7,61.1-58.6,10.9-9.8,26.4-8.9,27.3,5.5.7,9.9-13.6,36.1-16.5,42.2ZM542.5,167.1c-8.2,19.1-7.8,42.5-11.5,55.8-1.8,6.5-8.3,35.7-15.3,42.7-10.2,10.3-22.5.7-24.2-13.8-1.3-10.3-6.5-79.3-6.5-79.3h.2l-26.7-16.2,21.9-42.2,17.4,8.3s0,0,0,0h.1c2.6-2.2,25.5-6,35.1-4.5,6.7,1.1,15,3,16.3,9.9,1.3,7,.9,21-6.9,39.4Z" fill="#d6b299"/>
  </g>
  <g id="zone-2" data-color-id="BW002">
    <path class="st1" d="M94.7,268c-9.1,14.6-14.1,21.9-10.5,25.1,2.7,2.4,10.9-.6,16.9-5.7,4.7-4.1,6.9-.9,7.6,5,1.3,11.6,4.9,28.5,5.6,31.8,1.3,6.7,7.6,6.9,9.7,3.3,1-1.8,2-11.7,2.3-17.9.3-6.8,5.6-7.8,8-1.7,2.9,7.3,6.3,17.1,9.6,21.4,7,9.3,11.4,2.9,9.8-7.4-.7-4.7-1.4-7.3-2.5-12.1-3.1-13.5,1.8-21.4,9.1-10,2.2,3.5,5.2,7.8,7.5,7.7,7.1-.6,2-12.3-3.4-25.9l-.2-.2c-10.6-26.9-18.7-29-32.7-47.2-1.6-2.1-2.8-4.1-3.8-6.2l-32.9,10.5c3,8.7,6.8,18.4,0,29.5Z" fill="#ae6e5b"/>
    <path class="st1" d="M485.7,172.4c.2,0,.3,0,.5-.2s.4-.2.7-.3c.1,0,.2-.1.4-.2.4-.2.8-.4,1.3-.7.3-.2.6-.4.9-.7,1.5-1.2,3.2-3,4.9-5.8,2.3-3.7,4.7-9.2,6.7-17.1v-.2c2-8.7.9-14.6-.5-18.5-1-2.7-2.2-4.4-2.6-5.4-.2-.5-.3-.8-.1-1.1l-17.4-8.3-21.9,42.2,26.7,16.2h.3c0,0,.1,0,.2,0Z" fill="#ae6e5b"/>
    <path class="st1" d="M356.5,353.4c-10,2.2-15.8,6.7-28.6-2.2-14-9.9-21-15.3-24.4-11.9s0,10.9,4.8,17.2c3.8,5,.5,7-5.4,7.3-11.6.7-28.7,3.3-32.1,3.8-6.8,1-7.3,7.3-3.8,9.5,1.8,1.2,11.6,2.6,17.8,3.3,6.8.7,7.5,6,1.2,8.1-7.5,2.5-17.4,5.4-21.9,8.4-9.8,6.5-3.6,11.2,6.8,10.2,4.7-.5,7.4-1,12.2-1.8,13.6-2.4,21.2,2.9,9.4,9.6-3.6,2-8.1,4.8-8.1,7,.2,7.1,12.2,2.7,26-1.9,27.4-9.1,30-17,49-30h0c5.2-3.7,10-5.3,14.9-6-4.4-7.9-12.3-21.5-17.3-29.6-.2-.3-.4-.7-.6-1Z" fill="#ae6e5b"/>
    <path class="st1" d="M410.5,499.7c10.1-19.4,5.9-27.4,4.7-29.1,0,0,0,0,0,0l-27.1-4.1-17.5,44.5,21.1,5.5h0c-.1-2.2,10.4-.8,18.8-16.9Z" fill="#ae6e5b"/>
  </g>
  <g id="zone-3" data-color-id="BL017">
    <path class="st0" d="M0,141.7v70.9c.2,0,.4,0,.6,0v-70.9c-.2,0-.4,0-.6,0Z" fill="#496986"/>
    <path class="st0" d="M80.4,239.4c1.2,2.8,2.4,4.3,6.3,2.7l8.1-3.6,32.9-10.5,14.1-4.5c5.6-2.1,1.9-5.2.3-9.3C121.5,162,78.6,141.8.6,141.7v70.9c38.5-.8,68.2.2,79.8,26.8Z" fill="#496986"/>
    <path class="st0" d="M448.2,162.3c2.3,1.5,3.9,2.1,6.5,1.1l3.8-7.2,21.9-42.2,1.2-2.3c2.8-4.6,3.5-6.6,1.5-7.8-39.9-24.2-65.9-31.5-63.6-53.6C423.9,7.8,425.2,0,425.2,0h-70.9s-4,25.2-5.2,52.6c-2.9,70.2,33.7,65.8,99.1,109.6Z" fill="#496986"/>
    <path class="st0" d="M476,411.6c-7.7,6.9-61.1,58.6-61.1,58.6,0,0,0,0,.3.4h.1c1.3,1.7,5.4,9.7-4.7,29.1-8.4,16.1-18.9,14.8-18.8,16.8h0c0,0,0,0,0,0h0c.6,3.4,15.3,21.3,23.5,26.5,5.7,3.6,13.2,7.7,18.7,3.3s14.5-15.2,20.7-34.2h0c6.4-19.9,26.2-40.4,32.1-52.9,2.9-6.1,17.2-32.3,16.5-42.2-.9-14.4-16.4-15.3-27.3-5.5Z" fill="#496986"/>
    <path class="st0" d="M391.8,516.5c0-2,10.4-.7,18.8-16.8,10.1-19.4,6-27.4,4.7-29.1h-.1s0,0,0,0c1.2,1.7,5.4,9.7-4.7,29.1-8.4,16.1-18.9,14.7-18.8,16.8h0c0,0,0,0,0,0h0Z" fill="#496986"/>
  </g>
  <g id="zone-4" data-color-id="BK000">
    <path class="st3" d="M533.1,117.8c-9.6-1.5-32.5,2.3-35.1,4.5h-.1s0,0,0,0h.3-.1c-.2.3-.2.6,0,1.1.5,1.1,1.6,2.8,2.6,5.4,1.5,3.9,2.7,9.8.5,18.7-2,8-4.3,13.4-6.7,17.1-1.7,2.8-3.5,4.6-4.9,5.8-.3.3-.6.5-.9.7-.5.3-.9.5-1.3.7-.1,0-.3.1-.4.2-.2.1-.5.2-.7.3s-.4.1-.5.2-.1,0-.2,0v.2l-.3-.2h-.2s5.2,69,6.5,79.3c1.7,14.5,14,24.1,24.2,13.8,7-7,13.5-36.2,15.3-42.7,3.7-13.3,3.3-36.7,11.5-55.8,7.8-18.4,8.2-32.4,6.9-39.4-1.3-6.9-9.6-8.8-16.3-9.9Z" fill="#323233"/>
    <path class="st3" d="M488.5,171.1c-.5.3-.9.5-1.3.7.4-.2.8-.4,1.3-.7Z" fill="#323233"/>
    <path class="st3" d="M485.5,172.5h-.3l.3.2v-.2Z" fill="#323233"/>
    <path class="st3" d="M501,147.3v.2c-1.9,8-4.2,13.4-6.6,17.1,2.3-3.7,4.7-9.2,6.7-17.1,2.2-8.9,1-14.8-.5-18.7,1.5,3.9,2.6,9.7.4,18.5Z" fill="#323233"/>
    <path class="st3" d="M489.5,170.4c1.5-1.2,3.2-3,4.9-5.8-1.7,2.8-3.5,4.6-4.9,5.8Z" fill="#323233"/>
    <path class="st3" d="M486.9,172c-.2.1-.5.2-.7.3.2,0,.4-.2.7-.3Z" fill="#323233"/>
    <path class="st3" d="M486.2,172.3c-.2,0-.4.1-.5.2.2,0,.3,0,.5-.2Z" fill="#323233"/>
    <path class="st3" d="M497.9,123.5c-.2-.4-.2-.7,0-1h.1-.3c-.2.1-.1.5.1,1Z" fill="#323233"/>
    <path class="st3" d="M331.5,266.7c98.4,27,29.7,70.4,29.7,70.4h0c0,.1-9.5,4.8-9.5,4.8,0,0-2.7,2.1,1.1,6.2.7.8,2,2.7,3.7,5.3,0,0,0,0,.1,0,0,0,13.4,22,18,30.6,0,0-.1,0-.2,0,0,0,.1.2.2.3,2,3.6,3.3,5.9,3.3,5.9,0,0,2.3,2.4,5.4,1.6,3.1-.8,97.1-44.3,70.1-111.3-38.8-96-171.4-53.9-221.9-165.9C209.1,65,212.6,0,212.6,0h-70.9s-4.7,77.9,19.6,136.7c20.7,50.1,71.8,102.9,170.2,129.9Z" fill="#323233"/>
    <path class="st3" d="M356.6,353.4s0,0-.1,0c.2.3.4.6.6,1,5,8.1,12.9,21.7,17.3,29.6,0,0,.1,0,.2,0-4.6-8.6-18-30.6-18-30.6Z" fill="#323233"/>
    <path class="st3" d="M388,466.5h.1s1.5-3.8,1.5-3.8c.9-2.2-.8-4.6-3.2-4.5-48.7,2.2-111.9,12.9-155-27.3-28.2-26.3-39.8-52-97.7-68C55.4,341.3.7,354.5.7,354.5v70.9c115.8-4.5,154.2,32.8,163.7,41.6h0c90.3,83.4,186.4,53.6,201.6,50.5,1.3-.3,2.5-1.3,3-2.6l1.5-3.9h-.1s17.5-44.5,17.5-44.5Z" fill="#323233"/>
    <polygon class="st3" points="388 466.5 370.5 511 370.6 511 388.1 466.5 388 466.5" fill="#323233"/>
  </g>
</svg>