<?xml version="1.0" encoding="UTF-8"?>
<svg id="Calque_1" xmlns="http://www.w3.org/2000/svg" version="1.1" viewBox="0 0 566.9 566.9">
  <!-- Generator: Adobe Illustrator 29.8.5, SVG Export Plug-In . SVG Version: 2.1.1 Build 2)  -->
  <defs>
    <style>
      .st0 {
        fill: #d27934;
      }

      .st1 {
        fill: #f2a6a6;
      }
    </style>
  </defs>
  <g>
    <rect class="st1" x="92.4" y="438.7" width="43.3" height="127.5"/>
    <rect class="st1" x=".8" y="438.7" width="48.3" height="127.5"/>
    <rect class="st1" x="49.1" y=".7" width="43.3" height="438"/>
    <rect class="st1" x="267.1" y="438.7" width="63.7" height="127.5"/>
    <rect class="st1" x="480" y="438.7" width="86.3" height="127.5"/>
    <polygon class="st1" points="221.7 .7 221.7 438.7 267.1 438.7 267.1 219 330.9 219 330.9 .7 221.7 .7"/>
    <rect class="st1" x="135.7" y=".7" width="43" height="438"/>
    <rect class="st1" x="178.7" y="438.7" width="43" height="127.5"/>
    <rect class="st1" x="480" y=".7" width="86.3" height="218.3"/>
    <rect class="st1" x="330.9" y="219" width="149.2" height="219.7"/>
  </g>
  <g>
    <rect class="st0" x="330.7" y=".7" width="149.2" height="218.3"/>
    <rect class="st0" x="92.2" y=".7" width="43.3" height="438"/>
    <rect class="st0" x=".6" y=".7" width="48.3" height="438"/>
    <rect class="st0" x="48.9" y="438.7" width="43.3" height="127.5"/>
    <rect class="st0" x="266.9" y="219" width="63.7" height="219.7"/>
    <rect class="st0" x="479.9" y="219" width="86.3" height="219.7"/>
    <rect class="st0" x="178.5" y=".7" width="43" height="438"/>
    <rect class="st0" x="135.5" y="438.7" width="43" height="127.5"/>
    <rect class="st0" x="221.5" y="438.7" width="45.4" height="127.5"/>
    <rect class="st0" x="330.7" y="438.7" width="149.2" height="127.5"/>
  </g>
</svg>