<?xml version="1.0" encoding="UTF-8"?>
<svg xmlns="http://www.w3.org/2000/svg" version="1.1" viewBox="0 0 566.9 566.9">
  <!-- Generator: Adobe Illustrator 29.8.5, SVG Export Plug-In . SVG Version: 2.1.1 Build 2)  -->
  <defs>
    <style>
      .st0 {
        fill: #4a72a6;
      }

      .st1 {
        fill: #fee5cd;
      }

      .st2 {
        fill: #fff;
        stroke: #1d1d1b;
        stroke-miterlimit: 10;
        stroke-width: .2px;
      }

      .st3 {
        fill: #fbbb45;
      }

      .st4 {
        display: none;
      }

      .st5 {
        fill: #f08464;
      }
    </style>
  </defs>
  <g id="Calque_2">
    <g>
      <g>
        <path class="st1" d="M429.9,0c0,.2.3,1.3.8,3.2.1.5.2,1,.3,1.6.4,1.7.8,3.9,1.3,6.5.2,1.3.5,2.7.8,4.2,1.2,6.4,2.5,14.7,3.6,24.2h0c72.3,3.4,129.9,62.9,130.2,136h0V0h-137.1Z"/>
        <path class="st1" d="M429.9,566.9c-75.4-.1-136.5-61.3-136.5-136.8v-136.1C50.3,343.8,1.1,179.3,0,175.7v391.2h566.9s-137.1,0-137.1,0h0ZM140.8,527c-49.9,0-90.3-40.4-90.3-90.3s40.4-90.3,90.3-90.3,90.3,40.4,90.3,90.3-40.4,90.3-90.3,90.3Z"/>
      </g>
      <path class="st5" d="M433.1,15.5c-.3-1.5-.5-2.9-.8-4.2-.5-2.6-.9-4.8-1.3-6.5-.1-.6-.2-1.1-.3-1.6-.4-1.9-.7-3-.8-3.2,0,0,0,0,0,0h0S0,0,0,0h-.1v175.7H0s0,0,0,0c1,3.6,50.3,168,293.3,118.3,0-110.5-.2-101.9,0-117.9,0-2.5,0-5.6,0-9.9.2-20.3,8.1-66.3,54.5-101,30.8-23.1,67.3-25.7,82.1-25.8.3,0,.5,0,.8,0,3,0,5.1.1,5.7.2.2,0,.3,0,.3,0-1.1-9.5-2.4-17.8-3.6-24.2Z"/>
      <path class="st0" d="M566.9,175.7h0c-.3-73-57.9-132.5-130.2-136,2.7,24.8,3.3,47.1,2.3,67.3-1.1,22.7-4.4,42.6-9.1,60.1-.9,3.2-1.8,6.2-2.7,9.3-28.7,89.7-99.7,110-126.2,116-3.3.7-5.9,1.3-7.6,1.7v136.1c0,75.5,61.1,136.6,136.5,136.8h0s137.1,0,137.1,0h0V175.7h0Z"/>
      <g>
        <circle class="st3" cx="140.8" cy="436.7" r="90.3"/>
        <path class="st3" d="M436.6,39.7h0s0,0-.3,0c-.4,0-1.4,0-2.8-.1-.8,0-1.8,0-3,0-.3,0-.5,0-.8,0-14.8,0-51.2,2.7-82.1,25.8-46.4,34.7-54.3,80.7-54.5,101,0,4.3,0,7.4,0,9.9-.1,16,0,7.4,0,117.9,1.7-.4,4.3-.9,7.6-1.7,26.5-6.1,97.5-26.3,126.2-116,1-3,1.9-6.1,2.7-9.3,4.8-17.5,8-37.4,9.1-60.1,1-20.1.3-42.5-2.3-67.3Z"/>
      </g>
    </g>
  </g>
  <g id="Calque_1" class="st4">
    <line class="st2" x1="-7.5" y1="-411.3" x2="5.3" y2="-411.3"/>
    <line class="st2" x1="429.9" y1="-596.1" x2="429.9" y2="-574.7"/>
    <line class="st2" x1="429.9" y1="-30.8" x2="429.9" y2="-9.3"/>
    <path class="st2" d="M582.4-410.6"/>
    <path class="st2" d="M552.5-410.6"/>
    <line class="st2" x1="-7.5" y1="-411.3" x2="5.3" y2="-411.3"/>
    <line class="st2" x1="429.9" y1="-596.1" x2="429.9" y2="-574.7"/>
    <line class="st2" x1="429.9" y1="-30.8" x2="429.9" y2="-9.3"/>
    <line class="st2" x1="552.5" y1="-411.3" x2="582.4" y2="-411.3"/>
    <line class="st2" x1="579.4" y1="-411.3" x2="602.9" y2="-411.3"/>
    <line class="st2" x1="1016.8" y1="-596.1" x2="1016.8" y2="-574.7"/>
    <line class="st2" x1="1016.8" y1="-30.8" x2="1016.8" y2="-9.3"/>
    <line class="st2" x1="1139.4" y1="-411.3" x2="1169.4" y2="-411.3"/>
    <line class="st2" x1="-7.5" y1="175.7" x2="5.3" y2="175.7"/>
    <line class="st2" x1="429.9" y1="-9.2" x2="429.9" y2="12.2"/>
    <line class="st2" x1="429.9" y1="556.2" x2="429.9" y2="577.6"/>
    <line class="st2" x1="552.5" y1="176.3" x2="582.4" y2="176.3"/>
    <line class="st2" x1="579.4" y1="176.3" x2="592.2" y2="176.3"/>
    <line class="st2" x1="1016.8" y1="-9.2" x2="1016.8" y2="12.2"/>
    <line class="st2" x1="1016.8" y1="556.2" x2="1016.8" y2="577.6"/>
    <line class="st2" x1="1139.4" y1="176.3" x2="1169.4" y2="176.3"/>
  </g>
</svg>