<svg xmlns="http://www.w3.org/2000/svg" viewBox="0 0 566.9 566.9">
  <g id="zone-1" data-color-id="YL003">
    <path class="st4" d="M360.5,254.1c-26.6,10-54,20.3-78.9,29.5-37.3,14-66.5,24.9-77.9,29-3.2,1.1-6.3,2.2-9.3,3.2-.4.1-.7.3-1.1.4-44.4,15.9-97.7,27.6-109.1-6.1-11-32.8,13.3-50.4,57.8-65.5.7-.3,1.5-.5,2.2-.8,0,0,0,0,0,0,0,0,.2,0,.3,0,.8-.3,1.5-.5,2.3-.8.3,0,.6-.2.9-.3.6-.2,1.2-.4,1.9-.6.4-.1.8-.3,1.3-.4.5-.2,1-.3,1.6-.5.5-.2,1.1-.3,1.6-.5.5-.2.9-.3,1.4-.5.6-.2,1.1-.4,1.7-.6.5-.2,1.1-.4,1.6-.5.6-.2,1.2-.4,1.8-.6.3-.1.6-.2.9-.3,1.7-.6,3.4-1.1,5.2-1.7,3.5-1.2,7.2-2.4,11-3.6,0,0,.2,0,.2,0,1-.3,2-.6,3-1,3-1,6-2,9.1-3,0,0,.1,0,.2,0,3-1,6-2,9.1-3,.2,0,.5-.2.7-.2,17.3-5.7,36.4-11.9,55.4-18.2.4-.1.7-.2,1.1-.4,10.6-3.5,21.2-7,31.4-10.4,0,0,0,0,0,0C170.2,137.9,0,175.7,0,175.7v391.2c0,0,0,0,0,0h429.9s0,0,0,0c0,0,0,0,0,0,1.3-4,55.1-172.8-69.3-312.7Z" fill="#db9f59"/>
  </g>
  <g id="zone-2" data-color-id="OR011">
    <path class="st6" d="M336.4,229.5c-10.4-9.7-21.9-18-34-25.2,0,0-.2-.1-.3-.2-.8-.5-1.7-1-2.5-1.4-.3-.2-.6-.3-.9-.5-.6-.4-1.3-.7-1.9-1.1-.5-.3-1-.6-1.6-.9-.4-.2-.9-.5-1.3-.7-.8-.4-1.5-.8-2.3-1.2-.2,0-.4-.2-.6-.3-1-.5-2-1-3-1.5-3.9,1.3-7.9,2.6-11.9,3.9-2.5.8-4.9,1.6-7.4,2.4-4,1.3-8.1,2.7-12.1,4-.4.1-.7.2-1.1.4-3.5,1.2-7,2.3-10.5,3.4-2.6.8-5.1,1.7-7.6,2.5-3.2,1.1-6.4,2.1-9.6,3.1-.4.1-.9.3-1.3.4-9.1,3-18,5.9-26.4,8.7-.2,0-.5.2-.7.2-3.1,1-6.1,2-9.1,3,0,0-.1,0-.2,0-3.1,1-6.2,2-9.1,3-1,.3-2,.7-3,1,0,0-.2,0-.2,0-1.8.6-3.6,1.2-5.3,1.7-.2,0-.4.1-.7.2-1.7.6-3.4,1.1-5.1,1.7-1.8.6-3.5,1.2-5.2,1.7-.3.1-.6.2-.9.3-.6.2-1.2.4-1.8.6-.5.2-1.1.4-1.6.5-.6.2-1.1.4-1.7.6-.5.2-.9.3-1.4.5-.5.2-1.1.4-1.6.5-.5.2-1.1.4-1.6.5-.4.1-.9.3-1.3.4-.6.2-1.2.4-1.9.6-.3,0-.6.2-.9.3-.8.3-1.6.5-2.3.8,0,0-.2,0-.3,0,0,0,0,0,0,0-.8.3-1.5.5-2.2.8-44.5,15.1-68.8,32.7-57.8,65.5,11.3,33.7,64.7,22,109.1,6.1.3-.1.7-.2,1.1-.4,12.6-4.5,46.5-17,87.2-32.2,24.9-9.3,52.3-19.5,78.9-29.5,0,0,0,0,0,0,0,0-.1-.1-.2-.2-7.4-8.3-15.3-16.4-24-24.5Z" fill="#ae5a47"/>
    <path class="st6" d="M566.8,175.9c-.9,2.7-11.6,33.6-137,390.9,0,0,0,0,0,0,0,0,0,0,0,0,0,0,0,0,0,0h137V175.7c0,0,0,0,0,.3Z" fill="#ae5a47"/>
  </g>
  <g id="zone-3" data-color-id="YL008">
    <path class="st2" d="M420.5,112.5c-6.7-16.2-29.6-20.8-57.7-10-27.3,10.6-58.3,19.7-79.4,27.3-44.1,15.8-83.1,17.3-93.5-10-9.8-25.5,14.7-45.6,66-61.8C295.2,45.5,429.9,0,429.9,0H0v566.9h0V175.7c0,0,170.3-37.8,288.2,20.9,40.3-13.3,75.8-25.3,88.5-30.3,44.4-17.4,52.9-32,44-53.8Z" fill="#e6d4ba"/>
    <path class="st2" d="M360.4,253.9c0,0,.1.1.2.2,0,0,0,0,0,0,124.5,139.9,70.6,308.7,69.3,312.7,125.3-357.4,136-388.3,137-390.9v-.2c-3.3,1.2-109.1,41.4-206.4,78.2Z" fill="#e6d4ba"/>
    <path class="st3" d="M582.4-997.6" fill="#e6d4ba"/>
    <path class="st3" d="M552.5-997.6" fill="#e6d4ba"/>
  </g>
  <g id="zone-4" data-color-id="GN008">
    <path class="st0" d="M566.8,0h-137s-134.7,45.5-173.9,57.9c-51.2,16.2-75.7,36.3-66,61.8,10.4,27.3,49.4,25.9,93.5,10,21.1-7.6,52.1-16.7,79.4-27.3,28-10.9,51-6.3,57.7,10,8.9,21.8.4,36.3-44,53.8-12.7,5-48.2,16.9-88.5,30.3,0,0,0,0,0,0,1,.5,2,1,3,1.5.2,0,.4.2.6.3.8.4,1.5.8,2.3,1.2.4.2.9.5,1.3.7.5.3,1,.6,1.6.9.6.4,1.3.7,1.9,1.1.3.2.6.3.9.5.8.5,1.7,1,2.5,1.4,0,0,.2.1.3.2,12.1,7.2,23.6,15.5,34,25.2,8.7,8,16.6,16.2,24,24.5,97.4-36.8,203.2-77,206.4-78.2,0,0,0,0,0,0V0Z" fill="#447882"/>
    <path class="st0" d="M203.7,312.6c11.3-4.1,40.6-15,77.9-29-40.7,15.1-74.6,27.6-87.2,32.2,3-1,6-2,9.3-3.2Z" fill="#447882"/>
  </g>
</svg>