<?xml version="1.0" encoding="UTF-8"?>
<svg xmlns="http://www.w3.org/2000/svg" version="1.1" viewBox="0 0 566.9 566.9">
  <!-- Generator: Adobe Illustrator 29.8.5, SVG Export Plug-In . SVG Version: 2.1.1 Build 2)  -->
  <defs>
    <style>
      .st0 {
        fill: #4a72a6;
      }

      .st1 {
        fill: #fee5cd;
      }

      .st2 {
        fill: #fff;
        stroke: #1d1d1b;
        stroke-miterlimit: 10;
        stroke-width: .2px;
      }

      .st3 {
        fill: #fbbb45;
      }

      .st4 {
        display: none;
      }

      .st5 {
        fill: #f08464;
      }
    </style>
  </defs>
  <g id="Calque_2">
    <g>
      <path class="st3" d="M429.9,0H0h429.8s0,0,0,0Z"/>
      <path class="st3" d="M176.4,248.6c59.3-59.5,125-138.8,125-138.8,0,0,0,0,0,0,0,0,0,0,0,0C287.2,30.1,426.7.7,429.8,0H0S0,175.7,0,175.7c0,0,87.6,54.6,176.3,73,0,0,0,0,0,0Z"/>
      <path class="st5" d="M410,252.4c-97.6,23.6-178.1,7.4-178.1,7.4-.9-.1-1.7-.3-2.6-.4,1.2.2,2.5.4,3.9.7,17.9,3,11.9,23.9,7.1,30.8-4.8,6.9-13.3,10.7-6.7,16.4s21,12.9,27.8,12.3c0,0-24,8.6-20.2,20,3.8,11.4,12.5,13.1,18.8,30.4,6.8,18.7,1.2,43.3,4.6,64.3,3.1,19.3,72.5,15.7,93.4,15.7s27,14.4,42.9,41.4c10.3,17.4,16,34.4,29,75.6h137V175.7c-76.7,62.9-156.9,76.7-156.9,76.7,0,0,0,0,0,0Z"/>
      <path class="st5" d="M176.3,248.6s0,0,0,0c0,0,0,0,0,0,0,0,0,0,0,0,0,0,0,0,0,0Z"/>
      <path class="st5" d="M176.4,248.6s0,0,0,0c0,0,0,0,0,0,0,0,0,0,0,0Z"/>
      <polygon class="st5" points="301.4 109.8 301.4 109.8 301.4 109.8 301.4 109.8"/>
      <path class="st1" d="M176.3,248.7c19,4.7,29.4,6.9,52.9,10.7-16.9-2.9-24.2-4.3-52.9-10.7,0,0,0,0,0,0Z"/>
      <path class="st1" d="M402.9,247.2c-56.4-43.1-94.5-98.1-101.5-137.4h0s-65.7,79.3-125,138.8c0,0,0,0,0,0,0,0,0,0,0,0,28.7,6.4,36,7.8,52.9,10.7.8.1,1.7.3,2.6.4,0,0,80.6,16.2,178.1-7.4-2.4-1.7-4.7-3.5-7-5.3Z"/>
      <rect class="st0" x="439.9" y="0" width="126.9" height="0"/>
      <path class="st0" d="M429.9,0s0,0,0,0h10.1s-10.1,0-10.1,0c0,0,0,0,0,0h0Z"/>
      <rect class="st0" x="439.9" y="0" width="126.9" height="0"/>
      <path class="st0" d="M410,252.4s80.2-13.9,156.9-76.7c-50.9,41.5-106.2,64.5-156.9,76.7,0,0,0,0,0,0Z"/>
      <rect class="st0" x="439.9" y="0" width="126.9" height="0"/>
      <polygon class="st0" points="439.9 0 429.9 0 429.9 0 439.9 0 439.9 0"/>
      <path class="st0" d="M566.8,0h0s-126.9,0-126.9,0h0s-10.1,0-10.1,0h0c-3.2.7-142.6,30.1-128.4,109.7,0,0,0,0,0,0,0,0,0,0,0,0,7,39.2,45.1,94.3,101.5,137.4,2.3,1.8,4.7,3.5,7,5.3,50.7-12.2,106-35.2,156.9-76.7v391.3h-137c-13-41.2-18.7-58.2-29-75.6-15.9-27.1-22-41.4-42.9-41.4s-90.3,3.7-93.4-15.7c-3.4-21,2.2-45.6-4.6-64.3-6.3-17.3-15-19-18.8-30.4-3.8-11.4,20.2-20,20.2-20-6.9.6-21.2-6.6-27.8-12.3s1.9-9.5,6.7-16.4c4.8-6.9,10.8-27.8-7.1-30.8-1.3-.2-2.6-.4-3.9-.7-23.6-3.8-33.9-6-52.9-10.7,0,0,0,0,0,0,0,0,0,0,0,0,0,0,0,0,0,0C87.6,230.2,0,175.7,0,175.7v391.3h566.9S566.9,0,566.9,0h0Z"/>
    </g>
  </g>
  <g id="Calque_1" class="st4">
    <line class="st2" x1="-7.5" y1="175.7" x2="5.3" y2="175.7"/>
    <line class="st2" x1="429.9" y1="-9.2" x2="429.9" y2="12.2"/>
    <line class="st2" x1="429.9" y1="556.2" x2="429.9" y2="577.6"/>
    <path class="st2" d="M582.4,176.3"/>
    <path class="st2" d="M552.5,176.3"/>
    <line class="st2" x1="-7.5" y1="175.7" x2="5.3" y2="175.7"/>
    <line class="st2" x1="429.9" y1="-9.2" x2="429.9" y2="12.2"/>
    <line class="st2" x1="429.9" y1="556.2" x2="429.9" y2="577.6"/>
    <line class="st2" x1="552.5" y1="175.7" x2="582.4" y2="175.7"/>
    <line class="st2" x1="579.4" y1="175.7" x2="602.9" y2="175.7"/>
    <line class="st2" x1="1016.8" y1="-9.2" x2="1016.8" y2="12.2"/>
    <line class="st2" x1="1016.8" y1="556.2" x2="1016.8" y2="577.6"/>
    <line class="st2" x1="1139.4" y1="175.7" x2="1169.4" y2="175.7"/>
    <line class="st2" x1="-7.5" y1="762.6" x2="5.3" y2="762.6"/>
    <line class="st2" x1="429.9" y1="577.7" x2="429.9" y2="599.1"/>
    <line class="st2" x1="429.9" y1="1143.1" x2="429.9" y2="1164.5"/>
    <line class="st2" x1="552.5" y1="763.2" x2="582.4" y2="763.2"/>
    <line class="st2" x1="579.4" y1="763.2" x2="592.2" y2="763.2"/>
    <line class="st2" x1="1016.8" y1="577.7" x2="1016.8" y2="599.1"/>
    <line class="st2" x1="1016.8" y1="1143.1" x2="1016.8" y2="1164.5"/>
    <line class="st2" x1="1139.4" y1="763.2" x2="1169.4" y2="763.2"/>
  </g>
</svg>