<svg xmlns="http://www.w3.org/2000/svg" viewBox="0 0 566.9 566.9">
  <g id="zone-1" data-color-id="WT000">
    <rect class="st4" x="0" y="0" width="566.9" height="566.9" fill="#f7f7f7"/>
  </g>
  <g id="zone-2" data-color-id="BL001">
    <circle class="st3" cx="48.7" cy="220.2" r="14.8" transform="translate(-173.3 180.9) rotate(-67.5)" fill="#055fad"/>
    <circle class="st3" cx="517.3" cy="220.2" r="14.8" transform="translate(-28.6 85.7) rotate(-9.2)" fill="#055fad"/>
    <path class="st3" d="M282.5,286.7c0,0,0-.2-.1-.3,0,0,0,0,0,0,0,0,0-.1-.1-.2,0,0-.1-.2-.2-.3,0,0-.1-.1-.2-.2,0,0,0,0-.1.1,0,0-.9.5-1,.5-.2,0-.3,0-.5,0-4-.2-8.1-.3-12.3-.6-13.7.8-27.6,2.3-40.7,5.7-19.7,5.2-39.6,14.1-57.4,23.9,0,0-.2.1-.3.2-34.9,19.3-66.7,44.6-90,77.2-2.8,3.9-5.1,8.1-7.8,12-.8,1.9,3.1,1.1,4.1,1.1,29.1,0,61.6-8.7,88.3-20.2,11-4.7,20.9-10.1,31.3-15.9.4-.2,1-.8,1.5-.5.6-.6,1.3-1.1,2.2-1.7,2.3-1.5,5.4-2.9,7.4-4.1,24.6-15.1,46.9-33.7,63.6-57.4,2.9-4.1,5.6-8.4,8.4-12.7.9-1.4,1.8-2.8,2.8-4.1.2-.4.5-.9.8-1.3.1-.2.3-.4.5-.6,0,0,0,0,.1-.1-.1-.2-.2-.3-.3-.5Z" fill="#055fad"/>
    <path class="st3" d="M254.1,177.7c.4.7.8,1.3,1.2,1.9,13.8,25.3,24,52.6,26.7,81.4.3,3.6.5,7.3.7,10.9.2-3.6.4-7.2.7-10.8,2.7-28.8,12.9-56,26.7-81.4,1-1.8,2.6-4.1,3.8-6.2,0-1.2.1-2.3.4-3.2-.5-.3-.3-1.1-.3-1.5-.1-12-.3-23.2-1.7-35.1-3.2-28.9-11.7-61.5-26-86.7-.5-.9-1.7-4.7-3-3.1-2.1,4.3-4.6,8.4-6.6,12.7-16.9,36.5-23.2,76.7-22.7,116.7,0,1.5,0,2.9,0,4.4Z" fill="#055fad"/>
    <path class="st3" d="M522.5,283.9c-15.3-8-31.8-15.9-48.6-20.4-19.7-5.3-41.4-7.3-61.7-7.5-6.3,0-12.6,0-18.9.3-33.7,1.5-67.1,8.2-97.9,22.4-3.3,1.5-6.4,3.3-9.6,5,0,0-.1,0-.2,0-.1,0-.2.1-.3.2-.5.3-1,.5-1.5.8-.2.1-.4.2-.6.3,0,0-.1,0-.2,0,0,0-.1,0-.2.1,0,0,0,0-.1,0,0,0,0,0-.1.1-.2.2-.3.3-.3.5,0,0,0,0,0,0,0,0,0,.2,0,.3,0,0,0,0,0,0,0,0,.1.2.2.2.2.2.4.4.7.6,0,.4,0,.9,0,1.4,0,.2,0,.4,0,.6-.2,3.1-.4,6.1-.6,9.2.2,3.6.4,7.2.7,10.8,2.7,28.8,12.9,56,26.7,81.4,1,1.8,2.6,4.1,3.8,6.2.7,1.3,1.3,2.5,1.6,3.5.5,0,.8.8,1,1.2,6.2,10.2,12.1,19.8,19.3,29.4,17.5,23.2,41.3,46.9,66.6,61.4.9.5,3.9,3.2,4.1,1.1-.4-4.8-.3-9.6-.8-14.3-4-39.9-19-77.6-39.8-111.7,0,0-.1-.2-.2-.3-10.6-17.3-23.4-35-37.9-49.2-8.6-8.4-18.6-15.9-28.7-22.7,22.8,10.3,49.3,16.6,73.3,19.2,8.2.9,16.1,1.3,24.2,1.5,3.6,0,7.2.1,10.9.2.5,0,1.2-.2,1.5.3,2.8-.8,8-.2,11.2-.3,28.8-1,57.5-6.2,83.6-18.5,6.1-2.9,11.9-6.2,18-9.1.6-.3,1.5-1,2.2-1.1,0-.6.1-1.3-.1-1.9,0,0-1.4-1.3-1.5-1.4Z" fill="#055fad"/>
    <circle class="st0" cx="212" cy="519.8" r="14.8" transform="translate(-113.7 62.6) rotate(-13.3)" fill="#055fad"/>
  </g>
  <g id="zone-3" data-color-id="YL003">
    <circle class="st2" cx="48.7" cy="349.8" r="14.8" transform="translate(-79.1 20.6) rotate(-13.3)" fill="#f7b945"/>
    <circle class="st2" cx="517.3" cy="349.8" r="14.8" transform="translate(-49.4 87.4) rotate(-9.2)" fill="#f7b945"/>
    <circle class="st2" cx="212" cy="48.4" r="14.8" transform="translate(130.3 249.9) rotate(-80.8)" fill="#f7b945"/>
    <path class="st2" d="M310.1,390.6c-13.8-25.3-24-52.6-26.7-81.4-.3-3.6-.5-7.2-.7-10.8-.2,3.6-.4,7.3-.7,10.9-2.7,28.8-12.9,56-26.7,81.4-.3.6-.7,1.2-1.2,1.9,0,1.5,0,2.9,0,4.4-.5,40,5.8,80.3,22.7,116.7,2,4.3,4.5,8.4,6.6,12.7,1.2,1.7,2.4-2.2,3-3.1,14.4-25.3,22.9-57.9,26-86.7,1.3-11.9,1.5-23.1,1.7-35.1,0-.5-.2-1.2.3-1.5-.2-.9-.4-2-.4-3.2-1.3-2.2-2.9-4.5-3.8-6.2Z" fill="#f7b945"/>
    <path class="st2" d="M402.4,78c-25.3,14.4-49.1,38.1-66.6,61.4-7.2,9.6-13.1,19.1-19.3,29.4-.2.4-.5,1.2-1,1.2-.3,1-.9,2.3-1.6,3.5-1.3,2.2-2.9,4.5-3.8,6.2-13.8,25.3-24,52.6-26.7,81.4-.3,3.6-.5,7.2-.7,10.8.2,3.1.3,6.1.6,9.2,0,.2,0,.4,0,.6,0,0,0,0,0,0,3.8-5.5,7.3-11.3,11.1-16.8,1-1.4,2-2.8,3.1-4.2,16.3-21.7,37.4-38.9,60.5-53.2,2.1-1.3,5.7-2.9,8-4.5,20.7-34.1,35.8-71.9,39.8-111.7.5-4.8.4-9.6.8-14.3-.2-2-3.2.6-4.1,1.1Z" fill="#f7b945"/>
    <path class="st2" d="M280.3,286.3c.2,0,.3,0,.5,0,.1,0,.9-.4,1-.5,0,0,0,0,.1-.1.3-.2.4-.5.6-.8,0,0,0,0,0,0,0,0,0,0,0,0,0-.1,0-.3,0-.4,0,0,0-.2,0-.3,0,0,0,0,0,0,0,0,0,0,0,0,0,0,0,0-.1,0,0,0-.2,0-.2.1-.1,0-.3.1-.4.1,0,0,0,0-.1,0-.1,0-1.9-.5-2-.6-1.8-1.1-3.6-2.3-5.4-3.4-12.9-8.2-26-17.3-36.9-28-14.2-13.9-26.8-31.1-37.2-48.1-1.2-.7-2.3-1.4-3-2.2-.5.3-1.1-.3-1.5-.5-10.5-5.8-20.4-11.2-31.3-15.9-26.7-11.5-59.2-20.2-88.3-20.2-1,0-4.9-.8-4.1,1.1,2.7,4,5,8.1,7.8,12,23.3,32.6,55,57.9,89.9,77.2.1,0,.3.1.4.2,17.8,9.8,37.6,18.8,57.4,23.9,12.8,3.3,26.9,4.8,40.6,5.7,4.1.2,8.3.4,12.3.6Z" fill="#f7b945"/>
    <path class="st2" d="M475.3,92.3s.7,0,.7,0c5.5-1.8,11.3-3.9,16.4-6.9,5.9-3.5,11.5-8.3,16.4-13.1,9.6-9.5,17.5-20.7,22-33.5.5-1.5.9-3.1,1.4-4.6,0-.7-1.1,0-1.4,0-9.4,2.7-19.2,8.6-26.7,14.8-3.1,2.6-5.8,5.2-8.7,8.1-.1.1-.2.3-.4.3-.5.9-1.9,2-2.6,2.8-6.5,7.2-12.1,15.3-15.2,24.5-.7,2.1-1.3,4.3-2,6.5,0,.2-.1.6-.3.8.2.1.3.4.5.4Z" fill="#f7b945"/>
    <path class="st2" d="M464.5,78.1c4-12.9,5.9-26.5,3.9-39.9-.2-1.6-.6-3.2-.9-4.7-.2-.7-1,.5-1.2.7-7.1,6.8-13,16.5-16.8,25.5-1.6,3.7-2.7,7.3-3.9,11.2,0,.1,0,.4-.2.5,0,1-.7,2.6-1,3.6-2.5,9.4-3.6,19.2-2.1,28.8.3,2.2.8,4.5,1.2,6.7,0,.2.2.6.1.8.2,0,.4.2.6.1,0,0,.6-.3.6-.4,4.1-4.2,8.2-8.7,11.3-13.7,3.6-5.9,6.4-12.7,8.4-19.2Z" fill="#f7b945"/>
    <path class="st2" d="M531.1,104.6c-9.5-2.5-20.8-2.5-30.5-1.1-4,.6-7.7,1.5-11.6,2.4-.2,0-.4.2-.5,0-.8.5-2.6.7-3.6,1-9.3,2.8-18.2,6.9-25.7,13.1-1.7,1.4-3.4,3-5.1,4.5-.2.2-.4.5-.6.5,0,.2,0,.5.2.6,0,0,.6.3.6.3,5.7,1.3,11.7,2.5,17.6,2.5,6.9,0,14.1-1.1,20.8-2.8,13.1-3.2,25.7-8.7,36.2-17.3,1.2-1,2.4-2.2,3.6-3.2.4-.5-.9-.6-1.2-.7Z" fill="#f7b945"/>
    <path class="st2" d="M91.1,475.5s-.7,0-.7,0c-5.5,1.8-11.3,3.9-16.4,6.9-5.9,3.5-11.5,8.3-16.4,13.1-9.6,9.5-17.5,20.7-22,33.5-.5,1.5-.9,3.1-1.4,4.6,0,.7,1.1,0,1.4,0,9.4-2.7,19.2-8.6,26.7-14.8,3.1-2.6,5.8-5.2,8.7-8.1.1-.1.2-.3.4-.3.5-.9,1.9-2,2.6-2.8,6.5-7.2,12.1-15.3,15.2-24.5.7-2.1,1.3-4.3,2-6.5,0-.2.1-.6.3-.8-.2-.1-.3-.4-.5-.4Z" fill="#f7b945"/>
    <path class="st2" d="M123,457.4c0-.2-.2-.6-.1-.8-.2,0-.4-.2-.6-.1,0,0-.6.3-.6.4-4.1,4.2-8.2,8.7-11.3,13.7-3.6,5.9-6.4,12.7-8.4,19.2-4,12.9-5.9,26.5-3.9,39.9.2,1.6.6,3.2.9,4.7.2.7,1-.5,1.2-.7,7.1-6.8,13-16.5,16.8-25.5,1.6-3.7,2.7-7.3,3.9-11.2,0-.1,0-.4.2-.5,0-1,.7-2.6,1-3.6,2.5-9.4,3.6-19.2,2.1-28.8-.3-2.2-.8-4.5-1.2-6.7Z" fill="#f7b945"/>
    <path class="st2" d="M65.8,464.3c4-.6,7.7-1.5,11.6-2.4.2,0,.4-.2.5,0,.8-.5,2.6-.7,3.6-1,9.3-2.8,18.2-6.9,25.7-13.1,1.7-1.4,3.4-3,5.1-4.5.2-.2.4-.5.6-.5,0-.2,0-.5-.2-.6,0,0-.6-.3-.6-.3-5.7-1.3-11.7-2.5-17.6-2.5-6.9,0-14.1,1.1-20.8,2.8-13.1,3.2-25.7,8.7-36.2,17.3-1.2,1-2.4,2.2-3.6,3.2-.4.5.9.6,1.2.7,9.5,2.5,20.8,2.5,30.5,1.1Z" fill="#f7b945"/>
  </g>
  <g id="zone-4" data-color-id="GN011">
    <circle class="st1" cx="353.2" cy="519.8" r="14.8" transform="translate(-110 95) rotate(-13.3)" fill="#31a075"/>
    <circle class="st1" cx="353.2" cy="48.4" r="14.8" transform="translate(248.8 389.2) rotate(-80.8)" fill="#31a075"/>
    <path class="st1" d="M492.9,404.1c-2.7-4-5-8.1-7.8-12-22.9-32.1-54.1-57.1-88.3-76.3-8.1-.2-16-.6-24.2-1.5-24-2.6-50.5-9-73.3-19.2,10.2,6.8,20.1,14.3,28.7,22.7,14.6,14.3,27.4,31.9,37.9,49.2,0,0,.1.2.2.3.6.4,1.1.8,1.6,1.3.5-.3,1.1.3,1.5.5,10.5,5.8,20.4,11.2,31.3,15.9,26.7,11.5,59.2,20.2,88.3,20.2,1,0,4.9.8,4.1-1.1Z" fill="#31a075"/>
    <path class="st1" d="M170,315.3c17.8-9.8,37.6-18.8,57.4-23.9,13.1-3.4,27-4.9,40.7-5.7-13.6-.8-27.8-2.3-40.6-5.7-19.7-5.2-39.6-14.1-57.4-23.9-.1,0-.3-.1-.4-.2-5.4-.2-10.8-.3-16.2-.2-20.3.3-42,2.3-61.7,7.5-16.8,4.5-33.2,12.4-48.6,20.4,0,0-1.5,1.3-1.5,1.4-.3.6-.1,1.3-.1,1.9.7,0,1.6.8,2.2,1.1,6,2.9,11.9,6.3,18,9.1,26.2,12.4,54.8,17.5,83.6,18.5,3.2.1,8.4-.5,11.2.3.3-.5,1.1-.3,1.5-.3,4,0,7.8,0,11.7-.2,0,0,.2-.1.3-.2Z" fill="#31a075"/>
    <path class="st1" d="M394.6,255.6c35-19.3,66.9-44.7,90.3-77.4,2.8-3.9,5.1-8.1,7.8-12,.8-1.9-3.1-1.1-4.1-1.1-29.1,0-61.6,8.7-88.3,20.2-11,4.7-20.9,10.1-31.3,15.9-.4.2-1,.8-1.5.5-.4.4-1,.8-1.6,1.3-2.4,1.6-5.9,3.2-8,4.5-23.1,14.2-44.2,31.5-60.5,53.2-1,1.4-2.1,2.8-3.1,4.2-3.8,5.5-7.3,11.3-11.1,16.8,0,0,0,0,0,0,0-.2,0-.4,0-.6-.2-3.1-.4-6.1-.6-9.2-.2-3.6-.4-7.3-.7-10.9-2.7-28.8-12.9-56-26.7-81.4-.3-.6-.7-1.2-1.2-1.9-1.6-2.6-3.7-5.6-4.3-7.8-.5,0-.8-.8-1-1.2-6.2-10.2-12.1-19.8-19.3-29.4-17.5-23.2-41.3-46.9-66.6-61.4-.9-.5-3.9-3.2-4.1-1.1.4,4.8.3,9.6.8,14.3,4,40,19.1,77.8,39.9,112,.2.4.5.8.7,1.2,10.4,17,23,34.1,37.2,48.1,10.9,10.7,23.9,19.8,36.9,28,1.8,1.2,3.6,2.3,5.4,3.4,0,0,1.9.6,2,.6,0,0,0,0,.1,0,.1,0,.3,0,.4-.1,0,0,.2,0,.2-.1,0,0,0,0,.1,0,0,0,0,0,0,0,0,0,0,0,0,0,0,0,0,.2,0,.3,0,.2,0,.3,0,.4,0,0,0,0,0,0,0,0,0,0,0,0-.2.3-.3.6-.6.8,0,0,.1.1.2.2,0,0,.1.2.2.3,0,0,0,.1.1.2,0,0,0,0,0,0,0,0,0,.2.1.3,0,.2.2.3.3.5,0,0,0,0-.1.1-.2.2-.3.4-.5.6-.3.5-.5,1-.8,1.3-.9,1.4-1.9,2.8-2.8,4.1-2.8,4.2-5.5,8.5-8.4,12.7-16.6,23.7-39,42.3-63.6,57.4-2,1.2-5,2.6-7.4,4.1-20.7,34.1-35.7,71.8-39.7,111.6-.5,4.8-.4,9.6-.8,14.3.2,2,3.2-.6,4.1-1.1,25.3-14.4,49.1-38.1,66.6-61.4,7.2-9.6,13.1-19.1,19.3-29.4.2-.4.5-1.2,1-1.2.6-2.2,2.7-5.3,4.3-7.8.4-.7.8-1.3,1.2-1.9,13.8-25.3,24-52.6,26.7-81.4.3-3.6.5-7.3.7-10.9.2-3.1.3-6.1.6-9.2,0-.2,0-.4,0-.6,0-.5,0-1,0-1.4-.3-.2-.6-.4-.7-.6,0,0-.1-.2-.2-.2,0,0,0,0,0,0,0,0,0-.2,0-.3,0,0,0,0,0,0,0-.2.1-.3.3-.5,0,0,0,0,.1-.1,0,0,0,0,.1,0,0,0,.1,0,.2-.1,0,0,.1,0,.2,0,.2-.1.4-.2.6-.3.5-.3,1-.5,1.5-.8.1,0,.2-.1.3-.2,0,0,.1,0,.2,0,3.2-1.7,6.3-3.5,9.6-5,30.7-14.3,64.2-21,97.9-22.4.4-.2.9-.5,1.3-.7Z" fill="#31a075"/>
    <path class="st1" d="M508.7,495.6c-4.8-4.8-10.5-9.6-16.4-13.1-5-3-10.8-5.1-16.4-6.9,0,0-.7,0-.7,0-.2,0-.3.3-.5.4.1.2.2.6.3.8.7,2.1,1.3,4.4,2,6.5,3.2,9.2,8.7,17.3,15.2,24.5.7.8,2.1,1.9,2.6,2.8.2,0,.3.2.4.3,2.9,2.9,5.6,5.5,8.7,8.1,7.6,6.2,17.3,12.1,26.7,14.8.3,0,1.5.7,1.4,0-.5-1.5-.9-3.1-1.4-4.6-4.5-12.8-12.5-24-22-33.5Z" fill="#31a075"/>
    <path class="st1" d="M456.1,470.5c-3.1-5-7.2-9.5-11.3-13.7,0,0-.6-.4-.6-.4-.2,0-.4,0-.6.1,0,.2-.1.6-.1.8-.4,2.2-.9,4.5-1.2,6.7-1.5,9.6-.4,19.4,2.1,28.8.3,1,1,2.7,1,3.6.2,0,.2.3.2.5,1.2,3.9,2.4,7.5,3.9,11.2,3.8,9,9.7,18.7,16.8,25.5.3.2,1,1.4,1.2.7.3-1.6.7-3.2.9-4.7,1.9-13.4,0-27-3.9-39.9-2-6.5-4.8-13.4-8.4-19.2Z" fill="#31a075"/>
    <path class="st1" d="M532.4,462.5c-1.2-1.1-2.3-2.2-3.6-3.2-10.5-8.6-23.1-14.1-36.2-17.3-6.7-1.6-13.9-2.8-20.8-2.8-5.9,0-11.9,1.2-17.6,2.5,0,0-.6.3-.6.3-.1.2-.1.4-.2.6.2,0,.4.4.6.5,1.7,1.5,3.4,3.1,5.1,4.5,7.5,6.3,16.4,10.4,25.7,13.1,1,.3,2.8.5,3.6,1,.1-.1.4,0,.5,0,3.9,1,7.6,1.9,11.6,2.4,9.7,1.4,21,1.4,30.5-1.1.3,0,1.7-.2,1.2-.7Z" fill="#31a075"/>
    <path class="st1" d="M57.7,72.8c4.8,4.8,10.5,9.6,16.4,13.1,5,3,10.8,5.1,16.4,6.9,0,0,.7,0,.7,0,.2,0,.3-.3.5-.4-.1-.2-.2-.6-.3-.8-.7-2.1-1.3-4.4-2-6.5-3.2-9.2-8.7-17.3-15.2-24.5-.7-.8-2.1-1.9-2.6-2.8-.2,0-.3-.2-.4-.3-2.9-2.9-5.6-5.5-8.7-8.1-7.6-6.2-17.3-12.1-26.7-14.8-.3,0-1.5-.7-1.4,0,.5,1.5.9,3.1,1.4,4.6,4.5,12.8,12.5,24,22,33.5Z" fill="#31a075"/>
    <path class="st1" d="M110.3,97.8c3.1,5,7.2,9.5,11.3,13.7,0,0,.6.4.6.4.2,0,.4,0,.6-.1,0-.2.1-.6.1-.8.4-2.2.9-4.5,1.2-6.7,1.5-9.6.4-19.4-2.1-28.8-.3-1-1-2.7-1-3.6-.2,0-.2-.3-.2-.5-1.2-3.9-2.4-7.5-3.9-11.2-3.8-9-9.7-18.7-16.8-25.5-.3-.2-1-1.4-1.2-.7-.3,1.6-.7,3.2-.9,4.7-1.9,13.4,0,27,3.9,39.9,2,6.5,4.8,13.4,8.4,19.2Z" fill="#31a075"/>
    <path class="st1" d="M94.6,129.2c5.9,0,11.9-1.2,17.6-2.5,0,0,.6-.3.6-.3.1-.2.1-.4.2-.6-.2,0-.4-.4-.6-.5-1.7-1.5-3.4-3.1-5.1-4.5-7.5-6.3-16.4-10.4-25.7-13.1-1-.3-2.8-.5-3.6-1-.1.1-.4,0-.5,0-3.9-1-7.6-1.9-11.6-2.4-9.7-1.4-21-1.4-30.5,1.1-.3,0-1.7.2-1.2.7,1.2,1.1,2.3,2.2,3.6,3.2,10.5,8.6,23.1,14.1,36.2,17.3,6.7,1.6,13.9,2.8,20.8,2.8Z" fill="#31a075"/>
  </g>
</svg>