<svg xmlns="http://www.w3.org/2000/svg" viewBox="0 0 566.9 566.9">
  <g id="zone-1" data-color-id="WT000">
    <path class="st3" d="M274.6,487.6s0,0,0,0h0s0,0,0,0Z" fill="#f7f7f7"/>
    <path class="st3" d="M0,0v566.9h566.9V0H0ZM488,201.6c0,7.8-6.3,14.1-14.1,14.1s-14.1-6.3-14.1-14.1,6.3-14.1,14.1-14.1,14.1,6.3,14.1,14.1ZM414.1,107.6c7.8,0,14.1,6.3,14.1,14.1s-6.3,14.1-14.1,14.1-14.1-6.3-14.1-14.1,6.3-14.1,14.1-14.1ZM394.6,157.5c-.3-.8-.6-1.6-1-2.4.3.8.6,1.6,1,2.4ZM392.7,152.9c-.3-.8-.7-1.6-1-2.4.3.8.7,1.6,1,2.4ZM331.9,51.5c7.8,0,14.1,6.3,14.1,14.1s-6.3,14.1-14.1,14.1-14.1-6.3-14.1-14.1,6.3-14.1,14.1-14.1ZM309.1,57.5s0,0,0,.1c0,0,0,0,0-.1ZM308.8,58.2c0,0,0,.2-.1.2,0,0,0-.2.1-.2ZM308.5,58.9c0,0-.1.2-.2.3,0,0,.1-.2.2-.3ZM308,59.6c0,.1-.1.2-.2.3,0-.1.1-.2.2-.3ZM307.5,60.4c0,.1-.2.3-.3.4,0-.1.2-.3.3-.4ZM307.1,61.1c-.1.2-.3.4-.4.7.1-.2.2-.4.4-.7ZM235,51.7c7.8,0,14.1,6.3,14.1,14.1s-6.3,14.1-14.1,14.1-14.1-6.3-14.1-14.1,6.3-14.1,14.1-14.1ZM147.8,107.6c7.8,0,14.1,6.3,14.1,14.1s-6.3,14.1-14.1,14.1-14.1-6.3-14.1-14.1,6.3-14.1,14.1-14.1ZM91.8,187.5c7.8,0,14.1,6.3,14.1,14.1s-6.3,14.1-14.1,14.1-14.1-6.3-14.1-14.1,6.3-14.1,14.1-14.1ZM34.1,428c0-12,9.7-21.7,21.7-21.7s21.7,9.7,21.7,21.7-9.7,21.7-21.7,21.7-21.7-9.7-21.7-21.7ZM344.5,507.5c.7.5,1.3,1.1,2,1.6-.7-.5-1.4-1.1-2-1.6ZM347.1,509.6c.5.4,1,.8,1.6,1.2-.5-.4-1.1-.8-1.6-1.2ZM349.3,511.2c.7.5,1.4,1,2.2,1.5-.7-.5-1.4-1-2.2-1.5ZM351.7,512.8c.6.4,1.3.8,2,1.2-.7-.4-1.3-.8-2-1.2ZM354.3,514.5c.6.3,1.2.7,1.8,1-.6-.3-1.2-.7-1.8-1ZM511.1,449.7c-12,0-21.7-9.7-21.7-21.7s9.7-21.7,21.7-21.7,21.7,9.7,21.7,21.7-9.7,21.7-21.7,21.7ZM515.5,313.6s-1.5,1.1-1.5,1.2c-1.9,1.1.1,2.8,2.3,3.1,2.1.3,10.6,2.3,12.6,3.1,1.5.6,2.2,1.7,2.3,2.1,0,1.3-6.2,6.4-7.1,7-17.5,12.7-43.6,18.1-64.6,12.6-4.3-1.1-10.7-4.8-14.9-8-43.2,19.9-74.9,47-97.8,73.9,22.4-13.9,47-23.9,72.4-31.6,23.6-7.1,49.5-12.8,74.1-14.2,1.4,0,6.6-.9,5.6,1-17.7,32.6-59.1,54.7-59.1,54.7-44.9,20.8-77.3,24.7-114.4,23-.8,0-1.7-.2-2.6-.3-6.7,10.5-12.1,20.5-16.3,29.4,1-.8,2-1.5,2.6-1.9,27.7-19.8,70.1-24.4,103-19.9,33.9,4.5,71.4,19,95,44.3,1.6,1.7,5.7,6.4,6.6,8.3.5,1.2-6,3.2-6.8,3.5-28,13.3-67.3,17-97.8,15.1-36.1-2.2-77.3-13.3-107-34.5-.6-.4-1.2-.8-1.7-1.3-5.4,13-7.8,22-8.3,24.1-1.1,5.2-1.2,9.8-1.7,15.1,0,.7-.6,4.5-.9,4.8-.2.1-1.6,1.2-2.2,1.5-2,1.1-5.7,1.1-7.7,0-.5-.3-1.9-1.3-2-1.4-.3-.3-.8-4-.9-4.8-.5-5.2-.6-9.8-1.7-15.1-.5-2.1-2.7-10.9-7.8-23.7-.6.5-1.3,1-1.9,1.4-29.7,21.2-70.9,32.2-107,34.5-30.5,1.9-69.8-1.8-97.8-15.1-.8-.4-7.3-2.3-6.8-3.5.8-2,5-6.6,6.6-8.3,23.5-25.3,61.1-39.8,95-44.3,32.9-4.4,75.4.2,103,19.9.8.6,2,1.5,3.3,2.4-4.2-9-9.5-19.2-16.3-30-1.1.2-2.3.4-3.3.4-37.1,1.7-69.5-2.1-114.4-23,0,0-39.7-21.2-57.9-52.7,0,.2,0,.4,0,.5-.8-.7-.7-.6-1.1-1.7.2,0,.3,0,.4,0-.2-.3-.4-.7-.6-1-1-1.9,4.2-1.1,5.6-1,24.7,1.4,50.5,7.1,74.1,14.2,26.1,7.9,51.4,18.2,74.3,32.7-23.1-27.4-55.6-55.1-100.9-75.3-4.3,3.1-10.3,6.6-14.5,7.7-21,5.5-47.1,0-64.6-12.6-.9-.6-7.2-5.7-7.1-7,0-.4.8-1.5,2.3-2.1,1.9-.8,10.4-2.9,12.6-3.1,2.2-.3,4.1-2,2.3-3.1,0,0-1.5-1.1-1.5-1.2-6.6-4.1-20.6-20.2-18.5-21.7,1.1-.8,29.9.9,30.3,1,1.9.3,3.4-1.7,2.4-3.4-2.3-3.9-4.6-7.9-6.5-12-.3-.8-1.6-3.3-1.8-3.8-.4-1.3,0-2.8,1.7-2.5,4.5,1.7,18.2,6.4,21,7.4,34.8,12.2,47,38.7,47.1,49.1,16.3,5.2,30.9,11.6,43.8,18.8-2.8-12.2-7.5-36.8-7-46.2.2-3.6.5-8.2.9-11.7.2-1.6.2-2.8,2.1-2.9.6,0,1.4.7,1.8,1.1,3.1,3,6.6,7.4,9.2,10.9,2.7,3.5,9.7,15.8,10.9,18.6,1.4,3.4,2.9,9.9,3.4,13.6,1.1,8.5-.3,16.2-4.6,23.7-.1.2-.8,1.1-1.6,2.3,18.4,12.2,33,26.1,44.6,40.1-1.2-3.6-2.2-7.9-2.8-10.9-2.9-13.1-4.1-25.1-3.7-38.5.1-3.4.2-12.5,1.1-13.8,1.7-2.3,4.2,1.6,5.7,2.4,16.5,20.2,29.4,43.9,36.6,69.1,3.1,10.7,6,20.8,8.2,31.2.8-59,2.1-146.8,1.8-146.8-7.9-.4-49.5-15.9-51.6-15.7-7.9,1.1-15.6,2.8-23.5,3.6-33.7,3.5-77.4,1.5-108.8-12.3-8.3-3.7-16.3-8.1-24.5-12.2v-2.2c8.1-3.8,15.9-8.3,24.2-11.9,26.1-11.5,57.6-14.5,85.8-13.7-20.8-11.9-41.5-25.4-57.9-42.9-6.5-6.9-12-14.5-17.3-22.4-2.5-3.7-5.4-7.9-7.6-11.7-.6-1.1-.7-1.5.2-2.4.8-.9,1.4-.2,2.3-.1,13.2.5,26.4,1.1,39.3,3.9,26,5.7,50.3,18.5,72.9,32.1-8.4-14.6-16.3-29.6-22.2-45.4-7-18.8-12.6-42-13.4-62,0-2.5,0-5.1,0-7.6,1.3-.2,2.2,1,3.2,1.6,32.6,19,59.8,52.1,78,84.8,0-2.6,0-5.2,0-7.9.9-35.1,7.4-72.8,24.8-103.7.3-.5,1.6-3.5,1.8-3.5.2,0,.8,0,.9,0,.6,2,2,3.7,2.9,5.5,2.9,5.5,5.5,11.5,7.8,17.3,11.4,29.3,16.2,60.6,15.5,92,.1-.2.8-.8,1-1.3,19.2-33.9,45.3-64.2,78.9-84.4l1.3-.2c0,.9,0,1.7,0,2.6-.3,8.2-.9,16.5-2.2,24.7-4,25.5-13.1,49.9-25,72.7l-7.8,13.9c3.9-1.8,7.4-4.2,11.1-6.4,24.8-14.3,52.1-25.9,81-28.3,6-.5,12.4-.9,18.4-1.1,1.8,0,4.1-.5,4.6,1.5l-8.4,13.3c-18.3,29.1-46.3,48.9-75.9,65.3-.6.3-1.5.8-1.8,1.3,33.1-.8,68.7,5.7,99,18.9,5.2,2.3,10,4.9,14.9,7.6l.2,1c-16.5,9.3-35,16.1-53.5,20.3-29.3,6.6-62,7.9-91.8,4.2-5.3-.7-10.5-1.8-15.9-2.5-.2,0-46.4,13.2-48.6,13.5-.2,0,1,85.7,1.8,144.6,2.5-9.8,5.8-19.5,8.6-29.6,7.2-25.2,20.1-48.9,36.6-69.1,1.4-.8,3.9-4.7,5.7-2.4.9,1.2,1,10.4,1.1,13.8.5,13.4-.8,25.4-3.7,38.5-.9,4.2-2.5,11-4.3,14.8,0,0,0,.2-.1.3,12.1-15.3,27.5-30.5,46.8-43.7-1-1.4-2-2.7-2.1-2.9-4.3-7.5-5.7-15.2-4.6-23.7.5-3.7,2-10.2,3.4-13.6,1.2-2.8,8.2-15.1,10.9-18.6,2.6-3.4,6.2-7.9,9.2-10.9.4-.4,1.3-1.1,1.8-1.1,1.8.1,1.9,1.3,2.1,2.9.4,3.6.7,8.1.9,11.7.5,9.7-4.4,35.3-7.2,47.1,12.8-7.4,27.2-13.8,43.3-19,0-10.3,12.2-37,47.1-49.2,2.8-1,16.5-5.7,21-7.4,1.6-.3,2.1,1.2,1.7,2.5-.1.4-1.4,3-1.8,3.8-1.9,4.1-4.2,8-6.5,12-1,1.7.5,3.7,2.4,3.4.4,0,29.2-1.8,30.3-1,2.1,1.5-11.9,17.6-18.5,21.7ZM390.8,148.5c-.3-.8-.7-1.5-1-2.3.4.8.7,1.5,1,2.3ZM408.4,217.4c0-1.6-.2-3.1-.3-4.7.1,1.6.2,3.1.3,4.7Z" fill="#f7f7f7"/>
  </g>
  <g id="zone-2" data-color-id="BL001">
    <path class="st2" d="M256.2,237.9c-25.5-9.2-49.8-13-77.4-13.7-28.2-.7-59.7,2.2-85.8,13.7-8.2,3.6-16.1,8.1-24.3,11.9v2.2c8.2,4,16.2,8.5,24.5,12.2,31.4,13.9,75,15.8,108.8,12.3,7.9-.8,15.7-2.5,23.5-3.6,0,0,0-.2.3-.3-.2-1.6,26.9-26.7,38.8-31.4-.4-.6-1.1-.6-1.7-.8-2.3-.9-4.5-1.7-6.8-2.5Z" fill="#055fad"/>
    <path class="st2" d="M499.3,253.1l-.2-1c-4.9-2.8-9.8-5.4-14.9-7.6-30.4-13.2-65.9-19.7-99-18.9-21.2.5-42.8,2.5-63.1,8.9-.9.3-1.8.6-2.8.9-3.9,1.3-7.8,2.8-11.7,4.5l-4.2,2.3c11.4,4.8,37,29.1,36.9,29.9,0,.3-.2,1.1-.4,1.5-.2.3-1.1.6-1.5,1-.3.2-.3.6-.3.7,5.3.6,10.5,1.8,15.9,2.5,29.8,3.7,62.5,2.5,91.8-4.2,18.5-4.2,37-11,53.5-20.3Z" fill="#055fad"/>
    <path class="st2" d="M294.6,59.8c-2.3-5.8-4.8-11.8-7.8-17.3-1-1.8-2.3-3.5-2.9-5.5-.1,0-.7,0-.9,0-.2,0-1.5,3-1.8,3.5-17.4,30.9-23.9,68.6-24.8,103.7,0,2.6,0,5.2,0,7.9,0,.1.1.2.2.3,4.9,8.9,9.6,18.1,13.5,27.7,4.2,10.2,7.7,20.8,10,31.5,1.5,6.9,2.4,13.9,2.7,21l.6,2.6c0-10.3,2-21.4,5.1-32.5,5.2-18.2,13.5-36.3,21.6-50.9.7-31.4-4.1-62.8-15.5-92Z" fill="#055fad"/>
    <path class="st2" d="M531.1,323.1c0-.4-.8-1.5-2.3-2.1-1.9-.8-10.4-2.9-12.6-3.1-2.2-.3-4.1-2-2.3-3.1,0,0,1.5-1.1,1.5-1.2,6.6-4.1,20.6-20.2,18.5-21.7-1.1-.8-29.9.9-30.3,1-1.9.3-3.4-1.7-2.4-3.4,2.3-3.9,4.6-7.9,6.5-12,.3-.8,1.6-3.3,1.8-3.8.4-1.3,0-2.8-1.7-2.5-4.5,1.7-18.2,6.4-21,7.4-35,12.2-47.1,38.9-47.1,49.2,0,1,.1,1.8.3,2.5.3,1,2.1,2.6,4.5,4.5,4.3,3.2,10.6,6.9,14.9,8,21,5.5,47.1,0,64.6-12.6.9-.6,7.2-5.7,7.1-7Z" fill="#055fad"/>
    <path class="st2" d="M79.5,278.6c-2.8-1-16.5-5.7-21-7.4-1.6-.3-2.1,1.2-1.7,2.5.1.4,1.4,3,1.8,3.8,1.9,4.1,4.2,8,6.5,12,1,1.7-.5,3.7-2.4,3.4-.4,0-29.2-1.8-30.3-1-2.1,1.5,11.9,17.6,18.5,21.7,0,0,1.5,1.1,1.5,1.2,1.9,1.1-.1,2.8-2.3,3.1-2.1.3-10.6,2.3-12.6,3.1-1.5.6-2.2,1.7-2.3,2.1,0,1.3,6.2,6.4,7.1,7,17.5,12.7,43.6,18.1,64.6,12.6,4.2-1.1,10.3-4.5,14.5-7.7,2.6-1.9,4.6-3.7,4.9-4.8.2-.7.3-1.6.3-2.6,0-10.3-12.3-36.9-47.1-49.1Z" fill="#055fad"/>
    <circle class="st2" cx="55.9" cy="428" r="21.7" fill="#055fad"/>
    <circle class="st2" cx="511.1" cy="428" r="21.7" fill="#055fad"/>
    <circle class="st2" cx="147.8" cy="121.7" r="14.1" fill="#055fad"/>
    <circle class="st2" cx="414.1" cy="121.7" r="14.1" transform="translate(-14.2 67.9) rotate(-9.2)" fill="#055fad"/>
  </g>
  <g id="zone-3" data-color-id="YL003">
    <path class="st1" d="M440.1,330.3c-.2-.6-.3-1.5-.3-2.5-16.1,5.1-30.4,11.6-43.3,19-5,2.9-9.9,5.9-14.4,9-19.3,13.2-34.6,28.4-46.8,43.7-34.7,43.7-43.1,88.1-43.1,88.1,0,0-.3-23.5-.8-54.4-.8-58.9-2-144.6-1.8-144.6,2.2-.3,48.3-13.4,48.6-13.5,0,0,0-.4.3-.7.4-.3,1.3-.7,1.5-1,.2-.4.4-1.3.4-1.5,0-.8-25.5-25-36.9-29.9-3.1-1.3-7.2-2.7-10.5-3.6,4.7-6.5,9.8-12.7,15.2-18.6,7.1-7.7,14.7-14.8,22.8-21.4,7.5-6.1,15.4-11.8,23.6-17.1.5-.3,1.4-1.4,1.7-1.5l7.8-13.9c11.9-22.8,20.9-47.2,25-72.7,1.3-8.2,1.9-16.5,2.2-24.7,0-.9,0-1.7,0-2.6l-1.3.2c-33.6,20.1-59.7,50.5-78.9,84.4-.3.5-.9,1.1-1,1.3-8.1,14.6-16.4,32.7-21.6,50.9-3.1,11.1-5.1,22.2-5.1,32.5,0,.6,0,1.1,0,1.7,0,0-13.7,2.4-18.7,4.4-11.9,4.7-39,29.8-38.8,31.4-.3,0-.3.3-.3.3,2.1-.2,43.7,15.3,51.6,15.7.2,0-1,87.9-1.8,146.8-.4,28.9-.7,50.8-.8,52.1,0,0,0,0,0,0,0,0,0,0,0-.1-1.6-7.1-9.9-50.1-44.3-91.6-11.6-14-26.3-27.9-44.6-40.1-4.8-3.2-9.8-6.3-15.1-9.2-12.9-7.2-27.5-13.6-43.8-18.8,0,1,0,1.9-.3,2.6-.3,1-2.3,2.9-4.9,4.8,45.3,20.2,77.8,48,100.9,75.3,9,10.7,16.5,21.2,22.8,31.3,6.8,10.8,12.1,20.9,16.3,30,2.2,4.7,4,9,5.6,13,5.1,12.8,7.3,21.6,7.8,23.7,1.1,5.2,1.2,9.8,1.7,15.1,0,.7.6,4.5.9,4.8.2.1,1.6,1.1,2,1.4,2,1.2,5.7,1.2,7.7,0,.6-.3,2.1-1.4,2.2-1.5.3-.3.8-4,.9-4.8.5-5.2.6-9.8,1.7-15.1.5-2.1,2.9-11.1,8.3-24.1,1.7-4.2,3.7-8.7,6.1-13.6,4.3-8.9,9.7-18.8,16.3-29.4,6.7-10.5,14.6-21.5,24.1-32.6,22.9-26.9,54.6-54,97.8-73.9-2.4-1.8-4.1-3.5-4.5-4.5Z" fill="#f7b945"/>
    <path class="st1" d="M264.7,241.2c-.4-.6-1.1-.6-1.7-.8.6.2,1.3.3,1.7.8Z" fill="#f7b945"/>
    <path class="st1" d="M262.2,239.4c-1.5-1.1-3-2.2-4.4-3.3-3.1-2.3-6.1-4.7-9.1-7.4-15.2-13.8-27.1-30.7-38-48-22.6-13.6-46.9-26.4-72.9-32.1-12.9-2.8-26.1-3.4-39.3-3.9-.9,0-1.5-.7-2.3.1-1,1-.9,1.4-.2,2.4,2.2,3.8,5.1,8,7.6,11.7,5.3,7.9,10.8,15.5,17.3,22.4,16.5,17.6,37.2,31.1,57.9,42.9,27.6.7,51.9,4.5,77.4,13.7,2.3.8,4.5,1.7,6.8,2.5,0-.6-.4-.7-.8-1Z" fill="#f7b945"/>
    <circle class="st1" cx="331.9" cy="65.6" r="14.1" transform="translate(-6.2 54) rotate(-9.2)" fill="#f7b945"/>
    <circle class="st1" cx="235" cy="65.9" r="14.1" transform="translate(140.9 291.1) rotate(-83)" fill="#f7b945"/>
  </g>
  <g id="zone-4" data-color-id="GN011">
    <path class="st0" d="M396.5,346.8c2.8-11.8,7.7-37.4,7.2-47.1-.2-3.6-.5-8.2-.9-11.7-.2-1.6-.2-2.8-2.1-2.9-.6,0-1.4.7-1.8,1.1-3.1,3-6.6,7.4-9.2,10.9-2.7,3.5-9.7,15.8-10.9,18.6-1.4,3.4-2.9,9.9-3.4,13.6-1.1,8.5.3,16.2,4.6,23.7.1.2,1.1,1.5,2.1,2.9,4.6-3.1,9.4-6.2,14.4-9Z" fill="#31a075"/>
    <path class="st0" d="M513.6,501.4c-.8-2-5-6.6-6.6-8.3-23.5-25.3-61.1-39.8-95-44.3-32.9-4.4-75.4.2-103,19.9-.7.5-1.6,1.2-2.6,1.9-2.4,4.9-4.4,9.5-6.1,13.6.6.5,1.2.9,1.7,1.3,29.7,21.2,70.9,32.2,107,34.5,30.5,1.9,69.8-1.8,97.8-15.1.8-.4,7.3-2.3,6.8-3.5Z" fill="#31a075"/>
    <path class="st0" d="M346.8,408.7c-9.4,11.1-17.4,22.1-24.1,32.6.9.1,1.8.3,2.6.3,37.1,1.7,69.5-2.1,114.4-23,0,0,41.4-22.1,59.1-54.7,1-1.9-4.2-1.1-5.6-1-24.7,1.4-50.5,7.1-74.1,14.2-25.4,7.7-50,17.6-72.4,31.6Z" fill="#31a075"/>
    <path class="st0" d="M335.4,399.2c1.8-3.8,3.4-10.6,4.3-14.8,2.9-13.1,4.1-25.1,3.7-38.5-.1-3.4-.2-12.5-1.1-13.8-1.7-2.3-4.2,1.6-5.7,2.4-16.5,20.2-29.4,43.9-36.6,69.1-2.9,10-6.1,19.7-8.6,29.6.4,30.9.8,54.4.8,54.4,0,0,8.4-44.4,43.1-88.1,0,0,0-.2.1-.3Z" fill="#31a075"/>
    <path class="st0" d="M185.6,355.7c.8-1.1,1.5-2.1,1.6-2.3,4.3-7.5,5.7-15.2,4.6-23.7-.5-3.7-2-10.2-3.4-13.6-1.2-2.8-8.2-15.1-10.9-18.6-2.6-3.4-6.2-7.9-9.2-10.9-.4-.4-1.3-1.1-1.8-1.1-1.8.1-1.9,1.3-2.1,2.9-.4,3.6-.7,8.1-.9,11.7-.5,9.5,4.2,34.1,7,46.2,5.3,2.9,10.3,6,15.1,9.2Z" fill="#31a075"/>
    <path class="st0" d="M258.1,469.3c-27.7-19.8-70.1-24.4-103-19.9-33.9,4.5-71.4,19-95,44.3-1.6,1.7-5.7,6.4-6.6,8.3-.5,1.2,6,3.2,6.8,3.5,28,13.3,67.3,17,97.8,15.1,36.1-2.2,77.3-13.3,107-34.5.6-.4,1.3-.9,1.9-1.4-1.6-4-3.4-8.3-5.6-13-1.2-1-2.5-1.9-3.3-2.4Z" fill="#31a075"/>
    <path class="st0" d="M68.8,365.5c-.1,0-.3-.1-.4,0,.4,1,.3.9,1.1,1.7,0-.1,0-.3,0-.5,18.3,31.5,57.9,52.7,57.9,52.7,44.9,20.8,77.3,24.7,114.4,23,1,0,2.2-.3,3.3-.4-6.3-10.1-13.9-20.7-22.8-31.3-22.9-14.6-48.1-24.9-74.3-32.7-23.6-7.1-49.5-12.8-74.1-14.2-1.4,0-6.6-.9-5.6,1,.2.3.4.7.6,1Z" fill="#31a075"/>
    <path class="st0" d="M230.5,335.1c-1.4-.8-3.9-4.7-5.7-2.4-.9,1.2-1,10.4-1.1,13.8-.5,13.4.8,25.4,3.7,38.5.7,3,1.7,7.3,2.8,10.9,34.4,41.5,42.8,84.5,44.3,91.6h0c0-1.3.3-23.2.8-52.1-2.2-10.4-5.2-20.5-8.2-31.2-7.2-25.2-20.1-48.9-36.6-69.1Z" fill="#31a075"/>
    <path class="st0" d="M307.7,239.8c3.8-1.7,7.7-3.1,11.7-4.5.9-.3,1.8-.6,2.8-.9,20.3-6.3,41.9-8.4,63.1-8.9.4-.6,1.2-1,1.8-1.3,29.6-16.4,57.6-36.2,75.9-65.3l8.4-13.3c-.5-2.1-2.8-1.6-4.6-1.5-6,.3-12.4.6-18.4,1.1-28.9,2.4-56.1,14-81,28.3-3.7,2.1-7.2,4.6-11.1,6.4-.2.1-1.2,1.2-1.7,1.5-8.2,5.3-16.1,11-23.6,17.1-8.1,6.6-15.7,13.7-22.8,21.4-5.4,5.9-10.5,12.1-15.2,18.6,3.3.9,7.4,2.3,10.5,3.6l4.2-2.3Z" fill="#31a075"/>
    <path class="st0" d="M280.1,211.6c-2.3-10.7-5.7-21.3-10-31.5-4-9.6-8.6-18.8-13.5-27.7,0-.1-.1-.2-.2-.3-18.2-32.7-45.4-65.8-78-84.8-1-.6-1.9-1.8-3.2-1.6,0,2.5-.1,5.1,0,7.6.8,20.1,6.4,43.2,13.4,62,5.9,15.8,13.7,30.8,22.2,45.4,10.9,17.3,22.8,34.3,38,48,3,2.7,6,5.1,9.1,7.4,1.4,1.1,2.9,2.2,4.4,3.3.4.3.9.4.8,1,.6.2,1.3.3,1.7.8,5-2,18.6-4.4,18.7-4.4,0-.5,0-1.1,0-1.7l-.6-2.6c-.3-7.1-1.3-14.1-2.7-21Z" fill="#31a075"/>
    <circle class="st0" cx="91.8" cy="201.6" r="14.1" transform="translate(-115.7 123.9) rotate(-45)" fill="#31a075"/>
    <circle class="st0" cx="473.8" cy="201.6" r="14.1" transform="translate(106.3 562.2) rotate(-67.5)" fill="#31a075"/>
  </g>
</svg>