<svg xmlns="http://www.w3.org/2000/svg" viewBox="0 0 566.9 566.9">
  <g id="zone-1" data-color-id="WT000">
    <path class="st2" d="M391.7,432.3s-.7-14,30-55.3c30.7-41.3,35.2-75.3,31.6-80.7-3.6-5.3-2.9-15.3-10.3-16.7-7.3-1.3-13.3.5-22.7,3.6-9.3,3.1-17.3,8.4-30,9.8-12.7,1.3-24,0-32.7,3.3-8.7,3.3-52.7,48-52.7,48,0,0-66,93.3-102.7,118.7-36.7,25.3-46,24.7-46,24.7,0,0-17.3,10.7-18.7,14.7s13.3-2,26.7,0c13.3,2,52,12,76,13.3,24,1.3,56-8.7,68-14,12-5.3,71.7-41.4,83.3-69.3Z" fill="#e9e0d4"/>
    <path class="st2" d="M566.3,49.7s-4.3,20.3-30.3,21.1c-26,.8-35,30.2-35,30.2-12-5.3-42-30.8-46-31.3s-38-11.3-55.3,0c-17.3,11.3-54,11.3-56,12,0,0-1.3-2-13.3,0-12,2-29.4-9.1-42-10-28.3-1.9-32,0-32,0l-37,20.4s-24.4-70.4-41-73.1c-16.7-2.7-28.7,10.7-38,12.7-9.3,2-70.7,22-81.3,28-10.7,6-28.7,50.7-28.7,55.3s-6,33.2,0,83.9c0,0-14.2,8-15.2,49.6s-10,196.6,2,228.6,8.9,60.2,30.5,65.6c21.5,5.4,41.5,23.6,112.5,23.6H-1s0-566,0-566h567.3s0,49.5,0,49.5Z" fill="#e9e0d4"/>
  </g>
  <g id="zone-2" data-color-id="BW002">
    <path class="st6" d="M156.3,487.7s9.3.7,46-24.7c36.7-25.3,102.7-118.7,102.7-118.7,0,0,48-88.7,47.3-120-.7-31.3,33.3-126.7-8.7-142.7,0,0-1.3-2-13.3,0-12,2-29.4-9.1-42-10-28.3-1.9-32,0-32,0l-50.7,28s-18.7,82-16.7,133.3c2,51.3,5.6,120.5,1.3,142.7-2.8,14.8-13.7,63.4-18.8,75.8-4.1,9.8-13.8,22.4-15.2,23.5-1.6,1.3,0,12.7,0,12.7Z" fill="#ae6e5b"/>
    <path class="st6" d="M137.7,502.3c-97.7-81-101.3-99-100-104.8s.4-23.5,0-30.8,4-21.7,10.3-37.7c6.3-16,6.5-27.4,6.5-27.4-13.9-39.6-21-74.3-24.2-102.8,0,0-14.2,8-15.2,49.6s-10,196.6,2,228.6,8.9,60.2,30.5,65.6c21.5,5.4,41.5,23.6,112.5,23.6,71,0,136,0,136,0-58.7,0-90.6-7.6-117-13.9s-41.3-50-41.3-50" fill="#ae6e5b"/>
  </g>
  <g id="zone-3" data-color-id="BL017">
    <path class="st4" d="M343.7,81.7c2-.7,38.7-.7,56-12,17.3-11.3,51.2-.5,55.3,0s34,26,46,31.3,25.3,29.3,26,36.7-7.3,34.7,0,45.3,12,16,16,31.3c4,15.3,16.7,52.7,13.3,106,0,0-12,26-164.7,112,0,0-.7-14,30-55.3,30.7-41.3,35.2-75.3,31.6-80.7-3.6-5.3-2.9-15.3-10.3-16.7-7.3-1.3-13.3.5-22.7,3.6-9.3,3.1-17.3,8.4-30,9.8-12.7,1.3-24,0-32.7,3.3-8.7,3.3-52.7,48-52.7,48,0,0,48-88.7,47.3-120-.7-31.3,33.3-126.7-8.7-142.7Z" fill="#496986"/>
    <path class="st4" d="M137.7,502.3c.6-1.9,5-5.4,9.4-8.5,0,0-3.8,2.9-70-137.5-9-19.1-16.4-37.4-22.5-54.7,0,0-.1,11.4-6.5,27.4-6.3,16-10.7,30.3-10.3,37.7s1.3,25,0,30.8,2.4,23.8,100,104.8" fill="#496986"/>
  </g>
  <g id="zone-4" data-color-id="WT001">
    <path class="st5" d="M160.3,470.2c3.6-4.8,8.6-12.3,11.2-18.6,5.2-12.4,16-61,18.8-75.8,4.2-22.2.7-91.3-1.3-142.7-.7-18.2,1.2-40.3,3.9-61.3,0,0-55.3,41.3-65.3,57.9,0,0-11.3,23.2-10.7,38.7.7,16.6,17.4,98.9,34,156.7,11.9,41.5,9.3,45.1,9.3,45.1Z" fill="#d6b299"/>
    <path class="st5" d="M296,566.3c2,0,270.4,0,270.4,0V49.7s-4.3,20.3-30.3,21.1c-26,.8-35,30.2-35,30.2,12,5.3,25.3,29.3,26,36.7s-7.3,34.7,0,45.3,12,16,16,31.3c4,15.3,16.7,52.7,13.3,106,0,0-4.6,9.9-43.7,37.5,0,0-4.6,98.5-44.6,129.8-40,31.3-107.3,52.7-139.3,54.3-71.6,3.7-92.7-10.7-135.7-7,0,0-4.9,1.3-15.6-7-10.7-8.3-22.4-17.5-33.3-21.7-6.4-3.1-6.3-4-6.3-4,0,0,15,43.7,41.3,50,26.3,6.3,58.2,13.9,117,13.9Z" fill="#d6b299"/>
  </g>
  <g id="zone-5" data-color-id="OR008">
    <path class="st3" d="M147,493.8c4.7-3.3,9.3-6.2,9.3-6.2,0,0-1.6-11.4,0-12.7.5-.4,2-2.2,4-4.9,0,0,2.6-3.6-9.3-45.1-16.6-57.8-33.3-140.1-34-156.7-.6-15.5,10.7-38.7,10.7-38.7,10-16.7,65.3-57.9,65.3-57.9,5-38,12.7-72.1,12.7-72.1l13.7-7.6s-24.4-70.4-41-73.1c-16.7-2.7-28.7,10.7-38,12.7-9.3,2-70.7,22-81.3,28-10.7,6-28.7,50.7-28.7,55.3s-19.5,101,46.7,241.3c66.2,140.4,70,137.5,70,137.5Z" fill="#e0c1a0"/>
    <path class="st3" d="M137.7,502.3c5.3.2,13.3-2,26.7,0,13.3,2,52,12,76,13.3,24,1.3,56-8.7,68-14,12-5.3,71.7-41.4,83.3-69.3,58.6-33,96.5-57.2,120.9-74.5,0,0-4.6,98.5-44.6,129.8-40,31.3-107.3,52.7-139.3,54.3-71.6,3.7-92.7-10.7-135.7-7,0,0-4.9,1.3-15.6-7-10.7-8.3-24-17.4-33.3-21.7-6.5-3-6.3-4-6.3-4Z" fill="#e0c1a0"/>
  </g>
</svg>