<svg xmlns="http://www.w3.org/2000/svg" viewBox="0 0 566.9 566.9">
  <g id="zone-1" data-color-id="WT000">
    <path class="st0" d="M283.5,566.9h-131.6s-15-10-44.5-17.5c-29.5-7.5-41.5-14.5-73-47.6,0,0-12-85.6,11.5-104.7,0,0,35,116.1,92.4,125.7,3,.5,12,3,26.5,11.5,14.5,8.5,55,21,67.5,25,12.5,4,51.1,7.5,51.1,7.5Z" fill="#e9e0d4"/>
    <path class="st0" d="M261.6,512.1s-13.9-41.5-19.8-50.8c-46.8-73.9-55-142.7-55-142.7,0,0-1.9-9.9-5.4-23.7,0,0-17-25.9-31.3-36.9-14.3-11-23.8-11.5-31.3-20.5-7.5-9-35,20-58,43.6-23,23.5-8,45.1-8,45.1,0,0,48,62.6,107.4,109.2,59.5,46.6,67.5,58.6,67.5,58.6,0,0,9.5,12.4,33.8,18.3" fill="#e9e0d4"/>
    <path class="st0" d="M461.7,0h105.3s0,266.3,0,266.3v46.6c-14.2,9-45.8,97.8-45.8,97.8-3,14-44.5,38.1-102.4,82.1-58,44.1-133.4,68.6-141.4,66.1-4.1-1.3-5.8-4.7-7.2-10.6h0s175.2-143.7,185.2-196.8,12-58.1,14.5-69.8c2.5-11.7,10-22.3,12-32.4,2-10,6.5-38.1,10.5-53.1,4-15,6.5-47.6,0-90.7-6.5-43.1-18.5-51.6-53-66.6-34.5-15-56-8.5-56-8.5,0,0,0-4.5-3.4-9-3.4-4.5-2.1-3.5-13.1-6.5-11-3-27,17-27,17,0,0-11.1,17.9-23,26-14.6,10-36,47.6-40,64.1,0,0-20.6-48.4,6.7-93.1,0,0,26.3-6.3,37.3-17.7L331.8,0h129.9Z" fill="#e9e0d4"/>
  </g>
  <g id="zone-2" data-color-id="BW002">
    <path class="st5" d="M146.4,125.2s5.4-28.8,21.9-33.5c15.3-4.4,60.1,20.5,78.1,33.5,18,13,35,70.6,46,119.1,11,48.5,9.5,187.9,8,211.4-1.5,23.5-18.1,40.2-19,62.1l-14,16.5c-.8-6-.5-21-5.7-22.3,0,0-13.9-41.5-19.8-50.8-46.8-73.9-55-142.7-55-142.7,0,0-12.5-65.1-31.5-92.7-19-27.5-13-70.6-15-76.1s6-24.5,6-24.5" fill="#ae6e5b"/>
    <path class="st5" d="M567,312.8s-5.9,0-23.5,31.8c-14.2,25.5-12.7,28.2-22.3,66,0,0-10,44.1-11.5,50.1-1.5,6-19,52.6-25,60.1-6,7.5-28.5,18.5-38.5,18-10-.5-89.4,12-108.4,18.5-19,6.5-17,9.4-17,9.4h246.2c0,0,0-254,0-254Z" fill="#ae6e5b"/>
    <path class="st5" d="M146.4,125.2" fill="#ae6e5b"/>
  </g>
  <g id="zone-3" data-color-id="BL017">
    <path class="st2" d="M267.4,534.2s2,22,10,24.5,83.5-22,141.4-66.1c58-44.1,99.4-68.1,102.4-82.1,0,0-10,44.1-11.5,50.1-1.5,6-18.5,51.5-24.9,60.1s-28.6,18.7-38.6,18.2c-10-.5-119.3,14.4-125.5,28h-37.3c0,0-24.7.3-24.7.3-11.8-17.3-78-26.3-93.8-32.9s-21.7-9.7-26.5-11.5c-54.6-20.3-92.4-125.7-92.4-125.7,0,0-30-133.7-29-169.8,0,0-.5-20,2.5-22s5-5,8.5-8,13-10,23.5-14c10.5-4,58-40.1,64.5-47.6,6.5-7.5,30.5-10.5,30.5-10.5,0,0-8,19-6,24.5s-4,48.6,15,76.1c11.6,16.8,20.7,47.5,26.1,69,0,0-17-25.9-31.3-36.9-14.3-11-23.8-11.5-31.3-20.5-7.5-9-35,20-58,43.6-23,23.5-8,45.1-8,45.1,0,0,48,62.6,107.4,109.2,59.5,46.6,67.5,58.6,67.5,58.6,0,0,9.5,12.4,33.8,18.3,5.2,1.3,4.9,16.3,5.7,22.3" fill="#496986"/>
  </g>
  <g id="zone-4" data-color-id="WT001">
    <path class="st3" d="M267.3,534.4l14-16.5s39.7-46.5,80.5-111.5c56.5-90.1,67-184,68.5-195,1.5-11,5.5-60.6,0-86.1-5.5-25.5-37.5-54.1-44.5-61.6-7-7.5-2.5-33.1-2.5-33.1,0,0,21.5-6.5,56,8.5,34.5,15,46.5,23.5,53,66.6,6.5,43.1,4,75.6,0,90.7-4,15-8.5,43.1-10.5,53.1-2,10-9.5,20.6-12,32.4-2.5,11.7-4.5,16.7-14.5,69.8-10,53.1-185.2,196.8-185.2,196.8-1.4-4.3-2.7-14-2.7-14Z" fill="#d6b299"/>
    <path class="st4" d="M152.2,566.8s-15-10-44.5-17.5c-29.5-7.5-41.5-14.5-73-47.6,0,0-12-85.6,11.5-104.7,0,0-30-133.7-29-169.8,0,0-.5-20,2.5-22,3-2,5-5,8.5-8s13-10,23.5-14c10.5-4,58-40.1,64.5-47.6,6.5-7.5,30.5-10.5,30.5-10.5,0,0,5.4-28.8,21.9-33.5,15.3-4.4,60.1,20.5,78.1,33.5s11.6,13.2,17.1,25h0s10.9-17.6,13.4-28c0,0-20.6-48.4,6.7-93.1,0,0,26.3-6.3,37.3-17.7S376.1-.1,376.1-.1C368.2-1,.4-.2.4-.2v567s151.9,0,151.9,0Z" fill="#d6b299"/>
  </g>
  <g id="zone-5" data-color-id="OR008">
    <path class="st1" d="M281.3,517.8s-2.6-6.7,19-62.1c1.5-23.5,3-163-8-211.4-7.4-32.7-17.6-69.6-28.9-94.1,0,0,10.9-17.6,13.4-28,4-16.5,25.3-54.1,40-64.1,11.9-8.1,23-26,23-26,0,0,16-20,27-17,11,3,9.8,2,13.1,6.5,3.4,4.5,3.4,9,3.4,9,0,0-4.5,25.5,2.5,33.1,7,7.5,39,36.1,44.5,61.6,5.5,25.5,1.5,75.1,0,86.1-1.5,11-12,104.9-68.5,195-40.7,65-80.5,111.5-80.5,111.5Z" fill="#e0c1a0"/>
  </g>
</svg>