<svg xmlns="http://www.w3.org/2000/svg" viewBox="0 0 566.9 566.9">
  <g id="zone-1" data-color-id="BL027">
    <path class="st0" d="M139.8,344.2c-9.1-2.9-17.8-6.9-25.7-12.2-12.8-8.8-23.2-21.2-31-34.9-5.6-9.8-9.8-20.2-12-31.1-2.2-11.2-2.2-22.9-1.4-34.4.8-11.5,2.5-22.9,4.5-34.2,2.4-13.2,5.2-26.4,9.3-39.2,2.9-8.9,6.3-17.7,10.2-26.2,8.9-3.4,18-6.4,27.1-9.1-4.1,11-7.6,22.1-11.1,33.4-5.9,19.2-11.6,38.8-12.9,58.7-1.7,24.2,3,49,11.5,72,7.6,20.6,18.2,39.9,31.4,57.1Z" fill="#465e70"/>
    <path class="st0" d="M251.7,108.4c6.4.4,12.9.8,19.3.8,3.1,0,6.2-.1,9.3-.2,4.4-.2,8.8-.5,13.2-.8,2.5,6.4,4.7,13,6.6,19.6,3.5,12.6,5.7,25.6,7.6,38.5,3,20.4,5.3,40.7,6.3,61.3,1.2,26.5,0,53.5-7,78.9-2.6,9.2-5.9,18.1-9.7,26.9-4.9-1.7-9.8-3.5-15-4.2-4.4-.7-9-.6-13.4.3-3.4.6-6.7,1.7-10,3-8.9-19.9-15.6-41-19.3-62.6-3.7-21.3-4.5-43.1-3.4-64.7,1.1-22.9,4.3-45.6,8.9-68,2-9.6,4.2-19.2,6.7-28.8Z" fill="#465e70"/>
    <path class="st0" d="M246.8,455.1c-3.6,16.6-7.6,33.1-11.8,49.6-5.3,20.9-11.1,41.6-17.3,62.3H50c2.4-8.6,4.9-17.1,7.6-25.6,5.4-17.2,11.5-34.3,18.1-51.1,4.8-12.1,9.9-24,16-35.5,8.1-15.1,18-29.3,30.3-41.4,9.6-9.5,20.5-17.6,32.8-23.2,8.6-3.9,17.9-6.6,27.4-7.3,7.8-.6,15.7.1,23.2,2.5,8.5,2.7,16.4,7.4,22.4,13.8,8,8.6,12.6,20.1,15.5,31.6,2.1,8,3.4,16.1,3.5,24.3Z" fill="#465e70"/>
    <path class="st0" d="M361.1,346.1c-12,0-24-1.6-35.8-4.3,1.7-2.5,3.2-5,4.7-7.6,5.7-9.8,10-20.2,13.8-30.9,6.1-16.8,11-34.1,14.1-51.7,3.7-20.8,4.9-42.1,3.3-63.2-1.3-18-4.7-35.9-9.6-53.3-2.9-10.2-6.4-20.3-10.4-30.1,12.2-.3,24.4.2,36.5,1.3,5.2,8.2,9.9,16.9,13.9,25.8,4.8,10.3,8.8,21,11.5,32.1,3.2,13.3,4.5,27.1,4.7,40.8.2,17.4-1.5,34.8-5,51.9-4,19.9-10.5,39.5-20,57.4-4.2,7.9-9,15.5-14.4,22.6-2.4,3.1-4.8,6.2-7.4,9.2Z" fill="#465e70"/>
    <path class="st0" d="M324.8,477.8c-.4-5.5-.4-11.1-.2-16.7.4-10.5,1.6-21.1,5-31.2,3.3-10.1,8.8-19.8,16.8-26.8,9.2-8.1,21.6-12.6,33.9-13.4,15-.9,29.8,3.7,42.9,10.9,15.6,8.6,28.9,20.8,39.6,34.7,6.3,8.2,11.7,17,16.7,26,10.5,19.3,18.7,39.9,25.9,60.7,5.1,14.7,9.7,29.6,13.6,44.7h-169.3c-2-6.6-4-13.3-5.9-19.9-5.8-20.1-11.3-40.3-16.6-60.5-.7-2.9-1.5-5.8-2.2-8.7Z" fill="#465e70"/>
    <path class="st0" d="M416.9,334.4c4.6-7.2,8.8-14.7,12.4-22.5,6.4-13.7,11-28.3,14.2-43.1,4-18.7,5.7-37.8,4.9-56.9-.7-17.3-3.5-34.5-8.6-51.1-3.8-12.4-8.9-24.4-14.6-36-2.2-4.4-4.5-8.8-6.9-13.2,9.4,1.6,18.8,3.4,28,5.5,6.2,13.5,11.7,27.3,17.2,41.1,7.1,18,14.3,36,18.3,54.9,2.9,13.5,4.2,27.5,2.5,41.3-1.9,15.5-7.6,30.8-16.9,43.3-9,12.1-21.3,21.4-34.6,28.9-5.2,2.9-10.5,5.5-15.9,7.8Z" fill="#465e70"/>
    <path class="st0" d="M93.8,132c-.3-16.1-1.3-32.2-3.5-48.2-2.5-18.6-6.4-36.9-10.4-55.2C77.9,19,75.9,9.5,73.7,0h389.4c-2.7,12-5,24-7.3,36.1-3.6,18.4-7.1,37-8.5,55.7-.6,8.4-.8,16.9-.8,25.4-2.4-5.8-5.4-11.3-8.8-16.6-8.5-12.8-20.2-23.6-33.2-32-13.3-8.6-27.8-14.7-43.3-18.5-9.3-2.3-19-3.8-28.2-2.3-8.6,1.4-16.8,5.2-24,10.5-11.2,8.3-19.7,20.1-24.5,33.1-2.1,5.7-3.4,11.5-4.1,17.5-3.1.1-6.2.2-9.3.2-4.5-15.2-13.1-30.1-25.7-39.9-10.8-8.3-24.4-12.9-38-13.7-12.4-.7-24.7,1.6-36.3,5.9-13.3,4.9-25.6,12.3-36.5,21.4-11.1,9.3-20.6,20.3-29.2,31.9-4.1,5.6-8.1,11.3-11.7,17.3Z" fill="#465e70"/>
    <path class="st0" d="M149.2,115.3c1.3-.3,2.6-.6,3.9-.9,14.8-3.4,29.8-6.3,44.9-7.4.5,0,1,0,1.5,0-2.4,6.8-4.5,13.7-6.5,20.6-5.5,19.7-9.5,39.9-11.2,60.2-1.5,18.1-1.2,36.3,1.2,54.2,2.4,18.2,7,36.2,14.2,53.1,7.6,17.6,18.1,34,30.4,48.5-6.7,1.9-13.4,3.5-20.2,4.6-5.1.8-10.3,1.4-15.5,1.8-4-2.8-7.8-6-11.2-9.4-10.2-10.2-17.3-23.3-23.3-36.7-7.8-17.3-13.8-35-18-53.3-3.5-15.2-5.6-30.8-5.7-46.3,0-21.1,3.7-42.2,8.4-62.9,2-8.8,4.2-17.5,6.8-26.1Z" fill="#465e70"/>
  </g>
  <g id="zone-2" data-color-id="OR007">
    <path class="st1" d="M325.2,341.8c-8.8-2-17.6-4.7-26.2-7.7-.6-.2-1.3-.4-1.9-.7,3.8-8.7,7.1-17.7,9.7-26.9,7.1-25.4,8.2-52.4,7-78.9-.9-20.6-3.3-41-6.3-61.3-1.9-13-4-25.9-7.6-38.5-1.9-6.6-4.1-13.2-6.6-19.6,15.9-1.1,31.8-2.7,47.7-3,4,9.8,7.5,19.9,10.4,30.1,5,17.4,8.3,35.3,9.6,53.3,1.5,21.1.3,42.4-3.3,63.2-3.1,17.6-8,34.8-14.1,51.7-3.8,10.6-8.2,21.1-13.8,30.9-1.5,2.6-3.1,5.1-4.7,7.6Z" fill="#e3c0a1"/>
    <path class="st1" d="M377.8,106.4c13.6,1.2,27.2,3,40.7,5.3,2.4,4.3,4.7,8.7,6.9,13.2,5.7,11.6,10.8,23.6,14.6,36,5.1,16.5,7.9,33.8,8.6,51.1.8,19.1-.9,38.2-4.9,56.9-3.2,14.8-7.8,29.4-14.2,43.1-3.6,7.8-7.8,15.3-12.4,22.5-17.8,7.5-36.9,11.7-55.9,11.8,2.6-3,5-6.1,7.4-9.2,5.4-7.2,10.2-14.7,14.4-22.6,9.6-17.9,16-37.4,20-57.4,3.5-17.1,5.1-34.5,5-51.9-.1-13.7-1.4-27.5-4.7-40.8-2.7-11-6.7-21.7-11.5-32.1-4.1-8.9-8.7-17.5-13.9-25.8Z" fill="#e3c0a1"/>
    <path class="st1" d="M258.8,332.4c-2.6,1-5.2,2.1-7.9,3.2-7.6,3.1-15.3,5.8-23.2,8.1-12.4-14.5-22.9-30.9-30.4-48.5-7.3-16.9-11.8-34.9-14.2-53.1-2.4-18-2.7-36.2-1.2-54.2,1.7-20.4,5.6-40.6,11.2-60.2,2-6.9,4.1-13.8,6.5-20.6,15.1-.9,30.3,0,45.4,1,2.3.2,4.5.3,6.8.5-2.5,9.5-4.8,19.1-6.7,28.8-4.6,22.4-7.8,45.1-8.9,68-1.1,21.6-.3,43.4,3.4,64.7,3.7,21.5,10.4,42.6,19.3,62.6Z" fill="#e3c0a1"/>
    <path class="st1" d="M192,350c-9.4.6-18.8.4-28.3-.8-8.1-1-16.2-2.6-24-5.1-13.3-17.2-23.9-36.5-31.4-57.1-8.5-23.1-13.1-47.9-11.5-72,1.4-19.9,7.1-39.5,12.9-58.7,3.4-11.3,7-22.4,11.1-33.4,9.3-2.8,18.7-5.3,28.2-7.5-2.6,8.6-4.8,17.3-6.8,26.1-4.8,20.7-8.5,41.7-8.4,62.9,0,15.6,2.2,31.2,5.7,46.3,4.2,18.3,10.2,36,18,53.3,6,13.3,13.1,26.4,23.3,36.7,3.4,3.4,7.3,6.6,11.2,9.4Z" fill="#e3c0a1"/>
    <path class="st1" d="M302.5,371c-3.5,4-7.9,7.3-12.9,9.2-5,1.9-10.5,2.3-15.8,1.6-3.4-.4-6.7-1.3-9.7-2.8-1.7-.8-3.2-1.8-4.7-3,.4-7.3.6-14.5.5-21.8-.1-7.3-.5-14.5-1.2-21.8,3.3-1.2,6.6-2.3,10-3,4.4-.8,9-.9,13.4-.3,5.1.8,10,2.5,15,4.2,1,7.6,2,15.1,3.1,22.6.7,5,1.5,9.9,2.2,14.9Z" fill="#e3c0a1"/>
  </g>
  <g id="zone-3" data-color-id="BL029">
    <path class="st3" d="M271.1,109.2c-8.7,0-17.4-.6-26.2-1.2-15.6-1.1-31.3-2-46.9-.9-15.1,1-30.1,3.9-44.9,7.4-20.1,4.7-40,10.3-59.3,17.6,3.6-5.9,7.5-11.7,11.7-17.3,8.6-11.6,18.1-22.6,29.2-31.9,10.8-9.1,23.1-16.5,36.5-21.4,11.6-4.3,23.9-6.6,36.3-5.9,13.6.8,27.3,5.4,38,13.7,12.6,9.8,21.2,24.7,25.7,39.9Z" fill="#6b7d8b"/>
    <path class="st3" d="M324.8,477.8c-6.1-23.7-11.7-47.5-16.3-71.5-3.2-16.7-5.8-33.4-8.2-50.2-1.1-7.5-2.1-15.1-3.1-22.6.6.2,1.3.4,1.9.7,20,7,40.9,12.1,62,12,24.8,0,49.8-7.2,71.8-19.5,13.4-7.5,25.7-16.8,34.6-28.9,9.2-12.4,14.9-27.8,16.9-43.3,2.1,5.6,4.3,11.3,6.6,16.9,3.5,8.8,7.2,17.4,10.8,26.1,5.7,13.7,11.5,27.4,16.2,41.4,5.2,15.4,9.1,31.1,12.5,47,6.6,30.7,11.1,61.7,14.3,92.9,3,29.2,4.7,58.5,5.1,87.8-10.3.1-20.7.3-31,.4-3.8-15.1-8.5-30-13.6-44.7-7.2-20.8-15.4-41.4-25.9-60.7-4.9-9.1-10.4-17.9-16.7-26-10.7-14-24-26.2-39.6-34.7-13.1-7.2-27.9-11.9-42.9-10.9-12.3.8-24.7,5.3-33.9,13.4-7.9,7-13.4,16.7-16.8,26.8-3.3,10.1-4.6,20.6-5,31.2-.2,5.6-.2,11.1.2,16.7Z" fill="#6b7d8b"/>
    <path class="st3" d="M69.7,256c.3,3.4.8,6.7,1.4,10.1,2.2,10.9,6.4,21.3,12,31.1,7.8,13.7,18.2,26.1,31,34.9,14.4,9.9,32,15.1,49.6,17.2,14.7,1.8,29.4,1.4,43.8-1,14.8-2.4,29.3-6.9,43.4-12.6,2.6-1.1,5.2-2.2,7.9-3.2.7,7.2,1,14.5,1.2,21.8.2,12.3-.4,24.6-1.7,36.9-1.5,13.8-4,27.5-6.7,41.2-1.5,7.6-3.1,15.2-4.8,22.8-.2-8.2-1.5-16.2-3.5-24.3-3-11.5-7.5-23.1-15.5-31.6-6-6.4-13.9-11.1-22.4-13.8-7.5-2.4-15.4-3.1-23.2-2.5-9.5.7-18.7,3.3-27.4,7.3-12.2,5.6-23.2,13.7-32.8,23.2-12.2,12.1-22.2,26.3-30.3,41.4-6.2,11.5-11.3,23.4-16,35.5-6.6,16.8-12.7,33.9-18.1,51.1-2.7,8.5-5.2,17-7.6,25.6H15.7c0-4.4,0-8.8,0-13.2.2-28,2-55.9,5.3-83.7,3.5-29.3,8.7-58.4,15.7-87.1,6.8-28.2,15.4-56,22.6-84,3.7-14.3,7.1-28.6,10.4-42.9Z" fill="#6b7d8b"/>
    <path class="st3" d="M446.5,117.1c-9.3-2.1-18.6-3.9-28-5.5-25.5-4.3-51.4-7.1-77.2-6.6-20.3.4-40.6,2.9-60.9,3.8.7-5.9,2.1-11.8,4.1-17.5,4.8-13,13.2-24.8,24.5-33.1,7.1-5.3,15.4-9.1,24-10.5,9.3-1.5,18.9,0,28.2,2.3,15.5,3.8,30,9.9,43.3,18.5,13,8.4,24.7,19.1,33.2,32,3.5,5.2,6.4,10.8,8.8,16.6Z" fill="#6b7d8b"/>
  </g>
  <g id="zone-4" data-color-id="GN028">
    <path class="st2" d="M69.7,256c-3.4,14.3-6.7,28.7-10.4,42.9-7.3,28.1-15.8,55.8-22.6,84-7,28.7-12.2,57.8-15.7,87.1-3.3,27.8-5,55.8-5.3,83.7,0,4.4,0,8.8,0,13.2H0V0h73.7c2.2,9.5,4.2,19,6.3,28.6,3.9,18.3,7.9,36.7,10.4,55.2,2.1,16,3.2,32.1,3.5,48.2-3.9,8.5-7.4,17.3-10.2,26.2-4.1,12.8-6.9,26-9.3,39.2-2,11.3-3.7,22.7-4.5,34.2-.6,8.1-.8,16.3,0,24.4Z" fill="#687267"/>
    <path class="st2" d="M302.5,371c1.8,11.8,3.8,23.6,6,35.3,5.1,27,11.6,53.6,18.5,80.2,5.2,20.3,10.7,40.4,16.6,60.5,1.9,6.6,3.9,13.3,5.9,19.9h-131.8c6.2-20.6,11.9-41.4,17.3-62.3,6.1-24,11.7-48.1,16.6-72.4,2.7-13.6,5.2-27.4,6.7-41.2.5-5,1-10.1,1.3-15.1,1.5,1.1,3,2.2,4.7,3,3,1.5,6.3,2.4,9.7,2.8,5.3.7,10.8.3,15.8-1.6,5-1.9,9.4-5.2,12.9-9.2Z" fill="#687267"/>
    <path class="st2" d="M484.4,254.4c1.7-13.8.4-27.7-2.5-41.3-4-18.9-11.1-37-18.3-54.9-5.5-13.8-11-27.6-17.2-41.1,0-8.5.1-16.9.8-25.4,1.4-18.7,5-37.2,8.5-55.7C458.1,24,460.4,12,463.1,0h103.9v566.9h-17c-.4-29.4-2.1-58.9-5.1-88.1-3.2-31.2-7.8-62.2-14.3-92.9-3.4-15.9-7.4-31.7-12.5-47-4.7-14-10.4-27.7-16.2-41.4-3.7-8.7-7.3-17.4-10.8-26.1-2.2-5.6-4.4-11.2-6.6-16.9Z" fill="#687267"/>
  </g>
</svg>