<svg xmlns="http://www.w3.org/2000/svg" viewBox="0 0 566.9 566.9">
  <g id="zone-1" data-color-id="BL027">
    <path class="st0" d="M305.1,150.4c-14.3.7-28.6,0-42.9-1.4-1.3,4-2.6,8.1-3.7,12.2-3.3,11.5-5.8,23.2-8,35-4,21.1-6.8,42.5-8.1,64-1.2,20.1-.9,40.3,1.6,60.3,1.6,13.1,4.3,26.1,8.3,38.6,2.5,7.7,5.5,15.2,8.9,22.5-1.6-.3-3.2-.7-4.8-1.2-1.1-.3-2.2-.7-3.3-1-6.4-2.3-12.5-5.7-18-9.9-5.2-4-9.7-8.8-13.4-14.2-2-3-3.7-6.1-5.1-9.4-1,9.3-2.5,18.6-4.6,27.8-2.8,12-6.7,23.8-11.2,35.3-6.1,15.8-13.3,31.3-21.7,45.9-5.8,10-12.1,19.6-19.2,28.9-10.1,13.2-21.6,25.7-35.7,34.4-7.1,4.4-14.9,7.8-23.2,9.6-7.5,1.6-15.3,1.9-22.6,0-5.5-1.5-10.6-4.3-15.1-7.8-6.7-5.1-12.2-11.7-17-18.7-6.1-8.9-11.3-18.4-14.8-28.5-2.3-6.7-3.8-13.7-5-20.7-.6-3.7-1.2-7.5-1.5-11.2.2-8.6.5-17.2.9-25.8,1.5-32.1,4.5-64.3,10-95.9,3.7-21.1,8.4-41.9,14-62.6,4.7-17.6,10-35,15.9-52.2,2.1-.4,4.2-.8,6.3-1,5.7-.7,11.4-.7,17.1-.2,4.8.4,9.5,1.2,14.1,2.4,1.8-7,4-13.9,6.7-20.6,2.8-6.8,6.1-13.3,9.4-19.9,2.3-4.7,4.6-9.5,6.5-14.5,3.9-10.1,6.5-20.7,8.2-31.5.5-3.3,1-6.7,1.4-10,2.6,1.5,5.1,2.9,7.7,4.4,9.4,5.2,19,10.2,28.9,14.5-.3,1.9-.6,3.9-.9,5.8-1.4,7.4-3.7,14.7-5.7,22-2.4,8.7-4.4,17.5-6.9,26.1-1.5,5.3-3.3,10.6-5,15.9-1.5,4.5-3,9.1-4.7,13.5-1.2,3.1-2.6,6.2-4.1,9.2,2.2.9,4.3,2,6.4,3.1,5.7,3.1,11,7,16.1,11.2,6.5,5.3,12.6,10.9,17.7,17.5,9.8,12.8,15.5,29.2,17.4,45.3-.8-6.9-1.5-13.8-2.2-20.7-1.4-12.9-2.9-25.7-3.4-38.7-.3-6.1-.3-12.2.2-18.2.8-10.5,3.1-20.8,5.8-31,2.6-9.7,5.4-19.3,8.7-28.8,2.1-6.1,4.3-12.1,6.7-18.1-10.4-2.2-20.7-4.8-30.8-8.3-.7-.2-1.3-.5-2-.7-9.6-9-18.1-19.2-25-30.3-8.2-13.3-14.2-28-18.1-43.1-2.1-8-3.5-16.1-4.3-24.2-.6-6.3-.8-12.6-.6-19,.2-5.6.7-11.2,1.5-16.8h300c.7,3.3,1.3,6.7,1.7,10.1.9,7.6.8,15.4.2,23.1-.8,10.5-2.7,20.9-5.6,31-4.5,15.6-11.5,30.5-20.7,43.8-3.6,5.2-7.6,10.2-11.8,14.9,10.8-4.8,21.5-9.8,32-15,2.2,6.1,4.4,12.1,6.4,18.3,5.5,17,9.7,34.5,14.9,51.6,3.1,10.2,6.6,20.3,10.1,30.4,3.4-.6,6.8-1,10.3-1.2,5.6-.4,11.2-.4,16.8.1,3.9.4,7.7,1,11.5,1.8,4.5,11.7,8.7,23.6,12.4,35.7,7.8,25.2,13.5,51,17.9,77,3.2,29.9,1.9,60.4-3.3,90.1-3.4,19.3-8.4,38.2-16,56.2-3.9,9.2-8.4,18.1-13.4,26.7-3.9,6.5-8,12.9-13.1,18.7-6.6,7.6-14.7,14.4-24.1,17.2-6.6,1.9-13.7,1.9-20.6.8-9.3-1.6-18.1-5.2-26.1-10.1-9.4-5.7-17.6-13-25-21.1-8.5-9.3-15.7-19.6-22.4-30.3-9.6-15.4-18-31.6-25.2-48.3-5.6-13.2-10.5-26.7-13.8-40.6-1.4-6.1-2.5-12.3-3.4-18.6-3.4,3.5-7.1,6.6-11.2,9.4-3.9,2.7-8.2,4.9-12.6,6.7,3.2-5.6,6-11.4,8.1-17.5,2.9-8.4,4.6-17.2,5.9-26,2.9-18.7,4.4-37.6,4.3-56.4-.2-27.1-4.1-54.1-8.6-80.9-2.7-15.8-5.7-31.6-9.3-47.2ZM350.9,143.1c2.1,4.5,4,9.1,5.6,13.8,3.9,11,6.5,22.4,8.5,33.9,2.8,16.9,4.2,34,4.2,51.1,0,6.2-.1,12.3-.4,18.4,1-1.7,2-3.4,3.1-5,5.1-7.4,11.9-13.6,19-19.2,7.3-5.8,15.1-10.9,23.4-15,3.5-1.7,7.2-3.2,10.9-4.6-1.3-2.4-2.5-4.9-3.6-7.4-1.4-3.1-2.5-6.4-3.6-9.6-3.5-10.2-7-20.4-10-30.7-3.3-11.1-6.1-22.2-9.5-33.2-1-3.2-2.1-6.3-3.1-9.5-14.5,6.4-29.1,12.6-44.4,16.8Z" fill="#465e70"/>
  </g>
  <g id="zone-2" data-color-id="OR007">
    <path class="st1" d="M304.8,378.4c-4.1,1.7-8.3,2.9-12.6,3.8-6.7,1.3-13.6,1.6-20.5,1-3.6-.3-7.1-.8-10.6-1.5-3.4-7.3-6.4-14.8-8.9-22.5-4-12.6-6.7-25.6-8.3-38.6-2.5-20-2.8-40.2-1.6-60.3,1.2-21.5,4.1-42.8,8.1-64,2.2-11.8,4.8-23.5,8-35,1.2-4.1,2.4-8.2,3.7-12.2,14.2,1.4,28.6,2.1,42.9,1.4,3.6,15.6,6.6,31.4,9.3,47.2,4.6,26.8,8.4,53.8,8.6,80.9.2,18.8-1.4,37.7-4.3,56.4-1.3,8.8-3,17.6-5.9,26-2.1,6.1-4.9,11.9-8.1,17.5Z" fill="#e3c0a1"/>
    <path class="st1" d="M368.8,260.3c.3-6.1.5-12.3.4-18.4,0-17.1-1.4-34.2-4.2-51.1-1.9-11.5-4.6-22.9-8.5-33.9-1.7-4.7-3.6-9.3-5.6-13.8,15.2-4.3,29.9-10.4,44.4-16.8,1.1,3.2,2.1,6.3,3.1,9.5,3.5,11,6.3,22.2,9.5,33.2,3,10.3,6.5,20.5,10,30.7,1.1,3.2,2.3,6.4,3.6,9.6,1.1,2.5,2.3,5,3.6,7.4-3.7,1.3-7.4,2.9-10.9,4.6-8.3,4-16,9.2-23.4,15-7.1,5.6-13.9,11.8-19,19.2-1.1,1.6-2.2,3.3-3.1,5Z" fill="#e3c0a1"/>
    <path class="st1" d="M172.2,128.2c5,2.2,10.1,4.2,15.2,6,10,3.5,20.4,6.1,30.8,8.3-2.4,6-4.6,12-6.7,18.1-3.2,9.5-6.1,19.1-8.7,28.8-2.7,10.2-5,20.5-5.8,31-.5,6-.4,12.1-.2,18.2.6,12.9,2,25.8,3.4,38.7.7,6.9,1.4,13.7,2.2,20.6-1.9-16-7.6-32.3-17.4-45.1-5.1-6.6-11.2-12.3-17.7-17.5-5.1-4.1-10.4-8-16.1-11.2-2.1-1.1-4.2-2.2-6.4-3.1,1.5-3,2.8-6.1,4.1-9.2,1.8-4.4,3.2-9,4.7-13.5,1.7-5.3,3.5-10.6,5-15.9,2.5-8.6,4.5-17.4,6.9-26.1,2-7.3,4.3-14.6,5.7-22,.4-1.9.7-3.9.9-5.8Z" fill="#e3c0a1"/>
    <path class="st1" d="M504.7,208.9c-3.8-.8-7.7-1.4-11.5-1.8-5.6-.5-11.2-.5-16.8-.1-3.4.2-6.9.7-10.3,1.2-3.5-10.1-7-20.2-10.1-30.4-5.2-17.1-9.4-34.6-14.9-51.6-2-6.1-4.2-12.2-6.4-18.3,9.2-4.6,18.3-9.3,27.2-14.3,1,1.5,1.8,3.1,2.6,4.7,1.8,3.8,3,7.9,4,12,1.1,4.2,2.1,8.5,3.1,12.7,1.4,6.3,2.7,12.7,4.7,18.8,2.1,6.2,5,12.2,8.2,18,4.1,7.4,8.7,14.5,12.1,22.2,3.8,8.5,6.3,17.7,8,26.8Z" fill="#e3c0a1"/>
    <path class="st1" d="M135.6,109.3c-.4,3.4-.8,6.7-1.4,10-1.7,10.7-4.3,21.4-8.2,31.5-1.9,4.9-4.2,9.7-6.5,14.5-3.2,6.6-6.6,13.1-9.4,19.9-2.7,6.7-4.9,13.6-6.7,20.6-4.6-1.2-9.4-2-14.1-2.4-5.7-.5-11.5-.5-17.1.2-2.1.3-4.2.6-6.3,1,.8-5.7,2-11.4,3.6-17,2.6-9.4,6-18.7,10.8-27.2,3.4-6,7.4-11.7,10.5-17.9,3-6.1,5.1-12.8,6.6-19.5,1.1-4.9,2-9.9,3.4-14.8,1.6-5.7,4-11.3,6.8-16.6,3,2.1,6,4.1,9,6,6.3,4.1,12.6,8,19.1,11.7Z" fill="#e3c0a1"/>
  </g>
  <g id="zone-3" data-color-id="BL029">
    <path class="st3" d="M438.8,0h41.9c.3,7.1.2,14.2,0,21.2-.4,10.8-1.2,21.6-3.4,32.2-1.8,8.5-4.5,16.9-7.9,24.9-2.2,5.2-4.7,10.3-7.5,15.3-19.2,10.8-39.1,20.4-59.3,29.4,4.2-4.7,8.2-9.7,11.8-14.9,9.2-13.3,16.2-28.3,20.7-43.8,2.9-10.1,4.8-20.5,5.6-31,.6-7.7.7-15.4-.2-23.1-.4-3.4-1-6.8-1.7-10.1Z" fill="#6b7d8b"/>
    <path class="st3" d="M328.6,362.3c.8,6.2,1.9,12.4,3.4,18.6,3.2,13.9,8.1,27.4,13.8,40.6,7.2,16.7,15.6,32.9,25.2,48.3,6.7,10.7,13.9,21,22.4,30.3,7.4,8.1,15.7,15.4,25,21.1,8,4.9,16.8,8.5,26.1,10.1,6.9,1.2,14.1,1.2,20.6-.8,9.4-2.8,17.5-9.6,24.1-17.2,5.1-5.9,9.2-12.2,13.1-18.7,5-8.6,9.6-17.5,13.4-26.7,7.6-18,12.6-36.9,16-56.2,5.2-29.7,6.4-60.2,3.3-90.1.6,3.4,1.1,6.9,1.7,10.3,5.1,32.6,8.4,65.5,8.8,98.4.4,37.4-3,74.8-7.4,112-1,8.2-2,16.4-3.2,24.6h-188c-7.4-14.5-14.2-29.3-19.9-44.5-6.1-16.5-10.9-33.4-15.7-50.3-5.8-20.3-11.5-40.6-15.2-61.3-1.7-9.4-2.9-19-3.9-28.5,8.9-1.7,17.6-5.4,25.1-10.5,4.1-2.7,7.8-5.9,11.2-9.4Z" fill="#6b7d8b"/>
    <path class="st3" d="M82.3,0h56.5c-.8,5.6-1.3,11.2-1.5,16.8-.2,6.3,0,12.7.6,19,.8,8.2,2.3,16.3,4.3,24.2,3.9,15.1,9.9,29.8,18.1,43.1,6.9,11.2,15.5,21.4,25,30.3-14.6-5.2-28.5-12.2-42.1-19.8-9.1-5.1-18.1-10.4-26.8-16.1-3-2-6-4-9-6-6.1-9-11.3-18.7-15.2-28.8-3.9-10.2-6.6-20.8-8.2-31.7C82.5,20.8,81.9,10.4,82.3,0Z" fill="#6b7d8b"/>
    <path class="st3" d="M216.7,346c1.4,3.3,3.1,6.4,5.1,9.4,3.6,5.4,8.2,10.2,13.4,14.2,5.4,4.2,11.5,7.6,18,9.9,1.1.4,2.2.7,3.3,1-1.1,5.4-2.3,10.7-3.6,16.1-2.8,11.2-6,22.2-9.7,33.1-4.7,14.1-10.2,28-16.1,41.7-10.2,23.6-21.7,46.5-32.8,69.7-4.1,8.6-8.2,17.2-12.2,25.9H27.3c0-1.2,0-2.3,0-3.5,0-23.8-1.5-47.6-2.1-71.3-.4-17-.5-34.1,0-51.1.4,3.8.9,7.5,1.5,11.2,1.2,7,2.7,14,5,20.7,3.5,10.1,8.6,19.6,14.8,28.5,4.8,7,10.3,13.6,17,18.7,4.5,3.4,9.6,6.2,15.1,7.8,7.3,2,15.1,1.7,22.6,0,8.3-1.8,16-5.2,23.2-9.6,14.1-8.7,25.6-21.1,35.7-34.4,7.1-9.3,13.5-18.9,19.2-28.9,8.4-14.6,15.6-30.1,21.7-45.9,4.5-11.5,8.4-23.3,11.2-35.3,2.1-9.1,3.7-18.4,4.6-27.8Z" fill="#6b7d8b"/>
  </g>
  <g id="zone-4" data-color-id="GN028">
    <path class="st2" d="M107.5,91.5c-2.7,5.3-5.1,10.9-6.8,16.6-1.4,4.8-2.2,9.8-3.4,14.8-1.5,6.7-3.6,13.3-6.6,19.5-3.1,6.2-7.1,11.9-10.5,17.9-4.8,8.5-8.2,17.7-10.8,27.2-1.5,5.6-2.7,11.3-3.6,17-5.9,17.2-11.2,34.6-15.9,52.2-5.6,20.6-10.3,41.5-14,62.6-5.5,31.7-8.5,63.8-10,95.9-1.2,25.7-1.5,51.3-.8,77,.6,23.8,2.1,47.6,2.1,71.3,0,1.2,0,2.3,0,3.5H0V0h82.3c-.4,10.4.3,20.8,1.8,31.1,1.6,10.8,4.3,21.5,8.2,31.7,3.9,10.1,9.1,19.8,15.2,28.8Z" fill="#687267"/>
    <path class="st2" d="M480.7,0h86.2v566.9h-32.1c1.2-8.2,2.2-16.4,3.2-24.6,4.5-37.2,7.9-74.6,7.4-112-.4-32.9-3.7-65.8-8.8-98.4-4.6-29.5-10.8-58.8-19.6-87.3-3.7-12-7.9-23.9-12.4-35.7-1.7-9.2-4.2-18.4-8-26.8-3.5-7.7-8-14.8-12.1-22.2-3.2-5.8-6.1-11.8-8.2-18-2-6.1-3.3-12.5-4.7-18.8-1-4.3-2-8.5-3.1-12.7-1.1-4.1-2.2-8.2-4-12-.8-1.6-1.7-3.2-2.6-4.7,2.8-4.9,5.3-10,7.5-15.3,3.4-8,6.1-16.4,7.9-24.9,2.2-10.6,3-21.4,3.4-32.2.2-7.1.3-14.2,0-21.2Z" fill="#687267"/>
    <path class="st2" d="M346.8,566.9h-164.9c4.1-8.6,8.1-17.2,12.2-25.9,11.1-23.2,22.6-46.1,32.8-69.7,5.9-13.7,11.4-27.6,16.1-41.7,3.7-10.9,6.9-21.9,9.7-33.1,1.3-5.3,2.5-10.7,3.6-16.1,5,1.5,10.2,2.3,15.4,2.7,6.8.5,13.7.3,20.5-1,1,9.5,2.2,19.1,3.9,28.5,3.7,20.7,9.4,41,15.2,61.3,4.8,16.9,9.6,33.9,15.7,50.3,5.6,15.2,12.4,30.1,19.9,44.5Z" fill="#687267"/>
  </g>
</svg>