<svg xmlns="http://www.w3.org/2000/svg" viewBox="0 0 566.9 566.9">
  <g id="zone-1" data-color-id="BL027">
    <path class="st0" d="M263.6,440.6c2.8-29,.2-59,1.2-87.8-4.3-.2-8.8.2-12.7,2.3,6.6,34.3-6.3,72.5-32.4,96.8,6,17.6,15.7,30.4,30.8,39.2,7.7-16.1,11.3-33.1,13-50.4Z" fill="#465e70"/>
    <path class="st0" d="M311.8,351.3c-9.1,47.3-1.2,95.8,9.7,142.1,15.8-8,27.6-22.9,34.9-38.6-17.5-31-26.5-67.7-26.5-103-6-.3-12.1-.5-18.1-.5Z" fill="#465e70"/>
    <path class="st0" d="M488.3,335.3c-115.8-11.7-148.9,70.7-89.3,161.5,0,0,0,0,0,0,33.2,23.5,68,44.9,103.3,65,3,1.7,6,3.4,9.1,5.1h55.5v-209.4c-26.5-12.3-53.2-19.6-78.7-22.3Z" fill="#465e70"/>
    <path class="st0" d="M260.8,243.3c-3.7,36.4-2.6,73.5,4,109.5,15.7.6,31.3-1.4,46.9-1.6,10.1-56,8-115-10.5-169.1-9.9,3.5-20.3,5.6-30.9,5.2-4.5,18.3-7.7,37-9.7,55.9Z" fill="#465e70"/>
    <path class="st0" d="M158.2,498.8c33.3-15.8,58.1-74.2,59.5-109.5-.3-113.3-153.2-83.4-217.7-47.9v213.9c56.5-5,110.5-26.2,158.2-56.6Z" fill="#465e70"/>
    <path class="st0" d="M9.4,197.4c10.8-4.5,20.7-10.8,30.6-17,26.6-17.4,27.1,25.2,69.6,30.8-12.9,13.1-23.4,28.4-33.1,44,9.7-3.8,19.5-6.7,29.6-8.9,3.9-16.4,9.8-32.3,17.6-47.3,15-11.1,32.4-19.5,50.9-22.7-11.6,21.8-22.1,45-24,69.9,17.4,4.4,33.8,12.4,48.1,23.3,3.5-32.1,17.1-61.8,29.1-91.4,10.1,2.4,19.9,6.5,30.2,8.2-1.3-18.2-7.8-36.1-19-50.5-42.5-6-78.8-35.8-121.8-38.1-25.4-1.6-45.1,10.3-67.6,18.5-16.3-3.4-32.9-5.4-49.5-5.9v90.4c3.2-.9,6.3-2.1,9.4-3.4Z" fill="#465e70"/>
    <path class="st0" d="M490.7,110.1c-8.8-1.5-17.3-4.1-25.6-7.2-50.5-18.4-100.7,27.1-150.1,33.8-9.4,14.1-14.3,30.6-18.1,46.9,13.5-4.4,27-9.4,41.4-9.9,16.1,28,20.7,61.7,19.3,93.6,12.4-12.7,29.5-19.8,47.2-21.5,1.5-23.6-8.9-45.9-19.8-66.1,18.1,5.4,34.9,14.8,49.2,27,5.2,14.9,10,30,14.4,45.2,11.4,3.9,22.3,9.2,33,14.7-10.2-19.5-23.6-37.3-39.4-52.7,10.4-4.7,21.3-9.7,28.5-18.8,11.9-21.3,27.1-8.2,43.5-5.2,17.5,4.2,35,7.6,52.6,11v-85.7c-24.2-9.1-50.9-9.4-76.2-5.3Z" fill="#465e70"/>
    <path class="st4" d="M344.1,82.4c-8.3-76.3-148-71-145.3,8.1,47.2,17.6,101.8,13.1,146.9-8-.8,0-1.3,0-1.7,0Z" fill="#465e70"/>
  </g>
  <g id="zone-2" data-color-id="OR007">
    <path class="st1" d="M282.7,352.6c-5.9.3-11.9.4-17.8.2-1.7,45.8,6.3,95.1-14.2,138.2,21.4,13.2,48.5,14,70.9,2.3-10.9-46.3-18.8-94.8-9.7-142.1-9.7,0-19.4.9-29.1,1.3Z" fill="#e3c0a1"/>
    <path class="st1" d="M441.8,229.3c-2.4-7.5-4.9-15-7.5-22.5-14.3-12.3-31.1-21.6-49.2-27,10.8,20.3,21.2,42.5,19.8,66.1,14.2-1.3,30.1,1.4,43.8,6.1-2.2-7.6-4.5-15.2-6.9-22.7Z" fill="#e3c0a1"/>
    <path class="st1" d="M258.7,285.5c0-33,4-66.1,11.8-98.1-14.8.2-28.6-5.5-42.6-9.3-12.1,29.6-25.6,59.3-29.1,91.4,28.2,20.1,47.9,51.3,53.5,85.6,3.9-2.1,8.4-2.5,12.7-2.3-4.1-22.2-6.1-44.8-6.2-67.3Z" fill="#e3c0a1"/>
    <path class="st1" d="M357.9,252c-.9-27-5.8-54.8-19.6-78.3-12.8.5-25,4.4-37,8.5,18.5,54,20.5,113.1,10.5,169.1,6,0,12.1.2,18.1.5,1.3-29.4,7.3-62.4,27.7-84.4.3-5.1.4-10.1.3-15.3Z" fill="#e3c0a1"/>
    <path class="st1" d="M151.1,183.4c-9.7,4.1-18.9,9.5-27.4,15.8-7.8,14.9-13.7,30.9-17.6,47.3,14.6-3,30-3.5,44.4,0,1.9-24.9,12.4-48.1,24-69.9-8.1,1.4-15.9,3.8-23.5,7Z" fill="#e3c0a1"/>
  </g>
  <g id="zone-3" data-color-id="BL029">
    <path class="st5" d="M248.6,340c-21.9-71.5-100.9-117.9-172.1-84.8-.1.2-.3.4-.4.6-27.5,11.1-54.4,28.3-76.1,47.4v38.2c60.5-29.2,171-62.3,212.6,13.5,16.2,46.2-8.2,94.9-35.7,131.8,15.1-10.8,29.4-22.5,42.8-35,0,0,0,0,0,0,30.1-28.4,41.6-73.2,28.8-111.9Z" fill="#6b7d8b"/>
    <path class="st5" d="M482,267.2c0-.2-.2-.4-.3-.5-83.2-46.1-148.7-14.5-151.7,83-.4,36.3,8.8,74.3,27.1,106.1,10.8,16.5,26,29.5,41.9,41-91.2-144.7,46-197.8,167.9-139.2v-28.8c-25.9-23-54.1-44.9-84.9-61.5Z" fill="#6b7d8b"/>
    <path class="st5" d="M42.8,232c3.5-.6,6.5,1.6,9.1,3.6,8.7,6.1,17.9,10.8,25.8,17.8,9.4-14.9,19.5-29.6,31.9-42.1-42.5-5.7-43-48.2-69.6-30.8-12.7,7.9-25.6,16.1-40,20.3v49.1c14.5-5.4,28.8-11.6,42.8-17.9Z" fill="#6b7d8b"/>
    <path class="st5" d="M418.8,101c11.7-2.5,24-3.3,37.3-1.5-34.6-16.7-74-25-112-17.1.4.1.9.1,1.7,0-45.1,21.1-99.7,25.6-146.9,8v-.8c-36.7-6.7-76-3.3-110.5,10.7,54.1-13.9,99.2,27.2,150.6,35.5,11.3,14.4,17.7,32.3,19,50.5,13,2,26.4,1.4,38.9-2.7,3.9-16.3,8.7-32.8,18.1-46.9,37-5.6,67.7-28,103.7-35.7Z" fill="#6b7d8b"/>
    <path class="st5" d="M560.3,199.8c-15.4-3-30.7-6-46-9.7-16.4-3-31.6-16.2-43.5,5.2-7.2,9.1-18.2,14.1-28.5,18.8,11.2,10.9,21.3,23.1,29.8,36.2,38.2-44.2,46.9-16.8,94.8-21.8v-27.4c-2.2-.4-4.4-.8-6.6-1.3Z" fill="#6b7d8b"/>
  </g>
  <g id="zone-4" data-color-id="GN028">
    <path class="st2" d="M0,0v110.3c16.6.5,33.2,2.5,49.5,5.9,51.6-22.2,91.5-37.3,149.3-26.6-1.4-78.4,137-83.1,145.3-7.2,45-9.1,80.6,2.5,121.1,20.5,8.3,3.1,16.8,5.7,25.6,7.2,25.3-4.1,52-3.9,76.2,5.3V0H0Z" fill="#687267"/>
    <path class="st2" d="M492.2,556c-27.9-16.1-55.2-33.1-81.8-51.2-20.3-13.9-40.6-29.1-54-50-24.4,62.4-116.6,62.6-136.7-2.9-60,55.8-137.5,95.9-219.7,103.6v11.6h511.4c-6.4-3.6-12.8-7.2-19.2-10.9Z" fill="#687267"/>
    <path class="st2" d="M513.2,223.4c-16.6,1-30.4,15.2-41.1,26.8,3.6,5.5,6.9,11.2,9.9,17,30.8,17,59.1,37.7,84.9,61.5v-100.3c-18,.9-36.4.3-53.7-5Z" fill="#687267"/>
    <path class="st2" d="M76.1,255.9c.5-.8,1-1.7,1.5-2.5-7.9-7.1-17.1-11.8-25.8-17.8-2.6-2-5.6-4.2-9.1-3.6-14,6.4-28.3,12.5-42.8,17.9v53.4c22.2-20.4,48.5-35.7,76.1-47.4Z" fill="#687267"/>
  </g>
</svg>