<?xml version="1.0" encoding="UTF-8"?>
<svg id="Calque_1" xmlns="http://www.w3.org/2000/svg" version="1.1" viewBox="0 0 566.9 566.9">
  <!-- Generator: Adobe Illustrator 29.8.5, SVG Export Plug-In . SVG Version: 2.1.1 Build 2)  -->
  <defs>
    <style>
      .st0 {
        fill: #252798;
      }

      .st1 {
        fill: #fff;
      }

      .st2 {
        fill: #ffca00;
      }

      .st3 {
        fill: none;
        stroke: #000;
        stroke-linecap: round;
        stroke-linejoin: round;
      }

      .st4 {
        fill: #2a3487;
      }

      .st5 {
        fill: #7978c6;
      }
    </style>
  </defs>
  <path class="st3" d="M471.7,544c.8.5,1.6,1,2.4,1.4-.8-.5-1.6-1-2.4-1.4Z"/>
  <path class="st3" d="M357.1,455.8c-.3-.4-.5-.8-.8-1.2.2.4.5.8.8,1.2Z"/>
  <path class="st3" d="M492.2,556c3.4,1.9,6.7,3.9,10.1,5.8-3.4-1.9-6.7-3.9-10.1-5.8Z"/>
  <path class="st3" d="M483.2,550.8c2,1.2,4,2.3,6,3.5-2-1.2-4-2.3-6-3.5Z"/>
  <path class="st3" d="M414.6,507.6c-5.6-3.9-11.3-7.7-16.8-11.7,5.5,4,11.1,7.9,16.8,11.7Z"/>
  <path class="st3" d="M83.7,312.8c30.9-5.9,62.5-6.3,88.1,4.6-25.6-10.9-57.2-10.5-88.1-4.6Z"/>
  <path class="st3" d="M374.8,476.8c-.6-.6-1.3-1.3-1.9-1.9.6.6,1.3,1.3,1.9,1.9Z"/>
  <path class="st3" d="M217.7,389.2c0-1,0-2,0-3,0,1,0,2,0,3Z"/>
  <path class="st3" d="M217.8,383.7c0-.2,0-.4,0-.6,0,.2,0,.4,0,.6Z"/>
  <path class="st3" d="M213.4,357.4c-.2-.8-.5-1.5-.8-2.3.3.7.5,1.5.8,2.3Z"/>
  <path class="st3" d="M186.7,472.9c0,0,0,.1-.1.2.7-1.1,1.4-2.1,2.1-3.2-.7,1-1.3,2-2,3Z"/>
  <path class="st3" d="M189.1,469.3c.2-.3.4-.6.5-.8-.2.3-.4.6-.5.8Z"/>
  <path class="st3" d="M204.1,442c7.7-16.9,13-34.7,13.6-52.6-.7,17.9-6,35.9-13.6,52.6Z"/>
  <path class="st3" d="M203,444.4c.2-.5.5-1,.7-1.5-.2.5-.5,1-.7,1.5Z"/>
  <path class="st3" d="M158.2,498.8c-22.7,14.2-46.5,26.7-71.3,36.3,32.4-13.5,67.4-28.3,93.1-52.5-6,6.8-13.6,11.7-21.8,16.3Z"/>
  <path class="st3" d="M376.2,478.2c.6.6,1.2,1.1,1.8,1.6-.6-.5-1.2-1.1-1.8-1.6Z"/>
  <path class="st3" d="M372.9,437.7c0-.1,0-.2,0-.3,0,.1,0,.2,0,.3Z"/>
  <path class="st3" d="M385.8,364.6s0,0,0,0c0,0,0,0,0,0Z"/>
  <path class="st3" d="M375,445.4c-.2-.8-.5-1.6-.7-2.4.2.8.5,1.6.7,2.4Z"/>
  <path class="st3" d="M379.8,481.5c.4.4.9.8,1.3,1.2-.4-.4-.9-.8-1.3-1.2Z"/>
  <path class="st3" d="M422.3,512.8c.2.1.4.3.7.4-.2-.1-.4-.3-.7-.4Z"/>
  <path class="st3" d="M398.2,495.4c-10.9-18-18.4-34.5-23-49.5,4.6,15,12.1,31.5,23,49.5Z"/>
  <path class="st3" d="M383.9,485.1c.2.2.4.3.6.5-.2-.2-.4-.3-.6-.5Z"/>
  <path class="st3" d="M390.3,359.8c.4-.4.8-.7,1.1-1.1-.4.4-.8.7-1.1,1.1Z"/>
  <path class="st3" d="M488.3,335.3c.5,0,1,0,1.4.1-.5,0-1-.1-1.4-.1Z"/>
  <path class="st3" d="M487,335.1c-39.3-3.8-74.1,4.1-95.4,23.5,21.4-19.4,56.2-27.3,95.4-23.5Z"/>
  <path class="st3" d="M388,362.1c.2-.2.4-.4.5-.6-.2.2-.4.4-.5.6Z"/>
  <path class="st3" d="M389.2,361c.3-.3.5-.5.8-.8-.3.3-.5.5-.8.8Z"/>
  <path class="st3" d="M386.9,363.4c0-.1.2-.2.3-.3-.1.1-.2.2-.3.3Z"/>
  <path class="st3" d="M373.8,441.3c-.1-.4-.2-.8-.3-1.1.1.4.2.8.3,1.1Z"/>
  <path class="st3" d="M149.4,246c1.8.4,3.6.9,5.3,1.4-1.8-.5-3.5-1-5.3-1.4Z"/>
  <path class="st3" d="M199,266.4c.2-1.7.5-3.4.7-5.1-.3,1.7-.5,3.4-.7,5.1Z"/>
  <path class="st3" d="M106.1,246.4c-2.7.6-5.3,1.2-7.9,1.9,16.7-4.2,33.7-5.4,50.5-2.4-13.9-3-28.6-2.4-42.5.5Z"/>
  <path class="st3" d="M201.1,254.1c1.1-5.4,2.4-10.7,4-15.9-1.5,5.3-2.9,10.6-4,15.9Z"/>
  <path class="st3" d="M170.3,184.6c-2.7,5.4-5.4,10.9-7.8,16.5,2.4-5.6,5-11.1,7.8-16.5Z"/>
  <path class="st3" d="M162,202.3c-1.7,4-3.3,8.1-4.7,12.3,1.4-4.1,3-8.2,4.7-12.3Z"/>
  <path class="st3" d="M155.9,219c-.8,2.5-1.4,4.9-2.1,7.4.6-2.5,1.3-5,2.1-7.4Z"/>
  <path class="st3" d="M153.2,228.9c-1.3,5.7-2.3,11.5-2.7,17.4.5-5.9,1.4-11.7,2.7-17.4Z"/>
  <path class="st3" d="M225.8,182.9c.6-1.6,1.3-3.2,1.9-4.7-.6,1.6-1.3,3.1-1.9,4.7Z"/>
  <path class="st3" d="M205.7,236c.5-1.8,1.1-3.5,1.6-5.3-.6,1.7-1.1,3.5-1.6,5.3Z"/>
  <path class="st3" d="M227.8,178.2c4.4,1.2,8.8,2.5,13.1,3.9-4.3-1.4-8.7-2.9-13.1-3.9Z"/>
  <path class="st3" d="M220.2,196.7c1.2-3,2.5-6,3.7-9-1.2,3-2.5,6-3.7,9Z"/>
  <path class="st3" d="M208.5,227.4c.4-1.1.8-2.3,1.2-3.4-.4,1.1-.8,2.3-1.2,3.4Z"/>
  <path class="st3" d="M212.7,215.5c.7-1.8,1.3-3.5,2-5.3-.7,1.8-1.4,3.5-2,5.3Z"/>
  <path class="st3" d="M100.4,221.4c.3-.4.6-.7.9-1.1-.3.4-.6.7-.9,1.1Z"/>
  <path class="st3" d="M91.7,205.7c-.3-.2-.7-.3-1-.5.3.2.7.3,1,.5Z"/>
  <path class="st3" d="M9.4,197.4c-.9.4-1.7.7-2.6,1,.9-.3,1.7-.7,2.6-1Z"/>
  <path class="st3" d="M174.6,176.4c-1.5,2.7-2.9,5.5-4.3,8.2,1.4-2.8,2.8-5.5,4.3-8.2Z"/>
  <path class="st3" d="M96.3,226.4c.2-.2.3-.4.5-.6-.2.2-.3.4-.5.6Z"/>
  <path class="st3" d="M104.7,216.4c.3-.3.6-.7.9-1-.3.3-.6.7-.9,1Z"/>
  <path class="st3" d="M10.6,196.9c10.3-4.5,19.9-10.5,29.4-16.4-9.5,5.9-19.1,12-29.4,16.4Z"/>
  <path class="st3" d="M48.6,233.2c-.5-.3-.9-.5-1.4-.7.5.2.9.4,1.4.7Z"/>
  <path class="st3" d="M109.6,211.3c-6.8-1.2-12.5-3.1-17.3-5.3,4.8,2.2,10.5,4.1,17.3,5.3Z"/>
  <path class="st3" d="M53.1,176.2c5.9.4,9.9,5,15.1,10.7-5.2-5.7-9.2-10.3-15.1-10.7Z"/>
  <path class="st3" d="M151.1,183.4c5.4-2.3,11-4.2,16.6-5.6-5.7,1.4-11.2,3.3-16.6,5.6Z"/>
  <path class="st3" d="M167.7,177.8c2.3-.6,4.6-1,6.9-1.4-2.3.4-4.6.9-6.9,1.4Z"/>
  <path class="st3" d="M145.7,185.8c1.8-.9,3.6-1.7,5.4-2.4-1.8.8-3.6,1.6-5.4,2.4Z"/>
  <path class="st3" d="M107.6,240.2c1.1-4.1,2.3-8.1,3.7-12.1-1.3,4-2.6,8-3.7,12.1Z"/>
  <path class="st3" d="M81.4,247.5c-1.7,2.6-3.3,5.1-4.9,7.8,0,0,0,0,0,0,1.6-2.6,3.2-5.2,4.9-7.8Z"/>
  <path class="st3" d="M355.5,225.2c.1.7.2,1.4.3,2.2-.1-.7-.2-1.4-.3-2.2Z"/>
  <path class="st3" d="M350,200.8c.2.6.3,1.2.5,1.8-.2-.6-.3-1.2-.5-1.8Z"/>
  <path class="st3" d="M350.9,203.8c.2.7.4,1.3.5,2-.2-.7-.4-1.3-.5-2Z"/>
  <path class="st3" d="M351.7,206.8c.1.6.3,1.1.4,1.7-.1-.6-.3-1.1-.4-1.7Z"/>
  <path class="st3" d="M356.4,231.4c0,.6.2,1.3.2,1.9,0-.6-.1-1.3-.2-1.9Z"/>
  <path class="st3" d="M346,189.3c.1.3.2.5.3.8-.1-.3-.2-.5-.3-.8Z"/>
  <path class="st3" d="M349.1,197.9c.1.3.2.6.3,1-.1-.3-.2-.6-.3-1Z"/>
  <path class="st3" d="M348.1,195c.2.5.3,1,.5,1.5-.2-.5-.3-1-.5-1.5Z"/>
  <path class="st3" d="M352.5,209.8c.1.6.3,1.2.4,1.8-.1-.6-.3-1.2-.4-1.8Z"/>
  <path class="st3" d="M238.9,135.9c-16.9-2.7-32.8-8.8-48.5-15.3,15.6,6.8,31.4,13.1,48.5,15.3Z"/>
  <path class="st3" d="M355,222.1c0,.6.2,1.1.3,1.7,0-.6-.2-1.1-.3-1.7Z"/>
  <path class="st3" d="M356,228.3c0,.6.2,1.2.2,1.9,0-.6-.2-1.2-.2-1.9Z"/>
  <path class="st3" d="M353.2,212.9c.1.6.3,1.2.4,1.8-.1-.6-.3-1.2-.4-1.8Z"/>
  <path class="st3" d="M354.4,219c0,.5.2,1,.3,1.5,0-.5-.2-1-.3-1.5Z"/>
  <path class="st3" d="M353.8,215.9c.1.5.2,1,.3,1.5-.1-.5-.2-1-.3-1.5Z"/>
  <path class="st3" d="M347.1,192.1c.2.5.4,1.1.6,1.6-.2-.5-.4-1.1-.6-1.6Z"/>
  <path class="st3" d="M360,122.8c-14.3,6-29,11.4-44.9,13.9,15.8-2,30.5-7.6,44.9-13.9Z"/>
  <path class="st3" d="M308.8,147.7c-.7,1.5-1.4,3-2,4.5.7-1.5,1.3-3,2-4.5Z"/>
  <path class="st3" d="M553.1,111.2c-20.3-4.9-41.8-4.4-62.4-1.1,20.6-3.3,42.1-3.8,62.4,1.1Z"/>
  <path class="st3" d="M310.7,144.1c-.6,1.2-1.2,2.3-1.8,3.5.6-1.2,1.2-2.4,1.8-3.5Z"/>
  <path class="st3" d="M101.8,95.2c-2.8,1-5.5,2-8.2,3.1,6.8-2.5,13.8-4.7,20.9-6.4-4.3,1-8.5,2.1-12.7,3.3Z"/>
  <path class="st3" d="M415.3,83.9c-10.6-2.3-21.5-3.8-32.5-4.3,15.4.8,30.8,3.7,45.5,8.5-4.3-1.6-8.6-3-13-4.2Z"/>
  <path class="st3" d="M165.6,86.4c.7,0,1.5,0,2.2,0-.7,0-1.5,0-2.2,0Z"/>
  <path class="st3" d="M343.6,183.9c0,.1.1.3.2.4,0-.1-.1-.3-.2-.4Z"/>
  <path class="st3" d="M326.7,175.1c3.8-.7,7.7-1.2,11.6-1.3-3.9.1-7.8.6-11.6,1.3Z"/>
  <path class="st3" d="M341.1,178.7c0,.2.2.3.3.5,0-.2-.2-.3-.3-.5Z"/>
  <path class="st3" d="M298.8,176.2c-.6,2.5-1.3,4.9-1.8,7.4.6-2.5,1.2-4.9,1.8-7.4Z"/>
  <path class="st3" d="M344.8,186.6c0,0,0,.2.1.3,0,0,0-.2-.1-.3Z"/>
  <path class="st3" d="M322.4,175.9c.1,0,.2,0,.4,0-.1,0-.2,0-.4,0Z"/>
  <path class="st3" d="M324.5,175.5c.5-.1,1.1-.2,1.6-.3-.5.1-1.1.2-1.6.3Z"/>
  <path class="st3" d="M386.8,183c-.6-1.1-1.2-2.2-1.7-3.3.6,1.1,1.2,2.2,1.7,3.3Z"/>
  <path class="st3" d="M458.4,231.5c-.2-.2-.4-.4-.5-.6.2.2.4.4.5.6Z"/>
  <path class="st3" d="M552.4,198.3c-16.2-3.4-33-6.2-48.9-11.2,15.8,5,32.6,7.8,48.9,11.2Z"/>
  <path class="st3" d="M471.8,249.8c.4.6.8,1.2,1.2,1.9-.4-.6-.8-1.3-1.2-1.9Z"/>
  <path class="st3" d="M450.9,222.9c-.5-.6-1.1-1.2-1.6-1.8.5.6,1.1,1.2,1.6,1.8Z"/>
  <path class="st3" d="M455,227.6c-.3-.4-.7-.8-1-1.2.3.4.7.8,1,1.2Z"/>
  <path class="st3" d="M467.8,259.9c-12.7-6.1-26-11-39.9-13.1,13.8,2.8,27.1,7.3,39.9,13.1Z"/>
  <path class="st3" d="M442.3,214c2.8-1.3,5.7-2.6,8.5-4-2.8,1.4-5.7,2.7-8.5,4Z"/>
  <path class="st3" d="M445.7,217.4c.6.6,1.1,1.2,1.7,1.8-.6-.6-1.1-1.2-1.7-1.8Z"/>
  <path class="st3" d="M364,465.1c.5.6,1,1.2,1.5,1.7-.5-.6-1-1.2-1.5-1.7Z"/>
  <path class="st3" d="M366.8,468.5c.6.6,1.1,1.3,1.7,1.9-.6-.6-1.1-1.3-1.7-1.9Z"/>
  <path class="st3" d="M361.3,461.7c.4.5.8,1.1,1.2,1.6-.4-.5-.8-1-1.2-1.6Z"/>
  <path class="st3" d="M358.7,458.1c.3.5.7,1,1,1.5-.3-.5-.7-1-1-1.5Z"/>
  <path class="st3" d="M386.3,249.8c-14.9,4.8-28.2,14.3-36.6,27.7,9.1-13.1,21.7-22.6,36.6-27.7Z"/>
  <path class="st3" d="M335.8,311.1c.3-1.3.5-2.6.8-3.8-1,3.6-1.9,7.3-2.7,11,.6-2.4,1.1-4.8,1.8-7.2Z"/>
  <path class="st3" d="M396.3,202.8c-.4-.9-.7-1.8-1.1-2.6.4.9.8,1.8,1.1,2.6Z"/>
  <path class="st3" d="M357.8,249.9c0,.7,0,1.4,0,2.1,0-.7,0-1.4,0-2.1Z"/>
  <path class="st3" d="M401.1,216.6c-.9-3-1.9-6-3-9,1.1,3,2.1,6,3,9Z"/>
  <path class="st3" d="M357.8,264.5c0,.9,0,1.9-.1,2.8,0-.9.1-1.9.1-2.8Z"/>
  <path class="st3" d="M357.7,246.9c0,.4,0,.8,0,1.2,0-.4,0-.8,0-1.2Z"/>
  <path class="st3" d="M357.5,243.8c0,.6,0,1.2.1,1.8,0-.6,0-1.2-.1-1.8Z"/>
  <path class="st3" d="M357.1,237.7c0,.6.1,1.2.2,1.8,0-.6,0-1.2-.2-1.8Z"/>
  <path class="st3" d="M357.3,240.7c0,.8.1,1.7.2,2.5,0-.8-.1-1.7-.2-2.5Z"/>
  <path class="st3" d="M369.7,471.7c.6.7,1.2,1.3,1.9,2-.6-.6-1.2-1.3-1.9-2Z"/>
  <path class="st3" d="M480,263.4c-.5-.9-1-1.8-1.5-2.6.5.9,1,1.8,1.5,2.6Z"/>
  <path class="st3" d="M477.8,259.6c-.5-.9-1-1.7-1.5-2.6.5.9,1,1.7,1.5,2.6Z"/>
  <path class="st3" d="M417.2,194.3c3,1.9,5.9,3.8,8.8,5.9-2.9-2.1-5.8-4.1-8.8-5.9Z"/>
  <path class="st3" d="M475.5,255.7c-.5-.8-1-1.6-1.5-2.4.5.8,1,1.6,1.5,2.4Z"/>
  <path class="st3" d="M401.6,186c4.3,1.9,8.5,4.1,12.5,6.5-4.1-2.4-8.2-4.5-12.5-6.5Z"/>
  <path class="st3" d="M356.7,234.5c0,.6.1,1.1.2,1.7,0-.6-.1-1.1-.2-1.7Z"/>
  <path class="st3" d="M316.2,469.3c.4,1.9.8,3.7,1.1,5.6-.4-1.9-.8-3.7-1.1-5.6Z"/>
  <path class="st3" d="M301.3,182.2c1.3-.5,2.7-.9,4-1.3-3.3,1.1-6.7,2.2-10,3.2,2-.6,4-1.2,6-1.9Z"/>
  <path class="st3" d="M117.1,97.8c-12.9-.9-27.7.9-40,7.3,12.8-4.8,25-7.9,40-7.3Z"/>
  <path class="st3" d="M418.8,101c17.2-3.8,34-2.6,46.3,1.9-3.5-1.3-7-2.7-10.4-4.1.5.2.9.5,1.4.7-13.3-1.9-25.6-1-37.3,1.5Z"/>
  <path class="st3" d="M198.7,89.6c-10.1-1.9-20.4-3-30.9-3.2,10.4.3,20.8,1.4,30.9,3.3h0Z"/>
  <path class="st3" d="M282.7,352.6c-3,.1-6,.3-9,.3,3,0,6-.2,9-.3Z"/>
  <path class="st3" d="M566.9,328.8c-13.1-12.1-26.9-23.4-41.3-33.8,14.4,10.8,28.1,22.3,41.3,33.8Z"/>
  <path class="st3" d="M309.7,427.8c.3,2.5.6,4.9.9,7.4-.3-2.5-.6-4.9-.9-7.4Z"/>
  <path class="st3" d="M310.9,437.8c1.2,9.1,2.7,18.1,4.5,27.1-1.7-9-3.2-18-4.5-27.1Z"/>
  <path class="st3" d="M264.9,417.8c0,.7,0,1.4,0,2.1,0-.7,0-1.4,0-2.1Z"/>
  <path class="st3" d="M317.8,477.2c.7,3.2,1.4,6.4,2.1,9.6-.7-3.2-1.4-6.4-2.1-9.6Z"/>
  <path class="st3" d="M237.5,481.3c12.2,12.2,28,18.9,44.4,20.2-16.4-1.5-32.4-8.9-44.4-20.2Z"/>
  <path class="st3" d="M258.7,285.5c0-5.5,0-11,.3-16.5-.2,5.5-.3,11-.3,16.5Z"/>
  <path class="st3" d="M566.9,228.5c-2.3.1-4.6.2-6.9.3,2.3,0,4.6-.1,6.9-.3Z"/>
  <path class="st3" d="M252.1,355.1c.7-.4,1.5-.7,2.3-1-.8.3-1.5.6-2.3,1h0Z"/>
  <path class="st3" d="M259,353c-.4,0-.8.1-1.2.2.4,0,.8-.1,1.2-.2Z"/>
  <path class="st3" d="M0,249.9c3.2-1.2,6.5-2.5,9.7-3.8-3.2,1.3-6.4,2.5-9.7,3.8Z"/>
  <path class="st3" d="M263.2,352.8c.6,0,1.1,0,1.7,0-.6,0-1.1,0-1.7,0Z"/>
  <path class="st3" d="M309.1,422.2c.2,1.7.3,3.4.5,5.1-.2-1.7-.3-3.4-.5-5.1Z"/>
  <path class="st3" d="M263.7,439.8c0,.3,0,.5,0,.8,0-.3,0-.5,0-.8Z"/>
  <path class="st3" d="M240,425.7c-5.1,8.8-11.4,16.8-18.4,24.3,7.3-7.3,13.5-15.5,18.4-24.3Z"/>
  <path class="st3" d="M203.7,273.5c21.1,17.4,37.2,40.8,44.9,66.5-7.5-26.2-23.4-49.9-44.9-66.5Z"/>
  <path class="st3" d="M0,303.3c11.4-9.7,24.2-19.5,38-28.2-13.6,8.1-26.4,17.4-38,28.2Z"/>
  <path class="st3" d="M-3273.3-1952.2V2519.1H3840.2V-1952.2H-3273.3ZM566.9,115.4v451.5H0V0h566.9v115.4Z"/>
  <path class="st3" d="M311.8,351.3c-.6,3.3-1.2,6.7-1.7,10,.5-3.4,1-6.7,1.7-10Z"/>
  <path class="st3" d="M284.4,186.6c-4.5.7-9,.9-13.5.9,4.6.2,9.1-.2,13.5-.9Z"/>
  <path class="st3" d="M307.9,390.7c0,.2,0,.5,0,.7,0-.2,0-.5,0-.7Z"/>
  <path class="st3" d="M258,186.4c0,0-.1,0-.2,0,4,.7,8.1,1.1,12.2,1.1-4,0-8-.5-12-1.1Z"/>
  <path class="st3" d="M345.5,431.7c-10.1-26.3-16.3-54.1-15.5-82-.7,27.7,5.2,56,15.5,82Z"/>
  <path class="st3" d="M317.3,304.2c-.7,13.6-2.2,27.1-4.4,40.4,2.2-13.3,3.6-26.8,4.4-40.4Z"/>
  <path class="st3" d="M259.4,260.3c0-.6,0-1.3.1-1.9,0,.6,0,1.3-.1,1.9Z"/>
  <path class="st3" d="M260.2,249.5c.2-2.1.4-4.1.6-6.2-.2,2.1-.4,4.1-.6,6.2Z"/>
  <path class="st3" d="M566.9,115.4c-4.5-1.7-9.1-3.1-13.8-4.2,4.7,1.1,9.3,2.5,13.8,4.2Z"/>
  <path class="st3" d="M317.7,291.8c0,3.3-.2,6.6-.3,9.9.2-3.3.3-6.6.3-9.9Z"/>
  <path class="st3" d="M331.3,487.2c10.4-7.7,19.2-18.5,25.1-32.4-5.7,12.3-14.3,23.9-25.1,32.4Z"/>
  <path class="st3" d="M308.1,407.8c.1,2.5.3,5,.4,7.4-.2-2.5-.3-5-.4-7.4Z"/>
  <path class="st3" d="M357.8,264.1c.2-3.6.2-7.4.1-11.2,0,3.8,0,7.6-.1,11.2Z"/>
  <path class="st3" d="M301.3,182.2c6.3,18.5,10.8,37.7,13.4,57.1-2.6-19.5-7.1-38.6-13.4-57.1Z"/>
  <path class="st0" d="M263.6,440.6c2.8-29,.2-59,1.2-87.8-4.3-.2-8.8.2-12.7,2.3,6.6,34.3-6.3,72.5-32.4,96.8,6,17.6,15.7,30.4,30.8,39.2,7.7-16.1,11.3-33.1,13-50.4Z"/>
  <path class="st0" d="M311.8,351.3c-9.1,47.3-1.2,95.8,9.7,142.1,15.8-8,27.6-22.9,34.9-38.6-17.5-31-26.5-67.7-26.5-103-6-.3-12.1-.5-18.1-.5Z"/>
  <path class="st0" d="M488.3,335.3c-115.8-11.7-148.9,70.7-89.3,161.5,0,0,0,0,0,0,33.2,23.5,68,44.9,103.3,65,3,1.7,6,3.4,9.1,5.1h55.5v-209.4c-26.5-12.3-53.2-19.6-78.7-22.3Z"/>
  <path class="st0" d="M260.8,243.3c-3.7,36.4-2.6,73.5,4,109.5,15.7.6,31.3-1.4,46.9-1.6,10.1-56,8-115-10.5-169.1-9.9,3.5-20.3,5.6-30.9,5.2-4.5,18.3-7.7,37-9.7,55.9Z"/>
  <path class="st0" d="M158.2,498.8c33.3-15.8,58.1-74.2,59.5-109.5-.3-113.3-153.2-83.4-217.7-47.9v213.9c56.5-5,110.5-26.2,158.2-56.6Z"/>
  <path class="st0" d="M9.4,197.4c10.8-4.5,20.7-10.8,30.6-17,26.6-17.4,27.1,25.2,69.6,30.8-12.9,13.1-23.4,28.4-33.1,44,9.7-3.8,19.5-6.7,29.6-8.9,3.9-16.4,9.8-32.3,17.6-47.3,15-11.1,32.4-19.5,50.9-22.7-11.6,21.8-22.1,45-24,69.9,17.4,4.4,33.8,12.4,48.1,23.3,3.5-32.1,17.1-61.8,29.1-91.4,10.1,2.4,19.9,6.5,30.2,8.2-1.3-18.2-7.8-36.1-19-50.5-42.5-6-78.8-35.8-121.8-38.1-25.4-1.6-45.1,10.3-67.6,18.5-16.3-3.4-32.9-5.4-49.5-5.9v90.4c3.2-.9,6.3-2.1,9.4-3.4Z"/>
  <path class="st0" d="M490.7,110.1c-8.8-1.5-17.3-4.1-25.6-7.2-50.5-18.4-100.7,27.1-150.1,33.8-9.4,14.1-14.3,30.6-18.1,46.9,13.5-4.4,27-9.4,41.4-9.9,16.1,28,20.7,61.7,19.3,93.6,12.4-12.7,29.5-19.8,47.2-21.5,1.5-23.6-8.9-45.9-19.8-66.1,18.1,5.4,34.9,14.8,49.2,27,5.2,14.9,10,30,14.4,45.2,11.4,3.9,22.3,9.2,33,14.7-10.2-19.5-23.6-37.3-39.4-52.7,10.4-4.7,21.3-9.7,28.5-18.8,11.9-21.3,27.1-8.2,43.5-5.2,17.5,4.2,35,7.6,52.6,11v-85.7c-24.2-9.1-50.9-9.4-76.2-5.3Z"/>
  <g>
    <path class="st1" d="M282.7,352.6c-5.9.3-11.9.4-17.8.2-1.7,45.8,6.3,95.1-14.2,138.2,21.4,13.2,48.5,14,70.9,2.3-10.9-46.3-18.8-94.8-9.7-142.1-9.7,0-19.4.9-29.1,1.3Z"/>
    <path class="st1" d="M441.8,229.3c-2.4-7.5-4.9-15-7.5-22.5-14.3-12.3-31.1-21.6-49.2-27,10.8,20.3,21.2,42.5,19.8,66.1,14.2-1.3,30.1,1.4,43.8,6.1-2.2-7.6-4.5-15.2-6.9-22.7Z"/>
    <path class="st1" d="M258.7,285.5c0-33,4-66.1,11.8-98.1-14.8.2-28.6-5.5-42.6-9.3-12.1,29.6-25.6,59.3-29.1,91.4,28.2,20.1,47.9,51.3,53.5,85.6,3.9-2.1,8.4-2.5,12.7-2.3-4.1-22.2-6.1-44.8-6.2-67.3Z"/>
    <path class="st1" d="M357.9,252c-.9-27-5.8-54.8-19.6-78.3-12.8.5-25,4.4-37,8.5,18.5,54,20.5,113.1,10.5,169.1,6,0,12.1.2,18.1.5,1.3-29.4,7.3-62.4,27.7-84.4.3-5.1.4-10.1.3-15.3Z"/>
    <path class="st1" d="M151.1,183.4c-9.7,4.1-18.9,9.5-27.4,15.8-7.8,14.9-13.7,30.9-17.6,47.3,14.6-3,30-3.5,44.4,0,1.9-24.9,12.4-48.1,24-69.9-8.1,1.4-15.9,3.8-23.5,7Z"/>
  </g>
  <g>
    <path class="st5" d="M248.6,340c-21.9-71.5-100.9-117.9-172.1-84.8-.1.2-.3.4-.4.6-27.5,11.1-54.4,28.3-76.1,47.4v38.2c60.5-29.2,171-62.3,212.6,13.5,16.2,46.2-8.2,94.9-35.7,131.8,15.1-10.8,29.4-22.5,42.8-35,0,0,0,0,0,0,30.1-28.4,41.6-73.2,28.8-111.9Z"/>
    <path class="st5" d="M482,267.2c0-.2-.2-.4-.3-.5-83.2-46.1-148.7-14.5-151.7,83-.4,36.3,8.8,74.3,27.1,106.1,10.8,16.5,26,29.5,41.9,41-91.2-144.7,46-197.8,167.9-139.2v-28.8c-25.9-23-54.1-44.9-84.9-61.5Z"/>
    <path class="st5" d="M42.8,232c3.5-.6,6.5,1.6,9.1,3.6,8.7,6.1,17.9,10.8,25.8,17.8,9.4-14.9,19.5-29.6,31.9-42.1-42.5-5.7-43-48.2-69.6-30.8-12.7,7.9-25.6,16.1-40,20.3v49.1c14.5-5.4,28.8-11.6,42.8-17.9Z"/>
    <path class="st5" d="M418.8,101c11.7-2.5,24-3.3,37.3-1.5-34.6-16.7-74-25-112-17.1.4.1.9.1,1.7,0-45.1,21.1-99.7,25.6-146.9,8v-.8c-36.7-6.7-76-3.3-110.5,10.7,54.1-13.9,99.2,27.2,150.6,35.5,11.3,14.4,17.7,32.3,19,50.5,13,2,26.4,1.4,38.9-2.7,3.9-16.3,8.7-32.8,18.1-46.9,37-5.6,67.7-28,103.7-35.7Z"/>
    <path class="st5" d="M560.3,199.8c-15.4-3-30.7-6-46-9.7-16.4-3-31.6-16.2-43.5,5.2-7.2,9.1-18.2,14.1-28.5,18.8,11.2,10.9,21.3,23.1,29.8,36.2,38.2-44.2,46.9-16.8,94.8-21.8v-27.4c-2.2-.4-4.4-.8-6.6-1.3Z"/>
  </g>
  <g>
    <path class="st2" d="M0,0v110.3c16.6.5,33.2,2.5,49.5,5.9,51.6-22.2,91.5-37.3,149.3-26.6-1.4-78.4,137-83.1,145.3-7.2,45-9.1,80.6,2.5,121.1,20.5,8.3,3.1,16.8,5.7,25.6,7.2,25.3-4.1,52-3.9,76.2,5.3V0H0Z"/>
    <path class="st2" d="M492.2,556c-27.9-16.1-55.2-33.1-81.8-51.2-20.3-13.9-40.6-29.1-54-50-24.4,62.4-116.6,62.6-136.7-2.9-60,55.8-137.5,95.9-219.7,103.6v11.6h511.4c-6.4-3.6-12.8-7.2-19.2-10.9Z"/>
    <path class="st2" d="M513.2,223.4c-16.6,1-30.4,15.2-41.1,26.8,3.6,5.5,6.9,11.2,9.9,17,30.8,17,59.1,37.7,84.9,61.5v-100.3c-18,.9-36.4.3-53.7-5Z"/>
    <path class="st2" d="M76.1,255.9c.5-.8,1-1.7,1.5-2.5-7.9-7.1-17.1-11.8-25.8-17.8-2.6-2-5.6-4.2-9.1-3.6-14,6.4-28.3,12.5-42.8,17.9v53.4c22.2-20.4,48.5-35.7,76.1-47.4Z"/>
  </g>
  <path class="st4" d="M344.1,82.4c-8.3-76.3-148-71-145.3,8.1,47.2,17.6,101.8,13.1,146.9-8-.8,0-1.3,0-1.7,0Z"/>
</svg>