<?xml version="1.0" encoding="UTF-8"?>
<svg xmlns="http://www.w3.org/2000/svg" width="200mm" height="200mm" viewBox="0 0 566.93 566.93">
  <g id="zone-1">
    <rect x="0" y="0" width="566.93" height="566.93" fill="#faf9f3"/>
  </g>
  <g id="zone-2">
    <circle cx="54.29" cy="402.73" r="54.29" fill="#81855c"/>
    <path d="M239.83,4.99c.68-.6,1.43-1.14,2.25-1.61-.83.48-1.68.86-2.55,1.16.1.15.2.3.3.46Z" fill="#81855c"/>
    <path d="M332.27,512.01c-2.67-3.47-3.62-7.66-2.96-11.34.16-.92.41-1.8.75-2.64.35-.85.81-1.65,1.33-2.4.67-.94,1.48-1.78,2.4-2.52-.07-.1-.13-.2-.2-.3-1.09.42-2.21.71-3.36.81-1.81.17-3.69-.05-5.42-.7-1.73-.65-3.44-1.67-4.88-3.06-1.4-1.41-2.66-3.14-3.49-5.16-.13-.33-.23-.66-.34-1-.16.65-.31,1.29-.48,1.94-1.35,5.22-2.87,10.44-4.53,15.65-3.88-18.66-10.42-36.84-20.06-53.32-6.75-11.55-14.56-22.44-22.68-33.05-7.78-10.17-15.38-20.58-25.83-28.2-.72-.52-1.46-1.02-2.2-1.51-.67-.25-1.32-.55-1.96-.91,1.66.96,3.04,2.21,4.1,3.71.53.74.98,1.55,1.33,2.4.34.84.59,1.72.75,2.64.67,3.68-.29,7.87-2.96,11.34-1.35,1.71-2.91,3.14-4.7,4.07-1.78.95-3.59,1.58-5.48,1.71-3.76.31-7.33-.98-10.03-3.7,2.72,2.7,4,6.27,3.7,10.03-.13,1.9-.76,3.71-1.71,5.48-.94,1.79-2.36,3.35-4.07,4.71-3.47,2.67-7.66,3.62-11.34,2.96-.92-.16-1.8-.41-2.64-.75-.85-.35-1.65-.81-2.4-1.33-1.49-1.06-2.75-2.44-3.71-4.1.96,1.66,1.53,3.43,1.7,5.25.17,1.81-.05,3.69-.7,5.42-.65,1.73-1.67,3.44-3.06,4.88-1.41,1.4-3.14,2.66-5.16,3.49-1.02.4-2.05.71-3.07.91-1.02.21-2.04.32-3.05.27-2.01-.06-3.92-.48-5.61-1.25-3.15-1.51-5.47-4.12-6.58-7.42-.03,0-.06.02-.09.03.31,1.57.36,3.15.1,4.67-.31,1.78-1.03,3.48-2.1,5.01-.54.77-1.16,1.49-1.87,2.17-.29.27-.6.51-.92.75,4.45,9.34,11.76,17.06,20.79,22.03.69.99,1.25,2.04,1.6,3.22,2.21,7.58-5.44,15.32-3.6,23-32.21.78-61.22-27.56-78.04-52.86-1.26.39-2.59.61-3.99.65-1.01.04-2.03-.07-3.05-.27-1.02-.2-2.05-.51-3.07-.91-2.02-.83-3.75-2.09-5.16-3.49-1.39-1.44-2.41-3.14-3.06-4.88-.66-1.72-.87-3.61-.7-5.42.13-1.41.51-2.79,1.12-4.11-.04-.02-.07-.05-.11-.07-.84,1.19-1.85,2.21-3.01,3.03-.74.53-1.55.98-2.4,1.33-.84.34-1.72.59-2.64.75-3.68.67-7.87-.29-11.34-2.96-1.71-1.35-3.14-2.92-4.07-4.71-.95-1.78-1.58-3.59-1.71-5.48-.27-3.31.7-6.47,2.78-9.02-.03-.03-.06-.06-.1-.1-2.55,2.09-5.71,3.05-9.02,2.78-1.9-.12-3.71-.76-5.48-1.71-1.79-.94-3.35-2.36-4.7-4.07-2.67-3.47-3.62-7.66-2.96-11.34.16-.92.41-1.8.75-2.64.35-.85.81-1.65,1.33-2.4.67-.94,1.48-1.78,2.4-2.52-.07-.1-.13-.2-.2-.3-1.09.42-2.21.71-3.36.81-1.81.17-3.69-.05-5.42-.7-1.73-.65-3.44-1.67-4.88-3.06-1.4-1.41-2.66-3.14-3.49-5.16-.4-1.02-.71-2.05-.91-3.07-.2-1.02-.32-2.04-.27-3.05.06-2.01.48-3.92,1.25-5.61,1.21-2.53,3.13-4.53,5.54-5.79,0-.21-.03-.41-.07-.61-.93.05-1.85,0-2.75-.16-1.78-.31-3.48-1.03-5.01-2.1-.77-.54-1.49-1.16-2.17-1.87-.39-.43-.74-.89-1.08-1.38-15.6,9.98-25.95,27.45-25.95,47.35,0,31.03,25.16,56.19,56.19,56.19,8.16,0,15.91-1.75,22.9-4.88,9.27,6.42,17.56,19.73,23.8,26.16,1.18,1.22,18.97,13.8,16.33,15.77-3.29-1.33-16.5.88-21.15,1.19-6.06-17.29-22.52-29.7-41.89-29.7-3.92,0-7.72.51-11.34,1.47-1.2.17-2.4.37-3.6.61-.24.05-.95.52-1.98,1.27-9.03,3.73-16.55,10.34-21.43,18.69-17.35,26.22-.65,58.37,28.21,66.24.85.23,1.72.43,2.58.61.52-1.45,1.29-2.86,2.29-4.18,1.35-1.71,2.92-3.14,4.7-4.07,1.78-.95,3.59-1.58,5.48-1.71,3.76-.31,7.33.98,10.03,3.7-2.72-2.7-4-6.27-3.7-10.03.13-1.9.76-3.71,1.71-5.48.94-1.79,2.36-3.35,4.07-4.71,3.47-2.67,7.66-3.62,11.34-2.96.92.16,1.8.41,2.64.75.85.35,1.65.81,2.4,1.33,1.49,1.06,2.75,2.44,3.71,4.1-.96-1.66-1.53-3.43-1.7-5.25-.17-1.81.05-3.69.7-5.42.65-1.73,1.67-3.44,3.06-4.88,1.41-1.4,3.14-2.66,5.16-3.49,1.02-.4,2.05-.71,3.07-.91,1.02-.2,2.04-.32,3.05-.27,2.01.06,3.92.48,5.61,1.25,2.26,1.08,4.09,2.73,5.35,4.8.35-.12.7-.25,1.05-.36.02-.57.06-1.15.16-1.71.31-1.78,1.03-3.48,2.1-5.01.54-.77,1.16-1.49,1.87-2.17.71-.65,1.5-1.22,2.36-1.73.86-.51,1.79-.95,2.77-1.31.98-.36,2.03-.56,3.12-.71,1.08-.14,2.15-.18,3.19-.12,1.04.08,2.05.29,3.01.56,1.93.56,3.65,1.42,5.08,2.67,1.42,1.2,2.53,2.65,3.29,4.27.81-.04,1.61-.07,2.42-.08.76-1.58,1.85-3,3.24-4.19,1.43-1.25,3.16-2.11,5.08-2.67.96-.27,1.97-.48,3.02-.56,1.04-.06,2.11-.02,3.19.12,1.08.15,2.13.35,3.12.71.98.36,1.91.8,2.77,1.31.86.51,1.65,1.08,2.36,1.73.7.67,1.33,1.4,1.87,2.17,1.07,1.54,1.79,3.24,2.1,5.01.15.86.2,1.74.16,2.63.18.09.37.19.56.29,1.26-2.46,3.28-4.41,5.85-5.64,1.69-.78,3.59-1.19,5.61-1.25,1.01-.04,2.03.07,3.05.27,1.02.2,2.05.51,3.07.91,2.02.83,3.75,2.09,5.16,3.49,1.39,1.44,2.41,3.14,3.06,4.88.66,1.72.87,3.61.7,5.42-.17,1.82-.74,3.59-1.7,5.25.96-1.66,2.21-3.04,3.71-4.1.74-.53,1.55-.98,2.4-1.33.84-.34,1.72-.59,2.64-.75,3.68-.67,7.87.29,11.34,2.96,1.71,1.35,3.14,2.92,4.08,4.71.95,1.78,1.58,3.59,1.71,5.48.31,3.76-.98,7.33-3.7,10.03,2.7-2.72,6.27-4,10.03-3.7,1.9.13,3.71.76,5.48,1.71,1.79.94,3.35,2.36,4.71,4.07,2.67,3.47,3.62,7.66,2.96,11.34-.16.92-.41,1.8-.75,2.64-.35.85-.81,1.65-1.33,2.4-.08.11-.18.22-.26.33h30.74c-8.33-15.22-20.93-28.06-36.71-35.05-6.35-2.81-13.56-5-17.51-10.71-2.84-4.11-3.44-9.33-3.71-14.32-.44-8.19-.2-16.43.71-24.58.28-2.48.68-5.08,1.98-7.17,15.13-2.48,27.94-11.85,35.11-24.77.34.44.68.87,1.01,1.31,14.65,19.43,23.98,44.87,26.98,73.55,1.78,16.98.68,30.68-3.34,41.73h34.65c8.66-16.35,16.02-33.33,21.87-50.49-.24-.12-.49-.22-.73-.35-1.79-.94-3.35-2.36-4.7-4.07Z" fill="#81855c"/>
    <path d="M281.18,0h34.65c-2.62,4.95-5.35,9.85-8.21,14.67-.17.4-.67,1.14-.67,1.14-15.04,25.19-21.22,56.24-23.15,85.34-2.13,32.14-4.53,66.59,1.78,98.36,2.64,13.28,6.71,26.22,11.57,38.84,2.37,6.15,4.92,12.23,7.56,18.26,1.11,2.54,8.82,15.24,7.84,17.38,6.15-13.41,14.46-25.32,23.88-34.57,0,.12,0,.24.01.35.13,1.9.76,3.71,1.71,5.48.94,1.79,2.36,3.35,4.07,4.71,3.47,2.67,7.66,3.62,11.34,2.96.92-.16,1.8-.41,2.64-.75.85-.35,1.65-.8,2.4-1.33,1.16-.82,2.17-1.84,3.01-3.03.04.02.07.05.11.07-.61,1.32-.99,2.7-1.12,4.11-.17,1.8.05,3.66.69,5.37-8.97,7.52-17.59,19.48-22.96,32.53-5.33,12.95-6.8,25.31-4.11,33.7.92,2.37,1.81,4.78,2.69,7.2,8.3-13.83,20.24-25.4,34.92-31.9,6.35-2.81,13.56-5,17.51-10.71,2.9-4.18,3.47-9.52,3.72-14.59.04-.78.07-1.56.1-2.35.32.22.65.45.99.65.86.51,1.79.95,2.77,1.31.98.36,2.03.56,3.12.71,1.08.14,2.15.18,3.19.12,1.04-.08,2.05-.29,3.02-.56,1.93-.56,3.65-1.42,5.08-2.67,2.37-2.01,3.86-4.7,4.31-7.73h.32c.45,3.03,1.95,5.72,4.31,7.73,1.43,1.25,3.16,2.11,5.08,2.67.96.27,1.97.48,3.01.56,1.04.06,2.11.02,3.19-.12,1.08-.15,2.13-.35,3.12-.71.98-.36,1.91-.8,2.77-1.31.86-.51,1.65-1.08,2.36-1.73.7-.67,1.33-1.4,1.87-2.17,1.07-1.54,1.79-3.24,2.1-5.01.26-1.52.22-3.1-.1-4.67.03,0,.06-.02.09-.03,1.11,3.3,3.42,5.91,6.58,7.42,1.69.78,3.59,1.19,5.61,1.25,1.01.04,2.03-.07,3.05-.27,1.02-.2,2.05-.51,3.07-.91,2.02-.83,3.75-2.09,5.16-3.49,1.39-1.44,2.41-3.14,3.06-4.88.66-1.72.87-3.6.7-5.42-.17-1.82-.74-3.59-1.7-5.25.96,1.66,2.21,3.04,3.71,4.1.74.53,1.55.98,2.4,1.33.84.34,1.72.59,2.64.75,3.68.67,7.87-.29,11.34-2.96,1.71-1.35,3.14-2.91,4.07-4.71.95-1.78,1.58-3.59,1.71-5.48.31-3.76-.98-7.33-3.7-10.03,2.7,2.72,6.27,4,10.03,3.7,1.9-.13,3.71-.76,5.48-1.71,1.79-.94,3.35-2.36,4.71-4.07,2.67-3.47,3.62-7.66,2.96-11.34-.16-.92-.41-1.8-.75-2.64-.35-.85-.8-1.65-1.33-2.4-1.06-1.49-2.44-2.75-4.1-3.71,1.66.96,3.43,1.53,5.25,1.7,1.81.17,3.69-.05,5.42-.7,1.73-.65,3.44-1.67,4.88-3.06,1.4-1.41,2.66-3.14,3.49-5.16.4-1.02.71-2.05.91-3.07.2-1.02.32-2.04.27-3.05-.06-2.02-.48-3.92-1.25-5.61-1.63-3.42-4.55-5.87-8.25-6.84,1.85.49,3.73.59,5.53.28,1.78-.31,3.48-1.03,5.01-2.1.77-.54,1.49-1.16,2.17-1.87.65-.71,1.22-1.5,1.73-2.36.51-.86.95-1.79,1.31-2.77.36-.98.56-2.03.71-3.12.14-1.08.17-2.15.12-3.19-.08-1.04-.29-2.05-.56-3.01-.56-1.93-1.42-3.65-2.67-5.08-2.44-2.87-5.87-4.48-9.7-4.47,3.83.01,7.26-1.6,9.7-4.47,1.25-1.43,2.11-3.16,2.67-5.08.27-.96.48-1.97.56-3.02.06-1.04.02-2.11-.12-3.19-.15-1.08-.35-2.13-.71-3.12-.36-.98-.8-1.91-1.31-2.77-.51-.86-1.08-1.65-1.73-2.36-.67-.71-1.4-1.33-2.17-1.87-1.54-1.07-3.24-1.79-5.01-2.1-1.8-.31-3.68-.21-5.53.28,3.7-.98,6.62-3.43,8.25-6.84.31-.68.55-1.41.75-2.15,8.22-4.05,17.57-6.16,27.46-5.71,3.87.18,7.64.77,11.28,1.7v108.86c-4.46,1.14-9.12,1.75-13.93,1.75-5.31,0-10.76-.68-15.84-2.27-4.24-1.33-6.94-3.92-12.63,1.05-.78.68-1.5,1.44-2.2,2.21-7.38,8.25-14.95,16.26-23.11,23.57,10.61,3.35,19.63,8.36,27.22,13.88,9.78-9.65,23.38-15.45,38.32-14.92.73.03,1.45.07,2.17.13v103.52c-1.34.1-2.68.17-4.04.17-28.68,0-51.93-23.25-51.93-51.93,0-3.33.33-6.57.92-9.73-9.71-7.4-20.89-12.01-33.15-13.97-18.22-2.92-36.41-2.51-52.9,6.71-6.79,3.8-13.55,8.88-17.97,15.36-3.19,4.68-7.22,15.1,1.53,17.93,3.8,1.23,6.19-3.04,8.42-5.42,3.09-3.28,6.61-6.15,10.46-8.49,7.82-4.77,16.89-7.3,26.05-7.3,27.87,0,50.41,22.76,50.09,50.7-.77-.95-1.67-1.84-2.69-2.64-3.47-2.67-7.66-3.62-11.34-2.96-.92.16-1.8.41-2.64.75-.85.35-1.65.81-2.4,1.33-1.49,1.06-2.75,2.44-3.71,4.1.96-1.66,1.53-3.43,1.7-5.25.17-1.81-.05-3.69-.7-5.42-.65-1.73-1.67-3.44-3.06-4.88-1.41-1.4-3.14-2.66-5.16-3.49-1.02-.4-2.05-.71-3.07-.91-1.02-.2-2.04-.32-3.05-.27-2.01.06-3.92.48-5.61,1.25-3.42,1.64-5.87,4.55-6.84,8.25.49-1.85.59-3.73.28-5.53-.31-1.78-1.03-3.48-2.1-5.01-.54-.77-1.16-1.49-1.87-2.17-.71-.65-1.5-1.22-2.36-1.73-.86-.51-1.79-.95-2.77-1.31-.98-.36-2.03-.56-3.12-.71-1.08-.14-2.15-.18-3.19-.12-1.04.08-2.05.29-3.02.56-1.93.56-3.65,1.42-5.08,2.67-2.87,2.44-4.48,5.87-4.47,9.7.01-3.83-1.6-7.26-4.47-9.7-1.43-1.25-3.16-2.11-5.08-2.67-.96-.27-1.97-.48-3.02-.56-1.04-.06-2.11-.02-3.19.12-1.08.15-2.13.35-3.12.71-.98.36-1.91.8-2.77,1.31-.86.51-1.65,1.08-2.36,1.73-.7.67-1.33,1.4-1.87,2.17-1.07,1.54-1.79,3.24-2.1,5.01-.31,1.8-.21,3.68.28,5.53-.98-3.7-3.43-6.62-6.84-8.25-1.69-.78-3.59-1.19-5.61-1.25-1.01-.04-2.03.07-3.05.27-1.02.2-2.05.51-3.07.91-2.02.83-3.75,2.09-5.16,3.49-1.39,1.44-2.41,3.14-3.06,4.88-.66,1.72-.87,3.61-.7,5.42.17,1.78.73,3.52,1.65,5.15,0,0,0,0-.01,0-.95-1.62-2.18-2.97-3.65-4.01-.74-.53-1.55-.98-2.4-1.33-.84-.34-1.72-.59-2.64-.75-3.68-.67-7.87.29-11.34,2.96-1.71,1.35-3.14,2.92-4.07,4.71-.95,1.78-1.58,3.59-1.71,5.48-.31,3.76.98,7.33,3.7,10.03-2.7-2.72-6.27-4-10.03-3.7-1.9.13-3.71.76-5.48,1.71-1.79.94-3.35,2.36-4.7,4.07-2.67,3.47-3.62,7.66-2.96,11.34.16.92.41,1.8.75,2.64.35.85.81,1.65,1.33,2.4,1.05,1.48,2.42,2.73,4.06,3.68,0,0,0,0,0,0-1.65-.94-3.41-1.51-5.21-1.68-1.81-.17-3.69.05-5.42.7-1.34.5-2.66,1.23-3.86,2.18,0-.02,0-.03,0-.05-3.12-17.84-8.12-34.24-14.01-49.79-.27-.67-.54-1.33-.78-2.01-5.74-14.9-12.25-29.04-18.67-42.95-4.32-9.36-8.64-18.73-12.67-28.22-.35-.82-.68-1.65-1.03-2.47-3.7,8.86-9.66,16.53-17.17,22.3-.76-1.35-1.7-2.54-2.71-3.57-1.44-1.39-3.14-2.41-4.88-3.06-1.72-.66-3.6-.87-5.42-.7-1.82.17-3.59.74-5.25,1.7,1.66-.96,3.04-2.21,4.1-3.71.53-.74.98-1.55,1.33-2.4.34-.84.59-1.72.75-2.64.67-3.68-.29-7.87-2.96-11.34-1.35-1.71-2.91-3.14-4.7-4.07-1.78-.95-3.59-1.58-5.48-1.71-3.76-.31-7.33.98-10.03,3.7,2.72-2.7,4-6.27,3.7-10.03-.13-1.9-.76-3.71-1.71-5.48-.94-1.79-2.36-3.35-4.07-4.71-3.47-2.67-7.66-3.62-11.34-2.96-.92.16-1.8.41-2.64.75-.85.35-1.65.8-2.4,1.33-1.49,1.06-2.75,2.44-3.71,4.1.96-1.66,1.53-3.43,1.7-5.25.17-1.81-.05-3.69-.7-5.42-.65-1.73-1.67-3.44-3.06-4.88-1.41-1.4-3.14-2.66-5.16-3.49-1.02-.4-2.05-.71-3.07-.91-1.02-.2-2.04-.32-3.05-.27-2.01.06-3.92.48-5.61,1.25-3.42,1.63-5.87,4.55-6.84,8.25.49-1.85.59-3.73.28-5.53-.17-.99-.49-1.96-.91-2.89,8.13-19.95,27.71-34.02,50.59-34.02,11.74,0,22.61,3.72,31.51,10.02-1.03-6.76-1.78-13.6-2.22-20.55-1.26-20.08-1.88-41.4-.82-62.79.3-.09.6-.17.9-.28,1.73-.65,3.44-1.67,4.88-3.06,1.4-1.41,2.66-3.14,3.49-5.16.4-1.02.71-2.05.91-3.07.2-1.02.32-2.04.27-3.05-.06-2.02-.48-3.92-1.25-5.61-1.43-2.99-3.85-5.25-6.92-6.41,0-.05.01-.09.02-.14,1.41.23,2.81.23,4.17,0,1.78-.31,3.48-1.03,5.01-2.1.77-.54,1.49-1.16,2.17-1.87.65-.71,1.22-1.5,1.73-2.36.51-.86.95-1.79,1.31-2.77.36-.98.56-2.03.71-3.12.14-1.08.18-2.15.12-3.19-.08-1.04-.29-2.05-.57-3.01-.56-1.93-1.42-3.65-2.67-5.08-1.88-2.21-4.36-3.67-7.15-4.22.04-.18.09-.35.13-.53,2.74-.57,5.17-2.02,7.02-4.2,1.25-1.43,2.11-3.16,2.67-5.08.27-.96.48-1.97.57-3.02.06-1.04.02-2.11-.12-3.19-.15-1.08-.35-2.13-.71-3.12-.36-.98-.8-1.91-1.31-2.77-.42-.7-.88-1.34-1.38-1.94-.12-.14-.22-.29-.35-.43-.67-.7-1.4-1.33-2.17-1.87-1.54-1.07-3.24-1.79-5.01-2.1-1.02-.18-2.07-.21-3.13-.12-.06-.14-.12-.28-.18-.42,2.65-1.24,4.74-3.33,6.04-6.02.78-1.69,1.19-3.59,1.25-5.61.04-1.01-.07-2.03-.27-3.05-.2-1.02-.51-2.05-.91-3.07-.83-2.02-2.09-3.75-3.49-5.16-1.44-1.39-3.14-2.41-4.88-3.06-1.72-.66-3.6-.87-5.42-.7-1.82.17-3.59.74-5.25,1.7,1.53-.89,2.82-2.04,3.84-3.38h35.26Z" fill="#81855c"/>
    <path d="M469.06,246.35c.08.13.17.25.25.39-.08-.14-.14-.28-.21-.41-.01,0-.03.02-.04.03Z" fill="#81855c"/>
    <path d="M455.52,336.81c.08-.59.18-1.17.34-1.76-.16.59-.36,1.14-.58,1.69.08.02.16.05.24.07Z" fill="#81855c"/>
    <path d="M507.91,207.27c.19.1.39.19.58.3-.19-.11-.36-.24-.54-.35-.01.02-.02.04-.03.06Z" fill="#81855c"/>
    <path d="M490.82,229.14c.23.2.45.39.67.6-.21-.22-.41-.44-.6-.67-.02.02-.04.04-.07.06Z" fill="#81855c"/>
    <path d="M518.12,126.72c.35-.12.71-.25,1.07-.35-.37.1-.74.17-1.11.24.01.04.02.07.04.11Z" fill="#81855c"/>
    <path d="M74.27,548.62c-.18-.16-.36-.31-.54-.48.17.17.32.36.48.53.02-.02.04-.03.05-.05Z" fill="#81855c"/>
    <path d="M223.19,550.48c.54-.83,1.16-1.62,1.89-2.34-.73.73-1.52,1.35-2.35,1.89.16.15.31.3.47.45Z" fill="#81855c"/>
    <path d="M96.51,532.07c-.21-.3-.42-.61-.6-.93.19.32.35.65.51.98.03-.02.06-.04.1-.05Z" fill="#81855c"/>
    <path d="M201.78,533.62c.29-.85.66-1.68,1.13-2.48-.46.8-1,1.54-1.58,2.21.15.09.3.18.45.27Z" fill="#81855c"/>
    <path d="M480.53,348.24c.29-.85.67-1.68,1.13-2.48-.46.8-1,1.54-1.58,2.21.15.09.3.18.45.27Z" fill="#81855c"/>
    <path d="M198.96,423.07c.08.13.17.25.25.39-.08-.14-.14-.28-.21-.41-.01,0-.03.02-.04.03Z" fill="#81855c"/>
    <path d="M521.92,154.12c.3-.02.61-.05.91-.05-.31,0-.61-.03-.92-.05,0,.03,0,.06,0,.09Z" fill="#81855c"/>
    <path d="M428.21,332.34c-.02-.31-.05-.62-.05-.93,0,.31-.03.62-.05.93.03,0,.06,0,.1,0Z" fill="#81855c"/>
    <path d="M237.8,383.99c.19.1.39.19.58.3-.19-.11-.36-.24-.54-.35-.01.02-.02.04-.03.06Z" fill="#81855c"/>
    <path d="M220.71,405.86c.23.2.45.39.67.6-.21-.22-.41-.44-.6-.67-.02.02-.04.04-.07.07Z" fill="#81855c"/>
    <path d="M353.02,363.23c-.18-.16-.36-.31-.54-.48.17.17.32.36.48.53.02-.02.04-.03.05-.05Z" fill="#81855c"/>
    <path d="M322,466.56c-.71.04-1.42,0-2.12-.09-.16.87-.34,1.75-.51,2.62.81-.75,1.71-1.4,2.7-1.92,0-.21-.03-.41-.07-.61Z" fill="#81855c"/>
    <path d="M518.97,181.72c.07.02.15.03.22.05-.07-.02-.14-.05-.22-.07,0,0,0,.01,0,.02Z" fill="#81855c"/>
    <path d="M400.72,335.85c-.09-.27-.19-.53-.26-.81.07.28.12.55.18.83.03,0,.06-.02.08-.02Z" fill="#81855c"/>
    <path d="M4.98,350.51c.49-.09.97-.16,1.45-.26.38-.08.75-.17,1.13-.26.46-.11.93-.2,1.39-.32.39-.1.77-.22,1.16-.33.44-.12.88-.24,1.31-.37.39-.12.77-.26,1.16-.39.42-.14.84-.28,1.26-.43.38-.14.75-.29,1.12-.44.41-.16.83-.32,1.24-.49.37-.16.73-.33,1.1-.5.4-.18.81-.35,1.2-.55.36-.17.72-.37,1.07-.55.39-.2.78-.39,1.17-.6.36-.19.7-.4,1.05-.61.37-.22.75-.42,1.12-.65.35-.21.69-.44,1.03-.66.36-.23.72-.45,1.08-.69.32-.22.64-.45.96-.68.09-.47.2-.93.33-1.39.56-1.93,1.42-3.65,2.67-5.08,1.91-2.25,4.44-3.72,7.29-4.24,0-.01,0-.02,0-.03,0-.14,0-.28.01-.43-2.85-.53-5.39-1.99-7.3-4.24-1.25-1.43-2.11-3.16-2.67-5.08-.27-.96-.48-1.97-.56-3.01-.06-1.04-.02-2.11.12-3.19.15-1.08.35-2.13.71-3.12.36-.98.8-1.91,1.31-2.77.51-.86,1.08-1.65,1.73-2.36.67-.7,1.4-1.33,2.17-1.87,1.54-1.07,3.24-1.79,5.01-2.1,1.25-.21,2.53-.22,3.82-.05.03-.08.05-.15.07-.23-2.92-1.2-5.23-3.39-6.62-6.28-.78-1.69-1.19-3.59-1.25-5.61-.04-1.01.07-2.03.27-3.05.2-1.02.51-2.05.91-3.07.83-2.02,2.09-3.75,3.49-5.16,1.44-1.39,3.14-2.41,4.88-3.06,0,0,.02,0,.03,0,.02,0,.04-.01.06-.02-6.76-13.58-19.3-23.77-34.4-27.38-.13-.03-.27-.06-.4-.09-.64-.15-1.28-.28-1.92-.41-.27-.05-.55-.1-.83-.15-.53-.09-1.05-.18-1.58-.25-.38-.05-.77-.1-1.15-.15-.45-.05-.89-.11-1.35-.15-.28-.03-.55-.05-.83-.07v103.52H0c.43-.03.85-.05,1.28-.1.33-.03.66-.09,1-.13.54-.07,1.07-.12,1.6-.2.37-.06.74-.13,1.11-.2Z" fill="#81855c"/>
    <path d="M42.19,165.14C41.05,140.22,23.39,119.38,0,113.37v108.86c25.11-6.41,43.45-29.71,42.2-57.09Z" fill="#81855c"/>
    <path d="M496.31,34.5c23.06,0,42.76-14.29,50.78-34.5h-101.56c8.01,20.2,27.72,34.5,50.78,34.5Z" fill="#81855c"/>
    <path d="M117.06,197.73c17.55,0,33.16-8.29,43.16-21.16-.42-.09-.85-.19-1.25-.3-1.93-.56-3.65-1.42-5.08-2.67-2.37-2.01-3.86-4.7-4.31-7.73h-.32c-.45,3.03-1.95,5.72-4.31,7.73-1.43,1.25-3.16,2.11-5.08,2.67-.96.27-1.97.48-3.01.56-1.04.06-2.11.02-3.19-.12-1.08-.15-2.13-.35-3.12-.71-.98-.36-1.91-.8-2.77-1.31-.86-.51-1.65-1.08-2.36-1.73-.7-.67-1.33-1.4-1.87-2.17-1.07-1.54-1.79-3.24-2.1-5.01-.21-1.2-.22-2.44-.06-3.68-.09-.03-.18-.06-.28-.08-1.21,2.86-3.38,5.12-6.23,6.49-1.69.78-3.59,1.19-5.61,1.25-1.01.04-2.03-.07-3.05-.27-1.02-.2-2.05-.51-3.07-.91-2.02-.83-3.75-2.09-5.16-3.49-1.39-1.44-2.41-3.14-3.06-4.88-.66-1.72-.87-3.6-.7-5.42.13-1.41.51-2.79,1.12-4.11-.04-.02-.07-.05-.11-.07-.84,1.19-1.85,2.21-3.01,3.03-.74.53-1.55.98-2.4,1.33-.84.34-1.72.59-2.64.75-3.68.67-7.87-.29-11.34-2.96-1.71-1.35-3.14-2.92-4.07-4.7-.95-1.78-1.58-3.59-1.71-5.48-.27-3.31.7-6.47,2.78-9.02-.03-.03-.06-.06-.1-.1-2.55,2.09-5.71,3.05-9.02,2.78-.27-.02-.54-.07-.81-.11-.29,2.28-.46,4.6-.46,6.96,0,30.17,24.46,54.62,54.62,54.62Z" fill="#81855c"/>
    <path d="M37.8,103.34c-.03-.06-.06-.12-.09-.19-.4-1.02-.71-2.05-.91-3.07-.2-1.02-.32-2.04-.27-3.05.06-2.02.48-3.92,1.25-5.61,1.21-2.53,3.13-4.53,5.54-5.79,0-.21-.03-.41-.07-.61-.93.05-1.85,0-2.75-.16-1.78-.31-3.48-1.03-5.01-2.1-.77-.54-1.49-1.16-2.17-1.87-.65-.71-1.22-1.5-1.73-2.36-.51-.86-.95-1.79-1.31-2.77-.36-.98-.56-2.03-.71-3.12-.14-1.08-.17-2.15-.12-3.19.08-1.04.29-2.05.57-3.01.56-1.93,1.42-3.65,2.67-5.08,1.91-2.25,4.44-3.72,7.29-4.24,0-.01,0-.02,0-.03,0-.14,0-.28.01-.43-2.85-.52-5.39-1.99-7.3-4.24-1.25-1.43-2.11-3.16-2.67-5.08-.27-.96-.48-1.97-.57-3.02-.06-1.04-.02-2.11.12-3.19.15-1.08.35-2.13.71-3.12.36-.98.8-1.91,1.31-2.77.51-.86,1.08-1.65,1.73-2.36.67-.7,1.4-1.33,2.17-1.87,1.54-1.07,3.24-1.79,5.01-2.1,1.25-.21,2.53-.22,3.82-.05.03-.08.05-.15.07-.23-2.92-1.2-5.23-3.39-6.62-6.28-.78-1.69-1.19-3.59-1.25-5.61-.04-1.01.07-2.03.27-3.05.2-1.02.51-2.05.91-3.07.83-2.02,2.09-3.75,3.49-5.16,1.44-1.39,3.14-2.41,4.88-3.06,1.72-.66,3.6-.87,5.42-.7,1.8.17,3.56.73,5.21,1.68,0,0,0,0,0,0-1.28-.75-2.4-1.68-3.32-2.76C27.17,4.49,7.06,27.08,7.06,54.37c0,21.56,12.55,40.18,30.74,48.98Z" fill="#81855c"/>
    <path d="M324.63,76.41c1.78-.95,3.59-1.58,5.48-1.71,3.76-.31,7.33.98,10.03,3.7-2.72-2.7-4-6.27-3.7-10.03.13-1.9.76-3.71,1.71-5.48.94-1.79,2.36-3.35,4.07-4.7,3.47-2.67,7.66-3.62,11.34-2.96.92.16,1.8.41,2.64.75.85.35,1.65.81,2.4,1.33,1.49,1.06,2.75,2.44,3.71,4.1-.96-1.66-1.53-3.43-1.7-5.25-.17-1.81.05-3.69.7-5.42.65-1.73,1.67-3.44,3.06-4.88,1.41-1.4,3.14-2.66,5.16-3.49,1.02-.4,2.05-.71,3.07-.91,1.02-.2,2.04-.32,3.05-.27,2.01.06,3.92.48,5.61,1.25,3.41,1.63,5.87,4.55,6.84,8.25-.49-1.85-.59-3.73-.28-5.53.31-1.78,1.03-3.48,2.1-5.01.54-.77,1.16-1.49,1.87-2.17.71-.65,1.5-1.22,2.36-1.73.86-.51,1.79-.95,2.77-1.31.98-.36,2.03-.56,3.12-.71,1.08-.14,2.15-.18,3.19-.12,1.04.08,2.05.29,3.02.56,1.93.56,3.65,1.42,5.08,2.67,2.87,2.44,4.48,5.87,4.47,9.7,0-2.57.73-4.96,2.08-6.99-9.99-12.92-25.63-21.25-43.23-21.25-30.17,0-54.62,24.45-54.62,54.62,0,2.18.14,4.33.39,6.45,1.23-1.44,2.62-2.65,4.19-3.48Z" fill="#81855c"/>
    <path d="M415.86,47.98c-.02-.31-.05-.62-.05-.93,0,.31-.03.62-.05.93.03,0,.06,0,.1,0Z" fill="#81855c"/>
    <path d="M388.37,51.5c-.09-.27-.19-.53-.26-.81.07.28.12.55.18.83.03,0,.06-.02.08-.02Z" fill="#81855c"/>
    <path d="M362.91,62.33c-.21-.3-.42-.61-.6-.93.19.32.35.65.51.98.03-.02.06-.04.1-.05Z" fill="#81855c"/>
    <path d="M340.68,78.88c-.18-.16-.36-.31-.54-.48.17.17.32.36.48.53.02-.02.04-.03.05-.05Z" fill="#81855c"/>
    <path d="M503.16,513.49c.23.2.45.39.67.6-.21-.22-.41-.44-.6-.67-.02.02-.04.04-.07.07Z" fill="#81855c"/>
    <path d="M481.41,530.71c.08.13.17.25.25.39-.08-.14-.14-.28-.21-.41-.01,0-.03.02-.04.03Z" fill="#81855c"/>
    <path d="M527.14,501.72c.33,3.41-.67,7.15-3.09,10.3-1.35,1.71-2.91,3.14-4.7,4.07-1.78.95-3.59,1.58-5.48,1.71-3.76.31-7.33-.98-10.03-3.7,2.72,2.7,4,6.27,3.7,10.03-.13,1.9-.76,3.71-1.71,5.48-.94,1.79-2.36,3.35-4.07,4.71-3.47,2.67-7.66,3.62-11.34,2.96-.92-.16-1.8-.41-2.64-.75-.85-.35-1.65-.81-2.4-1.33-1.49-1.06-2.75-2.44-3.71-4.1.96,1.66,1.53,3.43,1.7,5.25.17,1.81-.05,3.69-.7,5.42-.65,1.73-1.67,3.44-3.06,4.88-1.41,1.4-3.14,2.66-5.16,3.49-1.02.4-2.05.71-3.07.91-1.02.2-2.04.32-3.05.27-2.01-.06-3.92-.48-5.61-1.25-3.15-1.51-5.47-4.12-6.58-7.42-.03,0-.06.02-.09.03.31,1.57.36,3.15.1,4.67-.31,1.78-1.03,3.48-2.1,5.01-.54.77-1.16,1.49-1.87,2.17-.71.65-1.5,1.22-2.36,1.73-.86.51-1.79.95-2.77,1.31-.98.36-2.03.56-3.12.71-.34.04-.67.06-1,.08.64,2.96,1.52,5.83,2.61,8.59h101.56c2.47-6.23,3.84-13.01,3.84-20.12,0-18.73-9.43-35.25-23.79-45.09Z" fill="#81855c"/>
    <path d="M219.5,257.46c.54-.83,1.16-1.62,1.89-2.34-.73.73-1.52,1.35-2.35,1.89.16.15.31.3.47.45Z" fill="#81855c"/>
    <path d="M198.08,240.6c.29-.85.66-1.68,1.13-2.48-.46.8-1,1.54-1.58,2.21.15.09.3.18.45.27Z" fill="#81855c"/>
    <path d="M236.13,278.9c.68-.6,1.43-1.14,2.25-1.61-.83.48-1.68.86-2.55,1.16.1.15.2.3.3.46Z" fill="#81855c"/>
    <path d="M173.07,229.17c.08-.59.18-1.17.34-1.76-.16.59-.36,1.14-.58,1.69.08.02.16.05.24.07Z" fill="#81855c"/>
    <polygon points="82.63 515.97 119.71 505.42 140.8 497.75 172.13 500.95 191.31 506.86 209.53 515.97 200.9 542.18 143.04 550.81 91.26 544.1 82.63 515.97" fill="#81855c"/>
  </g>
  <g id="zone-3">
    <path d="M501.75,342.53c-3.47-2.67-7.66-3.62-11.34-2.96-.92.16-1.8.41-2.64.75-.85.35-1.65.81-2.4,1.33-1.49,1.06-2.75,2.44-3.71,4.1-.47.81-.84,1.64-1.13,2.48-.15-.09-.3-.18-.45-.27.58-.67,1.12-1.41,1.58-2.21.96-1.66,1.53-3.43,1.7-5.25.17-1.81-.05-3.69-.7-5.42-.65-1.73-1.67-3.44-3.06-4.88-1.41-1.4-3.14-2.66-5.16-3.49-1.02-.4-2.05-.71-3.07-.91-1.02-.2-2.04-.32-3.05-.27-2.01.06-3.92.48-5.61,1.25-3.42,1.63-5.87,4.55-6.84,8.25-.16.59-.26,1.17-.34,1.76-.08-.02-.16-.05-.24-.07.22-.54.42-1.1.58-1.69.49-1.85.59-3.73.28-5.53-.31-1.78-1.03-3.48-2.1-5.01-.54-.77-1.16-1.49-1.87-2.17-.71-.65-1.5-1.22-2.36-1.73-.86-.51-1.79-.95-2.77-1.31-.98-.36-2.03-.56-3.12-.71-1.08-.14-2.15-.17-3.19-.12-1.04.08-2.05.29-3.02.56-1.93.56-3.65,1.42-5.08,2.67-2.87,2.44-4.48,5.87-4.47,9.7,0,.31.03.62.05.93-.03,0-.06,0-.1,0,.02-.31.05-.62.05-.93.01-3.83-1.6-7.26-4.47-9.7-1.43-1.25-3.16-2.11-5.08-2.67-.96-.27-1.97-.48-3.02-.56-1.04-.06-2.11-.02-3.19.12-1.08.15-2.13.35-3.12.71-.98.36-1.91.8-2.77,1.31-.86.51-1.65,1.08-2.36,1.73-.7.67-1.33,1.4-1.87,2.17-1.07,1.54-1.79,3.24-2.1,5.01-.31,1.8-.21,3.68.28,5.53.07.28.17.54.26.81-.03,0-.06.02-.08.02-.06-.28-.1-.55-.18-.83-.98-3.7-3.43-6.62-6.84-8.25-1.69-.78-3.59-1.19-5.61-1.25-1.01-.05-2.03.07-3.05.27-1.02.2-2.05.51-3.07.91-2.02.83-3.75,2.09-5.16,3.49-1.39,1.44-2.41,3.14-3.06,4.88-.66,1.72-.87,3.6-.7,5.42.17,1.78.73,3.52,1.65,5.15.02.03.03.06.05.1.19.32.39.63.6.93-.03.02-.07.04-.1.05-.16-.33-.32-.66-.51-.98-.02-.03-.04-.06-.06-.09-.95-1.62-2.18-2.97-3.65-4.01-.74-.53-1.55-.98-2.4-1.33-.84-.34-1.72-.59-2.64-.75-3.68-.67-7.87.29-11.34,2.96-1.71,1.35-3.14,2.92-4.07,4.71-.95,1.78-1.58,3.59-1.71,5.48-.31,3.76.98,7.33,3.7,10.03.17.17.36.32.54.48-.02.02-.04.03-.05.05-.16-.18-.31-.36-.48-.53-2.7-2.72-6.27-4-10.03-3.7-1.9.13-3.71.76-5.48,1.71-1.79.94-3.35,2.36-4.7,4.07-2.67,3.47-3.62,7.66-2.96,11.34.16.92.41,1.8.75,2.64.35.85.81,1.65,1.33,2.4,1.05,1.48,2.42,2.72,4.06,3.68,0,0,0,0,0,0-1.65-.95-3.41-1.51-5.21-1.68-1.81-.17-3.69.05-5.42.7-1.34.5-2.66,1.23-3.86,2.18-.35.28-.69.57-1.02.88-1.4,1.41-2.66,3.14-3.49,5.16-.4,1.02-.71,2.05-.91,3.07-.21,1.02-.32,2.04-.27,3.05.06,2.01.48,3.92,1.25,5.61,1.39,2.89,3.7,5.08,6.62,6.28-.02.08-.05.16-.07.23-1.29-.17-2.57-.16-3.82.05-1.78.31-3.48,1.03-5.01,2.1-.77.54-1.49,1.16-2.17,1.87-.65.71-1.22,1.5-1.73,2.36-.51.86-.95,1.79-1.31,2.77-.36.98-.56,2.03-.71,3.12-.14,1.08-.17,2.15-.12,3.19.08,1.04.29,2.05.56,3.01.56,1.93,1.42,3.65,2.67,5.08,1.91,2.25,4.45,3.72,7.3,4.24,0,.14,0,.28-.01.43,0,.01,0,.02,0,.03-2.85.53-5.38,1.99-7.29,4.24-1.25,1.43-2.11,3.16-2.67,5.08-.27.96-.48,1.97-.56,3.02-.06,1.04-.02,2.11.12,3.19.15,1.08.35,2.13.71,3.12.36.98.8,1.91,1.31,2.77.51.86,1.08,1.65,1.73,2.36.67.7,1.4,1.33,2.17,1.87,1.54,1.07,3.24,1.79,5.01,2.1.21.04.42.05.63.07.7.08,1.41.13,2.12.09.04.2.07.4.07.61-.99.52-1.89,1.17-2.7,1.92-1.16,1.08-2.12,2.38-2.84,3.87-.78,1.69-1.19,3.59-1.25,5.61-.04,1.01.07,2.03.27,3.05.14.69.34,1.38.57,2.07.11.33.21.67.34,1,.83,2.02,2.09,3.75,3.49,5.16,1.44,1.39,3.14,2.41,4.88,3.06,1.72.66,3.6.87,5.42.7,1.14-.11,2.27-.39,3.36-.81.07.1.13.2.2.3-.92.74-1.73,1.58-2.4,2.52-.53.74-.98,1.55-1.33,2.4-.34.84-.59,1.72-.75,2.64-.67,3.68.29,7.87,2.96,11.34,1.35,1.71,2.91,3.14,4.7,4.07.24.13.48.24.73.35,1.54.74,3.12,1.25,4.76,1.35,3.31.27,6.47-.7,9.02-2.78.03.03.06.06.1.1-2.09,2.55-3.05,5.71-2.78,9.02.13,1.9.76,3.71,1.71,5.48.94,1.79,2.36,3.35,4.07,4.71,3.47,2.67,7.66,3.62,11.34,2.96.92-.16,1.8-.41,2.64-.75.85-.35,1.65-.81,2.4-1.33,1.16-.82,2.17-1.84,3.01-3.03.04.02.07.05.11.07-.61,1.32-.99,2.7-1.12,4.11-.17,1.81.05,3.69.7,5.42.65,1.73,1.67,3.44,3.06,4.88,1.41,1.4,3.14,2.66,5.16,3.49,1.02.4,2.05.71,3.07.91,1.02.2,2.04.32,3.05.27,2.01-.06,3.92-.48,5.61-1.25,2.85-1.36,5.01-3.63,6.22-6.49.09.03.18.06.28.08-.15,1.24-.14,2.48.06,3.68.31,1.78,1.03,3.48,2.1,5.01.54.77,1.16,1.49,1.87,2.17.71.65,1.5,1.22,2.36,1.73.86.51,1.79.95,2.77,1.31.98.36,2.03.56,3.12.71,1.08.14,2.15.17,3.19.12,1.04-.08,2.05-.29,3.02-.56,1.93-.56,3.65-1.42,5.08-2.67,2.37-2.01,3.86-4.7,4.31-7.73h.32c.45,3.03,1.95,5.72,4.31,7.73,1.43,1.25,3.16,2.11,5.08,2.67.96.27,1.97.48,3.02.56.72.04,1.45.02,2.19-.04.33-.02.67-.04,1-.08,1.08-.15,2.13-.35,3.12-.71.98-.36,1.91-.8,2.77-1.31.86-.51,1.65-1.08,2.36-1.73.7-.67,1.33-1.4,1.87-2.17,1.07-1.54,1.79-3.24,2.1-5.01.26-1.52.22-3.1-.1-4.67.03,0,.06-.02.09-.03,1.11,3.3,3.42,5.91,6.58,7.42,1.69.78,3.59,1.19,5.61,1.25,1.01.04,2.03-.07,3.05-.27,1.02-.2,2.05-.51,3.07-.91,2.02-.83,3.75-2.09,5.16-3.49,1.39-1.44,2.41-3.14,3.06-4.88.66-1.72.87-3.6.7-5.42-.17-1.82-.74-3.59-1.7-5.25-.08-.13-.17-.26-.25-.39.01,0,.03-.02.04-.03.07.14.13.28.21.41.96,1.66,2.21,3.04,3.71,4.1.74.53,1.55.98,2.4,1.33.84.34,1.72.59,2.64.75,3.68.67,7.87-.29,11.34-2.96,1.71-1.35,3.14-2.92,4.07-4.71.95-1.78,1.58-3.59,1.71-5.48.31-3.76-.98-7.33-3.7-10.03-.22-.21-.44-.41-.67-.6.02-.02.04-.04.07-.07.2.23.39.45.6.67,2.7,2.72,6.27,4,10.03,3.7,1.9-.13,3.71-.76,5.48-1.71,1.79-.94,3.35-2.36,4.7-4.07,2.42-3.15,3.42-6.88,3.09-10.3-.03-.35-.07-.7-.13-1.05-.16-.92-.41-1.8-.75-2.64-.35-.85-.81-1.65-1.33-2.4-1.06-1.49-2.44-2.75-4.1-3.71-.19-.11-.39-.2-.58-.3.01-.02.02-.04.03-.06.18.12.36.24.54.35,1.66.96,3.43,1.53,5.25,1.7,1.81.17,3.69-.05,5.42-.7,1.73-.65,3.44-1.67,4.88-3.06,1.4-1.41,2.66-3.14,3.49-5.16.4-1.02.71-2.05.91-3.07.21-1.02.32-2.04.27-3.05-.06-2.01-.48-3.92-1.25-5.61-1.63-3.42-4.55-5.87-8.25-6.84-.07-.02-.15-.03-.22-.05,0,0,0-.01,0-.02.07.02.14.05.22.07,1.85.49,3.73.59,5.53.28,1.78-.31,3.48-1.03,5.01-2.1.77-.54,1.49-1.16,2.17-1.87.65-.71,1.22-1.5,1.73-2.36.51-.86.95-1.79,1.31-2.77.36-.98.56-2.03.71-3.12.14-1.08.17-2.15.12-3.19-.08-1.04-.29-2.05-.56-3.02-.56-1.93-1.42-3.65-2.67-5.08-2.44-2.87-5.87-4.48-9.7-4.47-.31,0-.61.03-.91.05,0-.03,0-.06,0-.09.3.02.61.05.92.05,3.83.01,7.26-1.6,9.7-4.47,1.25-1.43,2.11-3.16,2.67-5.08.27-.96.48-1.97.56-3.01.06-1.04.02-2.11-.12-3.19-.15-1.08-.35-2.13-.71-3.12-.36-.98-.8-1.91-1.31-2.77-.51-.86-1.08-1.65-1.73-2.36-.67-.7-1.4-1.33-2.17-1.87-1.54-1.07-3.24-1.79-5.01-2.1-1.8-.31-3.68-.21-5.53.28-.37.1-.72.22-1.07.35-.01-.04-.02-.07-.04-.11.37-.07.74-.14,1.11-.24,3.7-.98,6.62-3.43,8.25-6.84.78-1.69,1.19-3.59,1.25-5.61.04-1.01-.07-2.03-.27-3.05-.2-1.02-.51-2.05-.91-3.07-.83-2.02-2.09-3.75-3.49-5.16-1.44-1.39-3.14-2.41-4.88-3.06-1.72-.66-3.6-.87-5.42-.7-1.82.17-3.59.74-5.25,1.7-.82.47-1.56,1.02-2.25,1.61-.1-.15-.2-.3-.3-.46.87-.3,1.72-.68,2.55-1.16,1.66-.96,3.04-2.21,4.1-3.71.53-.74.98-1.55,1.33-2.4.34-.84.59-1.72.75-2.64.67-3.68-.29-7.87-2.96-11.34-1.35-1.71-2.92-3.14-4.7-4.07-1.78-.95-3.59-1.58-5.48-1.71-3.76-.31-7.33.98-10.03,3.7-.72.73-1.35,1.52-1.89,2.34-.15-.15-.31-.3-.47-.45.83-.54,1.62-1.17,2.35-1.89,2.72-2.7,4-6.27,3.7-10.03-.13-1.9-.76-3.71-1.71-5.48-.38-.73-.86-1.41-1.39-2.06-.77-.95-1.67-1.84-2.69-2.64ZM504.92,396.12c.17.25.92.92,1.14,1.28.37.6.88,1.61,1.26,2.32,2.76,5.1,5.18,11.34,6.95,16.84.1.32.35,1.17.42,1.47,1.47,6.17,2.05,13.08,2.11,19.37,0,.7,0,1.41,0,2.11-.04,6.2-.66,12.86-2.11,18.95-.13.54-.28,1.44-.42,1.89-1.75,5.52-4.21,11.72-6.95,16.84-.61,1.13-1.66,3.26-2.32,4.21-.05.07-.41.09-.49.19-1.45,1.93-2.73,3.96-4.13,6.03-1.84,2.73-3.7,5.43-5.91,7.89-.88.98-1.81,2.01-2.74,2.95-3.73,3.8-8.13,7.5-12.42,10.74-1.32,1-2.76,1.85-4,2.95-.95.1-3.62,2.16-4.7,2.77-2.38,1.34-6.35,2.9-8.35,4.39-1.54.65-3.06,1.32-4.63,1.89-4.97,1.82-11.66,3.91-16.84,4.84-1.41.25-3,.5-4.42.63-.79.07-2.37.21-3.05.21h-10.32c-.68,0-2.27-.14-3.05-.21-1.29-.12-3.13-.4-4.42-.63-5.13-.91-11.93-3.03-16.84-4.84-1.25-.46-2.57-.92-3.79-1.47-2.26-1.03-5.1-2.54-7.3-3.75-.98-.54-6.38-4.06-6.81-4.04-1.21-1.06-2.73-1.77-4-2.74-3.58-2.73-8.01-6.57-11.16-9.79-.41-.41-.3-1.17-1.26-1.16-.74-.99-1.72-1.81-2.53-2.74-3.76-4.29-8.08-10.41-11.16-15.16-.44-.68-1.53-2.47-1.89-3.16-1.38-2.64-2.8-5.99-3.89-8.85-.66-1.72-1.64-6.1-2.63-7.15.1-.97-.43-1.81-.63-2.74-1.33-6.16-2.18-12.61-2.11-18.95,0-.7,0-1.41,0-2.11.09-6.36.75-12.7,2.11-18.95.2-.92.73-1.77.63-2.74.96-1.01,1.11-2.85,1.59-4.2,1.4-3.96,3.14-8.11,5.15-11.8.53-.96,1.11-2.02,1.68-2.95.6-.97,1.6-2.05,2.2-2.96,2.76-4.2,5.53-8.53,8.96-12.41.87-.98,1.82-2.01,2.74-2.95,3.52-3.6,7.94-7.43,12-10.53.97-.74,2.13-1.62,3.16-2.32,4.52-3.06,10.34-6.13,15.37-8.42,1.12-.51,2.49-1.28,3.58-1.68,4.56-1.69,12.05-3.82,16.84-4.63,1.02-.17,2.13-.3,3.16-.42,5.9-.68,13.01-.62,18.95,0,.97.1,2.2.25,3.16.42,4.88.85,12.16,2.93,16.84,4.63,1.52.56,3.39,1.42,4.84,2.11,3.96,1.86,9.18,4.76,12.84,7.16,1.39.91,3.08,2.15,4.42,3.16,4.13,3.11,8.44,6.87,12,10.53.79.81,1.56,1.69,2.32,2.53,4.28,4.72,7.49,10.06,10.86,15.15Z" fill="#d87988"/>
    <path d="M528.42,110.87c-.2-1.02-.51-2.05-.91-3.07-.83-2.02-2.09-3.75-3.49-5.16-1.44-1.39-3.14-2.41-4.88-3.06-1.72-.66-3.6-.87-5.42-.7-1.82.17-3.59.74-5.25,1.7-.82.47-1.56,1.02-2.25,1.61-.1-.15-.2-.3-.3-.46.87-.3,1.72-.68,2.55-1.16,1.66-.96,3.04-2.21,4.1-3.71.53-.74.98-1.55,1.33-2.4.34-.84.59-1.72.75-2.64.67-3.68-.29-7.87-2.96-11.34-1.35-1.71-2.91-3.14-4.71-4.07-1.78-.95-3.59-1.58-5.48-1.71-3.76-.31-7.33.98-10.03,3.7-.72.73-1.35,1.52-1.89,2.34-.15-.15-.31-.3-.47-.45.83-.54,1.62-1.17,2.35-1.89,2.72-2.7,4-6.27,3.7-10.03-.13-1.9-.76-3.71-1.71-5.48-.94-1.79-2.36-3.35-4.07-4.71-3.47-2.67-7.66-3.62-11.34-2.96-.92.16-1.8.41-2.64.75-.85.35-1.65.81-2.4,1.33-1.49,1.06-2.75,2.44-3.71,4.1-.47.81-.84,1.64-1.13,2.48-.15-.09-.3-.18-.45-.27.58-.67,1.12-1.41,1.58-2.21.96-1.66,1.53-3.43,1.7-5.25.17-1.81-.05-3.69-.7-5.42-.65-1.73-1.67-3.44-3.06-4.88-1.41-1.4-3.14-2.66-5.16-3.49-1.02-.4-2.05-.71-3.07-.91-1.02-.2-2.04-.32-3.05-.27-2.01.06-3.92.48-5.61,1.25-3.42,1.64-5.87,4.55-6.84,8.25-.16.59-.26,1.17-.34,1.76-.08-.02-.16-.05-.24-.07.22-.54.42-1.1.58-1.69.49-1.85.59-3.73.28-5.53-.31-1.78-1.03-3.48-2.1-5.01-.54-.77-1.16-1.49-1.87-2.17-.71-.65-1.5-1.22-2.36-1.73-.86-.51-1.79-.95-2.77-1.31-.98-.36-2.03-.56-3.12-.71-1.08-.14-2.15-.18-3.19-.12-1.04.08-2.05.29-3.01.56-1.93.56-3.65,1.42-5.08,2.67-.94.8-1.73,1.72-2.39,2.71-1.35,2.03-2.09,4.42-2.08,6.99,0,.31.03.62.05.93-.03,0-.06,0-.1,0,.02-.31.05-.62.05-.93.01-3.83-1.6-7.26-4.47-9.7-1.43-1.25-3.16-2.11-5.08-2.67-.96-.27-1.97-.48-3.02-.56-1.04-.06-2.11-.02-3.19.12-1.08.15-2.13.35-3.12.71-.98.36-1.91.8-2.77,1.31-.86.51-1.65,1.08-2.36,1.73-.7.67-1.33,1.4-1.87,2.17-1.07,1.54-1.79,3.24-2.1,5.01-.31,1.8-.21,3.68.28,5.53.07.28.17.54.26.81-.03,0-.06.02-.08.02-.06-.28-.1-.56-.18-.83-.98-3.7-3.43-6.62-6.84-8.25-1.69-.78-3.59-1.19-5.61-1.25-1.01-.04-2.03.07-3.05.27-1.02.2-2.05.51-3.07.91-2.02.83-3.75,2.09-5.16,3.49-1.39,1.44-2.41,3.14-3.06,4.88-.66,1.72-.87,3.6-.7,5.42.17,1.82.74,3.59,1.7,5.25.19.32.39.63.6.93-.03.02-.06.04-.1.05-.16-.33-.32-.66-.51-.98-.96-1.66-2.21-3.04-3.71-4.1-.74-.53-1.55-.98-2.4-1.33-.84-.34-1.72-.59-2.64-.75-3.68-.67-7.87.29-11.34,2.96-1.71,1.35-3.14,2.92-4.07,4.71-.95,1.78-1.58,3.59-1.71,5.48-.31,3.76.98,7.33,3.7,10.03.17.17.36.32.54.48-.02.02-.04.03-.05.05-.16-.18-.31-.36-.48-.53-2.7-2.72-6.27-4-10.03-3.7-1.9.13-3.71.76-5.48,1.71-1.57.82-2.96,2.04-4.19,3.48-.17.2-.35.39-.51.6-2.67,3.47-3.62,7.66-2.96,11.34.16.92.41,1.8.75,2.64.35.85.81,1.65,1.33,2.4,1.05,1.48,2.42,2.73,4.06,3.68,0,0,0,0,0,0-1.65-.95-3.41-1.51-5.21-1.68-1.81-.17-3.69.05-5.42.7-1.73.65-3.44,1.67-4.88,3.06-1.4,1.41-2.66,3.14-3.49,5.16-.4,1.02-.71,2.05-.91,3.07-.2,1.02-.32,2.04-.27,3.05.06,2.01.48,3.92,1.25,5.61,1.39,2.89,3.7,5.08,6.62,6.28-.02.08-.05.16-.07.23-1.29-.17-2.57-.16-3.82.05-1.78.31-3.48,1.03-5.01,2.1-.77.54-1.49,1.16-2.17,1.87-.65.71-1.22,1.5-1.73,2.36-.51.86-.95,1.79-1.31,2.77-.36.98-.56,2.03-.71,3.12-.14,1.08-.18,2.15-.12,3.19.08,1.04.29,2.05.57,3.02.56,1.93,1.42,3.65,2.67,5.08,1.92,2.25,4.45,3.72,7.3,4.24,0,.14,0,.28-.01.43,0,.01,0,.02,0,.03-2.85.53-5.38,1.99-7.29,4.24-1.25,1.43-2.11,3.16-2.67,5.08-.27.96-.48,1.97-.57,3.01-.06,1.04-.02,2.11.12,3.19.15,1.08.35,2.13.71,3.12.36.98.8,1.91,1.31,2.77.51.86,1.08,1.65,1.73,2.36.67.7,1.4,1.33,2.17,1.87,1.54,1.07,3.24,1.79,5.01,2.1.9.15,1.82.21,2.75.16.04.2.07.4.07.61-2.42,1.27-4.33,3.26-5.54,5.79-.78,1.69-1.19,3.59-1.25,5.61-.04,1.01.07,2.03.27,3.05.2,1.02.51,2.05.91,3.07.83,2.02,2.09,3.75,3.49,5.16,1.44,1.39,3.14,2.41,4.88,3.06,1.72.66,3.6.87,5.42.7,1.14-.11,2.27-.39,3.36-.81.07.1.13.2.2.3-.92.74-1.73,1.58-2.4,2.52-.53.74-.98,1.55-1.33,2.4-.34.84-.59,1.72-.75,2.64-.67,3.68.29,7.87,2.96,11.34,1.35,1.71,2.91,3.14,4.7,4.07,1.78.95,3.59,1.58,5.48,1.71,3.31.27,6.47-.7,9.02-2.78.03.03.06.06.1.1-2.01,2.46-2.97,5.49-2.8,8.66,0,.12,0,.24.01.35.13,1.9.76,3.71,1.71,5.48.94,1.79,2.36,3.35,4.07,4.7,3.47,2.67,7.66,3.62,11.34,2.96.92-.16,1.8-.41,2.64-.75.85-.35,1.65-.81,2.4-1.33,1.16-.82,2.17-1.84,3.01-3.03.04.02.07.05.11.07-.61,1.32-.99,2.7-1.12,4.11-.17,1.8.05,3.66.69,5.37,0,.01,0,.03.01.04.65,1.73,1.67,3.44,3.06,4.88,1.41,1.4,3.14,2.66,5.16,3.49,1.02.4,2.05.71,3.07.91,1.02.2,2.04.32,3.05.27,2.01-.06,3.92-.48,5.61-1.25,2.85-1.36,5.01-3.63,6.23-6.49.09.03.18.06.28.08-.15,1.24-.14,2.48.06,3.68.31,1.78,1.03,3.48,2.1,5.01.54.77,1.16,1.49,1.87,2.17.43.39.89.74,1.38,1.08.32.22.65.45.99.65.86.51,1.79.95,2.77,1.31.98.36,2.03.56,3.12.71,1.08.14,2.15.17,3.19.12,1.04-.08,2.05-.29,3.02-.56,1.93-.56,3.65-1.42,5.08-2.67,2.37-2.01,3.86-4.7,4.31-7.73h.32c.45,3.03,1.95,5.72,4.31,7.73,1.43,1.25,3.16,2.11,5.08,2.67.96.27,1.97.48,3.01.56,1.04.06,2.11.02,3.19-.12,1.08-.15,2.13-.35,3.12-.71.98-.36,1.91-.8,2.77-1.31.86-.51,1.65-1.08,2.36-1.73.7-.67,1.33-1.4,1.87-2.17,1.07-1.54,1.79-3.24,2.1-5.01.26-1.52.22-3.1-.1-4.67.03,0,.06-.02.09-.03,1.11,3.3,3.42,5.91,6.58,7.42,1.69.78,3.59,1.19,5.61,1.25,1.01.04,2.03-.07,3.05-.27,1.02-.2,2.05-.51,3.07-.91,2.02-.83,3.75-2.09,5.16-3.49,1.39-1.44,2.41-3.14,3.06-4.88.66-1.72.87-3.6.7-5.42-.17-1.82-.74-3.59-1.7-5.25-.08-.13-.17-.26-.25-.39.01,0,.03-.02.04-.03.07.14.13.28.21.41.96,1.66,2.21,3.04,3.71,4.1.74.53,1.55.98,2.4,1.33.84.34,1.72.59,2.64.75,3.68.67,7.87-.29,11.34-2.96,1.71-1.35,3.14-2.91,4.07-4.7.95-1.78,1.58-3.59,1.71-5.48.31-3.76-.98-7.33-3.7-10.03-.22-.21-.44-.41-.67-.6.02-.02.04-.04.07-.07.2.23.39.45.6.67,2.7,2.72,6.27,4,10.03,3.7,1.9-.13,3.71-.76,5.48-1.71,1.79-.94,3.35-2.36,4.71-4.07,2.67-3.47,3.62-7.66,2.96-11.34-.16-.92-.41-1.8-.75-2.64-.35-.85-.8-1.65-1.33-2.4-1.06-1.49-2.44-2.75-4.1-3.71-.19-.11-.39-.2-.58-.3.01-.02.02-.04.03-.06.18.12.36.24.54.35,1.66.96,3.43,1.53,5.25,1.7,1.81.17,3.69-.05,5.42-.7,1.73-.65,3.44-1.67,4.88-3.06,1.4-1.41,2.66-3.14,3.49-5.16.4-1.02.71-2.05.91-3.07.2-1.02.32-2.04.27-3.05-.06-2.01-.48-3.92-1.25-5.61-1.63-3.42-4.55-5.87-8.25-6.84-.07-.02-.15-.03-.22-.05,0,0,0-.01,0-.02.07.02.14.05.22.07,1.85.49,3.73.59,5.53.28,1.78-.31,3.48-1.03,5.01-2.1.77-.54,1.49-1.16,2.17-1.87.65-.71,1.22-1.5,1.73-2.36.51-.86.95-1.79,1.31-2.77.36-.98.56-2.03.71-3.12.14-1.08.18-2.15.12-3.19-.08-1.04-.29-2.05-.56-3.01-.56-1.93-1.42-3.65-2.67-5.08-2.44-2.87-5.87-4.48-9.7-4.47-.31,0-.61.03-.91.05,0-.03,0-.06,0-.09.3.02.61.05.92.05,3.83.01,7.26-1.6,9.7-4.47,1.25-1.43,2.11-3.16,2.67-5.08.27-.96.48-1.97.56-3.02.06-1.04.02-2.11-.12-3.19-.15-1.08-.35-2.13-.71-3.12-.36-.98-.8-1.91-1.31-2.77-.51-.86-1.08-1.65-1.73-2.36-.67-.7-1.4-1.33-2.17-1.87-1.54-1.07-3.24-1.79-5.01-2.1-1.8-.31-3.68-.21-5.53.28-.37.1-.72.22-1.07.35-.01-.04-.02-.07-.04-.11.37-.07.74-.14,1.11-.24,3.7-.98,6.62-3.43,8.25-6.84.31-.68.55-1.41.75-2.15.29-1.1.47-2.25.5-3.45.04-1.01-.07-2.03-.27-3.05ZM410.65,242.53c-.68,0-2.27-.14-3.05-.21-1.29-.12-3.13-.4-4.42-.63-5.13-.91-11.93-3.03-16.84-4.84-1.25-.46-2.57-.92-3.79-1.47-2.26-1.03-5.1-2.54-7.3-3.75-.98-.54-6.38-4.06-6.81-4.04-1.21-1.06-2.73-1.77-4-2.74-3.58-2.73-8.01-6.57-11.16-9.79-.41-.41-.3-1.17-1.26-1.16-.74-.99-1.72-1.81-2.53-2.74-3.76-4.29-8.08-10.41-11.16-15.16-.44-.68-1.53-2.47-1.89-3.16-1.38-2.64-2.8-5.99-3.89-8.85-.66-1.72-1.64-6.1-2.64-7.15.1-.97-.43-1.81-.63-2.74-1.33-6.16-2.18-12.61-2.11-18.95,0-.7,0-1.41,0-2.11.09-6.36.75-12.7,2.11-18.95.2-.92.73-1.77.63-2.74.96-1.01,1.11-2.85,1.59-4.2,1.4-3.96,3.14-8.11,5.15-11.8.52-.96,1.11-2.02,1.68-2.95.6-.97,1.6-2.05,2.2-2.96,2.75-4.2,5.53-8.53,8.96-12.41.87-.98,1.82-2.01,2.74-2.95,3.52-3.6,7.94-7.43,12-10.53.97-.74,2.13-1.62,3.16-2.32,4.52-3.06,10.34-6.13,15.37-8.42,1.12-.51,2.49-1.28,3.58-1.68,4.56-1.69,12.05-3.82,16.84-4.63,1.02-.17,2.13-.3,3.16-.42,5.9-.68,13.01-.62,18.95,0,.97.1,2.2.25,3.16.42,4.88.85,12.16,2.93,16.84,4.63,1.52.56,3.39,1.42,4.84,2.11,3.97,1.86,9.18,4.76,12.84,7.16,1.39.91,3.08,2.15,4.42,3.16,4.13,3.11,8.44,6.87,12,10.53.79.81,1.56,1.69,2.32,2.53,4.28,4.72,7.49,10.06,10.86,15.15.17.25.92.92,1.14,1.28.37.6.88,1.61,1.26,2.32,2.76,5.1,5.18,11.34,6.95,16.84.1.32.35,1.17.42,1.47,1.47,6.17,2.05,13.07,2.11,19.37,0,.7,0,1.41,0,2.11-.04,6.2-.66,12.86-2.11,18.95-.13.54-.28,1.44-.42,1.89-1.75,5.52-4.21,11.72-6.95,16.84-.61,1.13-1.65,3.26-2.32,4.21-.05.07-.41.09-.49.19-1.45,1.93-2.73,3.96-4.13,6.03-1.84,2.73-3.7,5.43-5.91,7.89-.88.98-1.81,2.01-2.74,2.95-3.73,3.8-8.13,7.5-12.42,10.74-1.32,1-2.76,1.85-4,2.95-.95.1-3.62,2.16-4.7,2.77-2.38,1.34-6.35,2.9-8.35,4.39-1.54.65-3.06,1.32-4.63,1.89-4.97,1.82-11.66,3.91-16.84,4.84-1.41.25-3,.5-4.42.63-.79.07-2.37.21-3.05.21h-10.32Z" fill="#d87988"/>
    <path d="M56.7,3.35s0,0,0,0c-1.65-.95-3.41-1.51-5.21-1.68-1.81-.17-3.69.05-5.42.7-1.73.65-3.44,1.67-4.88,3.06-1.4,1.41-2.66,3.14-3.49,5.16-.4,1.02-.71,2.05-.91,3.07-.2,1.02-.32,2.04-.27,3.05.06,2.01.48,3.92,1.25,5.61,1.39,2.89,3.7,5.08,6.62,6.28-.02.08-.05.16-.07.23-1.29-.17-2.57-.16-3.82.05-1.78.31-3.48,1.03-5.01,2.1-.77.54-1.49,1.16-2.17,1.87-.65.71-1.22,1.5-1.73,2.36-.51.86-.95,1.79-1.31,2.77-.36.98-.56,2.03-.71,3.12-.14,1.08-.17,2.15-.12,3.19.08,1.04.29,2.05.57,3.02.56,1.93,1.42,3.65,2.67,5.08,1.92,2.25,4.45,3.72,7.3,4.24,0,.14,0,.28-.01.43,0,.01,0,.02,0,.03-2.85.53-5.38,1.99-7.29,4.24-1.25,1.43-2.11,3.16-2.67,5.08-.27.96-.48,1.97-.57,3.02-.06,1.04-.02,2.11.12,3.19.15,1.08.35,2.13.71,3.12.36.98.8,1.91,1.31,2.77.51.86,1.08,1.65,1.73,2.36.67.7,1.4,1.33,2.17,1.87,1.54,1.07,3.24,1.79,5.01,2.1.9.15,1.82.21,2.75.16.04.2.07.4.07.61-2.42,1.27-4.33,3.26-5.54,5.79-.78,1.69-1.19,3.59-1.25,5.61-.04,1.01.07,2.03.27,3.05.2,1.02.51,2.05.91,3.07.03.07.06.12.09.19.83,1.94,2.04,3.61,3.4,4.97,1.44,1.39,3.14,2.41,4.88,3.06,1.72.66,3.6.87,5.42.7,1.14-.11,2.27-.39,3.36-.81.07.1.13.2.2.3-.92.74-1.73,1.58-2.4,2.52-.53.74-.98,1.55-1.33,2.4-.34.84-.59,1.72-.75,2.64-.67,3.68.29,7.87,2.96,11.34,1.35,1.71,2.92,3.14,4.7,4.07,1.52.81,3.07,1.37,4.67,1.6.27.04.54.09.81.11,3.31.27,6.47-.7,9.02-2.78.03.03.06.06.1.1-2.09,2.55-3.05,5.71-2.78,9.02.13,1.9.76,3.71,1.71,5.48.94,1.79,2.36,3.35,4.07,4.71,3.47,2.67,7.66,3.62,11.34,2.96.92-.16,1.8-.41,2.64-.75.85-.35,1.65-.81,2.4-1.33,1.16-.82,2.17-1.84,3.01-3.03.04.02.07.05.11.07-.61,1.32-.99,2.7-1.12,4.11-.17,1.81.05,3.69.7,5.42.65,1.73,1.67,3.44,3.06,4.88,1.41,1.4,3.14,2.66,5.16,3.49,1.02.4,2.05.71,3.07.91,1.02.21,2.04.32,3.05.27,2.01-.06,3.92-.48,5.61-1.25,2.85-1.36,5.01-3.63,6.23-6.49.09.03.18.06.28.08-.15,1.24-.14,2.48.06,3.68.31,1.78,1.03,3.48,2.1,5.01.54.77,1.16,1.49,1.87,2.17.71.65,1.5,1.22,2.36,1.73.86.51,1.79.95,2.77,1.31.98.36,2.03.56,3.12.71,1.08.14,2.15.17,3.19.12,1.04-.08,2.05-.29,3.01-.57,1.93-.56,3.65-1.42,5.08-2.67,2.37-2.01,3.86-4.7,4.31-7.73h.32c.45,3.03,1.95,5.72,4.31,7.73,1.43,1.25,3.16,2.11,5.08,2.67.41.12.83.21,1.25.3.58.12,1.16.22,1.76.26,1.04.06,2.11.02,3.19-.12,1.08-.15,2.13-.35,3.12-.71.98-.36,1.91-.8,2.77-1.31.86-.51,1.65-1.08,2.36-1.73.7-.67,1.33-1.4,1.87-2.17,1.07-1.54,1.79-3.24,2.1-5.01.26-1.52.22-3.1-.1-4.67.03,0,.06-.02.09-.03,1.11,3.3,3.42,5.91,6.58,7.42,1.69.78,3.59,1.19,5.61,1.25,1.01.04,2.03-.07,3.05-.27,1.02-.2,2.05-.51,3.07-.91,2.02-.83,3.75-2.09,5.16-3.49,1.39-1.44,2.41-3.14,3.06-4.88.66-1.72.87-3.6.7-5.42-.17-1.82-.74-3.59-1.7-5.25-.08-.13-.17-.26-.25-.39.01,0,.03-.02.04-.03.07.14.13.28.21.41.96,1.66,2.21,3.04,3.71,4.1.74.53,1.55.98,2.4,1.33.84.34,1.72.59,2.64.75,3.68.67,7.87-.29,11.34-2.96,1.71-1.35,3.14-2.92,4.07-4.71.95-1.78,1.58-3.59,1.71-5.48.31-3.76-.98-7.33-3.7-10.03-.22-.21-.44-.41-.67-.6.02-.02.04-.04.07-.07.2.23.39.45.6.67,2.7,2.72,6.27,4,10.03,3.7,1.9-.13,3.71-.76,5.48-1.71,1.79-.94,3.35-2.36,4.71-4.07,2.67-3.47,3.62-7.66,2.96-11.34-.16-.92-.41-1.8-.75-2.64-.35-.85-.81-1.65-1.33-2.4-1.06-1.49-2.44-2.75-4.1-3.71-.19-.11-.39-.2-.58-.3.01-.02.02-.04.03-.06.18.12.36.24.54.35,1.66.96,3.43,1.53,5.25,1.7,1.5.14,3.05,0,4.52-.43.3-.09.6-.17.9-.28,1.73-.65,3.44-1.67,4.88-3.06,1.4-1.41,2.66-3.14,3.49-5.16.4-1.02.71-2.05.91-3.07.2-1.02.32-2.04.27-3.05-.06-2.01-.48-3.92-1.25-5.61-1.43-2.99-3.85-5.25-6.92-6.42-.43-.16-.88-.31-1.33-.43-.07-.02-.15-.03-.22-.05,0,0,0-.01,0-.02.07.02.14.05.22.07.45.12.9.21,1.35.29,1.41.23,2.81.23,4.17,0,1.78-.31,3.48-1.03,5.01-2.1.77-.54,1.49-1.16,2.17-1.87.65-.71,1.22-1.5,1.73-2.36.51-.86.95-1.79,1.31-2.77.36-.98.56-2.03.71-3.12.14-1.08.18-2.15.12-3.19-.08-1.04-.29-2.05-.57-3.02-.56-1.93-1.42-3.65-2.67-5.08-1.88-2.21-4.36-3.67-7.15-4.22-.83-.16-1.68-.26-2.55-.25-.31,0-.61.03-.91.05,0-.03,0-.06,0-.09.3.02.61.05.92.05.92,0,1.81-.09,2.68-.27,2.74-.57,5.17-2.02,7.02-4.2,1.25-1.43,2.11-3.16,2.67-5.08.27-.96.48-1.97.57-3.02.06-1.04.02-2.11-.12-3.19-.15-1.08-.35-2.13-.71-3.12-.36-.98-.8-1.91-1.31-2.77-.42-.7-.88-1.34-1.38-1.94-.12-.14-.22-.29-.35-.43-.67-.7-1.4-1.33-2.17-1.87-1.54-1.07-3.24-1.79-5.01-2.1-1.02-.18-2.07-.21-3.13-.12-.8.06-1.6.19-2.4.4-.37.1-.72.22-1.07.35-.01-.04-.02-.07-.04-.11.37-.07.74-.14,1.11-.24.78-.21,1.51-.49,2.22-.82,2.65-1.24,4.74-3.33,6.04-6.02.78-1.69,1.19-3.59,1.25-5.61.04-1.01-.07-2.03-.27-3.05-.2-1.02-.51-2.05-.91-3.07-.83-2.02-2.09-3.75-3.49-5.16-1.44-1.39-3.14-2.41-4.88-3.06-1.72-.66-3.6-.87-5.42-.7-1.82.17-3.59.74-5.25,1.7-.82.47-1.56,1.02-2.25,1.61-.1-.15-.2-.3-.3-.46.87-.3,1.72-.68,2.55-1.16,1.53-.89,2.82-2.03,3.84-3.38h-30.12c4.04,4.58,7.13,9.69,10.38,14.58.17.25.92.92,1.14,1.28.37.6.88,1.61,1.26,2.32,2.76,5.1,5.18,11.34,6.95,16.84.1.32.35,1.17.42,1.47,1.47,6.17,2.05,13.07,2.11,19.37,0,.7,0,1.41,0,2.11-.04,6.2-.66,12.86-2.11,18.95-.13.54-.28,1.44-.42,1.89-1.75,5.52-4.21,11.72-6.95,16.84-.61,1.13-1.66,3.26-2.32,4.21-.05.07-.41.09-.49.19-1.45,1.93-2.73,3.96-4.13,6.03-1.84,2.73-3.7,5.43-5.91,7.89-.88.98-1.81,2.01-2.74,2.95-3.73,3.8-8.13,7.5-12.42,10.74-1.32,1-2.75,1.85-4,2.95-.95.1-3.62,2.16-4.7,2.77-2.38,1.34-6.35,2.9-8.35,4.39-1.54.65-3.06,1.32-4.63,1.89-4.97,1.82-11.66,3.91-16.84,4.84-1.41.25-3,.5-4.42.63-.79.07-2.37.21-3.05.21h-10.32c-.68,0-2.27-.14-3.05-.21-1.29-.12-3.13-.4-4.42-.63-5.13-.91-11.93-3.03-16.84-4.84-1.25-.46-2.57-.92-3.79-1.47-2.26-1.03-5.1-2.54-7.3-3.75-.98-.54-6.38-4.06-6.81-4.04-1.21-1.06-2.73-1.77-4-2.74-3.58-2.73-8.01-6.57-11.16-9.79-.41-.41-.3-1.17-1.26-1.16-.74-.99-1.72-1.81-2.53-2.74-3.76-4.29-8.08-10.41-11.16-15.16-.44-.68-1.53-2.47-1.89-3.16-1.38-2.64-2.8-5.99-3.89-8.85-.66-1.72-1.64-6.1-2.64-7.15.1-.97-.43-1.81-.63-2.74-1.33-6.16-2.18-12.61-2.11-18.95,0-.7,0-1.41,0-2.11.09-6.36.75-12.7,2.11-18.95.2-.92.73-1.77.63-2.74.96-1.01,1.11-2.85,1.59-4.2,1.4-3.96,3.14-8.11,5.15-11.8.53-.96,1.11-2.02,1.68-2.95.6-.97,1.6-2.05,2.2-2.96C76.85,8.12,79.59,3.84,82.97,0h-30.07c.15.2.31.4.47.6.93,1.08,2.04,2.01,3.32,2.76Z" fill="#d87988"/>
    <path d="M242.68,4.34c.26.67.21,1.49-.25,2.05-.26.31-.62.52-.99.68-.84.37-1.78.57-2.69.42-.91-.15-1.77-.68-2.21-1.49-.21-.39-.32-.84-.38-1.28-.06-.43-.07-.88.06-1.29.16-.49.52-.9.92-1.23.66-.56,1.5-.95,2.36-.94.78,0,1.65.39,2.01,1.12.14.28.21.56.41.81.29.37.58.7.75,1.15Z" fill="#d87988"/>
    <path d="M249.05,385.29c1.73-.65,3.44-1.67,4.88-3.06,1.4-1.41,2.66-3.14,3.49-5.16.4-1.02.71-2.05.91-3.07.2-1.02.32-2.04.27-3.05-.06-2.01-.48-3.92-1.25-5.61-1.63-3.42-4.55-5.87-8.25-6.84-.07-.02-.15-.03-.22-.05,0,0,0-.01,0-.02.07.02.14.05.22.07,1.85.49,3.73.59,5.53.28,1.78-.31,3.48-1.03,5.01-2.1.77-.54,1.49-1.16,2.17-1.87.65-.71,1.22-1.5,1.73-2.36.51-.86.95-1.79,1.31-2.77.36-.98.56-2.03.71-3.12.14-1.08.18-2.15.12-3.19-.08-1.04-.29-2.05-.57-3.02-.56-1.93-1.42-3.65-2.67-5.08-2.44-2.87-5.87-4.48-9.7-4.47-.31,0-.61.03-.91.05,0-.03,0-.06,0-.09.3.02.61.05.92.05,3.83.01,7.26-1.6,9.7-4.47,1.25-1.43,2.11-3.16,2.67-5.08.27-.96.48-1.97.57-3.01.06-1.04.02-2.11-.12-3.19-.15-1.08-.35-2.13-.71-3.12-.36-.98-.8-1.91-1.31-2.77-.51-.86-1.08-1.65-1.73-2.36-.67-.7-1.4-1.33-2.17-1.87-1.54-1.07-3.24-1.79-5.01-2.1-1.8-.31-3.68-.21-5.53.28-.37.1-.72.22-1.07.35-.01-.04-.02-.07-.04-.11.37-.07.74-.14,1.11-.24,3.7-.98,6.62-3.43,8.25-6.84.78-1.69,1.19-3.59,1.25-5.61.04-1.01-.07-2.03-.27-3.05-.2-1.02-.51-2.05-.91-3.07-.23-.56-.49-1.08-.78-1.59-.76-1.35-1.7-2.54-2.71-3.57-1.44-1.39-3.14-2.41-4.88-3.06-1.72-.66-3.6-.87-5.42-.7-1.82.17-3.59.74-5.25,1.7-.82.47-1.56,1.02-2.25,1.61-.1-.15-.2-.3-.3-.46.87-.3,1.72-.68,2.55-1.16,1.66-.96,3.04-2.21,4.1-3.71.53-.74.98-1.55,1.33-2.4.34-.84.59-1.72.75-2.64.67-3.68-.29-7.87-2.96-11.34-1.35-1.71-2.91-3.14-4.7-4.07-1.78-.95-3.59-1.58-5.48-1.71-3.76-.31-7.33.98-10.03,3.7-.72.73-1.35,1.52-1.89,2.34-.15-.15-.31-.3-.47-.45.83-.54,1.62-1.17,2.35-1.89,2.72-2.7,4-6.27,3.7-10.03-.13-1.9-.76-3.71-1.71-5.48-.94-1.79-2.36-3.35-4.07-4.71-3.47-2.67-7.66-3.62-11.34-2.96-.92.16-1.8.41-2.64.75-.85.35-1.65.81-2.4,1.33-1.49,1.06-2.75,2.44-3.71,4.1-.47.81-.84,1.64-1.13,2.48-.15-.09-.3-.18-.45-.27.58-.67,1.12-1.41,1.58-2.21.96-1.66,1.53-3.43,1.7-5.25.17-1.81-.05-3.69-.7-5.42-.65-1.73-1.67-3.44-3.06-4.88-1.41-1.4-3.14-2.66-5.16-3.49-1.02-.4-2.05-.71-3.07-.91-1.02-.2-2.04-.32-3.05-.27-2.01.06-3.92.48-5.61,1.25-3.42,1.63-5.87,4.55-6.84,8.25-.16.59-.26,1.17-.34,1.76-.08-.02-.16-.05-.24-.07.22-.54.42-1.1.58-1.69.49-1.85.59-3.73.28-5.53-.17-.99-.49-1.96-.91-2.89-.33-.73-.72-1.45-1.19-2.13-.54-.77-1.16-1.49-1.87-2.17-.71-.65-1.5-1.22-2.36-1.73-.86-.51-1.79-.95-2.77-1.31-.98-.36-2.03-.56-3.12-.71-1.08-.14-2.15-.17-3.19-.12-1.04.08-2.05.29-3.02.56-1.93.56-3.65,1.42-5.08,2.67-2.87,2.44-4.48,5.87-4.47,9.7,0,.31.03.62.05.93-.03,0-.06,0-.1,0,.02-.31.05-.62.05-.93.01-3.83-1.6-7.26-4.47-9.7-1.43-1.25-3.16-2.11-5.08-2.67-.96-.27-1.97-.48-3.01-.56-1.04-.06-2.11-.02-3.19.12-1.08.15-2.13.35-3.12.71-.98.36-1.91.8-2.77,1.31-.86.51-1.65,1.08-2.36,1.73-.7.67-1.33,1.4-1.87,2.17-1.07,1.54-1.79,3.24-2.1,5.01-.31,1.8-.21,3.68.28,5.53.07.28.17.54.26.81-.03,0-.06.02-.08.02-.06-.28-.1-.55-.18-.83-.98-3.7-3.43-6.62-6.84-8.25-1.69-.78-3.59-1.19-5.61-1.25-1.01-.04-2.03.07-3.05.27-1.02.2-2.05.51-3.07.91-2.02.83-3.75,2.09-5.16,3.49-1.39,1.44-2.41,3.14-3.06,4.88-.66,1.72-.87,3.6-.7,5.42.17,1.82.74,3.59,1.7,5.25.19.32.39.63.6.93-.03.02-.07.04-.1.05-.16-.33-.32-.66-.51-.98-.96-1.66-2.21-3.04-3.71-4.1-.74-.53-1.55-.98-2.4-1.33-.84-.34-1.72-.59-2.64-.75-3.68-.67-7.87.29-11.34,2.96-1.71,1.35-3.14,2.92-4.07,4.71-.95,1.78-1.58,3.59-1.71,5.48-.31,3.76.98,7.33,3.7,10.03.17.17.36.32.54.48-.02.02-.04.03-.05.05-.16-.18-.31-.36-.48-.53-2.7-2.72-6.27-4-10.03-3.7-1.9.13-3.71.76-5.48,1.71-1.79.94-3.35,2.36-4.7,4.07-2.67,3.47-3.62,7.66-2.96,11.34.16.92.41,1.8.75,2.64.35.85.81,1.65,1.33,2.4,1.05,1.48,2.42,2.73,4.06,3.68,0,0,0,0,0,0-1.65-.95-3.41-1.51-5.21-1.68-1.78-.17-3.63.05-5.33.68-.02,0-.04.01-.06.02,0,0-.02,0-.03,0-1.73.65-3.44,1.67-4.88,3.06-1.4,1.41-2.66,3.14-3.49,5.16-.4,1.02-.71,2.05-.91,3.07-.2,1.02-.32,2.04-.27,3.05.06,2.01.48,3.92,1.25,5.61,1.38,2.89,3.7,5.08,6.62,6.28-.02.08-.05.16-.07.23-1.29-.17-2.57-.16-3.82.05-1.78.31-3.48,1.03-5.01,2.1-.77.54-1.49,1.16-2.17,1.87-.65.71-1.22,1.5-1.73,2.36-.51.86-.95,1.79-1.31,2.77-.36.98-.56,2.03-.71,3.12-.14,1.08-.17,2.15-.12,3.19.08,1.04.29,2.05.56,3.01.56,1.93,1.42,3.65,2.67,5.08,1.92,2.25,4.45,3.72,7.3,4.24,0,.14,0,.28-.01.43,0,.01,0,.02,0,.03-2.85.53-5.38,1.99-7.29,4.24-1.25,1.43-2.11,3.16-2.67,5.08-.13.45-.24.91-.33,1.39-.11.53-.19,1.08-.23,1.63-.06,1.04-.02,2.11.12,3.19.15,1.08.35,2.13.71,3.12.36.98.8,1.91,1.31,2.77.21.34.43.67.65.99.34.48.69.95,1.08,1.38.67.7,1.4,1.33,2.17,1.87,1.54,1.07,3.24,1.79,5.01,2.1.9.15,1.82.21,2.75.16.04.2.07.4.07.61-2.42,1.27-4.33,3.26-5.54,5.79-.78,1.69-1.19,3.59-1.25,5.61-.04,1.01.07,2.03.27,3.05.2,1.02.51,2.05.91,3.07.83,2.02,2.09,3.75,3.49,5.16,1.44,1.39,3.14,2.41,4.88,3.06,1.72.66,3.6.87,5.42.7,1.14-.11,2.27-.39,3.36-.81.07.1.13.2.2.3-.92.74-1.73,1.58-2.4,2.52-.53.74-.98,1.55-1.33,2.4-.34.84-.59,1.72-.75,2.64-.67,3.68.29,7.87,2.96,11.34,1.35,1.71,2.91,3.14,4.7,4.07,1.78.95,3.59,1.58,5.48,1.71,3.31.27,6.47-.7,9.02-2.78.03.03.06.06.1.1-2.09,2.55-3.05,5.71-2.78,9.02.13,1.9.76,3.71,1.71,5.48.94,1.79,2.36,3.35,4.07,4.71,3.47,2.67,7.66,3.62,11.34,2.96.92-.16,1.8-.41,2.64-.75.85-.35,1.65-.81,2.4-1.33,1.16-.82,2.17-1.84,3.01-3.03.04.02.08.05.11.07-.61,1.32-.99,2.7-1.12,4.11-.17,1.81.05,3.69.7,5.42.65,1.73,1.67,3.44,3.06,4.88,1.41,1.4,3.14,2.66,5.16,3.49,1.02.4,2.05.71,3.07.91,1.02.2,2.04.32,3.05.27,1.4-.04,2.74-.27,3.99-.65.55-.17,1.1-.36,1.62-.6,2.85-1.36,5.01-3.63,6.23-6.49.09.03.18.06.28.08-.15,1.24-.14,2.48.06,3.68.31,1.78,1.03,3.48,2.1,5.01.54.77,1.16,1.49,1.87,2.17.71.65,1.5,1.22,2.36,1.73.86.51,1.79.95,2.77,1.31.98.36,2.03.56,3.12.71,1.08.14,2.15.17,3.19.12,1.04-.08,2.05-.29,3.01-.56,1.93-.56,3.65-1.42,5.08-2.67,2.37-2.01,3.86-4.7,4.31-7.73h.32c.45,3.03,1.95,5.72,4.31,7.73,1.43,1.25,3.16,2.11,5.08,2.67.96.27,1.97.48,3.02.56,1.04.06,2.11.02,3.19-.12,1.08-.15,2.13-.35,3.12-.71.98-.36,1.91-.8,2.77-1.31.51-.3.98-.63,1.44-.98.32-.24.63-.49.92-.75.7-.67,1.33-1.4,1.87-2.17,1.07-1.54,1.79-3.24,2.1-5.01.26-1.52.22-3.1-.1-4.67.03,0,.06-.02.09-.03,1.11,3.3,3.42,5.91,6.58,7.42,1.69.78,3.59,1.19,5.61,1.25,1.01.04,2.03-.07,3.05-.27,1.02-.2,2.05-.51,3.07-.91,2.02-.83,3.75-2.09,5.16-3.49,1.39-1.44,2.41-3.14,3.06-4.88.66-1.72.87-3.6.7-5.42-.17-1.82-.74-3.59-1.7-5.25-.08-.13-.17-.26-.25-.39.01,0,.03-.02.04-.03.07.14.13.28.21.41.96,1.66,2.21,3.04,3.71,4.1.74.53,1.55.98,2.4,1.33.84.34,1.72.59,2.64.75,3.68.67,7.87-.29,11.34-2.96,1.71-1.35,3.14-2.91,4.07-4.71.95-1.78,1.58-3.59,1.71-5.48.31-3.76-.98-7.33-3.7-10.03-.22-.21-.44-.41-.67-.6.02-.02.04-.04.07-.07.2.23.39.45.6.67,2.7,2.72,6.27,4,10.03,3.7,1.9-.13,3.71-.76,5.48-1.71,1.79-.94,3.35-2.36,4.7-4.07,2.67-3.47,3.62-7.66,2.96-11.34-.16-.92-.41-1.8-.75-2.64-.35-.85-.81-1.65-1.33-2.4-1.06-1.49-2.44-2.75-4.1-3.71-.19-.11-.39-.2-.58-.3.01-.02.02-.04.03-.06.18.12.36.24.54.35.64.37,1.29.66,1.96.91,1.07.41,2.17.68,3.29.79,1.81.17,3.69-.05,5.42-.7ZM217.94,379.99c-1.84,2.73-3.7,5.43-5.91,7.89-.88.98-1.81,2.01-2.74,2.95-3.73,3.8-8.13,7.5-12.42,10.74-1.32,1-2.76,1.85-4,2.95-.95.1-3.62,2.16-4.7,2.77-2.38,1.34-6.35,2.9-8.35,4.39-1.54.65-3.06,1.32-4.63,1.89-4.97,1.82-11.66,3.91-16.84,4.84-1.41.25-3,.5-4.42.63-.79.07-2.37.21-3.05.21h-10.32c-.68,0-2.27-.14-3.05-.21-1.29-.12-3.13-.4-4.42-.63-5.13-.91-11.93-3.03-16.84-4.84-1.25-.46-2.57-.92-3.79-1.47-2.26-1.03-5.1-2.54-7.3-3.75-.98-.54-6.38-4.06-6.81-4.04-1.21-1.06-2.73-1.77-4-2.74-3.58-2.73-8.01-6.57-11.16-9.79-.41-.41-.3-1.17-1.26-1.16-.74-.99-1.72-1.81-2.53-2.74-3.76-4.29-8.08-10.41-11.16-15.16-.44-.68-1.53-2.47-1.89-3.16-1.38-2.64-2.8-5.99-3.89-8.85-.66-1.72-1.64-6.1-2.64-7.15.1-.97-.43-1.81-.63-2.74-1.33-6.16-2.18-12.61-2.11-18.95,0-.7,0-1.41,0-2.11.08-6.36.75-12.7,2.11-18.95.2-.92.73-1.77.63-2.74.96-1.01,1.11-2.85,1.59-4.2,1.4-3.96,3.14-8.11,5.15-11.8.53-.96,1.11-2.02,1.68-2.95.6-.97,1.6-2.05,2.2-2.96,2.76-4.2,5.53-8.53,8.96-12.41.87-.98,1.82-2.01,2.74-2.95,3.52-3.6,7.94-7.43,12-10.53.97-.74,2.13-1.62,3.16-2.32,4.52-3.06,10.34-6.13,15.37-8.42,1.12-.51,2.49-1.28,3.58-1.68,4.56-1.69,12.05-3.82,16.84-4.63,1.02-.17,2.13-.3,3.16-.42,5.9-.68,13.01-.62,18.95,0,.97.1,2.2.25,3.16.42,4.88.85,12.16,2.93,16.84,4.63,1.52.56,3.39,1.42,4.84,2.11,3.96,1.86,9.18,4.76,12.84,7.16,1.39.91,3.08,2.15,4.42,3.16,4.13,3.11,8.44,6.87,12,10.53.79.81,1.56,1.69,2.32,2.53,4.28,4.72,7.49,10.06,10.86,15.15.17.25.92.92,1.14,1.28.37.6.88,1.61,1.26,2.32,2.76,5.1,5.18,11.34,6.95,16.84.1.32.35,1.17.42,1.47,1.47,6.17,2.05,13.08,2.11,19.37,0,.7,0,1.41,0,2.11-.04,6.2-.66,12.86-2.11,18.95-.13.54-.28,1.44-.42,1.89-1.75,5.52-4.21,11.72-6.95,16.84-.61,1.13-1.66,3.26-2.32,4.21-.05.07-.41.09-.49.19-1.45,1.93-2.73,3.96-4.13,6.03Z" fill="#d87988"/>
    <path d="M247.51,564.2c.34-.84.59-1.72.75-2.64.67-3.68-.29-7.87-2.96-11.34-1.35-1.71-2.92-3.14-4.71-4.08-1.78-.95-3.59-1.58-5.48-1.71-3.76-.31-7.33.98-10.03,3.7-.72.73-1.35,1.52-1.89,2.34-.15-.15-.31-.3-.47-.45.83-.54,1.62-1.17,2.35-1.89,2.72-2.7,4-6.27,3.7-10.03-.13-1.9-.76-3.71-1.71-5.48-.94-1.79-2.36-3.35-4.07-4.7-3.47-2.67-7.66-3.62-11.34-2.96-.92.16-1.8.41-2.64.75-.85.35-1.65.81-2.4,1.33-1.49,1.06-2.75,2.44-3.71,4.1-.47.81-.84,1.64-1.13,2.48-.15-.09-.3-.18-.45-.27.58-.67,1.12-1.41,1.58-2.21.96-1.66,1.53-3.43,1.7-5.25.17-1.81-.05-3.69-.7-5.42-.65-1.73-1.67-3.44-3.06-4.88-1.41-1.4-3.14-2.66-5.16-3.49-1.02-.4-2.05-.71-3.07-.91-1.02-.2-2.04-.32-3.05-.27-2.02.06-3.92.48-5.61,1.25-2.56,1.23-4.58,3.18-5.85,5.64-.42.82-.75,1.69-1,2.61-.16.59-.26,1.17-.34,1.76-.08-.02-.16-.05-.24-.07.22-.54.42-1.1.58-1.69.26-.96.4-1.93.44-2.9.04-.89-.01-1.77-.16-2.63-.31-1.78-1.03-3.48-2.1-5.01-.54-.77-1.16-1.49-1.87-2.17-.71-.65-1.5-1.22-2.36-1.73-.86-.51-1.79-.95-2.77-1.31-.98-.36-2.03-.56-3.12-.71-1.08-.14-2.15-.18-3.19-.12-1.04.08-2.05.29-3.02.56-1.93.56-3.65,1.42-5.08,2.67-1.39,1.18-2.48,2.6-3.24,4.19-.8,1.68-1.24,3.54-1.23,5.51,0,.31.03.62.05.93-.03,0-.06,0-.1,0,.02-.31.05-.62.05-.93,0-1.94-.41-3.77-1.19-5.43-.76-1.62-1.87-3.07-3.29-4.27-1.43-1.25-3.16-2.11-5.08-2.67-.96-.27-1.97-.48-3.01-.56-1.04-.06-2.11-.02-3.19.12-1.08.15-2.13.35-3.12.71-.98.36-1.91.8-2.77,1.31-.86.51-1.65,1.08-2.36,1.73-.7.67-1.33,1.4-1.87,2.17-1.07,1.54-1.79,3.24-2.1,5.01-.1.56-.14,1.13-.16,1.71-.04,1.26.1,2.55.44,3.82.07.28.17.54.26.81-.03,0-.06.02-.08.02-.06-.28-.1-.55-.18-.83-.33-1.25-.84-2.4-1.49-3.46-1.27-2.06-3.09-3.71-5.35-4.79-1.69-.78-3.59-1.19-5.61-1.25-1.01-.04-2.03.07-3.05.27-1.02.2-2.05.51-3.07.91-2.02.83-3.75,2.09-5.16,3.49-1.39,1.44-2.41,3.14-3.06,4.88-.66,1.72-.87,3.6-.7,5.42.17,1.82.74,3.59,1.7,5.25.19.32.39.63.6.93-.03.02-.07.04-.1.05-.16-.33-.32-.66-.51-.98-.96-1.66-2.21-3.04-3.71-4.1-.74-.53-1.55-.98-2.4-1.33-.84-.34-1.72-.59-2.64-.75-3.68-.67-7.87.29-11.34,2.96-1.71,1.35-3.14,2.91-4.07,4.7-.95,1.78-1.58,3.59-1.71,5.48-.31,3.76.98,7.33,3.7,10.03.17.17.36.32.54.48-.02.02-.04.03-.05.05-.16-.18-.31-.36-.48-.53-2.7-2.72-6.27-4-10.03-3.7-1.9.13-3.71.76-5.48,1.71-1.79.94-3.35,2.36-4.7,4.08-1.01,1.31-1.77,2.72-2.29,4.18-.86,2.39-1.08,4.88-.66,7.17.16.92.41,1.8.75,2.64.35.85.81,1.65,1.33,2.4.08.11.18.22.26.33h30.07s.08-.1.12-.14c.87-.98,1.82-2.01,2.74-2.95,3.52-3.6,7.94-7.43,12-10.53.97-.74,2.13-1.62,3.16-2.32,4.52-3.06,10.34-6.13,15.37-8.42,1.12-.51,2.49-1.28,3.58-1.68,4.56-1.69,12.05-3.82,16.84-4.63,1.02-.17,2.13-.3,3.16-.42,5.9-.68,13.01-.62,18.95,0,.97.1,2.2.25,3.16.42,4.88.85,12.16,2.93,16.84,4.63,1.52.56,3.39,1.42,4.84,2.11,3.96,1.86,9.18,4.76,12.84,7.16,1.39.91,3.08,2.15,4.42,3.16,4.13,3.11,8.44,6.87,12,10.53.79.81,1.56,1.69,2.32,2.53.17.18.32.38.49.56h30.12c.08-.11.18-.21.26-.33.53-.74.98-1.55,1.33-2.4Z" fill="#d87988"/>
  </g>
  <g id="zone-4">
    <path d="M491.74,378.45c-3.56-3.65-7.87-7.42-12-10.53-1.34-1.01-3.03-2.25-4.42-3.16-3.67-2.4-8.88-5.29-12.84-7.16-1.45-.68-3.32-1.55-4.84-2.11-4.68-1.7-11.96-3.78-16.84-4.63-.96-.17-2.19-.32-3.16-.42-5.94-.62-13.04-.68-18.95,0-1.03.12-2.14.25-3.16.42-4.79.81-12.28,2.94-16.84,4.63-1.09.41-2.46,1.18-3.58,1.68-5.03,2.29-10.85,5.36-15.37,8.42-1.03.7-2.19,1.58-3.16,2.32-4.06,3.1-8.48,6.93-12,10.53-.92.94-1.87,1.96-2.74,2.95-3.43,3.88-6.21,8.21-8.96,12.41-.6.91-1.59,1.99-2.2,2.96-.58.93-1.16,1.98-1.68,2.95-2.01,3.69-3.75,7.83-5.15,11.8-.48,1.35-.63,3.19-1.59,4.2.1.97-.43,1.81-.63,2.74-1.35,6.25-2.02,12.59-2.11,18.95,0,.7,0,1.41,0,2.11-.07,6.34.77,12.79,2.11,18.95.2.92.73,1.77.63,2.74.99,1.05,1.98,5.43,2.63,7.15,1.09,2.86,2.51,6.21,3.89,8.85.36.69,1.46,2.48,1.89,3.16,3.07,4.75,7.4,10.86,11.16,15.16.81.93,1.78,1.74,2.53,2.74.96,0,.85.75,1.26,1.16,3.15,3.21,7.59,7.06,11.16,9.79,1.27.97,2.79,1.67,4,2.74.42-.03,5.83,3.5,6.81,4.04,2.2,1.21,5.04,2.73,7.3,3.75,1.21.55,2.53,1.01,3.79,1.47,4.91,1.81,11.72,3.93,16.84,4.84,1.29.23,3.13.51,4.42.63.78.08,2.37.21,3.05.21h10.32c.69,0,2.26-.14,3.05-.21,1.42-.13,3.01-.38,4.42-.63,5.18-.93,11.88-3.03,16.84-4.84,1.58-.58,3.09-1.24,4.63-1.89,2-1.49,5.97-3.04,8.35-4.39,1.08-.61,3.75-2.68,4.7-2.77,1.25-1.09,2.68-1.95,4-2.95,4.29-3.24,8.69-6.94,12.42-10.74.92-.94,1.86-1.97,2.74-2.95,2.2-2.46,4.06-5.16,5.91-7.89,1.4-2.07,2.67-4.09,4.13-6.03.08-.1.44-.12.49-.19.66-.95,1.71-3.08,2.32-4.21,2.74-5.12,5.2-11.33,6.95-16.84.14-.45.29-1.35.42-1.89,1.44-6.09,2.07-12.75,2.11-18.95,0-.7,0-1.41,0-2.11-.05-6.29-.64-13.2-2.11-19.37-.07-.31-.32-1.15-.42-1.47-1.77-5.5-4.19-11.75-6.95-16.84-.38-.71-.9-1.71-1.26-2.32-.21-.35-.97-1.02-1.14-1.28-3.38-5.09-6.58-10.42-10.86-15.15-.76-.84-1.53-1.72-2.32-2.53Z" fill="#c76d3d"/>
    <path d="M420.97,242.53c.69,0,2.26-.14,3.05-.21,1.42-.13,3.01-.38,4.42-.63,5.18-.93,11.88-3.03,16.84-4.84,1.58-.58,3.09-1.24,4.63-1.89,2-1.49,5.97-3.04,8.35-4.39,1.08-.61,3.75-2.68,4.7-2.77,1.25-1.09,2.68-1.95,4-2.95,4.3-3.24,8.69-6.94,12.42-10.74.92-.94,1.86-1.97,2.74-2.95,2.2-2.46,4.06-5.16,5.91-7.89,1.4-2.07,2.67-4.09,4.13-6.03.08-.1.44-.12.49-.19.66-.95,1.71-3.08,2.32-4.21,2.74-5.12,5.2-11.33,6.95-16.84.14-.45.29-1.35.42-1.89,1.44-6.09,2.07-12.75,2.11-18.95,0-.7,0-1.41,0-2.11-.05-6.29-.64-13.2-2.11-19.37-.07-.31-.32-1.15-.42-1.47-1.77-5.5-4.19-11.75-6.95-16.84-.38-.71-.9-1.71-1.26-2.32-.21-.35-.97-1.02-1.14-1.28-3.38-5.09-6.58-10.42-10.86-15.15-.76-.84-1.53-1.72-2.32-2.53-3.56-3.65-7.87-7.42-12-10.53-1.34-1.01-3.03-2.25-4.42-3.16-3.67-2.4-8.88-5.29-12.84-7.16-1.45-.68-3.32-1.55-4.84-2.11-4.68-1.7-11.96-3.78-16.84-4.63-.96-.17-2.19-.32-3.16-.42-5.94-.62-13.04-.68-18.95,0-1.03.12-2.14.25-3.16.42-4.79.81-12.28,2.94-16.84,4.63-1.09.41-2.46,1.18-3.58,1.68-5.03,2.29-10.85,5.36-15.37,8.42-1.03.7-2.19,1.58-3.16,2.32-4.06,3.1-8.48,6.93-12,10.53-.92.94-1.87,1.96-2.74,2.95-3.43,3.88-6.21,8.21-8.96,12.41-.6.91-1.59,1.99-2.2,2.96-.58.93-1.16,1.98-1.68,2.95-2.01,3.69-3.75,7.83-5.15,11.8-.48,1.35-.63,3.19-1.59,4.2.1.97-.43,1.81-.63,2.74-1.35,6.25-2.02,12.59-2.11,18.95,0,.7,0,1.41,0,2.11-.07,6.34.77,12.79,2.11,18.95.2.92.73,1.77.63,2.74.99,1.05,1.98,5.43,2.64,7.15,1.09,2.86,2.51,6.21,3.89,8.85.36.69,1.46,2.48,1.89,3.16,3.07,4.75,7.4,10.86,11.16,15.16.81.93,1.78,1.74,2.53,2.74.96,0,.85.75,1.26,1.16,3.15,3.21,7.59,7.06,11.16,9.79,1.27.97,2.79,1.68,4,2.74.42-.03,5.83,3.5,6.81,4.04,2.2,1.21,5.04,2.73,7.3,3.75,1.22.55,2.53,1.01,3.79,1.47,4.91,1.81,11.72,3.93,16.84,4.84,1.29.23,3.13.51,4.42.63.78.07,2.37.21,3.05.21h10.32Z" fill="#c76d3d"/>
    <path d="M74.13,12.27c-.6.91-1.59,1.99-2.2,2.96-.58.93-1.16,1.98-1.68,2.95-2.01,3.69-3.75,7.83-5.15,11.8-.48,1.35-.63,3.19-1.59,4.2.1.97-.43,1.81-.63,2.74-1.35,6.25-2.02,12.59-2.11,18.95,0,.7,0,1.41,0,2.11-.07,6.34.77,12.79,2.11,18.95.2.92.73,1.77.63,2.74.99,1.05,1.98,5.43,2.64,7.15,1.09,2.86,2.51,6.21,3.89,8.85.36.69,1.46,2.48,1.89,3.16,3.07,4.75,7.4,10.86,11.16,15.16.81.93,1.78,1.74,2.53,2.74.96,0,.85.75,1.26,1.16,3.15,3.21,7.59,7.06,11.16,9.79,1.27.97,2.79,1.67,4,2.74.42-.03,5.83,3.5,6.81,4.04,2.2,1.21,5.04,2.73,7.3,3.75,1.22.55,2.53,1.01,3.79,1.47,4.91,1.81,11.72,3.93,16.84,4.84,1.29.23,3.13.51,4.42.63.78.07,2.37.21,3.05.21h10.32c.69,0,2.26-.14,3.05-.21,1.42-.13,3.01-.38,4.42-.63,5.18-.93,11.88-3.03,16.84-4.84,1.58-.58,3.09-1.24,4.63-1.89,2-1.49,5.97-3.04,8.35-4.39,1.08-.61,3.75-2.68,4.7-2.77,1.25-1.09,2.68-1.95,4-2.95,4.3-3.24,8.69-6.94,12.42-10.74.92-.94,1.86-1.97,2.74-2.95,2.2-2.46,4.06-5.16,5.91-7.89,1.4-2.07,2.68-4.09,4.13-6.03.08-.1.44-.12.49-.19.66-.95,1.71-3.08,2.32-4.21,2.74-5.12,5.2-11.33,6.95-16.84.14-.45.29-1.35.42-1.89,1.44-6.09,2.07-12.75,2.11-18.95,0-.7,0-1.41,0-2.11-.05-6.29-.64-13.2-2.11-19.37-.07-.31-.32-1.15-.42-1.47-1.77-5.5-4.19-11.75-6.95-16.84-.38-.71-.9-1.71-1.26-2.32-.21-.35-.97-1.02-1.14-1.28C222.92,9.69,219.83,4.58,215.79,0H82.97c-3.37,3.84-6.12,8.12-8.84,12.27Z" fill="#c76d3d"/>
    <path d="M222.56,373.77c.66-.95,1.71-3.08,2.32-4.21,2.74-5.12,5.2-11.33,6.95-16.84.14-.45.29-1.35.42-1.89,1.44-6.09,2.07-12.75,2.11-18.95,0-.7,0-1.41,0-2.11-.05-6.29-.64-13.2-2.11-19.37-.07-.31-.32-1.15-.42-1.47-1.77-5.5-4.19-11.75-6.95-16.84-.38-.71-.9-1.71-1.26-2.32-.21-.35-.97-1.02-1.14-1.28-3.38-5.09-6.58-10.42-10.86-15.15-.76-.84-1.53-1.72-2.32-2.53-3.56-3.65-7.87-7.42-12-10.53-1.34-1.01-3.03-2.25-4.42-3.16-3.67-2.4-8.88-5.29-12.84-7.16-1.45-.68-3.32-1.55-4.84-2.11-4.68-1.71-11.96-3.78-16.84-4.63-.96-.17-2.19-.32-3.16-.42-5.94-.62-13.04-.68-18.95,0-1.03.12-2.14.25-3.16.42-4.79.81-12.28,2.94-16.84,4.63-1.09.41-2.46,1.18-3.58,1.68-5.03,2.29-10.85,5.36-15.37,8.42-1.03.7-2.19,1.58-3.16,2.32-4.06,3.1-8.48,6.93-12,10.53-.92.94-1.87,1.96-2.74,2.95-3.43,3.88-6.21,8.21-8.96,12.41-.6.91-1.59,1.99-2.2,2.96-.58.93-1.16,1.98-1.68,2.95-2.01,3.69-3.75,7.83-5.15,11.8-.48,1.35-.63,3.19-1.59,4.2.1.97-.43,1.81-.63,2.74-1.35,6.25-2.02,12.59-2.11,18.95,0,.7,0,1.41,0,2.11-.07,6.34.77,12.79,2.11,18.95.2.92.73,1.77.63,2.74.99,1.05,1.98,5.43,2.64,7.15,1.09,2.86,2.51,6.21,3.89,8.85.36.69,1.46,2.48,1.89,3.16,3.07,4.75,7.4,10.86,11.16,15.16.81.93,1.78,1.74,2.53,2.74.96,0,.85.75,1.26,1.16,3.15,3.21,7.59,7.06,11.16,9.79,1.27.97,2.79,1.67,4,2.74.42-.03,5.83,3.5,6.81,4.04,2.2,1.21,5.04,2.73,7.3,3.75,1.22.55,2.53,1.01,3.79,1.47,4.91,1.81,11.72,3.93,16.84,4.84,1.29.23,3.13.51,4.42.63.78.07,2.37.21,3.05.21h10.32c.69,0,2.26-.14,3.05-.21,1.42-.13,3.01-.38,4.42-.63,5.18-.93,11.88-3.03,16.84-4.84,1.58-.58,3.09-1.24,4.63-1.89,2-1.49,5.97-3.04,8.35-4.39,1.08-.61,3.75-2.68,4.7-2.77,1.25-1.09,2.68-1.95,4-2.95,4.29-3.24,8.69-6.94,12.42-10.74.92-.94,1.86-1.97,2.74-2.95,2.2-2.46,4.06-5.16,5.91-7.89,1.4-2.07,2.68-4.09,4.13-6.03.08-.1.44-.12.49-.19Z" fill="#c76d3d"/>
    <path d="M212.99,563.84c-3.56-3.65-7.87-7.42-12-10.53-1.34-1.01-3.03-2.25-4.42-3.16-3.67-2.4-8.88-5.29-12.84-7.16-1.45-.68-3.32-1.55-4.84-2.11-4.68-1.71-11.96-3.78-16.84-4.63-.96-.17-2.19-.32-3.16-.42-5.94-.62-13.04-.68-18.95,0-1.03.12-2.14.25-3.16.42-4.79.81-12.28,2.94-16.84,4.63-1.09.41-2.46,1.18-3.58,1.68-5.03,2.29-10.85,5.36-15.37,8.42-1.03.7-2.19,1.58-3.16,2.32-4.06,3.1-8.48,6.93-12,10.53-.92.94-1.87,1.96-2.74,2.95-.04.05-.08.1-.12.14h132.83c-.16-.19-.32-.38-.49-.56-.76-.84-1.53-1.72-2.32-2.53Z" fill="#c76d3d"/>
  </g>
</svg>