<svg xmlns="http://www.w3.org/2000/svg" viewBox="0 0 566.93 566.93">
  <g id="zone-1" data-color-id="OR007">
    <path d="M283.4-.02h0S-.07-.03-.07-.03v283.46h283.46V-.02ZM0,283.41V.05h283.35C283.35,156.54,156.48,283.41,0,283.41Z" fill="#ebb398"/>
    <path d="M563.18-.02h-279.78v283.43C283.42,128.08,408.35,1.94,563.18-.02Z" fill="#ebb398"/>
    <path d="M283.4,283.44h0s0-.02,0-.03V-.02h0v283.46Z" fill="#ebb398"/>
    <path d="M283.4,283.44h0s-283.46,0-283.46,0v283.46h279.26C124.62,564.69-.01,438.7-.01,283.6h283.35v283.31h.06v-283.46h0Z" fill="#ebb398"/>
  </g>
  <g id="zone-2" data-color-id="RD001">
    <path d="M0,.05v283.36C156.48,283.41,283.35,156.54,283.35.05H0Z" fill="#822a27"/>
    <path d="M283.34,566.96v-.05h-4.14c1.38.02,2.76.05,4.14.05Z" fill="#822a27"/>
    <path d="M-.01,283.6C-.01,438.7,124.62,564.69,279.2,566.9h4.14v-283.31H-.01Z" fill="#822a27"/>
  </g>
  <g id="zone-3" data-color-id="BL018">
    <path d="M566.86-.02h-3.68c-154.83,1.96-279.76,128.1-279.78,283.43,0,.01,0,.02,0,.03h0s0,0,0,0v283.46h0s283.46,0,283.46,0v-283.46h0V-.02Z" fill="#5060aa"/>
  </g>
</svg>