<svg xmlns="http://www.w3.org/2000/svg" viewBox="0 0 566.93 566.93">
  <g id="zone-1" data-color-id="OR007">
    <path d="M0,.03C78.28.03,141.72,63.51,141.72,141.79S80.76,281.03,4.6,283.43c-1.52.04-3.08.08-4.6.08v283.43h.05v-283.36h283.35c0,156.43-126.76,283.26-283.16,283.36h566.69v-.02c-156.52-.02-283.42-126.92-283.42-283.48h137.46c-76.33-2.23-137.52-64.8-137.52-141.67S346.91.04,425.19.04s141.73,63.46,141.73,141.73-61.19,139.44-137.52,141.67h137.53V.01H0v.02Z" fill="#ebb398"/>
  </g>
  <g id="zone-2" data-color-id="RD001">
    <path d="M283.4,283.58H.05v283.36h.19c156.4-.1,283.16-126.93,283.16-283.36Z" fill="#822a27"/>
    <path d="M141.72,141.79C141.72,63.51,78.28.03,0,.03v283.48c1.52,0,3.08-.04,4.6-.08,76.16-2.4,137.12-64.92,137.12-141.64Z" fill="#822a27"/>
  </g>
  <g id="zone-3" data-color-id="BL018">
    <path d="M566.92,141.78C566.92,63.5,503.46.04,425.19.04s-141.73,63.46-141.73,141.73,61.19,139.44,137.52,141.67h-137.46c0,156.56,126.9,283.46,283.42,283.48v-283.48h-137.53c76.33-2.23,137.52-64.8,137.52-141.67Z" fill="#5060aa"/>
  </g>
</svg>