<?xml version="1.0" encoding="UTF-8"?>
<svg id="Calque_1" data-name="Calque 1" xmlns="http://www.w3.org/2000/svg" width="200mm" height="200mm" viewBox="0 0 566.93 566.93">
  <path d="M283.4-.04H3.58c154.88,1.96,279.82,128.12,279.82,283.46h-.01s.02,0,.02,0v283.45h.02v-.04c0-78.28,63.44-141.72,141.72-141.72s141.72,63.44,141.72,141.72V.05h-283.47V-.04Z" fill="#efccbd"/>
  <path d="M425.15,425.11c-78.28,0-141.72,63.44-141.72,141.72v.04h283.44v-.04c0-78.28-63.44-141.72-141.72-141.72Z" fill="#a54325"/>
  <path d="M283.25,274.55C278.61,123.31,155.51,1.88,3.58-.04H-.06v283.46h0v283.46h283.46v-292.32h-.16Z" fill="#1f0aea"/>
</svg>