<?xml version="1.0" encoding="UTF-8"?>
<svg id="Calque_1" xmlns="http://www.w3.org/2000/svg" version="1.1" viewBox="0 0 566.9 566.9">
  <!-- Generator: Adobe Illustrator 29.8.5, SVG Export Plug-In . SVG Version: 2.1.1 Build 2)  -->
  <defs>
    <style>
      .st0 {
        fill: #f7c995;
      }

      .st1 {
        fill: #f8b05d;
      }

      .st2 {
        fill: none;
      }

      .st3 {
        fill: #f08d80;
      }

      .st4 {
        fill: #d37046;
      }
    </style>
  </defs>
  <path class="st2" d="M227.8,566c0-1.1,0-2.2,0-3.2,0,1.1,0,2.1,0,3.2Z"/>
  <path class="st2" d="M.4,227.5c.3,0,.5,0,.8,0H.3s0,0,0,0Z"/>
  <path class="st2" d="M1.2,227.5c1.1,0,2.2,0,3.2,0-1.1,0-2.1,0-3.2,0Z"/>
  <path class="st2" d="M59.5,249.2h0c-1,1.3-2,2.7-3,4,1-1.4,2-2.7,3-4Z"/>
  <path class="st2" d="M308.8,547.9c-5.1-3.2-10.6-6.7-16.2-10.3,5.6,3.6,11.1,7.1,16.2,10.3h0Z"/>
  <path class="st2" d="M431.9,184.4c.7-1.3,4.3-8.1,8.4-13.9-4.2,5.8-7.7,12.6-8.4,13.9Z"/>
  <path class="st2" d="M165.5,444.4c.4-.4.9-.9,1.4-1.3-.5.4-.9.9-1.4,1.3Z"/>
  <path class="st2" d="M441.6,168.9c.4-.5.9-1.1,1.3-1.6-.4.5-.9,1-1.3,1.6Z"/>
  <path class="st2" d="M182.8,432.5c0,0,0,0,.1,0,0,0,0,0-.1,0Z"/>
  <path class="st2" d="M249.5,507.7h0c.9.7,1.8,1.3,2.7,2-.9-.7-1.8-1.4-2.7-2Z"/>
  <path class="st2" d="M244.8,503.3c1.6,1.5,3.1,3,4.7,4.4-1.6-1.4-3.2-2.9-4.7-4.4Z"/>
  <path class="st2" d="M279.9,529.3c2.8,1.9,5.7,3.8,8.5,5.6-2.8-1.9-5.7-3.7-8.5-5.6Z"/>
  <path class="st2" d="M444.5,53.8c-1.3-.3-2.2-.5-2.8-.7.6.1,1.5.4,2.8.7Z"/>
  <path class="st2" d="M244.7,63.5c1.6-1.5,3.1-3,4.7-4.4-1.6,1.4-3.2,2.9-4.7,4.4Z"/>
  <path class="st2" d="M174,437.8c.2-.1.4-.3.7-.4-.2.1-.4.3-.7.4Z"/>
  <path class="st2" d="M54.2,444.2c-.3-1.3-.5-2.2-.7-2.8.1.6.4,1.5.7,2.8Z"/>
  <path class="st2" d="M227.7,4c0-1.1,0-2.1,0-3.2,0,1.1,0,2.2,0,3.2Z"/>
  <path class="st2" d="M63.9,244.5c-1.5,1.6-3,3.1-4.4,4.7,1.4-1.6,2.9-3.2,4.4-4.7Z"/>
  <path class="st2" d="M563.2,227.5c1.1,0,2.1,0,3.2,0-1.1,0-2.2,0-3.2,0Z"/>
  <path class="st2" d="M443.5,166.5c.4-.5.9-.9,1.3-1.4-.4.4-.9.9-1.3,1.4Z"/>
  <path class="st2" d="M492.5,233.3c1.9,1.8,3.8,3.7,5.7,5.5-1.9-1.9-3.8-3.7-5.7-5.5Z"/>
  <path class="st2" d="M508.1,249.2c-1.4-1.6-2.9-3.2-4.4-4.7,1.5,1.6,3,3.1,4.4,4.7h0Z"/>
  <path class="st0" d="M454.4,0h0c0,1.1,0,2.1,0,3.2-.2,17.9-3.7,34.9-9.9,50.7-21.3,53.8-74.5,91.7-136.3,91.1-26.5-.3-82.8-4.8-106.9-6.3-4.3-.3-8.2-.8-11.8-1.6,0,0-3.2-.9-4.7-1.5,1-1.4,1.9-2.7,2.9-4.1-1,1.3-1.9,2.7-2.9,4-1.1-.7-17.3-8.9-21.4-15.5,0,0,0,0,0,0,0,0,0,0,0,0-8.4-10.2-13.4-23.8-13.3-38.7.1-9.5,2.3-18.5,6.2-26.3C132.1,50.3,113.7,27.5,113.2,0h0S.2,0,.2,0v113c0,0,.1,0,.2,0h0c27.6.5,50.4,18.9,54.9,43.1,7.8-3.9,16.8-6.1,26.3-6.2,14.9-.2,28.4,4.9,38.7,13.3,0,0,0,0,0,0,0,0,0,0,0,0,6.6,4.1,14.9,20.3,15.5,21.4-1.4,1-2.7,1.9-4,2.9,1.4-1,2.7-1.9,4.1-2.9.6,1.5,1.5,4.6,1.5,4.7.8,3.6,1.4,7.5,1.6,11.8,1.5,24.1,6,80.4,6.3,106.9.7,61.9-37.2,115.1-91.1,136.3-15.7,6.2-32.8,9.7-50.7,9.9-1.1,0-2.1,0-3.2,0h0c0,0-.1,0-.2,0v112.7h113.1c.4-27.6,18.9-50.4,43.1-54.9-3.9-7.8-6.1-16.8-6.2-26.3-.2-14.9,4.9-28.4,13.3-38.7,0,0,0,0,0,0,0,0,0,0,0,0,.5-.8,1.2-1.7,2.1-2.5.4-.4.9-.9,1.4-1.3,2.1-1.8,4.6-3.7,7.1-5.3.2-.1.4-.3.7-.4,3.1-2,6.2-3.7,8.1-4.8,0,0,0,0,.1,0,.9-.5,1.5-.8,1.8-1,0,0,.1,0,.1,0,0,0,0,0,0,0,1.5-.6,4.6-1.5,4.7-1.5,3.6-.8,7.5-1.4,11.8-1.6,24.1-1.5,80.4-6,106.9-6.3,61.9-.7,115.1,37.2,136.3,91.1-1.3.3-2.2.5-2.8.7.6-.1,1.5-.4,2.8-.7,6.2,15.7,9.7,32.8,9.9,50.7,0,1.1,0,2.1,0,3.2h0s112.7,0,112.7,0v-112.7c-1,0-2,0-3,0-17.9-.2-34.9-3.7-50.7-9.9.3-1.3.5-2.2.7-2.8-.1.6-.4,1.5-.7,2.8-53.8-21.3-91.7-74.5-91.1-136.3.3-26.5,4.8-82.8,6.3-106.9.3-4.3.8-8.2,1.6-11.8,0,0,.9-3.2,1.5-4.7,0,0,0,0,0,0,0,0,0,0,0-.1.7-1.3,4.3-8.1,8.4-13.9.4-.6.8-1.1,1.3-1.7.4-.5.9-1.1,1.3-1.6.2-.3.4-.5.6-.7.4-.5.9-.9,1.3-1.4.9-.8,1.7-1.5,2.5-2.1,0,0,0,0,0,0,0,0,0,0,0,0,10.2-8.4,23.8-13.4,38.7-13.3,9.5.1,18.5,2.3,26.3,6.2,4.4-24.2,27.2-42.5,54.7-43V0h-112.7ZM283.7,317.3c-23.5,0-42.5-19-42.5-42.5s19-42.5,42.5-42.5,42.5,19,42.5,42.5-19,42.5-42.5,42.5Z"/>
  <path class="st4" d="M1.2,227.5c1.1,0,2.2,0,3.2,0,47.7,0,52.2,13.4,55.1,21.7,1.4-1.6,2.9-3.2,4.4-4.7,1.8-1.9,3.7-3.8,5.5-5.6,1.9-1.9,3.8-3.7,5.7-5.5.2-.2.4-.4.6-.6s.4-.4.6-.6c.4-.3.7-.7,1.1-1s.7-.7,1.1-1c.7-.7,1.4-1.3,2.1-2,.9-.8,1.8-1.6,2.6-2.4.6-.5,1.1-1,1.7-1.5.6-.5,1.2-1,1.7-1.5.9-.8,1.8-1.6,2.7-2.3,0,0,0,0,0,0,1.5-1.3,2.9-2.5,4.4-3.8.4-.3.7-.6,1.1-.9.6-.5,1.1-1,1.7-1.4.6-.5,1.1-1,1.7-1.4.2-.2.4-.3.6-.5.2-.2.4-.3.6-.5.6-.5,1.1-.9,1.7-1.4.6-.5,1.1-.9,1.7-1.4,0,0,.1-.1.2-.2,0,0,.1-.1.2-.2,2.9-2.3,5.9-4.6,8.8-6.9.2-.2.4-.3.6-.5.7-.5,1.4-1,2-1.6.7-.5,1.4-1,2-1.6.2-.1.3-.3.5-.4.2-.1.3-.3.5-.4,1.2-.9,2.5-1.9,3.7-2.8.3-.2.5-.4.8-.6,1.3-1,2.6-1.9,4-2.9.2-.1.3-.2.5-.4,1.4-1,2.9-2.1,4.3-3.1.2-.2.5-.4.7-.5,1.3-1,2.7-1.9,4-2.9-.7-1.1-8.9-17.3-15.5-21.4,0,0,0,0,0,0,0,0,0,0,0,0-10.2-8.4-23.8-13.4-38.7-13.3-9.5.1-18.5,2.3-26.3,6.2-4.5-24.2-27.3-42.6-54.9-43.1h0c0,0-.1,0-.2,0v114.6c0,0,.1,0,.2,0h.8Z"/>
  <path class="st3" d="M.4,454.1c1.1,0,2.1,0,3.2,0,17.9-.2,34.9-3.7,50.7-9.9-.3-1.3-.5-2.2-.7-2.8.1.6.4,1.5.7,2.8,53.8-21.3,91.7-74.5,91.1-136.3-.3-26.5-4.8-82.8-6.3-106.9-.3-4.3-.8-8.2-1.6-11.8,0,0-.9-3.2-1.5-4.7-1.4,1-2.7,1.9-4.1,2.9-.2.2-.5.4-.7.5-1.4,1-2.9,2.1-4.3,3.1-.2.1-.3.2-.5.4-1.3,1-2.6,1.9-4,2.9-.3.2-.5.4-.8.6-1.2.9-2.5,1.8-3.7,2.8-.2.1-.3.3-.5.4-.2.1-.3.3-.5.4-.7.5-1.4,1-2,1.6-.7.5-1.4,1-2,1.6-.2.2-.4.3-.6.5-3,2.3-5.9,4.6-8.8,6.9,0,0-.1.1-.2.2,0,0-.1.1-.2.2-.6.5-1.1.9-1.7,1.4-.6.5-1.1.9-1.7,1.4-.2.2-.4.3-.6.5-.2.2-.4.3-.6.5-.6.5-1.1,1-1.7,1.4-.6.5-1.1.9-1.7,1.4-.4.3-.7.6-1.1.9-1.5,1.2-3,2.5-4.4,3.8,0,0,0,0,0,0-.9.8-1.8,1.5-2.7,2.3-.6.5-1.2,1-1.7,1.5-.6.5-1.1,1-1.7,1.5-.9.8-1.8,1.6-2.6,2.4-.7.6-1.4,1.3-2.1,2-.4.3-.7.7-1.1,1s-.7.7-1.1,1c-.2.2-.4.4-.6.6s-.4.4-.6.6c-1.9,1.8-3.8,3.7-5.7,5.5-1.9,1.9-3.7,3.7-5.5,5.6-1.5,1.6-3,3.1-4.4,4.7h0c-1,1.3-2,2.7-3,4-1,1.4-2,2.8-3.1,4.2-.7.9-1.4,1.9-2.1,2.9-.9,1.3-1.8,2.6-2.8,3.9-1.3,1.8-2.6,3.7-3.9,5.6-1.3,1.9-2.6,3.8-3.9,5.6-7.7,11.4-15.2,23-21.6,33.2-.6.9-1.2,1.9-1.8,2.8-9,14.4-15.6,25.5-17.1,28.1h0c0,0-.1-.2-.2-.3v115c0,0,.1,0,.2,0h0Z"/>
  <path class="st1" d="M.4,339.4c1.5-2.5,8.1-13.6,17.1-28.1.6-.9,1.2-1.9,1.8-2.8,6.4-10.2,13.9-21.8,21.6-33.2,1.3-1.9,2.6-3.8,3.9-5.6,1.3-1.9,2.6-3.7,3.9-5.6.9-1.3,1.8-2.6,2.8-3.9.7-1,1.4-1.9,2.1-2.9,1-1.4,2.1-2.8,3.1-4.2s2-2.7,3-4c-2.9-8.3-7.4-21.6-55.1-21.7-1.1,0-2.1,0-3.2,0-.3,0-.5,0-.8,0h0c0,0-.1,0-.2,0v111.7c0,0,.1.2.2.3h0Z"/>
  <path class="st4" d="M512.4,156c-7.8-3.9-16.8-6.1-26.3-6.2-14.9-.2-28.4,4.9-38.7,13.3,0,0,0,0,0,0,0,0,0,0,0,0-.8.5-1.7,1.2-2.5,2.1-.4.4-.9.9-1.3,1.4-.2.2-.4.5-.6.7-.4.5-.9,1-1.3,1.6-.4.5-.8,1.1-1.3,1.7-4.2,5.8-7.7,12.6-8.4,13.9,0,0,0,.1,0,.1,1.4,1,2.7,1.9,4,2.9.2.2.5.4.7.5,1.4,1,2.9,2.1,4.3,3.1.2.1.3.2.5.4,1.3,1,2.6,1.9,4,2.9.3.2.5.4.8.6,1.2.9,2.5,1.8,3.7,2.8.3.3.7.5,1,.8,1.4,1,2.7,2.1,4.1,3.1.2.2.4.3.6.5,3,2.3,5.9,4.6,8.8,6.9.1.1.3.2.4.3,1.1.9,2.3,1.8,3.4,2.7.4.3.8.6,1.2,1,1.2.9,2.3,1.9,3.4,2.9.4.3.7.6,1.1.9,1.5,1.2,3,2.5,4.4,3.8,0,0,0,0,0,0,.9.8,1.8,1.5,2.7,2.3.6.5,1.2,1,1.7,1.5.6.5,1.1,1,1.7,1.5.9.8,1.8,1.6,2.6,2.4.7.6,1.4,1.3,2.1,2,.7.7,1.4,1.3,2.2,2,.4.4.8.7,1.2,1.1,1.9,1.8,3.8,3.7,5.7,5.5s3.7,3.7,5.5,5.6c1.5,1.6,3,3.1,4.4,4.7,2.9-8.3,7.4-21.6,55.1-21.7,1.1,0,2.1,0,3.2,0,.2,0,.4,0,.7,0v-114.6c-27.5.5-50.3,18.9-54.7,43Z"/>
  <path class="st3" d="M548.4,308.5c-11.6-18.5-26.6-41.6-40.3-59.4-1.4-1.6-2.9-3.2-4.4-4.7-1.8-1.9-3.7-3.8-5.5-5.6-1.9-1.9-3.8-3.7-5.7-5.5-.4-.4-.8-.7-1.2-1.1-.7-.7-1.4-1.3-2.2-2-.7-.7-1.4-1.3-2.1-2-.9-.8-1.8-1.6-2.6-2.4-.6-.5-1.1-1-1.7-1.5-.6-.5-1.2-1-1.7-1.5-.9-.8-1.8-1.6-2.7-2.3,0,0,0,0,0,0-1.5-1.3-2.9-2.5-4.4-3.8-.4-.3-.7-.6-1.1-.9-1.1-1-2.3-1.9-3.4-2.9-.4-.3-.8-.6-1.2-1-1.1-.9-2.2-1.8-3.4-2.7-.1-.1-.3-.2-.4-.3-2.9-2.3-5.9-4.6-8.8-6.9-.2-.2-.4-.3-.6-.5-1.4-1-2.7-2.1-4.1-3.1-.3-.3-.7-.5-1-.8-1.2-.9-2.5-1.9-3.7-2.8-.3-.2-.5-.4-.8-.6-1.3-1-2.6-1.9-4-2.9-.2-.1-.3-.2-.5-.4-1.4-1-2.9-2.1-4.3-3.1-.2-.2-.5-.4-.7-.5-1.3-1-2.7-1.9-4-2.9,0,0,0,0,0,0-.6,1.5-1.5,4.6-1.5,4.7-.8,3.6-1.4,7.5-1.6,11.8-1.5,24.1-6,80.4-6.3,106.9-.7,61.9,37.2,115.1,91.1,136.3.3-1.3.5-2.2.7-2.8-.1.6-.4,1.5-.7,2.8,15.7,6.2,32.8,9.7,50.7,9.9,1,0,2,0,3,0v-115c-1.8-2.9-8.2-13.8-17-27.8-.6-.9-1.2-1.8-1.7-2.8Z"/>
  <path class="st3" d="M431.8,184.5s0,0,0,0c0,0,0,0,0,0h0Z"/>
  <path class="st3" d="M435.9,187.4c-1.3-1-2.7-1.9-4-2.9h0c1.4,1,2.7,1.9,4,2.9Z"/>
  <path class="st3" d="M498.2,238.8c1.9,1.9,3.7,3.7,5.5,5.6-1.8-1.9-3.7-3.8-5.5-5.6Z"/>
  <path class="st1" d="M563.2,227.5c-47.7,0-52.2,13.4-55.1,21.7h0c13.6,17.8,28.7,40.9,40.3,59.4.6.9,1.2,1.9,1.7,2.8,8.8,14,15.2,24.9,17,27.8v-111.7c-.2,0-.4,0-.7,0-1.1,0-2.2,0-3.2,0Z"/>
  <path class="st4" d="M227.8,562.8c0-47.7,13.4-52.2,21.7-55.1-1.6-1.4-3.2-2.9-4.7-4.4-3.8-3.6-7.5-7.4-11.2-11.2-.2-.2-.4-.4-.6-.6-.2-.2-.4-.4-.6-.6-.3-.4-.7-.7-1-1.1s-.7-.7-1-1.1c-.7-.7-1.3-1.4-2-2.1-.8-.9-1.6-1.8-2.4-2.6-.5-.6-1-1.1-1.5-1.7-.5-.6-1-1.2-1.5-1.7-.8-.9-1.6-1.8-2.3-2.7,0,0,0,0,0,0-1.3-1.5-2.5-2.9-3.8-4.4-.3-.4-.6-.7-.9-1.1-.5-.6-1-1.1-1.4-1.7-.5-.6-1-1.1-1.4-1.7-.2-.2-.3-.4-.5-.6-.2-.2-.3-.4-.5-.6-.5-.6-.9-1.1-1.4-1.7-.5-.6-.9-1.1-1.4-1.7,0,0-.1-.1-.2-.2s-.1-.1-.2-.2c-2.3-2.9-4.6-5.9-6.9-8.8-.2-.2-.3-.4-.5-.6-.5-.7-1-1.4-1.6-2-.5-.7-1-1.4-1.6-2-.1-.2-.3-.3-.4-.5-.1-.2-.3-.3-.4-.5-.9-1.2-1.9-2.5-2.8-3.7-.2-.3-.4-.5-.6-.8-1-1.3-1.9-2.6-2.9-4-.1-.2-.2-.3-.4-.5-1-1.4-2.1-2.9-3.1-4.3-.2-.2-.4-.5-.5-.7-1-1.3-1.9-2.7-2.9-4,0,0,0,0-.1,0-.3.2-.9.5-1.8,1,0,0,0,0-.1,0-1.9,1.1-5,2.8-8.1,4.8-.2.1-.4.3-.7.4-2.5,1.7-5.1,3.5-7.1,5.3-.5.4-.9.9-1.4,1.3-.8.9-1.5,1.7-2.1,2.5,0,0,0,0,0,0,0,0,0,0,0,0-8.4,10.2-13.4,23.8-13.3,38.7.1,9.5,2.3,18.5,6.2,26.3-24.2,4.5-42.6,27.3-43.1,54.9h0s114.5,0,114.5,0v-.8c0-1.1,0-2.2,0-3.2Z"/>
  <path class="st4" d="M182.9,432.5c.9-.5,1.5-.8,1.8-1-.3.2-.9.5-1.8,1Z"/>
  <path class="st4" d="M166.8,443.1c2.1-1.8,4.6-3.7,7.1-5.3-2.5,1.7-5.1,3.5-7.1,5.3Z"/>
  <path class="st4" d="M174.6,437.3c3.1-2,6.2-3.7,8.1-4.8-1.9,1.1-5,2.8-8.1,4.8Z"/>
  <path class="st3" d="M454.4,563.6c-.2-17.9-3.7-34.9-9.9-50.7-1.3.3-2.2.5-2.8.7.6-.1,1.5-.4,2.8-.7-21.3-53.8-74.5-91.7-136.3-91.1-26.5.3-82.8,4.8-106.9,6.3-4.3.3-8.2.8-11.8,1.6,0,0-3.2.9-4.7,1.5,0,0,0,0,0,0,1,1.4,1.9,2.7,2.9,4,.2.2.4.5.5.7,1,1.4,2.1,2.9,3.1,4.3.1.2.2.3.4.5,1,1.3,1.9,2.6,2.9,4,.2.3.4.5.6.8.9,1.2,1.8,2.5,2.8,3.7.1.2.3.3.4.5.1.2.3.3.4.5.5.7,1,1.4,1.6,2,.5.7,1,1.4,1.6,2,.2.2.3.4.5.6,2.3,3,4.6,5.9,6.9,8.8,0,0,.1.1.2.2s.1.1.2.2c.5.6.9,1.1,1.4,1.7.5.6.9,1.1,1.4,1.7.2.2.3.4.5.6.2.2.3.4.5.6.5.6,1,1.1,1.4,1.7.5.6.9,1.1,1.4,1.7.3.4.6.7.9,1.1,1.2,1.5,2.5,3,3.8,4.4,0,0,0,0,0,0,.8.9,1.5,1.8,2.3,2.7.5.6,1,1.2,1.5,1.7.5.6,1,1.1,1.5,1.7.8.9,1.6,1.8,2.4,2.6.6.7,1.3,1.4,2,2.1.3.4.7.7,1,1.1s.7.7,1,1.1c.2.2.4.4.6.6.2.2.4.4.6.6,1.8,1.9,3.7,3.8,5.5,5.7,1.9,1.9,3.7,3.7,5.6,5.5,1.6,1.5,3.1,3,4.7,4.4h0c.9.7,1.8,1.3,2.7,2,2.7,2,5.5,4.1,8.4,6.2,1.3.9,2.6,1.8,3.9,2.8,1.8,1.3,3.7,2.6,5.6,3.9,1.9,1.3,3.8,2.6,5.6,3.9s2.8,1.9,4.3,2.9c2.8,1.9,5.7,3.8,8.5,5.6,1.4.9,2.8,1.8,4.2,2.8,5.6,3.6,11.1,7.1,16.2,10.3h0c.9.6,1.9,1.2,2.8,1.8,14.4,9,25.5,15.6,28.1,17.1h0s114.7,0,114.7,0h0c0-1.1,0-2.1,0-3.2Z"/>
  <path class="st3" d="M184.8,431.4s0,0,0,0h0s0,0,0,0Z"/>
  <path class="st3" d="M244.8,503.3c-1.9-1.8-3.8-3.7-5.6-5.5-1.9-1.9-3.7-3.8-5.5-5.7,3.6,3.8,7.4,7.6,11.2,11.2Z"/>
  <path class="st3" d="M184.9,431.4h0c1,1.4,1.9,2.7,2.9,4-1-1.3-1.9-2.7-2.9-4Z"/>
  <path class="st1" d="M311.6,549.7c-.9-.6-1.9-1.2-2.8-1.8-5.1-3.2-10.6-6.7-16.2-10.3-1.4-.9-2.8-1.8-4.2-2.8-2.8-1.9-5.7-3.7-8.5-5.6-1.4-1-2.8-1.9-4.3-2.9s-3.8-2.6-5.6-3.9c-1.9-1.3-3.7-2.6-5.6-3.9-1.3-.9-2.6-1.8-3.9-2.8-2.9-2.1-5.7-4.1-8.4-6.2-.9-.7-1.8-1.4-2.7-2-8.3,2.9-21.6,7.4-21.7,55.1,0,1.1,0,2.1,0,3.2,0,.3,0,.5,0,.8h0s111.9,0,111.9,0h0c-2.5-1.5-13.6-8.1-28.1-17.1Z"/>
  <path class="st4" d="M156.3,54.8c-3.9,7.8-6.1,16.8-6.2,26.3-.2,14.9,4.9,28.4,13.3,38.7,0,0,0,0,0,0,0,0,0,0,0,0,4.1,6.6,20.3,14.9,21.4,15.5,1-1.4,1.9-2.7,2.9-4,.2-.2.4-.5.5-.7,1-1.4,2.1-2.9,3.1-4.3.1-.2.2-.3.4-.5,1-1.3,1.9-2.6,2.9-4,.2-.3.4-.5.6-.8.9-1.2,1.8-2.5,2.8-3.7.3-.3.5-.7.8-1,1-1.4,2.1-2.7,3.1-4.1.2-.2.3-.4.5-.6,2.3-3,4.6-5.9,6.9-8.8.1-.1.2-.3.3-.4.9-1.1,1.8-2.3,2.7-3.4.3-.4.6-.8,1-1.2.9-1.2,1.9-2.3,2.9-3.4.3-.4.6-.7.9-1.1,1.2-1.5,2.5-3,3.8-4.4,0,0,0,0,0,0,.8-.9,1.5-1.8,2.3-2.7.5-.6,1-1.2,1.5-1.7.5-.6,1-1.1,1.5-1.7.8-.9,1.6-1.8,2.4-2.6.6-.7,1.3-1.4,2-2.1.7-.7,1.3-1.4,2-2.2.4-.4.7-.8,1.1-1.2,3.6-3.8,7.4-7.6,11.2-11.2,1.6-1.5,3.1-3,4.7-4.4-8.3-2.9-21.6-7.4-21.7-55.1,0-1.1,0-2.1,0-3.2,0-.3,0-.5,0-.8h0s-114.5,0-114.5,0h0c.4,27.6,18.9,50.4,43.1,54.9Z"/>
  <path class="st3" d="M311.6,17c-.9.6-1.8,1.2-2.8,1.7-18.5,11.6-41.6,26.6-59.4,40.3-1.6,1.4-3.2,2.9-4.7,4.4-3.8,3.6-7.5,7.4-11.2,11.2-.4.4-.7.8-1.1,1.2-.7.7-1.3,1.4-2,2.2-.7.7-1.3,1.4-2,2.1-.8.9-1.6,1.8-2.4,2.6-.5.6-1,1.1-1.5,1.7-.5.6-1,1.2-1.5,1.7-.8.9-1.6,1.8-2.3,2.7,0,0,0,0,0,0-1.3,1.5-2.5,2.9-3.8,4.4-.3.4-.6.7-.9,1.1-1,1.1-1.9,2.3-2.9,3.4-.3.4-.6.8-1,1.2-.9,1.1-1.8,2.2-2.7,3.4-.1.1-.2.3-.3.4-2.3,2.9-4.6,5.9-6.9,8.8-.2.2-.3.4-.5.6-1,1.4-2.1,2.7-3.1,4.1-.3.3-.5.7-.8,1-.9,1.2-1.9,2.5-2.8,3.7-.2.3-.4.5-.6.8-1,1.3-1.9,2.6-2.9,4-.1.2-.2.3-.4.5-1,1.4-2.1,2.9-3.1,4.3-.2.2-.4.5-.5.7-1,1.4-1.9,2.7-2.9,4.1,1.5.6,4.6,1.5,4.7,1.5,3.6.8,7.5,1.4,11.8,1.6,24.1,1.5,80.4,6,106.9,6.3,61.9.7,115.1-37.2,136.3-91.1-1.3-.3-2.2-.5-2.8-.7.6.1,1.5.4,2.8.7,6.2-15.7,9.7-32.8,9.9-50.7,0-1.1,0-2.1,0-3.2h0s-114.7,0-114.7,0h0c-2.5,1.5-13.6,8.1-28.1,17.1Z"/>
  <path class="st3" d="M244.7,63.5c-3.8,3.6-7.5,7.4-11.2,11.2,3.6-3.8,7.4-7.6,11.2-11.2Z"/>
  <path class="st1" d="M227.7,4c0,47.7,13.4,52.2,21.7,55.1,17.8-13.6,40.9-28.7,59.4-40.3.9-.6,1.9-1.2,2.8-1.7,14.4-9,25.5-15.6,28.1-17.1h0s-111.9,0-111.9,0h0c0,.3,0,.6,0,.8,0,1.1,0,2.2,0,3.2Z"/>
  <circle class="st1" cx="283.7" cy="274.8" r="42.5" transform="translate(-40.4 49) rotate(-9.2)"/>
</svg>