<?xml version="1.0" encoding="UTF-8"?>
<svg id="Calque_1" xmlns="http://www.w3.org/2000/svg" version="1.1" viewBox="0 0 566.9 566.9">
  <!-- Generator: Adobe Illustrator 29.8.5, SVG Export Plug-In . SVG Version: 2.1.1 Build 2)  -->
  <defs>
    <style>
      .st0 {
        fill: #f7c995;
      }

      .st1 {
        fill: #f8b05d;
      }

      .st2 {
        fill: none;
      }

      .st3 {
        fill: #f08d80;
      }

      .st4 {
        fill: #d37046;
      }
    </style>
  </defs>
  <path class="st2" d="M398,441.4c.5.4,1.1.9,1.6,1.3-.5-.4-1-.9-1.6-1.3Z"/>
  <path class="st2" d="M.8,227.6c1.1,0,2.2,0,3.2,0-1.1,0-2.1,0-3.2,0Z"/>
  <path class="st2" d="M382.4,431.7c1.3.7,8.1,4.3,13.9,8.4-5.8-4.2-12.6-7.7-13.9-8.4Z"/>
  <path class="st2" d="M339.4,563c0,1.1,0,2.1,0,3.2,0-1.1,0-2.2,0-3.2Z"/>
  <path class="st2" d="M400.3,443.4c.5.4.9.9,1.4,1.3-.4-.4-.9-.9-1.4-1.3Z"/>
  <path class="st2" d="M317.6,507.9c1.6-1.4,3.2-2.9,4.7-4.4-1.6,1.5-3.1,3-4.7,4.4h0Z"/>
  <path class="st2" d="M18.9,308.6c3.2-5.1,6.7-10.6,10.3-16.2-3.6,5.6-7.1,11.1-10.3,16.2h0Z"/>
  <path class="st2" d="M134.3,182.6c0,0,0,0,0,.1,0,0,0,0,0-.1Z"/>
  <path class="st2" d="M122.4,165.3c.4.4.9.9,1.3,1.4-.4-.5-.9-.9-1.3-1.4Z"/>
  <path class="st2" d="M63.6,244.6c-1.5,1.6-3,3.1-4.4,4.7,1.4-1.6,2.9-3.2,4.4-4.7Z"/>
  <path class="st2" d="M37.6,279.7c-1.9,2.8-3.8,5.7-5.6,8.5,1.9-2.8,3.7-5.7,5.6-8.5Z"/>
  <path class="st2" d="M59.2,249.3h0c-.7.9-1.3,1.8-2,2.7.7-.9,1.4-1.8,2-2.7Z"/>
  <path class="st2" d="M129.1,173.8c.1.2.2.4.4.6-.1-.2-.2-.4-.4-.6Z"/>
  <path class="st2" d="M317.6,59.3h0c-1.3-1-2.7-2-4-3,1.4,1,2.7,2,4,3Z"/>
  <path class="st2" d="M339.3.2c0,.3,0,.5,0,.8V.2s0,0,0,0Z"/>
  <path class="st2" d="M562.9,227.6c1.1,0,2.1,0,3.2,0-1.1,0-2.2,0-3.2,0Z"/>
  <path class="st2" d="M513.1,444.3c.3-1.3.5-2.2.7-2.8-.1.6-.4,1.5-.7,2.8Z"/>
  <path class="st2" d="M322.4,63.7c-1.6-1.5-3.1-3-4.7-4.4,1.6,1.4,3.2,2.9,4.7,4.4Z"/>
  <path class="st2" d="M122.6,54c1.3-.3,2.2-.5,2.8-.7-.6.1-1.5.4-2.8.7Z"/>
  <path class="st2" d="M339.3,1c0,1.1,0,2.2,0,3.2,0-1.1,0-2.1,0-3.2Z"/>
  <path class="st2" d="M503.4,244.5c1.5,1.6,3,3.1,4.4,4.7-1.4-1.6-2.9-3.2-4.4-4.7Z"/>
  <path class="st3" d="M453.9,0c0,0,0,.1,0,.2h0c-.4,27.6-18.9,50.5-43.1,54.9,3.9,7.8,6.1,16.8,6.2,26.3.2,14.9-4.9,28.4-13.3,38.7,0,0,0,0,0,0,0,0,0,0,0,0-4.1,6.6-20.3,14.9-21.4,15.5-1-1.4-1.9-2.7-2.9-4,1,1.4,1.9,2.7,2.9,4.1-1.5.6-4.6,1.5-4.7,1.5-3.6.8-7.5,1.4-11.8,1.6-24.1,1.5-80.4,6-106.9,6.3-61.9.7-115.1-37.2-136.3-91.1-6.2-15.7-9.7-32.8-9.9-50.7,0-1.1,0-2.1,0-3.2h0c0,0,0-.1,0-.2H0v113h0c27.6.5,50.4,18.9,54.9,43.1,7.8-3.9,16.8-6.1,26.3-6.2,14.9-.2,28.4,4.9,38.7,13.3,0,0,0,0,0,0,0,0,0,0,0,0,.8.5,1.7,1.2,2.5,2.1.4.4.9.9,1.3,1.4,1.8,2.1,3.7,4.6,5.3,7.1.1.2.2.4.4.6,2,3.2,3.8,6.3,4.9,8.2,0,0,0,0,0,.1.5.9.8,1.5,1,1.8,0,0,0,.1,0,.1,0,0,0,0,0,0,.6,1.5,1.5,4.6,1.5,4.7.8,3.6,1.4,7.5,1.6,11.8,1.5,24.1,6,80.4,6.3,106.9.7,61.9-37.2,115.1-91.1,136.3-.3-1.3-.5-2.2-.7-2.8.1.6.4,1.5.7,2.8-15.7,6.2-32.8,9.7-50.7,9.9-1.1,0-2.1,0-3.2,0h0s0,112.7,0,112.7h112.7c0-1,0-2,0-3,.2-17.9,3.7-34.9,9.9-50.7,1.3.3,2.2.5,2.8.7-.6-.1-1.5-.4-2.8-.7,21.3-53.8,74.5-91.7,136.3-91.1,26.5.3,82.8,4.8,106.9,6.3,4.3.3,8.2.8,11.8,1.6,0,0,3.2.9,4.7,1.5,0,0,0,0,0,0,0,0,0,0,.1,0,1.3.7,8.1,4.3,13.9,8.4.6.4,1.1.8,1.7,1.3.5.4,1.1.9,1.6,1.3.3.2.5.4.7.6.5.4.9.9,1.4,1.3.8.9,1.5,1.7,2.1,2.5,0,0,0,0,0,0,0,0,0,0,0,0,8.4,10.2,13.4,23.8,13.3,38.7-.1,9.5-2.3,18.5-6.2,26.3,24.2,4.4,42.5,27.2,43,54.7h113v-112.7h0c-1.1,0-2.1,0-3.2,0-17.9-.2-34.9-3.7-50.7-9.9-53.8-21.3-91.7-74.5-91.1-136.3.3-26.5,4.8-82.8,6.3-106.9.3-4.3.8-8.2,1.6-11.8,0,0,.9-3.2,1.5-4.7,1.4,1,2.7,1.9,4.1,2.9-1.3-1-2.7-1.9-4-2.9.7-1.1,8.9-17.3,15.5-21.4,0,0,0,0,0,0,0,0,0,0,0,0,10.2-8.4,23.8-13.4,38.7-13.3,9.5.1,18.5,2.3,26.3,6.2,4.5-24.2,27.3-42.6,54.9-43.1h0S566.9,0,566.9,0h-113ZM283.7,339.3l-55.8-55.8,55.8-55.8,55.8,55.8-55.8,55.8Z"/>
  <path class="st4" d="M339.3,1c0,1.1,0,2.2,0,3.2,0,47.7-13.4,52.2-21.7,55.1,1.6,1.4,3.2,2.9,4.7,4.4,3.8,3.6,7.5,7.4,11.2,11.2.2.2.4.4.6.6s.4.4.6.6c.3.4.7.7,1,1.1s.7.7,1,1.1c.7.7,1.3,1.4,2,2.1.8.9,1.6,1.8,2.4,2.6.5.6,1,1.1,1.5,1.7.5.6,1,1.2,1.5,1.7.8.9,1.6,1.8,2.3,2.7,0,0,0,0,0,0,1.3,1.5,2.5,2.9,3.8,4.4.3.4.6.7.9,1.1.5.6,1,1.1,1.4,1.7.5.6,1,1.1,1.4,1.7.2.2.3.4.5.6.2.2.3.4.5.6.5.6.9,1.1,1.4,1.7.5.6.9,1.1,1.4,1.7,0,0,.1.1.2.2,0,0,.1.1.2.2,2.3,2.9,4.6,5.9,6.9,8.8.2.2.3.4.5.6.5.7,1,1.4,1.6,2,.5.7,1,1.4,1.6,2,.1.2.3.3.4.5.1.2.3.3.4.5.9,1.2,1.9,2.5,2.8,3.7.2.3.4.5.6.8,1,1.3,1.9,2.6,2.9,4,.1.2.2.3.4.5,1,1.4,2.1,2.9,3.1,4.3.2.2.4.5.5.7,1,1.3,1.9,2.7,2.9,4,1.1-.7,17.3-8.9,21.4-15.5,0,0,0,0,0,0,0,0,0,0,0,0,8.4-10.2,13.4-23.8,13.3-38.7-.1-9.5-2.3-18.5-6.2-26.3,24.2-4.5,42.6-27.3,43.1-54.9h0c0,0,0-.1,0-.2h-114.6c0,0,0,.1,0,.2v.8Z"/>
  <path class="st0" d="M112.7.2c0,1.1,0,2.1,0,3.2.2,17.9,3.7,34.9,9.9,50.7,1.3-.3,2.2-.5,2.8-.7-.6.1-1.5.4-2.8.7,21.3,53.8,74.5,91.7,136.3,91.1,26.5-.3,82.8-4.8,106.9-6.3,4.3-.3,8.2-.8,11.8-1.6,0,0,3.2-.9,4.7-1.5-1-1.4-1.9-2.7-2.9-4.1-.2-.2-.4-.5-.5-.7-1-1.4-2.1-2.9-3.1-4.3-.1-.2-.2-.3-.4-.5-1-1.3-1.9-2.6-2.9-4-.2-.3-.4-.5-.6-.8-.9-1.2-1.8-2.5-2.8-3.7-.1-.2-.3-.3-.4-.5-.1-.2-.3-.3-.4-.5-.5-.7-1-1.4-1.6-2-.5-.7-1-1.4-1.6-2-.2-.2-.3-.4-.5-.6-2.3-3-4.6-5.9-6.9-8.8,0,0-.1-.1-.2-.2,0,0-.1-.1-.2-.2-.5-.6-.9-1.1-1.4-1.7-.5-.6-.9-1.1-1.4-1.7-.2-.2-.3-.4-.5-.6-.2-.2-.3-.4-.5-.6-.5-.6-1-1.1-1.4-1.7-.5-.6-.9-1.1-1.4-1.7-.3-.4-.6-.7-.9-1.1-1.2-1.5-2.5-3-3.8-4.4,0,0,0,0,0,0-.8-.9-1.5-1.8-2.3-2.7-.5-.6-1-1.2-1.5-1.7-.5-.6-1-1.1-1.5-1.7-.8-.9-1.6-1.8-2.4-2.6-.6-.7-1.3-1.4-2-2.1-.3-.4-.7-.7-1-1.1s-.7-.7-1-1.1c-.2-.2-.4-.4-.6-.6s-.4-.4-.6-.6c-1.8-1.9-3.7-3.8-5.5-5.7-1.9-1.9-3.7-3.7-5.6-5.5-1.6-1.5-3.1-3-4.7-4.4h0c-1.3-1-2.7-2-4-3-1.4-1-2.8-2-4.2-3.1-.9-.7-1.9-1.4-2.9-2.1-1.3-.9-2.6-1.8-3.9-2.8-1.8-1.3-3.7-2.6-5.6-3.9-1.9-1.3-3.8-2.6-5.6-3.9-11.4-7.7-23-15.2-33.2-21.6-.9-.6-1.9-1.2-2.8-1.8-14.4-9-25.5-15.6-28.1-17.1h0c0,0,.2-.1.3-.2h-115c0,0,0,.1,0,.2h0Z"/>
  <path class="st0" d="M322.4,63.7c1.9,1.8,3.8,3.7,5.6,5.5,1.9,1.9,3.7,3.8,5.5,5.7-3.6-3.8-7.4-7.6-11.2-11.2Z"/>
  <path class="st1" d="M227.4.2c2.5,1.5,13.6,8.1,28.1,17.1.9.6,1.9,1.2,2.8,1.8,10.2,6.4,21.8,13.9,33.2,21.6,1.9,1.3,3.8,2.6,5.6,3.9,1.9,1.3,3.7,2.6,5.6,3.9,1.3.9,2.6,1.8,3.9,2.8,1,.7,1.9,1.4,2.9,2.1,1.4,1,2.8,2.1,4.2,3.1s2.7,2,4,3c8.3-2.9,21.6-7.4,21.7-55.1,0-1.1,0-2.1,0-3.2,0-.3,0-.5,0-.8h0c0,0,0-.1,0-.2h-111.7c0,0-.2.1-.3.2h0Z"/>
  <path class="st4" d="M410.9,512.2c3.9-7.8,6.1-16.8,6.2-26.3.2-14.9-4.9-28.4-13.3-38.7,0,0,0,0,0,0,0,0,0,0,0,0-.5-.8-1.2-1.7-2.1-2.5-.4-.4-.9-.9-1.4-1.3-.2-.2-.5-.4-.7-.6-.5-.4-1-.9-1.6-1.3-.5-.4-1.1-.8-1.7-1.3-5.8-4.2-12.6-7.7-13.9-8.4,0,0-.1,0-.1,0-1,1.4-1.9,2.7-2.9,4-.2.2-.4.5-.5.7-1,1.4-2.1,2.9-3.1,4.3-.1.2-.2.3-.4.5-1,1.3-1.9,2.6-2.9,4-.2.3-.4.5-.6.8-.9,1.2-1.8,2.5-2.8,3.7-.3.3-.5.7-.8,1-1,1.4-2.1,2.7-3.1,4.1-.2.2-.3.4-.5.6-2.3,3-4.6,5.9-6.9,8.8-.1.1-.2.3-.3.4-.9,1.1-1.8,2.3-2.7,3.4-.3.4-.6.8-1,1.2-.9,1.2-1.9,2.3-2.9,3.4-.3.4-.6.7-.9,1.1-1.2,1.5-2.5,3-3.8,4.4,0,0,0,0,0,0-.8.9-1.5,1.8-2.3,2.7-.5.6-1,1.2-1.5,1.7-.5.6-1,1.1-1.5,1.7-.8.9-1.6,1.8-2.4,2.6-.6.7-1.3,1.4-2,2.1-.7.7-1.3,1.4-2,2.2-.4.4-.7.8-1.1,1.2-3.6,3.8-7.4,7.6-11.2,11.2-1.6,1.5-3.1,3-4.7,4.4,8.3,2.9,21.6,7.4,21.7,55.1,0,1.1,0,2.1,0,3.2,0,.2,0,.4,0,.7h114.6c-.5-27.5-18.9-50.3-43-54.7Z"/>
  <path class="st0" d="M258.3,548.2c18.5-11.6,41.6-26.6,59.4-40.3,1.6-1.4,3.2-2.9,4.7-4.4,3.8-3.6,7.5-7.4,11.2-11.2.4-.4.7-.8,1.1-1.2.7-.7,1.3-1.4,2-2.2.7-.7,1.3-1.4,2-2.1.8-.9,1.6-1.8,2.4-2.6.5-.6,1-1.1,1.5-1.7.5-.6,1-1.2,1.5-1.7.8-.9,1.6-1.8,2.3-2.7,0,0,0,0,0,0,1.3-1.5,2.5-2.9,3.8-4.4.3-.4.6-.7.9-1.1,1-1.1,1.9-2.3,2.9-3.4.3-.4.6-.8,1-1.2.9-1.1,1.8-2.2,2.7-3.4.1-.1.2-.3.3-.4,2.3-2.9,4.6-5.9,6.9-8.8.2-.2.3-.4.5-.6,1-1.4,2.1-2.7,3.1-4.1.3-.3.5-.7.8-1,.9-1.2,1.9-2.5,2.8-3.7.2-.3.4-.5.6-.8,1-1.3,1.9-2.6,2.9-4,.1-.2.2-.3.4-.5,1-1.4,2.1-2.9,3.1-4.3.2-.2.4-.5.5-.7,1-1.3,1.9-2.7,2.9-4,0,0,0,0,0,0-1.5-.6-4.6-1.5-4.7-1.5-3.6-.8-7.5-1.4-11.8-1.6-24.1-1.5-80.4-6-106.9-6.3-61.9-.7-115.1,37.2-136.3,91.1,1.3.3,2.2.5,2.8.7-.6-.1-1.5-.4-2.8-.7-6.2,15.7-9.7,32.8-9.9,50.7,0,1,0,2,0,3h115c2.9-1.8,13.8-8.2,27.8-17,.9-.6,1.8-1.2,2.8-1.7Z"/>
  <path class="st0" d="M382.3,431.7s0,0,0,0c0,0,0,0,0,0h0Z"/>
  <path class="st0" d="M322.4,503.5c3.8-3.6,7.5-7.4,11.2-11.2-3.6,3.8-7.4,7.6-11.2,11.2Z"/>
  <path class="st0" d="M379.4,435.7c1-1.3,1.9-2.7,2.9-4h0c-1,1.4-1.9,2.7-2.9,4Z"/>
  <path class="st1" d="M339.4,563c0-47.7-13.4-52.2-21.7-55.1h0c-17.8,13.6-40.9,28.7-59.4,40.3-.9.6-1.9,1.2-2.8,1.7-14,8.8-24.9,15.2-27.8,17h111.7c0-.2,0-.4,0-.7,0-1.1,0-2.2,0-3.2Z"/>
  <path class="st4" d="M4.1,227.6c47.7,0,52.2,13.4,55.1,21.7,1.4-1.6,2.9-3.2,4.4-4.7,3.6-3.8,7.4-7.5,11.2-11.2.2-.2.4-.4.6-.6.2-.2.4-.4.6-.6.4-.3.7-.7,1.1-1s.7-.7,1.1-1c.7-.7,1.4-1.3,2.1-2,.9-.8,1.8-1.6,2.6-2.4.6-.5,1.1-1,1.7-1.5.6-.5,1.2-1,1.7-1.5.9-.8,1.8-1.6,2.7-2.3,0,0,0,0,0,0,1.5-1.3,2.9-2.5,4.4-3.8.4-.3.7-.6,1.1-.9.6-.5,1.1-1,1.7-1.4.6-.5,1.1-1,1.7-1.4.2-.2.4-.3.6-.5.2-.2.4-.3.6-.5.6-.5,1.1-.9,1.7-1.4.6-.5,1.1-.9,1.7-1.4,0,0,.1-.1.2-.2s.1-.1.2-.2c2.9-2.3,5.9-4.6,8.8-6.9.2-.2.4-.3.6-.5.7-.5,1.4-1,2-1.6.7-.5,1.4-1,2-1.6.2-.1.3-.3.5-.4.2-.1.3-.3.5-.4,1.2-.9,2.5-1.9,3.7-2.8.3-.2.5-.4.8-.6,1.3-1,2.6-1.9,4-2.9.2-.1.3-.2.5-.4,1.4-1,2.9-2.1,4.3-3.1.2-.2.5-.4.7-.5,1.3-1,2.7-1.9,4-2.9,0,0,0,0,0-.1-.2-.3-.5-.9-1-1.8,0,0,0,0,0-.1-1.1-2-2.8-5.1-4.9-8.2-.1-.2-.2-.4-.4-.6-1.7-2.5-3.5-5.1-5.3-7.1-.4-.5-.9-.9-1.3-1.4-.9-.8-1.7-1.5-2.5-2.1,0,0,0,0,0,0,0,0,0,0,0,0-10.2-8.4-23.8-13.4-38.7-13.3-9.5.1-18.5,2.3-26.3,6.2C50.4,131.9,27.6,113.5,0,113.1H0S0,227.6,0,227.6h.8c1.1,0,2.2,0,3.2,0Z"/>
  <path class="st4" d="M123.7,166.6c1.8,2.1,3.7,4.6,5.3,7.1-1.7-2.5-3.5-5.1-5.3-7.1Z"/>
  <path class="st4" d="M129.4,174.4c2,3.2,3.8,6.3,4.9,8.2-1.1-2-2.8-5.1-4.9-8.2Z"/>
  <path class="st4" d="M134.4,182.7c.5.9.8,1.5,1,1.8-.2-.3-.5-.9-1-1.8Z"/>
  <path class="st0" d="M3.2,454.2c17.9-.2,34.9-3.7,50.7-9.9-.3-1.3-.5-2.2-.7-2.8.1.6.4,1.5.7,2.8,53.8-21.3,91.7-74.5,91.1-136.3-.3-26.5-4.8-82.8-6.3-106.9-.3-4.3-.8-8.2-1.6-11.8,0,0-.9-3.2-1.5-4.7,0,0,0,0,0,0-1.4,1-2.7,1.9-4,2.9-.2.2-.5.4-.7.5-1.4,1-2.9,2.1-4.3,3.1-.2.1-.3.2-.5.4-1.3,1-2.6,1.9-4,2.9-.3.2-.5.4-.8.6-1.2.9-2.5,1.8-3.7,2.8-.2.1-.3.3-.5.4-.2.1-.3.3-.5.4-.7.5-1.4,1-2,1.6-.7.5-1.4,1-2,1.6-.2.2-.4.3-.6.5-3,2.3-5.9,4.6-8.8,6.9,0,0-.1.1-.2.2s-.1.1-.2.2c-.6.5-1.1.9-1.7,1.4-.6.5-1.1.9-1.7,1.4-.2.2-.4.3-.6.5-.2.2-.4.3-.6.5-.6.5-1.1,1-1.7,1.4-.6.5-1.1.9-1.7,1.4-.4.3-.7.6-1.1.9-1.5,1.2-3,2.5-4.4,3.8,0,0,0,0,0,0-.9.8-1.8,1.5-2.7,2.3-.6.5-1.2,1-1.7,1.5-.6.5-1.1,1-1.7,1.5-.9.8-1.8,1.6-2.6,2.4-.7.6-1.4,1.3-2.1,2-.4.3-.7.7-1.1,1s-.7.7-1.1,1c-.2.2-.4.4-.6.6-.2.2-.4.4-.6.6-1.9,1.8-3.8,3.7-5.7,5.5-1.9,1.9-3.7,3.7-5.5,5.6-1.5,1.6-3,3.1-4.4,4.7h0c-.7.9-1.3,1.8-2,2.7-2,2.7-4.1,5.5-6.2,8.4-.9,1.3-1.8,2.6-2.8,3.9-1.3,1.8-2.6,3.7-3.9,5.6-1.3,1.9-2.6,3.8-3.9,5.6s-1.9,2.8-2.9,4.3c-1.9,2.8-3.8,5.7-5.6,8.5-.9,1.4-1.8,2.8-2.8,4.2-3.6,5.6-7.1,11.1-10.3,16.2h0c-.6.9-1.2,1.9-1.8,2.8C8.1,325.9,1.5,337,0,339.5h0s0,114.7,0,114.7h0c1.1,0,2.1,0,3.2,0Z"/>
  <path class="st0" d="M135.5,184.7s0,0,0,0h0s0,0,0,0Z"/>
  <path class="st0" d="M63.6,244.6c1.8-1.9,3.7-3.8,5.5-5.6,1.9-1.9,3.8-3.7,5.7-5.5-3.8,3.6-7.6,7.4-11.2,11.2Z"/>
  <path class="st0" d="M135.4,184.7h0c-1.4,1-2.7,1.9-4,2.9,1.3-1,2.7-1.9,4-2.9Z"/>
  <path class="st1" d="M17.1,311.4c.6-.9,1.2-1.9,1.8-2.8,3.2-5.1,6.7-10.6,10.3-16.2.9-1.4,1.8-2.8,2.8-4.2,1.9-2.8,3.7-5.7,5.6-8.5,1-1.4,1.9-2.8,2.9-4.3s2.6-3.8,3.9-5.6c1.3-1.9,2.6-3.7,3.9-5.6.9-1.3,1.8-2.6,2.8-3.9,2.1-2.9,4.1-5.7,6.2-8.4.7-.9,1.4-1.8,2-2.7-2.9-8.3-7.4-21.6-55.1-21.7-1.1,0-2.1,0-3.2,0-.3,0-.5,0-.8,0H0s0,111.9,0,111.9h0c1.5-2.5,8.1-13.6,17.1-28.1Z"/>
  <path class="st4" d="M512,156.1c-7.8-3.9-16.8-6.1-26.3-6.2-14.9-.2-28.4,4.9-38.7,13.3,0,0,0,0,0,0,0,0,0,0,0,0-6.6,4.1-14.9,20.3-15.5,21.4,1.4,1,2.7,1.9,4,2.9.2.2.5.4.7.5,1.4,1,2.9,2.1,4.3,3.1.2.1.3.2.5.4,1.3,1,2.6,1.9,4,2.9.3.2.5.4.8.6,1.2.9,2.5,1.8,3.7,2.8.3.3.7.5,1,.8,1.4,1,2.7,2.1,4.1,3.1.2.2.4.3.6.5,3,2.3,5.9,4.6,8.8,6.9.1.1.3.2.4.3,1.1.9,2.3,1.8,3.4,2.7.4.3.8.6,1.2,1,1.2.9,2.3,1.9,3.4,2.9.4.3.7.6,1.1.9,1.5,1.2,3,2.5,4.4,3.8,0,0,0,0,0,0,.9.8,1.8,1.5,2.7,2.3.6.5,1.2,1,1.7,1.5.6.5,1.1,1,1.7,1.5.9.8,1.8,1.6,2.6,2.4.7.6,1.4,1.3,2.1,2,.7.7,1.4,1.3,2.2,2,.4.4.8.7,1.2,1.1,3.8,3.6,7.6,7.4,11.2,11.2,1.5,1.6,3,3.1,4.4,4.7,2.9-8.3,7.4-21.6,55.1-21.7,1.1,0,2.1,0,3.2,0,.3,0,.5,0,.8,0h0s0-114.5,0-114.5h0c-27.6.4-50.4,18.8-54.9,43Z"/>
  <path class="st0" d="M549.8,311.4c-.6-.9-1.2-1.8-1.7-2.8-11.6-18.5-26.6-41.6-40.3-59.4-1.4-1.6-2.9-3.2-4.4-4.7-3.6-3.8-7.4-7.5-11.2-11.2-.4-.4-.8-.7-1.2-1.1-.7-.7-1.4-1.3-2.2-2-.7-.7-1.4-1.3-2.1-2-.9-.8-1.8-1.6-2.6-2.4-.6-.5-1.1-1-1.7-1.5-.6-.5-1.2-1-1.7-1.5-.9-.8-1.8-1.6-2.7-2.3,0,0,0,0,0,0-1.5-1.3-2.9-2.5-4.4-3.8-.4-.3-.7-.6-1.1-.9-1.1-1-2.3-1.9-3.4-2.9-.4-.3-.8-.6-1.2-1-1.1-.9-2.2-1.8-3.4-2.7-.1-.1-.3-.2-.4-.3-2.9-2.3-5.9-4.6-8.8-6.9-.2-.2-.4-.3-.6-.5-1.4-1-2.7-2.1-4.1-3.1-.3-.3-.7-.5-1-.8-1.2-.9-2.5-1.9-3.7-2.8-.3-.2-.5-.4-.8-.6-1.3-1-2.6-1.9-4-2.9-.2-.1-.3-.2-.5-.4-1.4-1-2.9-2.1-4.3-3.1-.2-.2-.5-.4-.7-.5-1.4-1-2.7-1.9-4.1-2.9-.6,1.5-1.5,4.6-1.5,4.7-.8,3.6-1.4,7.5-1.6,11.8-1.5,24.1-6,80.4-6.3,106.9-.7,61.9,37.2,115.1,91.1,136.3.3-1.3.5-2.2.7-2.8-.1.6-.4,1.5-.7,2.8,15.7,6.2,32.8,9.7,50.7,9.9,1.1,0,2.1,0,3.2,0h0s0-114.7,0-114.7h0c-1.5-2.5-8.1-13.6-17.1-28.1Z"/>
  <path class="st0" d="M503.4,244.5c-3.6-3.8-7.4-7.5-11.2-11.2,3.8,3.6,7.6,7.4,11.2,11.2Z"/>
  <path class="st1" d="M562.9,227.6c-47.7,0-52.2,13.4-55.1,21.7,13.6,17.8,28.7,40.9,40.3,59.4.6.9,1.2,1.9,1.7,2.8,9,14.4,15.6,25.5,17.1,28.1h0s0-111.9,0-111.9h0c-.3,0-.5,0-.8,0-1.1,0-2.2,0-3.2,0Z"/>
  <rect class="st0" x="244.3" y="244.1" width="78.9" height="78.9" transform="translate(-117.4 283.7) rotate(-45)"/>
</svg>